<svg width="50" height="50" viewBox="0 0 50 50" fill="none" xmlns="http://www.w3.org/2000/svg">
<path fill-rule="evenodd" clip-rule="evenodd" d="M8.96614 8.28987C8.19977 4.28267 11.3486 0.580566 15.5233 0.580566C19.2074 0.580566 22.1938 3.4968 22.1938 7.09416V15.1244C23.1153 15.0609 24.0517 15.0283 25 15.0283C25.9111 15.0283 26.8111 15.0584 27.6975 15.1171V7.09416C27.6975 3.4968 30.684 0.580566 34.368 0.580566C38.5427 0.580566 41.6915 4.28267 40.9252 8.28987L39.1201 17.729C45.3153 20.3701 50 24.9574 50 30.7217V34.209C50 38.9492 46.7885 42.918 42.2988 45.5971C37.774 48.2972 31.653 49.9023 25 49.9023C18.347 49.9023 12.2259 48.2972 7.70122 45.5971C3.21153 42.918 0 38.9492 0 34.209V30.7217C0 24.9879 4.63647 20.4184 10.7795 17.772L8.96614 8.28987ZM36.8067 18.9691L38.9192 7.92405C39.4509 5.14282 37.2656 2.57336 34.368 2.57336C31.8111 2.57336 29.7383 4.59739 29.7383 7.09416V17.3133C29.0683 17.2294 28.3876 17.1628 27.6975 17.1147C26.8127 17.0529 25.9126 17.0212 25 17.0212C24.0501 17.0212 23.1136 17.0556 22.1938 17.1225C21.5037 17.1727 20.8229 17.2411 20.1531 17.327V7.09416C20.1531 4.59739 18.0802 2.57336 15.5233 2.57336C12.6259 2.57336 10.4404 5.14282 10.9723 7.92405L13.0916 19.0058C6.46625 21.409 2.04082 25.7568 2.04082 30.7217V34.209C2.04082 41.7756 12.32 47.9095 25 47.9095C37.6799 47.9095 47.9592 41.7756 47.9592 34.209V30.7217C47.9592 25.7316 43.4884 21.3646 36.8067 18.9691Z" fill="#633001"/>
<path d="M47.9593 34.2093C47.9593 41.7758 37.6802 47.9098 25.0001 47.9098C12.3201 47.9098 2.04095 41.7758 2.04095 34.2093V30.7219H47.9593V34.2093Z" fill="#FEDC90"/>
<path fill-rule="evenodd" clip-rule="evenodd" d="M10.9724 7.92417C10.4405 5.14295 12.626 2.57349 15.5235 2.57349C18.0803 2.57349 20.1531 4.59751 20.1531 7.09428V17.3272C21.7156 17.1267 23.3373 17.0212 25.0001 17.0212C26.6244 17.0212 28.2095 17.1219 29.7384 17.3133V7.09428C29.7384 4.59751 31.8112 2.57349 34.3681 2.57349C37.2657 2.57349 39.4512 5.14295 38.9193 7.92417L36.807 18.9693C43.4885 21.3646 47.9593 25.7316 47.9593 30.7217C47.9593 38.2883 37.6802 44.4222 25.0001 44.4222C12.3201 44.4222 2.04095 38.2883 2.04095 30.7217C2.04095 25.757 6.46639 21.409 13.0917 19.0058L10.9724 7.92417Z" fill="#D1884F"/>
<path d="M18.6222 29.7252C18.6222 31.7889 17.48 33.4616 16.0711 33.4616C14.6623 33.4616 13.5201 31.7889 13.5201 29.7252C13.5201 27.6615 14.6623 25.9888 16.0711 25.9888C17.48 25.9888 18.6222 27.6615 18.6222 29.7252Z" fill="#633001"/>
<path d="M36.2247 29.7252C36.2247 31.7889 35.0825 33.4616 33.6736 33.4616C32.2648 33.4616 31.1227 31.7889 31.1227 29.7252C31.1227 27.6615 32.2648 25.9888 33.6736 25.9888C35.0825 25.9888 36.2247 27.6615 36.2247 29.7252Z" fill="#633001"/>
</svg>
