<svg width="44" height="50" viewBox="0 0 44 50" fill="none" xmlns="http://www.w3.org/2000/svg">
<path d="M5.38183 10.8052C5.58936 11.068 5.82455 11.317 6.00441 11.5937C7.47092 13.7935 8.93745 16.0071 10.404 18.2207C10.9159 18.9955 11.5799 19.4382 12.5484 19.3137C13.6137 19.1754 13.7797 18.8157 13.1433 17.9441C10.4316 14.2778 7.74763 10.5976 5.02213 6.94518C3.32042 4.6624 1.59103 2.42113 0 0C0.235196 0.179856 0.511903 0.345839 0.719428 0.5672C5.61703 6.00437 10.5146 11.4554 15.4122 16.8926C16.3945 17.9855 16.353 19.1892 15.3154 20.2821C14.4438 21.2091 13.2955 21.4997 12.1057 21.6933C10.6668 21.9424 10.1688 22.3851 10.0857 23.7963C9.9889 25.7747 9.38015 27.5871 8.55005 29.358C7.40174 31.8621 7.78913 33.2733 9.98891 34.9196C10.5008 35.307 11.0404 35.6806 11.5108 36.1233C12.7006 37.2578 12.7559 39.0425 11.6214 40.2323C9.89205 42.0447 7.60928 42.6949 5.29883 43.1792C4.66241 42.0585 4.026 41.0209 3.45876 39.9418C1.93691 37.0502 1.81238 34.2832 4.05366 31.5992C5.64469 29.7038 7.22189 27.7531 7.69228 25.1936C7.8168 24.5572 7.81681 23.8931 8.02433 23.2844C8.34254 22.3713 8.68841 21.4305 9.21415 20.628C9.64303 19.9639 9.75371 19.452 9.38016 18.7741C7.96899 16.1731 6.59932 13.5583 5.21582 10.9435L5.38183 10.8052ZM4.42721 35.2102C4.45488 35.7774 4.45488 36.1371 4.51022 36.4968C4.55172 36.732 4.60707 37.0779 4.77309 37.1609C4.95294 37.2578 5.43718 37.1747 5.47869 37.0641C5.64471 36.6075 5.87989 36.0403 5.72771 35.639C5.50635 35.0303 4.92527 34.8505 4.42721 35.2102Z" fill="#FF007A"/>
<path d="M26.4803 19.7427C29.2749 21.8179 32.5815 21.5689 35.6114 22.316C38.8903 23.1322 41.602 24.6541 42.6534 28.1129C43.3314 30.3403 43.0962 32.4986 41.8925 34.5462C41.6435 32.3603 40.3015 31.0044 38.4891 30.1051C36.5384 29.1367 34.4908 28.3619 32.54 27.3935C31.1427 26.7017 29.7592 25.9408 28.514 25.0138C26.8538 23.7825 26.2727 21.984 26.4803 19.7427Z" fill="#FF007A"/>
<path d="M37.2163 17.003C38.669 18.6356 39.7067 20.4341 40.0664 22.6478C38.3508 19.9776 35.57 20.2681 33.0243 20.1436C29.0813 19.9499 25.9131 18.5111 23.6442 15.2321C22.8556 14.0838 21.9563 13.0047 21.057 11.9532C19.1616 9.75348 17.6813 8.85418 14.9696 8.13476L15.0388 7.84424C16.2009 8.14861 17.4876 8.25928 18.5114 8.82651C19.881 9.58744 21.1539 10.6251 22.2883 11.7181C22.9801 12.396 23.575 12.6173 24.502 12.4651C27.4765 12.0086 30.3403 12.4651 33.052 13.7656C34.9474 14.6788 35.3763 15.5919 35.0027 17.6671C34.9612 17.9023 34.9059 18.1375 34.8091 18.345C34.56 18.9261 34.2418 19.5625 35.0581 19.8946C35.819 20.1989 36.1787 19.5487 36.4416 19.023C36.7321 18.4281 36.9258 17.7501 37.2163 17.003Z" fill="#FF007A"/>
<path d="M36.6907 45.8492C38.0742 42.9853 37.0089 40.578 35.5009 38.2399C34.6569 36.9256 33.7853 35.6251 32.9829 34.2831C32.0559 32.7197 31.5579 31.0595 31.9591 29.2194C32.0006 29.0258 32.0974 28.8597 32.2219 28.5415C34.2834 29.8005 36.3448 30.9073 38.254 32.2631C40.9103 34.1447 41.7405 36.8702 41.1594 39.9969C40.6752 42.6671 39.2225 44.6593 36.6907 45.8492Z" fill="#FF007A"/>
<path d="M11.1511 42.5842C14.513 39.7757 17.9026 37.9079 22.1638 38.7518C24.6126 39.2361 26.2175 40.7579 26.7847 43.2344C27.0199 44.2582 27.1583 45.3097 27.3658 46.3335C27.8777 48.7269 28.9292 49.4464 31.3641 49.1143C31.5717 49.0866 31.793 49.1143 32.0836 49.1143C30.617 50.3041 28.5971 50.318 27.3243 49.0175C26.6049 48.2842 26.1068 47.3157 25.5811 46.4165C25.0554 45.5034 24.6818 44.4934 24.1146 43.6218C23.0908 42.0723 21.3199 41.422 19.8672 41.9339C18.7881 42.3075 18.207 43.3174 18.4145 44.4242C18.5944 45.3512 19.7012 46.3196 20.6558 46.1259C21.2092 46.0153 21.8318 45.5725 22.1223 45.0883C22.3437 44.7286 22.2883 43.8708 22.0116 43.6218C21.6104 43.2483 20.891 43.2067 20.3099 43.0546C20.1439 43.0131 19.9364 43.1099 19.632 43.1514C20.7527 42.3905 21.7488 42.4597 22.4682 43.2344C23.1323 43.9538 23.1323 45.3097 22.4682 46.1674C21.5966 47.2742 19.8949 47.4679 18.5805 46.5963C18.3315 46.4303 18.0825 46.2366 17.875 46.0014C16.1594 44.0784 14.1672 42.6118 11.1511 42.5842Z" fill="#FF007A"/>
<path d="M13.9598 9.22778C15.8829 9.58749 17.1834 10.3623 17.7368 12.0778C18.3732 14.0562 18.982 16.0346 19.6737 18.2206C19.1065 18.0684 18.4147 17.9992 17.8613 17.6948C15.5924 16.3943 14.6101 14.2222 14.1535 11.7734C14.0013 10.9848 14.029 10.1686 13.9598 9.22778Z" fill="#FF007A"/>
<path d="M19.1755 36.6905C20.559 35.5561 22.2054 35.3485 23.8241 35.0303C24.419 34.9058 25.0278 34.8228 25.6365 34.6983C29.1368 33.9235 30.6033 31.6684 29.8562 28.182C29.8285 28.016 29.7593 27.8638 29.704 27.6562C31.1429 28.6109 31.5164 32.0143 30.0499 33.5776C29.289 34.3939 28.3067 35.307 27.2829 35.5284C24.6265 36.1095 21.8872 36.3308 19.1755 36.6905Z" fill="#FF007A"/>
<path d="M17.4185 25.6777C15.9935 25.7331 15.5231 25.3733 15.4678 24.4049C15.3847 23.2151 16.3255 22.0391 17.46 21.9837C17.8612 21.9699 18.387 21.9699 18.636 22.1913C19.1756 22.7032 19.7981 23.2981 19.9641 23.9621C20.1578 24.7507 19.3416 25.152 18.6498 25.401C18.1518 25.5532 17.6399 25.6224 17.4185 25.6777ZM17.8059 24.142C18.2624 23.6993 18.5668 23.4087 18.8712 23.1044C18.5115 22.8415 18.1379 22.3711 17.7782 22.3711C17.4047 22.3711 17.0311 22.8415 16.6576 23.0906C16.9896 23.4088 17.3217 23.7131 17.8059 24.142Z" fill="#FF007A"/>
<path d="M38.2402 15.7441C37.7283 15.3706 37.2164 14.9971 36.5108 14.4713C36.3448 15.7303 36.2065 16.8094 36.0405 18.1653C35.8053 16.6296 35.9159 15.2323 35.3487 14.2223C34.7953 13.2262 33.5502 12.6174 32.6509 11.8704C33.398 12.0917 34.2557 12.3546 35.1412 12.6175C35.3072 11.566 35.4594 10.6114 35.5977 9.65674L35.8883 9.61523C35.1965 12.2716 36.7737 13.9594 38.5169 15.5781L38.2402 15.7441Z" fill="#FF007A"/>
</svg>
