<svg width="393" height="372" viewBox="0 0 393 372" fill="none" xmlns="http://www.w3.org/2000/svg">
<path d="M302.037 63.0719C313.642 51.4607 313.642 32.6351 302.037 21.0238C290.432 9.41249 271.617 9.41249 260.012 21.0238C248.408 32.6351 248.408 51.4607 260.012 63.0719C271.617 74.6832 290.432 74.6832 302.037 63.0719Z" fill="url(#paint0_linear)"/>
<path d="M312.52 44.9307C312.129 42.0356 311.347 39.2188 310.174 36.5585C309 33.8982 307.436 31.4727 305.638 29.2036C303.761 27.0127 301.571 25.0566 299.225 23.4917C296.801 21.9269 294.142 20.7532 291.405 19.8925C288.668 19.1101 285.775 18.7188 282.881 18.6406C281.474 18.7188 279.988 18.7188 278.58 18.9536C277.173 19.1883 275.765 19.423 274.357 19.8925C268.805 21.5356 263.8 24.8219 260.047 29.2036C261.845 26.9345 264.035 24.9001 266.381 23.257C268.805 21.6139 271.464 20.2837 274.201 19.423C275.609 18.9536 277.016 18.6406 278.502 18.4059C279.91 18.1711 281.396 18.1711 282.881 18.0146C285.775 18.0146 288.746 18.4059 291.562 19.2666C294.377 20.1272 297.036 21.3792 299.46 23.0223C301.884 24.6654 304.074 26.6215 305.951 28.8906C307.827 31.1597 309.313 33.7417 310.408 36.4021C311.581 39.1406 312.207 42.0356 312.52 44.9307Z" fill="url(#paint1_linear)"/>
<path d="M381 51.5914C375.486 44.9396 351.057 19.0131 282.748 26.2695C217.731 33.2236 195.14 64.668 192 72C199.199 67.0868 227.227 47.5096 285.964 41.3114C343.246 35.1888 373.189 47.8876 381 51.5914Z" fill="url(#paint2_linear)"/>
<path d="M289.15 85.8367C342.099 80.1462 383.941 65.4669 382.608 53.0495C381.275 40.632 337.271 35.1788 284.323 40.8693C231.374 46.5598 189.531 61.2392 190.864 73.6566C192.197 86.074 236.201 91.5272 289.15 85.8367Z" fill="url(#paint3_linear)"/>
<path d="M288.253 83.8982C307.315 81.8496 322.378 76.5649 321.899 72.0945C321.419 67.6242 305.577 65.661 286.515 67.7096C267.453 69.7582 252.389 75.0429 252.869 79.5133C253.349 83.9836 269.191 85.9469 288.253 83.8982Z" fill="#4199DB"/>
<path d="M195.005 77.9844C198.211 75.5588 201.496 73.2897 204.936 71.2554C208.377 69.221 211.896 67.2649 215.572 65.6218C222.844 62.179 230.352 59.4405 238.094 57.0932C245.757 54.7458 253.577 52.9462 261.476 51.4596C269.374 49.9729 277.351 48.8775 285.249 47.9386C293.225 47.1561 301.28 46.6084 309.257 46.452C317.311 46.2955 325.288 46.4519 333.342 47.0779C341.319 47.7039 349.295 48.721 357.194 50.3642C359.149 50.8336 361.104 51.2249 363.059 51.7726C365.014 52.3203 366.969 52.7897 368.846 53.4157C370.801 53.9634 372.599 54.7458 374.476 55.45L377.213 56.702C378.073 57.1714 378.934 57.7191 379.872 58.1886C376.353 56.2325 372.599 54.9023 368.767 53.8069C366.891 53.181 364.936 52.7897 362.981 52.3203C361.026 51.8508 359.071 51.5378 357.115 51.1466C349.295 49.7382 341.319 48.7993 333.342 48.3298C325.366 47.8603 317.389 47.7039 309.413 47.9386C301.436 48.1733 293.46 48.7993 285.562 49.5817C277.663 50.4424 269.687 51.4596 261.867 52.9462C254.047 54.3546 246.227 56.1542 238.563 58.3451C230.899 60.5359 223.314 63.1962 216.041 66.4042C212.365 67.9691 208.846 69.847 205.327 71.7249C201.652 73.5245 198.289 75.6371 195.005 77.9844Z" fill="url(#paint4_linear)"/>
<path opacity="0.3" d="M321.223 76.2634L376.502 229.5L251.502 310.5L255.847 83.3054C255.847 83.3054 256.707 77.3588 289.004 74.1508C320.206 71.0211 321.223 76.2634 321.223 76.2634Z" fill="url(#paint5_linear)"/>
<path d="M289.691 141.842C289.61 141.867 289.53 141.892 289.474 141.997C289.325 142.661 290.084 143.265 290.366 143.752C290.05 143.584 289.787 143.445 289.443 143.33C288.782 143.048 288.308 143.944 288.94 144.279C289.414 144.53 289.78 144.858 290.226 145.162C290.174 145.134 290.146 145.187 290.093 145.159C289.452 145.224 288.168 145.354 287.992 146.07C287.964 146.123 288.041 146.231 288.094 146.259C288.357 146.398 288.438 146.374 288.732 146.327C289.188 146.231 289.563 146.16 290.016 146.197C290.601 146.238 291.159 146.331 291.661 146.529C294.627 149.719 295.327 154.002 293.488 158.493C293.29 158.995 293.869 159.302 294.173 158.856C297.211 154.393 295.864 148.148 291.807 144.852C291.659 144.369 291.457 143.857 291.147 143.423C291.002 142.807 290.413 141.753 289.691 141.842Z" fill="#252423"/>
<path d="M293.481 220.529C290.426 218.108 287.893 215.271 285.983 211.83C285.673 211.252 284.78 211.731 285.09 212.309C286.846 215.967 289.229 219.155 292.445 221.625C292.34 221.682 292.235 221.738 292.158 221.847C291.98 222.145 291.805 222.577 291.655 222.928C291.48 223.359 291.306 223.791 291.531 224.211C291.7 224.527 292.103 224.649 292.418 224.48C292.839 224.255 292.933 223.799 293.027 223.343C293.096 222.967 293.166 222.592 293.207 222.164C293.232 222.083 293.203 222.031 293.175 221.978C293.68 221.911 294.082 221.019 293.481 220.529Z" fill="#252423"/>
<path d="M313.258 210.48C312.859 210.491 312.491 210.688 312.119 210.752C312.067 210.78 311.986 210.756 311.933 210.784C311.958 210.703 311.93 210.651 311.954 210.57C311.705 206.443 309.893 202.679 307.061 199.664C306.622 199.223 305.946 199.856 306.333 200.325C308.793 203.403 309.956 206.838 310.383 210.667C310.411 210.72 310.411 210.72 310.387 210.8C310.18 211.046 310.163 211.394 310.49 211.624C310.978 211.904 311.437 212.131 312.051 212.141C312.584 212.126 313.275 212.027 313.664 211.616C314 211.233 313.844 210.437 313.258 210.48Z" fill="#252423"/>
<path d="M242.873 123.305C241.602 120.932 242.498 117.97 244.871 116.699C247.244 115.429 250.206 116.325 251.477 118.698L269.05 151.516C270.321 153.889 269.425 156.85 267.051 158.121C264.678 159.392 261.717 158.496 260.446 156.123L242.873 123.305Z" fill="#C49A6C" stroke="#252423"/>
<path opacity="0.25" d="M266.495 158.916C266.797 158.825 267.015 158.708 267.287 158.562C269.904 157.161 270.892 153.896 269.491 151.28L251.918 118.462C251.742 118.135 251.513 117.837 251.312 117.593C248.891 124.993 250.178 135.387 255.491 145.308C258.497 150.923 262.361 155.518 266.495 158.916Z" fill="white"/>
<path d="M242.873 123.305C241.602 120.932 242.498 117.97 244.871 116.699C247.244 115.429 250.206 116.325 251.477 118.698L269.05 151.516C270.321 153.889 269.425 156.85 267.051 158.121C264.678 159.392 261.717 158.496 260.446 156.123L242.873 123.305Z" stroke="#252423"/>
<path d="M303.77 199.585L303.779 199.604L303.788 199.622C305.254 202.36 304.394 205.605 301.948 206.915L281.668 217.774C279.222 219.084 276.044 218.002 274.578 215.264L274.568 215.245L274.557 215.228L238.077 158.888C236.625 156.154 237.487 152.92 239.928 151.613L270.02 135.5C272.461 134.192 275.63 135.268 277.1 137.992L303.77 199.585Z" fill="#22B5D6" stroke="#252423"/>
<path d="M309.548 196.489L309.557 196.508L309.566 196.527C311.032 199.264 310.172 202.509 307.726 203.819L287.446 214.679C285 215.989 281.822 214.906 280.356 212.168L280.346 212.15L280.335 212.132L243.855 155.792C242.403 153.058 243.265 149.825 245.706 148.517L275.798 132.404C278.239 131.097 281.408 132.172 282.878 134.896L309.548 196.489Z" fill="url(#paint6_linear)" stroke="#252423"/>
<path d="M268.658 149.2C267.402 146.856 268.125 144.014 270.251 142.875C272.377 141.737 275.144 142.711 276.399 145.055L297.446 184.36C298.701 186.704 297.978 189.546 295.852 190.685C293.726 191.823 290.96 190.849 289.704 188.505L268.658 149.2Z" fill="url(#paint7_linear)"/>
<path d="M255.465 156.265C254.21 153.92 254.933 151.078 257.059 149.94C259.185 148.801 261.951 149.775 263.206 152.119L284.253 191.425C285.508 193.769 284.785 196.611 282.659 197.749C280.533 198.888 277.767 197.914 276.512 195.57L255.465 156.265Z" fill="url(#paint8_linear)"/>
<path d="M276.181 145.172L297.228 184.477C298.454 186.766 297.756 189.525 295.743 190.743C295.797 190.714 295.852 190.685 295.906 190.656C298.033 189.517 298.755 186.675 297.5 184.331L276.453 145.026C275.198 142.682 272.432 141.708 270.306 142.846C270.251 142.875 270.197 142.904 270.142 142.934C272.243 141.879 274.955 142.882 276.181 145.172Z" fill="#2BB6D5"/>
<path d="M262.988 152.236L284.035 191.541C285.261 193.831 284.563 196.589 282.55 197.808C282.605 197.778 282.659 197.749 282.714 197.72C284.84 196.582 285.563 193.739 284.307 191.395L263.261 152.09C262.006 149.746 259.239 148.772 257.113 149.911C257.059 149.94 257.004 149.969 256.95 149.998C259.05 148.943 261.762 149.946 262.988 152.236Z" fill="#2BB6D5"/>
<path d="M281.039 139.835C263.376 149.292 259.668 176.951 272.863 201.592L279.223 211.374C280.141 212.565 281.085 213.673 282.029 214.781C283.748 215.895 285.829 216.113 287.628 215.15L307.908 204.291C310.633 202.831 311.53 199.265 309.953 196.321L284.783 138.181C283.496 138.659 282.238 139.192 281.039 139.835Z" fill="url(#paint9_linear)" fill-opacity="0.1"/>
<path d="M288.522 151.19C270.914 160.619 267.253 187.972 280.167 212.482C280.797 213.267 281.399 213.997 282.084 214.753C283.803 215.867 285.884 216.085 287.683 215.122L307.962 204.263C310.688 202.803 311.584 199.237 310.008 196.293L290.161 150.453C289.587 150.69 289.013 150.928 288.522 151.19Z" fill="url(#paint10_linear)" fill-opacity="0.2"/>
<path d="M248.626 175.362C247.361 175.904 246.507 176.835 245.185 177.272C243.864 177.709 242.451 177.722 241.107 177.359C238.205 176.613 236.164 174.19 235.444 171.33C235.32 170.72 234.5 170.956 234.543 171.541C234.634 171.966 234.698 172.337 234.79 172.761C234.653 172.632 234.464 172.531 234.327 172.401C233.863 172.041 233.077 171.582 232.47 171.839C232.313 171.924 232.264 172.085 232.348 172.243C232.654 172.688 233.272 172.831 233.76 173.11C234.139 173.313 234.441 173.625 234.743 173.936C234.347 174.081 234.003 174.197 233.467 174.079C233.225 174.006 232.902 173.908 232.667 174.101C232.538 174.238 232.517 174.452 232.601 174.61C232.883 175.135 233.633 175.274 234.166 175.259C234.7 175.245 235.281 175.068 235.67 174.657C236.736 176.521 238.457 177.967 240.607 178.573C243.214 179.274 247.948 178.768 249.202 175.932C249.433 175.606 249.075 175.189 248.626 175.362Z" fill="#252423"/>
<path d="M265.237 166.207C263.809 165.849 262.235 166.12 261.367 167.35C260.328 168.514 260.296 170.362 261.158 171.675C261.537 172.214 262.152 172.648 262.832 172.912C263.736 173.36 264.771 173.468 265.782 172.881C268.461 171.276 268.315 167.107 265.237 166.207Z" fill="#252423"/>
<path d="M263.409 165.881C262.402 165.197 261.05 165.652 260.876 166.857C260.519 168.285 262.193 169.522 263.558 168.778C264.517 168.073 264.364 166.447 263.409 165.881Z" fill="#EFEFEF"/>
<path d="M280.503 171.765C278.77 171.174 277.077 171.465 276.494 173.156C275.698 174.742 276.265 177.357 277.668 179.267C278.272 180.051 279.11 180.702 279.967 181.116C281.136 181.804 282.343 182.017 283.296 181.245C285.805 179.13 284.281 173.22 280.503 171.765Z" fill="#252423"/>
<path d="M283.237 157.207C281.809 156.849 280.235 157.12 279.367 158.35C278.328 159.514 278.296 161.362 279.158 162.675C279.537 163.214 280.152 163.648 280.832 163.912C281.736 164.36 282.771 164.468 283.782 163.881C286.461 162.276 286.315 158.107 283.237 157.207Z" fill="#252423"/>
<path d="M281.409 156.881C280.402 156.197 279.05 156.652 278.876 157.857C278.519 159.285 280.193 160.522 281.558 159.778C282.517 159.073 282.364 157.447 281.409 156.881Z" fill="#EFEFEF"/>
<path opacity="0.3" d="M321.223 76.2634L339 234.5L289.004 285L255.847 83.3054C255.847 83.3054 256.707 77.3588 289.004 74.1508C320.206 71.0211 321.223 76.2634 321.223 76.2634Z" fill="url(#paint11_linear)"/>
<path d="M111.742 328.863H112.242V328.363V299.555V299.055H111.742H96.5195V213.227V212.727H96.0195H60.375H60.1112L59.9623 212.944L0.587289 299.761L0.5 299.888V300.043V328.363V328.863H1H57.4336V356V356.5H57.9336H96.0195H96.5195V356V328.863H111.742ZM58.2185 262.457C58.2141 262.495 58.2098 262.535 58.2054 262.576C58.1638 262.967 58.1185 263.515 58.0696 264.217C57.9715 265.622 57.8574 267.661 57.7272 270.331L57.7271 270.331L57.7269 270.337C57.5315 275.613 57.4336 279.819 57.4336 282.953V299.055H35.337L50.6337 276.298L50.6338 276.299L50.6395 276.29C53.3981 271.991 55.8727 267.38 58.0636 262.457H58.2185Z" fill="#F6F9FA" stroke="url(#paint12_linear)"/>
<path d="M222.011 340.668L222.012 340.667C230.567 328.755 234.801 310.105 234.801 284.809C234.801 260.351 230.434 241.87 221.624 229.443C212.858 216.922 199.869 210.676 182.738 210.676C165.165 210.676 152.041 216.651 143.464 228.659C134.91 240.635 130.676 259.383 130.676 284.809C130.676 309.073 135.011 327.455 143.755 339.882L143.756 339.883C152.522 352.274 165.545 358.453 182.738 358.453C200.309 358.453 213.433 352.544 222.011 340.668ZM192.419 317.663L192.417 317.667C191.456 320.742 190.158 322.997 188.551 324.48C186.956 325.953 185.028 326.691 182.738 326.691C180.479 326.691 178.565 325.976 176.968 324.548C175.361 323.111 174.049 320.928 173.056 317.951C171.067 311.983 170.055 300.958 170.055 284.809C170.055 268.529 171.067 257.406 173.057 251.371C174.049 248.362 175.363 246.154 176.97 244.701C178.567 243.258 180.48 242.535 182.738 242.535C184.99 242.535 186.901 243.286 188.499 244.792C190.108 246.308 191.424 248.614 192.418 251.756L192.418 251.758C194.41 257.991 195.422 268.988 195.422 284.809C195.422 300.564 194.41 311.495 192.419 317.663Z" fill="#F6F9FA" stroke="url(#paint13_linear)"/>
<path d="M355.703 344.242L356.178 344.396L356.333 343.921L365.252 316.528L365.407 316.052L364.932 315.898L350.457 311.185L377.03 229.574L377.185 229.098L376.709 228.943L342.816 217.908L342.565 217.826L342.356 217.987L259.02 282.154L258.897 282.249L258.849 282.396L250.081 309.325L249.926 309.8L250.402 309.955L304.062 327.427L295.661 353.23L295.506 353.706L295.981 353.861L332.196 365.652L332.671 365.807L332.826 365.332L341.228 339.529L355.703 344.242ZM325.369 264.527C325.353 264.562 325.337 264.598 325.32 264.635C325.159 264.995 324.946 265.502 324.682 266.154C324.154 267.46 323.414 269.363 322.464 271.862L322.464 271.862L322.462 271.867C320.642 276.824 319.247 280.793 318.277 283.773L313.291 299.083L292.281 292.242L313.871 275.34L313.871 275.34L313.88 275.333C317.833 272.1 321.614 268.482 325.221 264.479L325.369 264.527Z" fill="#F6F9FA" stroke="url(#paint14_linear)"/>
<defs>
<linearGradient id="paint0_linear" x1="260.012" y1="21.0238" x2="302.061" y2="63.0487" gradientUnits="userSpaceOnUse">
<stop stop-color="#91FFE8"/>
<stop offset="1" stop-color="#A4DEFF"/>
</linearGradient>
<linearGradient id="paint1_linear" x1="286.283" y1="18.0146" x2="286.283" y2="44.9307" gradientUnits="userSpaceOnUse">
<stop stop-color="#91FFE8"/>
<stop offset="1" stop-color="#A4DEFF"/>
</linearGradient>
<linearGradient id="paint2_linear" x1="192" y1="37.0825" x2="259.141" y2="151.746" gradientUnits="userSpaceOnUse">
<stop stop-color="#5AC9E5"/>
<stop offset="1" stop-color="#194ECA"/>
</linearGradient>
<linearGradient id="paint3_linear" x1="284.323" y1="40.8693" x2="289.155" y2="85.8361" gradientUnits="userSpaceOnUse">
<stop stop-color="#91FFE8"/>
<stop offset="1" stop-color="#A4DEFF"/>
</linearGradient>
<linearGradient id="paint4_linear" x1="195.005" y1="54.5162" x2="230.842" y2="143.587" gradientUnits="userSpaceOnUse">
<stop stop-color="#5AC9E5"/>
<stop offset="1" stop-color="#194ECA"/>
</linearGradient>
<linearGradient id="paint5_linear" x1="314.002" y1="73.1543" x2="314.002" y2="310.5" gradientUnits="userSpaceOnUse">
<stop stop-color="#91FFE8"/>
<stop offset="1" stop-color="#A4DEFF"/>
</linearGradient>
<linearGradient id="paint6_linear" x1="266.628" y1="199.38" x2="301.559" y2="131.517" gradientUnits="userSpaceOnUse">
<stop stop-color="#12D0FA"/>
<stop offset="0.634469" stop-color="#9DEDFF"/>
<stop offset="1" stop-color="white"/>
</linearGradient>
<linearGradient id="paint7_linear" x1="275.673" y1="173.641" x2="303.197" y2="175.234" gradientUnits="userSpaceOnUse">
<stop stop-color="#3CCEEE"/>
<stop offset="0.634469" stop-color="#9DEDFF"/>
<stop offset="1" stop-color="#E7FBFF"/>
</linearGradient>
<linearGradient id="paint8_linear" x1="262.48" y1="180.705" x2="290.005" y2="182.298" gradientUnits="userSpaceOnUse">
<stop stop-color="#3CCEEE"/>
<stop offset="0.634469" stop-color="#9DEDFF"/>
<stop offset="1" stop-color="#E7FBFF"/>
</linearGradient>
<linearGradient id="paint9_linear" x1="271.908" y1="199.81" x2="302.512" y2="139.261" gradientUnits="userSpaceOnUse">
<stop offset="1" stop-color="white"/>
</linearGradient>
<linearGradient id="paint10_linear" x1="274.979" y1="202.795" x2="298.064" y2="147.04" gradientUnits="userSpaceOnUse">
<stop offset="1" stop-color="white"/>
</linearGradient>
<linearGradient id="paint11_linear" x1="289.002" y1="-23" x2="289.002" y2="320" gradientUnits="userSpaceOnUse">
<stop stop-color="#9AFFEA"/>
<stop offset="1" stop-color="#13AAFF"/>
</linearGradient>
<linearGradient id="paint12_linear" x1="1" y1="249.93" x2="139.998" y2="295.718" gradientUnits="userSpaceOnUse">
<stop stop-color="#5AC9E5"/>
<stop offset="1" stop-color="#194ECA"/>
</linearGradient>
<linearGradient id="paint13_linear" x1="131.176" y1="248.909" x2="262.928" y2="288.222" gradientUnits="userSpaceOnUse">
<stop stop-color="#5AC9E5"/>
<stop offset="1" stop-color="#194ECA"/>
</linearGradient>
<linearGradient id="paint14_linear" x1="274.84" y1="234.9" x2="392.832" y2="321.473" gradientUnits="userSpaceOnUse">
<stop stop-color="#5AC9E5"/>
<stop offset="1" stop-color="#194ECA"/>
</linearGradient>
</defs>
</svg>
