<svg width="18" height="18" viewBox="0 0 18 18" fill="none" xmlns="http://www.w3.org/2000/svg">
<path d="M17.1258 5.53492C17.863 4.7123 17.7937 3.44787 16.9711 2.71072C16.1485 1.97358 14.884 2.04286 14.1469 2.86548L17.1258 5.53492ZM3.48046 6.4666C2.73779 5.64896 1.47292 5.58819 0.655289 6.33085C-0.162345 7.07351 -0.22312 8.33838 0.519544 9.15602L3.48046 6.4666ZM7.23539 13.5752L5.75493 14.9199C6.13558 15.339 6.67599 15.5771 7.24212 15.5752C7.80825 15.5733 8.34705 15.3315 8.72486 14.9099L7.23539 13.5752ZM8.72486 14.9099L17.1258 5.53492L14.1469 2.86548L5.74592 12.2405L8.72486 14.9099ZM0.519544 9.15602L5.75493 14.9199L8.71585 12.2305L3.48046 6.4666L0.519544 9.15602Z" fill="url(#paint0_linear)"/>
<defs>
<linearGradient id="paint0_linear" x1="2" y1="6.61028" x2="15.7326" y2="15.0934" gradientUnits="userSpaceOnUse">
<stop stop-color="#5AC9E5"/>
<stop offset="1" stop-color="#194ECA"/>
</linearGradient>
</defs>
</svg>
