<svg width="1138" height="600" viewBox="0 0 1138 600" fill="none" xmlns="http://www.w3.org/2000/svg">
<rect width="1138" height="600" rx="16" fill="white" fill-opacity="0.6"/>
<mask id="mask0" mask-type="alpha" maskUnits="userSpaceOnUse" x="374" y="97" width="390" height="390">
<path fill-rule="evenodd" clip-rule="evenodd" d="M569 487C676.696 487 764 399.696 764 292C764 184.304 676.696 97 569 97C461.304 97 374 184.304 374 292C374 399.696 461.304 487 569 487ZM569.87 365.125C610.736 365.125 643.865 331.996 643.865 291.129C643.865 250.263 610.736 217.134 569.87 217.134C529.003 217.134 495.874 250.263 495.874 291.129C495.874 331.996 529.003 365.125 569.87 365.125Z" fill="#C4C4C4"/>
</mask>
<g mask="url(#mask0)">
<path d="M569.001 97.4812C676.221 97.4812 763.001 184.262 763.001 291.481C763.001 398.701 676.221 485.481 569.001 485.481C461.955 485.481 375.001 398.701 375.001 291.654L569.001 291.481V97.4812Z" fill="url(#paint0_linear)" stroke="white" stroke-linejoin="round"/>
<path d="M374.999 291.481C374.999 263.073 381.235 235.013 393.36 209.204L568.999 291.481H374.999Z" fill="url(#paint1_linear)" stroke="white" stroke-linejoin="round"/>
<path d="M393.359 209.03C398.556 197.945 404.792 187.552 411.893 177.679L568.999 291.48L393.359 209.03Z" fill="url(#paint2_linear)" stroke="white" stroke-linejoin="round"/>
<path d="M412.069 177.506C436.146 144.422 469.923 119.825 508.896 107.181L569.002 291.481L412.069 177.506Z" fill="url(#paint3_linear)" stroke="white" stroke-linejoin="round"/>
<path d="M509.068 107.007C528.295 100.772 548.561 97.4805 568.827 97.4805L569.174 291.48L509.068 107.007Z" fill="url(#paint4_linear)" stroke="white" stroke-linejoin="round"/>
</g>
<path d="M745.493 470.002C737.002 470.002 727.322 460.322 714.246 447.246L701 434" stroke="#667CE5"/>
<path d="M322.022 236.495C330.514 236.495 343.929 238.703 362.1 242.779L380.271 246.854" stroke="#3CFFCC"/>
<path d="M350.045 165.51C358.536 165.51 370.254 172.472 386.387 181.982L402.52 191.492" stroke="#65CCF8"/>
<path d="M414.066 94.5245C422.557 94.5245 432.237 104.204 443.276 119.318L454.314 134.433" stroke="#3485FD"/>
<path d="M519.864 47.1443C528.355 47.1443 530.563 63.4471 533.45 81.9576L536.337 100.468" stroke="#25E5DA"/>
<path d="M762.974 472.178V463.612H763.97V471.276H767.749V472.178H762.974ZM774.64 466.108C774.64 466.975 774.343 467.643 773.749 468.112C773.159 468.577 772.313 468.809 771.212 468.809H770.204V472.178H769.208V463.612H771.429C773.569 463.612 774.64 464.444 774.64 466.108ZM770.204 467.954H771.101C771.983 467.954 772.622 467.811 773.017 467.526C773.411 467.241 773.608 466.784 773.608 466.155C773.608 465.589 773.423 465.167 773.052 464.889C772.681 464.612 772.103 464.473 771.317 464.473H770.204V467.954ZM782.339 465.639C782.624 465.639 782.88 465.663 783.106 465.71L782.972 466.612C782.706 466.553 782.472 466.524 782.269 466.524C781.749 466.524 781.304 466.735 780.933 467.157C780.565 467.579 780.382 468.104 780.382 468.733V472.178H779.409V465.757H780.212L780.323 466.946H780.37C780.608 466.528 780.896 466.206 781.231 465.979C781.567 465.753 781.937 465.639 782.339 465.639ZM787.021 472.296C786.071 472.296 785.321 472.007 784.771 471.428C784.224 470.85 783.95 470.048 783.95 469.02C783.95 467.985 784.204 467.163 784.712 466.553C785.224 465.944 785.909 465.639 786.769 465.639C787.573 465.639 788.21 465.905 788.679 466.436C789.147 466.964 789.382 467.661 789.382 468.528V469.143H784.958C784.978 469.897 785.167 470.469 785.526 470.86C785.89 471.251 786.399 471.446 787.056 471.446C787.747 471.446 788.431 471.302 789.106 471.012V471.88C788.763 472.028 788.437 472.134 788.128 472.196C787.823 472.262 787.454 472.296 787.021 472.296ZM786.757 466.454C786.241 466.454 785.829 466.622 785.521 466.958C785.216 467.294 785.036 467.759 784.981 468.352H788.339C788.339 467.739 788.202 467.27 787.929 466.946C787.655 466.618 787.265 466.454 786.757 466.454ZM796.29 472.178L795.112 468.411C795.038 468.18 794.899 467.657 794.696 466.841H794.649C794.493 467.524 794.356 468.052 794.239 468.423L793.026 472.178H791.901L790.149 465.757H791.169C791.583 467.37 791.897 468.598 792.112 469.442C792.331 470.286 792.456 470.854 792.487 471.147H792.534C792.577 470.925 792.646 470.637 792.739 470.286C792.837 469.93 792.921 469.649 792.991 469.442L794.169 465.757H795.224L796.372 469.442C796.591 470.114 796.739 470.678 796.817 471.135H796.864C796.88 470.995 796.921 470.778 796.987 470.485C797.058 470.192 797.466 468.616 798.212 465.757H799.22L797.444 472.178H796.29ZM804.335 472.178L804.142 471.264H804.095C803.774 471.667 803.454 471.94 803.134 472.085C802.817 472.225 802.421 472.296 801.944 472.296C801.308 472.296 800.808 472.132 800.444 471.803C800.085 471.475 799.905 471.009 799.905 470.403C799.905 469.106 800.942 468.427 803.017 468.364L804.106 468.329V467.93C804.106 467.427 803.997 467.055 803.778 466.817C803.563 466.575 803.218 466.454 802.741 466.454C802.206 466.454 801.601 466.618 800.925 466.946L800.626 466.202C800.942 466.03 801.288 465.895 801.663 465.798C802.042 465.7 802.421 465.651 802.8 465.651C803.565 465.651 804.132 465.821 804.499 466.161C804.87 466.501 805.056 467.046 805.056 467.796V472.178H804.335ZM802.138 471.493C802.743 471.493 803.218 471.327 803.562 470.995C803.909 470.663 804.083 470.198 804.083 469.6V469.02L803.11 469.061C802.337 469.089 801.778 469.21 801.435 469.425C801.095 469.635 800.925 469.966 800.925 470.415C800.925 470.766 801.03 471.034 801.241 471.218C801.456 471.401 801.755 471.493 802.138 471.493ZM809.995 465.639C810.28 465.639 810.536 465.663 810.763 465.71L810.628 466.612C810.362 466.553 810.128 466.524 809.925 466.524C809.405 466.524 808.96 466.735 808.589 467.157C808.222 467.579 808.038 468.104 808.038 468.733V472.178H807.065V465.757H807.868L807.979 466.946H808.026C808.265 466.528 808.552 466.206 808.888 465.979C809.224 465.753 809.593 465.639 809.995 465.639ZM816.335 471.317H816.282C815.833 471.969 815.161 472.296 814.267 472.296C813.427 472.296 812.772 472.009 812.304 471.434C811.839 470.86 811.606 470.044 811.606 468.985C811.606 467.927 811.841 467.104 812.31 466.518C812.778 465.932 813.431 465.639 814.267 465.639C815.138 465.639 815.806 465.956 816.271 466.589H816.347L816.306 466.126L816.282 465.675V463.061H817.255V472.178H816.464L816.335 471.317ZM814.39 471.481C815.054 471.481 815.534 471.302 815.831 470.942C816.132 470.579 816.282 469.995 816.282 469.19V468.985C816.282 468.075 816.13 467.427 815.825 467.04C815.524 466.649 815.042 466.454 814.378 466.454C813.808 466.454 813.37 466.677 813.065 467.122C812.765 467.563 812.614 468.188 812.614 468.997C812.614 469.817 812.765 470.436 813.065 470.854C813.366 471.272 813.808 471.481 814.39 471.481ZM823.466 470.427C823.466 471.024 823.243 471.485 822.798 471.809C822.353 472.134 821.728 472.296 820.923 472.296C820.071 472.296 819.407 472.161 818.931 471.891V470.989C819.239 471.145 819.569 471.268 819.921 471.358C820.276 471.448 820.618 471.493 820.946 471.493C821.454 471.493 821.845 471.413 822.118 471.253C822.392 471.089 822.528 470.841 822.528 470.509C822.528 470.259 822.419 470.046 822.2 469.87C821.985 469.69 821.563 469.479 820.935 469.237C820.337 469.014 819.911 468.821 819.657 468.657C819.407 468.489 819.22 468.3 819.095 468.089C818.974 467.878 818.913 467.626 818.913 467.333C818.913 466.809 819.126 466.397 819.552 466.096C819.978 465.792 820.562 465.639 821.304 465.639C821.995 465.639 822.671 465.78 823.331 466.061L822.985 466.852C822.341 466.587 821.757 466.454 821.233 466.454C820.772 466.454 820.425 466.526 820.19 466.671C819.956 466.815 819.839 467.014 819.839 467.268C819.839 467.44 819.882 467.587 819.968 467.708C820.058 467.829 820.2 467.944 820.396 468.053C820.591 468.163 820.966 468.321 821.521 468.528C822.282 468.805 822.796 469.085 823.062 469.366C823.331 469.647 823.466 470.001 823.466 470.427ZM824.913 471.557C824.913 471.296 824.972 471.098 825.089 470.966C825.21 470.829 825.382 470.76 825.604 470.76C825.831 470.76 826.007 470.829 826.132 470.966C826.261 471.098 826.325 471.296 826.325 471.557C826.325 471.811 826.261 472.007 826.132 472.143C826.003 472.28 825.827 472.348 825.604 472.348C825.405 472.348 825.239 472.288 825.106 472.167C824.978 472.042 824.913 471.839 824.913 471.557ZM824.913 466.384C824.913 465.856 825.144 465.593 825.604 465.593C826.085 465.593 826.325 465.856 826.325 466.384C826.325 466.637 826.261 466.833 826.132 466.969C826.003 467.106 825.827 467.175 825.604 467.175C825.405 467.175 825.239 467.114 825.106 466.993C824.978 466.868 824.913 466.665 824.913 466.384ZM832.009 472.178L835.56 464.509H830.89V463.612H836.591V464.391L833.087 472.178H832.009ZM840.47 466.946C841.372 466.946 842.081 467.171 842.597 467.62C843.116 468.065 843.376 468.677 843.376 469.454C843.376 470.341 843.093 471.036 842.526 471.54C841.964 472.044 841.187 472.296 840.194 472.296C839.229 472.296 838.493 472.141 837.985 471.833V470.895C838.259 471.071 838.599 471.21 839.005 471.311C839.411 471.409 839.812 471.458 840.206 471.458C840.894 471.458 841.427 471.296 841.806 470.971C842.188 470.647 842.38 470.178 842.38 469.565C842.38 468.37 841.647 467.772 840.183 467.772C839.812 467.772 839.315 467.829 838.694 467.942L838.19 467.62L838.513 463.612H842.772V464.509H839.345L839.128 467.081C839.577 466.991 840.024 466.946 840.47 466.946ZM847.683 469.407V468.516H850.56V469.407H847.683ZM855.845 472.178L859.396 464.509H854.726V463.612H860.427V464.391L856.923 472.178H855.845ZM864.306 466.946C865.208 466.946 865.917 467.171 866.433 467.62C866.952 468.065 867.212 468.677 867.212 469.454C867.212 470.341 866.929 471.036 866.362 471.54C865.8 472.044 865.022 472.296 864.03 472.296C863.065 472.296 862.329 472.141 861.821 471.833V470.895C862.095 471.071 862.435 471.21 862.841 471.311C863.247 471.409 863.647 471.458 864.042 471.458C864.729 471.458 865.263 471.296 865.642 470.971C866.024 470.647 866.216 470.178 866.216 469.565C866.216 468.37 865.483 467.772 864.019 467.772C863.647 467.772 863.151 467.829 862.53 467.942L862.026 467.62L862.349 463.612H866.608V464.509H863.181L862.964 467.081C863.413 466.991 863.86 466.946 864.306 466.946ZM868.8 471.557C868.8 471.296 868.858 471.098 868.976 470.966C869.097 470.829 869.269 470.76 869.491 470.76C869.718 470.76 869.894 470.829 870.019 470.966C870.147 471.098 870.212 471.296 870.212 471.557C870.212 471.811 870.147 472.007 870.019 472.143C869.89 472.28 869.714 472.348 869.491 472.348C869.292 472.348 869.126 472.288 868.993 472.167C868.864 472.042 868.8 471.839 868.8 471.557ZM877.372 467.884C877.372 469.364 877.138 470.469 876.669 471.2C876.204 471.93 875.491 472.296 874.53 472.296C873.608 472.296 872.907 471.923 872.427 471.177C871.946 470.427 871.706 469.329 871.706 467.884C871.706 466.391 871.938 465.284 872.403 464.561C872.868 463.839 873.577 463.477 874.53 463.477C875.46 463.477 876.165 463.854 876.646 464.608C877.13 465.362 877.372 466.454 877.372 467.884ZM872.69 467.884C872.69 469.13 872.837 470.038 873.13 470.608C873.423 471.175 873.89 471.458 874.53 471.458C875.179 471.458 875.647 471.171 875.937 470.596C876.229 470.018 876.376 469.114 876.376 467.884C876.376 466.653 876.229 465.753 875.937 465.182C875.647 464.608 875.179 464.321 874.53 464.321C873.89 464.321 873.423 464.604 873.13 465.171C872.837 465.733 872.69 466.637 872.69 467.884ZM879.394 466.167C879.394 466.831 879.466 467.329 879.61 467.661C879.755 467.993 879.989 468.159 880.313 468.159C880.954 468.159 881.274 467.495 881.274 466.167C881.274 464.846 880.954 464.186 880.313 464.186C879.989 464.186 879.755 464.35 879.61 464.678C879.466 465.007 879.394 465.503 879.394 466.167ZM882.077 466.167C882.077 467.057 881.927 467.731 881.626 468.188C881.329 468.641 880.892 468.868 880.313 468.868C879.767 468.868 879.341 468.635 879.036 468.171C878.735 467.706 878.585 467.038 878.585 466.167C878.585 465.28 878.729 464.612 879.019 464.163C879.312 463.714 879.743 463.489 880.313 463.489C880.88 463.489 881.315 463.721 881.62 464.186C881.925 464.651 882.077 465.311 882.077 466.167ZM884.55 469.6C884.55 470.268 884.622 470.768 884.767 471.1C884.911 471.428 885.147 471.593 885.476 471.593C885.804 471.593 886.046 471.43 886.202 471.106C886.358 470.778 886.437 470.276 886.437 469.6C886.437 468.932 886.358 468.438 886.202 468.118C886.046 467.794 885.804 467.632 885.476 467.632C885.147 467.632 884.911 467.794 884.767 468.118C884.622 468.438 884.55 468.932 884.55 469.6ZM887.239 469.6C887.239 470.487 887.089 471.159 886.788 471.616C886.491 472.069 886.054 472.296 885.476 472.296C884.921 472.296 884.493 472.063 884.192 471.598C883.896 471.134 883.747 470.468 883.747 469.6C883.747 468.714 883.892 468.046 884.181 467.596C884.474 467.147 884.905 466.923 885.476 466.923C886.03 466.923 886.462 467.153 886.771 467.614C887.083 468.071 887.239 468.733 887.239 469.6ZM885.728 463.612L880.976 472.178H880.114L884.866 463.612H885.728Z" fill="#252423"/>
<path d="M225.066 240.2L224 237.475H220.566L219.512 240.2H218.504L221.891 231.598H222.729L226.098 240.2H225.066ZM223.689 236.579L222.693 233.924C222.564 233.589 222.432 233.176 222.295 232.688C222.209 233.063 222.086 233.475 221.926 233.924L220.918 236.579H223.689ZM228.102 240.2H227.129V233.778H228.102V240.2ZM227.047 232.038C227.047 231.815 227.102 231.653 227.211 231.551C227.32 231.446 227.457 231.393 227.621 231.393C227.777 231.393 227.912 231.446 228.025 231.551C228.139 231.657 228.195 231.819 228.195 232.038C228.195 232.256 228.139 232.421 228.025 232.53C227.912 232.635 227.777 232.688 227.621 232.688C227.457 232.688 227.32 232.635 227.211 232.53C227.102 232.421 227.047 232.256 227.047 232.038ZM233.094 233.661C233.379 233.661 233.635 233.684 233.861 233.731L233.727 234.633C233.461 234.575 233.227 234.546 233.023 234.546C232.504 234.546 232.059 234.756 231.688 235.178C231.32 235.6 231.137 236.126 231.137 236.755V240.2H230.164V233.778H230.967L231.078 234.967H231.125C231.363 234.549 231.65 234.227 231.986 234.001C232.322 233.774 232.691 233.661 233.094 233.661ZM239.434 239.339H239.381C238.932 239.991 238.26 240.317 237.365 240.317C236.525 240.317 235.871 240.03 235.402 239.456C234.938 238.881 234.705 238.065 234.705 237.006C234.705 235.948 234.939 235.126 235.408 234.54C235.877 233.954 236.529 233.661 237.365 233.661C238.236 233.661 238.904 233.977 239.369 234.61H239.445L239.404 234.147L239.381 233.696V231.083H240.354V240.2H239.562L239.434 239.339ZM237.488 239.503C238.152 239.503 238.633 239.323 238.93 238.964C239.23 238.6 239.381 238.016 239.381 237.212V237.006C239.381 236.096 239.229 235.448 238.924 235.061C238.623 234.671 238.141 234.475 237.477 234.475C236.906 234.475 236.469 234.698 236.164 235.143C235.863 235.585 235.713 236.21 235.713 237.018C235.713 237.839 235.863 238.458 236.164 238.876C236.465 239.294 236.906 239.503 237.488 239.503ZM245.352 233.661C245.637 233.661 245.893 233.684 246.119 233.731L245.984 234.633C245.719 234.575 245.484 234.546 245.281 234.546C244.762 234.546 244.316 234.756 243.945 235.178C243.578 235.6 243.395 236.126 243.395 236.755V240.2H242.422V233.778H243.225L243.336 234.967H243.383C243.621 234.549 243.908 234.227 244.244 234.001C244.58 233.774 244.949 233.661 245.352 233.661ZM252.863 236.983C252.863 238.03 252.6 238.848 252.072 239.438C251.545 240.024 250.816 240.317 249.887 240.317C249.312 240.317 248.803 240.182 248.357 239.913C247.912 239.643 247.568 239.256 247.326 238.753C247.084 238.249 246.963 237.659 246.963 236.983C246.963 235.936 247.225 235.122 247.748 234.54C248.271 233.954 248.998 233.661 249.928 233.661C250.826 233.661 251.539 233.96 252.066 234.557C252.598 235.155 252.863 235.964 252.863 236.983ZM247.971 236.983C247.971 237.803 248.135 238.428 248.463 238.858C248.791 239.288 249.273 239.503 249.91 239.503C250.547 239.503 251.029 239.29 251.357 238.864C251.689 238.434 251.855 237.807 251.855 236.983C251.855 236.167 251.689 235.547 251.357 235.126C251.029 234.7 250.543 234.487 249.898 234.487C249.262 234.487 248.781 234.696 248.457 235.114C248.133 235.532 247.971 236.155 247.971 236.983ZM257.562 240.317C257.145 240.317 256.762 240.241 256.414 240.089C256.07 239.932 255.781 239.694 255.547 239.374H255.477C255.523 239.749 255.547 240.104 255.547 240.44V243.083H254.574V233.778H255.365L255.5 234.657H255.547C255.797 234.305 256.088 234.051 256.42 233.895C256.752 233.739 257.133 233.661 257.562 233.661C258.414 233.661 259.07 233.952 259.531 234.534C259.996 235.116 260.229 235.932 260.229 236.983C260.229 238.038 259.992 238.858 259.52 239.444C259.051 240.026 258.398 240.317 257.562 240.317ZM257.422 234.487C256.766 234.487 256.291 234.669 255.998 235.032C255.705 235.395 255.555 235.973 255.547 236.766V236.983C255.547 237.885 255.697 238.532 255.998 238.922C256.299 239.309 256.781 239.503 257.445 239.503C258 239.503 258.434 239.278 258.746 238.829C259.062 238.38 259.221 237.76 259.221 236.971C259.221 236.171 259.062 235.557 258.746 235.131C258.434 234.702 257.992 234.487 257.422 234.487ZM261.793 239.579C261.793 239.317 261.852 239.12 261.969 238.987C262.09 238.85 262.262 238.782 262.484 238.782C262.711 238.782 262.887 238.85 263.012 238.987C263.141 239.12 263.205 239.317 263.205 239.579C263.205 239.833 263.141 240.028 263.012 240.165C262.883 240.301 262.707 240.37 262.484 240.37C262.285 240.37 262.119 240.309 261.986 240.188C261.857 240.063 261.793 239.86 261.793 239.579ZM261.793 234.405C261.793 233.878 262.023 233.614 262.484 233.614C262.965 233.614 263.205 233.878 263.205 234.405C263.205 234.659 263.141 234.854 263.012 234.991C262.883 235.128 262.707 235.196 262.484 235.196C262.285 235.196 262.119 235.135 261.986 235.014C261.857 234.889 261.793 234.686 261.793 234.405ZM268.889 240.2L272.439 232.53H267.77V231.633H273.471V232.413L269.967 240.2H268.889ZM277.695 237.428V236.538H280.572V237.428H277.695ZM285.857 240.2L289.408 232.53H284.738V231.633H290.439V232.413L286.936 240.2H285.857ZM291.945 239.579C291.945 239.317 292.004 239.12 292.121 238.987C292.242 238.85 292.414 238.782 292.637 238.782C292.863 238.782 293.039 238.85 293.164 238.987C293.293 239.12 293.357 239.317 293.357 239.579C293.357 239.833 293.293 240.028 293.164 240.165C293.035 240.301 292.859 240.37 292.637 240.37C292.438 240.37 292.271 240.309 292.139 240.188C292.01 240.063 291.945 239.86 291.945 239.579ZM300.518 235.905C300.518 237.385 300.283 238.491 299.814 239.221C299.35 239.952 298.637 240.317 297.676 240.317C296.754 240.317 296.053 239.944 295.572 239.198C295.092 238.448 294.852 237.35 294.852 235.905C294.852 234.413 295.084 233.305 295.549 232.583C296.014 231.86 296.723 231.499 297.676 231.499C298.605 231.499 299.311 231.876 299.791 232.63C300.275 233.383 300.518 234.475 300.518 235.905ZM295.836 235.905C295.836 237.151 295.982 238.059 296.275 238.63C296.568 239.196 297.035 239.479 297.676 239.479C298.324 239.479 298.793 239.192 299.082 238.618C299.375 238.04 299.521 237.135 299.521 235.905C299.521 234.674 299.375 233.774 299.082 233.204C298.793 232.63 298.324 232.342 297.676 232.342C297.035 232.342 296.568 232.626 296.275 233.192C295.982 233.755 295.836 234.659 295.836 235.905ZM302.539 234.188C302.539 234.852 302.611 235.35 302.756 235.682C302.9 236.014 303.135 236.18 303.459 236.18C304.1 236.18 304.42 235.516 304.42 234.188C304.42 232.868 304.1 232.208 303.459 232.208C303.135 232.208 302.9 232.372 302.756 232.7C302.611 233.028 302.539 233.524 302.539 234.188ZM305.223 234.188C305.223 235.079 305.072 235.753 304.771 236.21C304.475 236.663 304.037 236.889 303.459 236.889C302.912 236.889 302.486 236.657 302.182 236.192C301.881 235.727 301.73 235.059 301.73 234.188C301.73 233.301 301.875 232.633 302.164 232.184C302.457 231.735 302.889 231.51 303.459 231.51C304.025 231.51 304.461 231.743 304.766 232.208C305.07 232.672 305.223 233.333 305.223 234.188ZM307.695 237.622C307.695 238.29 307.768 238.79 307.912 239.122C308.057 239.45 308.293 239.614 308.621 239.614C308.949 239.614 309.191 239.452 309.348 239.128C309.504 238.799 309.582 238.297 309.582 237.622C309.582 236.954 309.504 236.46 309.348 236.139C309.191 235.815 308.949 235.653 308.621 235.653C308.293 235.653 308.057 235.815 307.912 236.139C307.768 236.46 307.695 236.954 307.695 237.622ZM310.385 237.622C310.385 238.508 310.234 239.18 309.934 239.637C309.637 240.09 309.199 240.317 308.621 240.317C308.066 240.317 307.639 240.085 307.338 239.62C307.041 239.155 306.893 238.489 306.893 237.622C306.893 236.735 307.037 236.067 307.326 235.618C307.619 235.169 308.051 234.944 308.621 234.944C309.176 234.944 309.607 235.174 309.916 235.635C310.229 236.092 310.385 236.755 310.385 237.622ZM308.873 231.633L304.121 240.2H303.26L308.012 231.633H308.873Z" fill="#252423"/>
<path d="M270.178 168.875V160.308H271.174V168.875H270.178ZM274.525 168.875H273.529V160.308H278.305V161.193H274.525V164.328H278.076V165.213H274.525V168.875ZM287.164 164.58C287.164 165.951 286.816 167.029 286.121 167.814C285.43 168.599 284.467 168.992 283.232 168.992C281.971 168.992 280.996 168.607 280.309 167.838C279.625 167.064 279.283 165.974 279.283 164.568C279.283 163.174 279.627 162.094 280.314 161.328C281.002 160.558 281.979 160.174 283.244 160.174C284.475 160.174 285.436 160.564 286.127 161.346C286.818 162.127 287.164 163.205 287.164 164.58ZM280.338 164.58C280.338 165.74 280.584 166.621 281.076 167.223C281.572 167.82 282.291 168.119 283.232 168.119C284.182 168.119 284.898 167.82 285.383 167.223C285.867 166.625 286.109 165.744 286.109 164.58C286.109 163.428 285.867 162.555 285.383 161.961C284.902 161.363 284.189 161.064 283.244 161.064C282.295 161.064 281.572 161.365 281.076 161.967C280.584 162.564 280.338 163.435 280.338 164.58ZM288.793 168.254C288.793 167.992 288.852 167.795 288.969 167.662C289.09 167.525 289.262 167.457 289.484 167.457C289.711 167.457 289.887 167.525 290.012 167.662C290.141 167.795 290.205 167.992 290.205 168.254C290.205 168.508 290.141 168.703 290.012 168.84C289.883 168.976 289.707 169.045 289.484 169.045C289.285 169.045 289.119 168.984 288.986 168.863C288.857 168.738 288.793 168.535 288.793 168.254ZM288.793 163.08C288.793 162.553 289.023 162.289 289.484 162.289C289.965 162.289 290.205 162.553 290.205 163.08C290.205 163.334 290.141 163.529 290.012 163.666C289.883 163.803 289.707 163.871 289.484 163.871C289.285 163.871 289.119 163.81 288.986 163.689C288.857 163.564 288.793 163.361 288.793 163.08ZM300.113 162.324C300.113 162.871 299.959 163.318 299.65 163.666C299.346 164.014 298.912 164.246 298.35 164.363V164.41C299.037 164.496 299.547 164.715 299.879 165.066C300.211 165.418 300.377 165.879 300.377 166.449C300.377 167.266 300.094 167.894 299.527 168.336C298.961 168.773 298.156 168.992 297.113 168.992C296.66 168.992 296.244 168.957 295.865 168.887C295.49 168.82 295.125 168.701 294.77 168.529V167.603C295.141 167.787 295.535 167.928 295.953 168.025C296.375 168.119 296.773 168.166 297.148 168.166C298.629 168.166 299.369 167.586 299.369 166.426C299.369 165.387 298.553 164.867 296.92 164.867H296.076V164.029H296.932C297.6 164.029 298.129 163.883 298.52 163.59C298.91 163.293 299.105 162.883 299.105 162.359C299.105 161.941 298.961 161.613 298.672 161.375C298.387 161.137 297.998 161.017 297.506 161.017C297.131 161.017 296.777 161.068 296.445 161.17C296.113 161.271 295.734 161.459 295.309 161.732L294.816 161.076C295.168 160.799 295.572 160.582 296.029 160.426C296.49 160.266 296.975 160.185 297.482 160.185C298.314 160.185 298.961 160.377 299.422 160.76C299.883 161.139 300.113 161.66 300.113 162.324ZM304.695 166.103V165.213H307.572V166.103H304.695ZM317.082 162.324C317.082 162.871 316.928 163.318 316.619 163.666C316.314 164.014 315.881 164.246 315.318 164.363V164.41C316.006 164.496 316.516 164.715 316.848 165.066C317.18 165.418 317.346 165.879 317.346 166.449C317.346 167.266 317.062 167.894 316.496 168.336C315.93 168.773 315.125 168.992 314.082 168.992C313.629 168.992 313.213 168.957 312.834 168.887C312.459 168.82 312.094 168.701 311.738 168.529V167.603C312.109 167.787 312.504 167.928 312.922 168.025C313.344 168.119 313.742 168.166 314.117 168.166C315.598 168.166 316.338 167.586 316.338 166.426C316.338 165.387 315.521 164.867 313.889 164.867H313.045V164.029H313.9C314.568 164.029 315.098 163.883 315.488 163.59C315.879 163.293 316.074 162.883 316.074 162.359C316.074 161.941 315.93 161.613 315.641 161.375C315.355 161.137 314.967 161.017 314.475 161.017C314.1 161.017 313.746 161.068 313.414 161.17C313.082 161.271 312.703 161.459 312.277 161.732L311.785 161.076C312.137 160.799 312.541 160.582 312.998 160.426C313.459 160.266 313.943 160.185 314.451 160.185C315.283 160.185 315.93 160.377 316.391 160.76C316.852 161.139 317.082 161.66 317.082 162.324ZM318.945 168.254C318.945 167.992 319.004 167.795 319.121 167.662C319.242 167.525 319.414 167.457 319.637 167.457C319.863 167.457 320.039 167.525 320.164 167.662C320.293 167.795 320.357 167.992 320.357 168.254C320.357 168.508 320.293 168.703 320.164 168.84C320.035 168.976 319.859 169.045 319.637 169.045C319.438 169.045 319.271 168.984 319.139 168.863C319.01 168.738 318.945 168.535 318.945 168.254ZM327.518 164.58C327.518 166.06 327.283 167.166 326.814 167.896C326.35 168.627 325.637 168.992 324.676 168.992C323.754 168.992 323.053 168.619 322.572 167.873C322.092 167.123 321.852 166.025 321.852 164.58C321.852 163.088 322.084 161.98 322.549 161.258C323.014 160.535 323.723 160.174 324.676 160.174C325.605 160.174 326.311 160.551 326.791 161.305C327.275 162.058 327.518 163.15 327.518 164.58ZM322.836 164.58C322.836 165.826 322.982 166.734 323.275 167.305C323.568 167.871 324.035 168.154 324.676 168.154C325.324 168.154 325.793 167.867 326.082 167.293C326.375 166.715 326.521 165.81 326.521 164.58C326.521 163.349 326.375 162.449 326.082 161.879C325.793 161.305 325.324 161.017 324.676 161.017C324.035 161.017 323.568 161.301 323.275 161.867C322.982 162.43 322.836 163.334 322.836 164.58ZM329.539 162.863C329.539 163.527 329.611 164.025 329.756 164.357C329.9 164.689 330.135 164.855 330.459 164.855C331.1 164.855 331.42 164.191 331.42 162.863C331.42 161.543 331.1 160.883 330.459 160.883C330.135 160.883 329.9 161.047 329.756 161.375C329.611 161.703 329.539 162.199 329.539 162.863ZM332.223 162.863C332.223 163.754 332.072 164.428 331.771 164.885C331.475 165.338 331.037 165.564 330.459 165.564C329.912 165.564 329.486 165.332 329.182 164.867C328.881 164.402 328.73 163.734 328.73 162.863C328.73 161.976 328.875 161.308 329.164 160.859C329.457 160.41 329.889 160.185 330.459 160.185C331.025 160.185 331.461 160.418 331.766 160.883C332.07 161.348 332.223 162.008 332.223 162.863ZM334.695 166.297C334.695 166.965 334.768 167.465 334.912 167.797C335.057 168.125 335.293 168.289 335.621 168.289C335.949 168.289 336.191 168.127 336.348 167.803C336.504 167.474 336.582 166.973 336.582 166.297C336.582 165.629 336.504 165.135 336.348 164.814C336.191 164.49 335.949 164.328 335.621 164.328C335.293 164.328 335.057 164.49 334.912 164.814C334.768 165.135 334.695 165.629 334.695 166.297ZM337.385 166.297C337.385 167.183 337.234 167.855 336.934 168.312C336.637 168.766 336.199 168.992 335.621 168.992C335.066 168.992 334.639 168.76 334.338 168.295C334.041 167.83 333.893 167.164 333.893 166.297C333.893 165.41 334.037 164.742 334.326 164.293C334.619 163.844 335.051 163.619 335.621 163.619C336.176 163.619 336.607 163.849 336.916 164.31C337.229 164.767 337.385 165.43 337.385 166.297ZM335.873 160.308L331.121 168.875H330.26L335.012 160.308H335.873Z" fill="#252423"/>
<path d="M306.752 97.55H305.756V89.8684H303.043V88.9836H309.465V89.8684H306.752V97.55ZM313.326 97.6672C312.377 97.6672 311.627 97.3782 311.076 96.8C310.529 96.2219 310.256 95.4192 310.256 94.3918C310.256 93.3567 310.51 92.5344 311.018 91.925C311.529 91.3157 312.215 91.011 313.074 91.011C313.879 91.011 314.516 91.2766 314.984 91.8079C315.453 92.3352 315.688 93.0325 315.688 93.8997V94.5149H311.264C311.283 95.2688 311.473 95.8411 311.832 96.2317C312.195 96.6223 312.705 96.8176 313.361 96.8176C314.053 96.8176 314.736 96.6731 315.412 96.384V97.2512C315.068 97.3997 314.742 97.5051 314.434 97.5676C314.129 97.634 313.76 97.6672 313.326 97.6672ZM313.062 91.8254C312.547 91.8254 312.135 91.9934 311.826 92.3293C311.521 92.6653 311.342 93.1301 311.287 93.7239H314.645C314.645 93.1106 314.508 92.6418 314.234 92.3176C313.961 91.9895 313.57 91.8254 313.062 91.8254ZM321.301 97.55L321.107 96.636H321.061C320.74 97.0383 320.42 97.3118 320.1 97.4563C319.783 97.5969 319.387 97.6672 318.91 97.6672C318.273 97.6672 317.773 97.5032 317.41 97.175C317.051 96.8469 316.871 96.3801 316.871 95.7747C316.871 94.4778 317.908 93.7981 319.982 93.7356L321.072 93.7004V93.302C321.072 92.7981 320.963 92.427 320.744 92.1887C320.529 91.9465 320.184 91.8254 319.707 91.8254C319.172 91.8254 318.566 91.9895 317.891 92.3176L317.592 91.5735C317.908 91.4016 318.254 91.2668 318.629 91.1692C319.008 91.0715 319.387 91.0227 319.766 91.0227C320.531 91.0227 321.098 91.1926 321.465 91.5325C321.836 91.8723 322.021 92.4172 322.021 93.1672V97.55H321.301ZM319.104 96.8645C319.709 96.8645 320.184 96.6985 320.527 96.3665C320.875 96.0344 321.049 95.5696 321.049 94.9719V94.3918L320.076 94.4329C319.303 94.4602 318.744 94.5813 318.4 94.7961C318.061 95.0071 317.891 95.3372 317.891 95.7864C317.891 96.1379 317.996 96.4055 318.207 96.5891C318.422 96.7727 318.721 96.8645 319.104 96.8645ZM332.217 97.55V93.3723C332.217 92.8606 332.107 92.4778 331.889 92.2239C331.67 91.9661 331.33 91.8372 330.869 91.8372C330.264 91.8372 329.816 92.011 329.527 92.3586C329.238 92.7063 329.094 93.2415 329.094 93.9641V97.55H328.121V93.3723C328.121 92.8606 328.012 92.4778 327.793 92.2239C327.574 91.9661 327.232 91.8372 326.768 91.8372C326.158 91.8372 325.711 92.0208 325.426 92.3879C325.145 92.7512 325.004 93.3489 325.004 94.1809V97.55H324.031V91.1282H324.822L324.98 92.0071H325.027C325.211 91.6946 325.469 91.4504 325.801 91.2747C326.137 91.0989 326.512 91.011 326.926 91.011C327.93 91.011 328.586 91.3743 328.895 92.1008H328.941C329.133 91.7649 329.41 91.4993 329.773 91.304C330.137 91.1086 330.551 91.011 331.016 91.011C331.742 91.011 332.285 91.1985 332.645 91.5735C333.008 91.9446 333.189 92.5403 333.189 93.3606V97.55H332.217ZM335.059 96.929C335.059 96.6672 335.117 96.47 335.234 96.3372C335.355 96.2004 335.527 96.1321 335.75 96.1321C335.977 96.1321 336.152 96.2004 336.277 96.3372C336.406 96.47 336.471 96.6672 336.471 96.929C336.471 97.1829 336.406 97.3782 336.277 97.5149C336.148 97.6516 335.973 97.72 335.75 97.72C335.551 97.72 335.385 97.6594 335.252 97.5383C335.123 97.4133 335.059 97.2102 335.059 96.929ZM335.059 91.7551C335.059 91.2278 335.289 90.9641 335.75 90.9641C336.23 90.9641 336.471 91.2278 336.471 91.7551C336.471 92.009 336.406 92.2043 336.277 92.3411C336.148 92.4778 335.973 92.5461 335.75 92.5461C335.551 92.5461 335.385 92.4856 335.252 92.3645C335.123 92.2395 335.059 92.0364 335.059 91.7551ZM344.674 97.55H343.725V91.4446C343.725 90.9368 343.74 90.4563 343.771 90.0032C343.689 90.0852 343.598 90.1711 343.496 90.261C343.395 90.3508 342.93 90.7317 342.102 91.4036L341.586 90.7356L343.854 88.9836H344.674V97.55ZM353.615 93.2551C353.615 94.7356 353.381 95.8411 352.912 96.5715C352.447 97.302 351.734 97.6672 350.773 97.6672C349.852 97.6672 349.15 97.2942 348.67 96.5481C348.189 95.7981 347.949 94.7004 347.949 93.2551C347.949 91.7629 348.182 90.6555 348.646 89.9329C349.111 89.2102 349.82 88.8489 350.773 88.8489C351.703 88.8489 352.408 89.2258 352.889 89.9797C353.373 90.7336 353.615 91.8254 353.615 93.2551ZM348.934 93.2551C348.934 94.5012 349.08 95.4094 349.373 95.9797C349.666 96.5461 350.133 96.8293 350.773 96.8293C351.422 96.8293 351.891 96.5422 352.18 95.968C352.473 95.3899 352.619 94.4856 352.619 93.2551C352.619 92.0247 352.473 91.1243 352.18 90.554C351.891 89.9797 351.422 89.6926 350.773 89.6926C350.133 89.6926 349.666 89.9758 349.373 90.5422C349.08 91.1047 348.934 92.009 348.934 93.2551ZM357.828 94.7786V93.8879H360.705V94.7786H357.828ZM368.51 97.55H367.561V91.4446C367.561 90.9368 367.576 90.4563 367.607 90.0032C367.525 90.0852 367.434 90.1711 367.332 90.261C367.23 90.3508 366.766 90.7317 365.938 91.4036L365.422 90.7356L367.689 88.9836H368.51V97.55ZM377.451 93.2551C377.451 94.7356 377.217 95.8411 376.748 96.5715C376.283 97.302 375.57 97.6672 374.609 97.6672C373.688 97.6672 372.986 97.2942 372.506 96.5481C372.025 95.7981 371.785 94.7004 371.785 93.2551C371.785 91.7629 372.018 90.6555 372.482 89.9329C372.947 89.2102 373.656 88.8489 374.609 88.8489C375.539 88.8489 376.244 89.2258 376.725 89.9797C377.209 90.7336 377.451 91.8254 377.451 93.2551ZM372.77 93.2551C372.77 94.5012 372.916 95.4094 373.209 95.9797C373.502 96.5461 373.969 96.8293 374.609 96.8293C375.258 96.8293 375.727 96.5422 376.016 95.968C376.309 95.3899 376.455 94.4856 376.455 93.2551C376.455 92.0247 376.309 91.1243 376.016 90.554C375.727 89.9797 375.258 89.6926 374.609 89.6926C373.969 89.6926 373.502 89.9758 373.209 90.5422C372.916 91.1047 372.77 92.009 372.77 93.2551ZM378.945 96.929C378.945 96.6672 379.004 96.47 379.121 96.3372C379.242 96.2004 379.414 96.1321 379.637 96.1321C379.863 96.1321 380.039 96.2004 380.164 96.3372C380.293 96.47 380.357 96.6672 380.357 96.929C380.357 97.1829 380.293 97.3782 380.164 97.5149C380.035 97.6516 379.859 97.72 379.637 97.72C379.438 97.72 379.271 97.6594 379.139 97.5383C379.01 97.4133 378.945 97.2102 378.945 96.929ZM387.518 93.2551C387.518 94.7356 387.283 95.8411 386.814 96.5715C386.35 97.302 385.637 97.6672 384.676 97.6672C383.754 97.6672 383.053 97.2942 382.572 96.5481C382.092 95.7981 381.852 94.7004 381.852 93.2551C381.852 91.7629 382.084 90.6555 382.549 89.9329C383.014 89.2102 383.723 88.8489 384.676 88.8489C385.605 88.8489 386.311 89.2258 386.791 89.9797C387.275 90.7336 387.518 91.8254 387.518 93.2551ZM382.836 93.2551C382.836 94.5012 382.982 95.4094 383.275 95.9797C383.568 96.5461 384.035 96.8293 384.676 96.8293C385.324 96.8293 385.793 96.5422 386.082 95.968C386.375 95.3899 386.521 94.4856 386.521 93.2551C386.521 92.0247 386.375 91.1243 386.082 90.554C385.793 89.9797 385.324 89.6926 384.676 89.6926C384.035 89.6926 383.568 89.9758 383.275 90.5422C382.982 91.1047 382.836 92.009 382.836 93.2551ZM389.539 91.5383C389.539 92.2024 389.611 92.7004 389.756 93.0325C389.9 93.3645 390.135 93.5305 390.459 93.5305C391.1 93.5305 391.42 92.8665 391.42 91.5383C391.42 90.218 391.1 89.5579 390.459 89.5579C390.135 89.5579 389.9 89.7219 389.756 90.05C389.611 90.3782 389.539 90.8743 389.539 91.5383ZM392.223 91.5383C392.223 92.429 392.072 93.1028 391.771 93.5598C391.475 94.0129 391.037 94.2395 390.459 94.2395C389.912 94.2395 389.486 94.0071 389.182 93.5422C388.881 93.0774 388.73 92.4094 388.73 91.5383C388.73 90.6516 388.875 89.9836 389.164 89.5344C389.457 89.0852 389.889 88.8606 390.459 88.8606C391.025 88.8606 391.461 89.093 391.766 89.5579C392.07 90.0227 392.223 90.6829 392.223 91.5383ZM394.695 94.9719C394.695 95.6399 394.768 96.1399 394.912 96.4719C395.057 96.8 395.293 96.9641 395.621 96.9641C395.949 96.9641 396.191 96.802 396.348 96.4778C396.504 96.1497 396.582 95.6477 396.582 94.9719C396.582 94.304 396.504 93.8098 396.348 93.4895C396.191 93.1653 395.949 93.0032 395.621 93.0032C395.293 93.0032 395.057 93.1653 394.912 93.4895C394.768 93.8098 394.695 94.304 394.695 94.9719ZM397.385 94.9719C397.385 95.8586 397.234 96.5305 396.934 96.9875C396.637 97.4407 396.199 97.6672 395.621 97.6672C395.066 97.6672 394.639 97.4348 394.338 96.97C394.041 96.5051 393.893 95.8391 393.893 94.9719C393.893 94.0852 394.037 93.4172 394.326 92.968C394.619 92.5188 395.051 92.2942 395.621 92.2942C396.176 92.2942 396.607 92.5247 396.916 92.9856C397.229 93.4426 397.385 94.1047 397.385 94.9719ZM395.873 88.9836L391.121 97.55H390.26L395.012 88.9836H395.873Z" fill="#252423"/>
<path d="M397.316 45.6348C397.316 47.0488 396.932 48.1309 396.162 48.8809C395.396 49.627 394.293 50 392.852 50H390.479V41.4336H393.104C394.436 41.4336 395.471 41.8027 396.209 42.541C396.947 43.2793 397.316 44.3105 397.316 45.6348ZM396.262 45.6699C396.262 44.5527 395.98 43.7109 395.418 43.1445C394.859 42.5781 394.027 42.2949 392.922 42.2949H391.475V49.1387H392.688C393.875 49.1387 394.768 48.8477 395.365 48.2656C395.963 47.6797 396.262 46.8145 396.262 45.6699ZM404.617 50L403.551 47.2754H400.117L399.062 50H398.055L401.441 41.3984H402.279L405.648 50H404.617ZM403.24 46.3789L402.244 43.7246C402.115 43.3887 401.982 42.9766 401.846 42.4883C401.76 42.8633 401.637 43.2754 401.477 43.7246L400.469 46.3789H403.24ZM414.262 45.7051C414.262 47.0762 413.914 48.1543 413.219 48.9395C412.527 49.7246 411.564 50.1172 410.33 50.1172C409.068 50.1172 408.094 49.7324 407.406 48.9629C406.723 48.1895 406.381 47.0996 406.381 45.6934C406.381 44.2988 406.725 43.2188 407.412 42.4531C408.1 41.6836 409.076 41.2988 410.342 41.2988C411.572 41.2988 412.533 41.6895 413.225 42.4707C413.916 43.252 414.262 44.3301 414.262 45.7051ZM407.436 45.7051C407.436 46.8652 407.682 47.7461 408.174 48.3477C408.67 48.9453 409.389 49.2441 410.33 49.2441C411.279 49.2441 411.996 48.9453 412.48 48.3477C412.965 47.75 413.207 46.8691 413.207 45.7051C413.207 44.5527 412.965 43.6797 412.48 43.0859C412 42.4883 411.287 42.1895 410.342 42.1895C409.393 42.1895 408.67 42.4902 408.174 43.0918C407.682 43.6895 407.436 44.5605 407.436 45.7051ZM419.283 41.4336L416.09 50H415.117L418.311 41.4336H419.283ZM425.693 43.5781V44.1934L424.504 44.334C424.613 44.4707 424.711 44.6504 424.797 44.873C424.883 45.0918 424.926 45.3398 424.926 45.6172C424.926 46.2461 424.711 46.748 424.281 47.123C423.852 47.498 423.262 47.6855 422.512 47.6855C422.32 47.6855 422.141 47.6699 421.973 47.6387C421.559 47.8574 421.352 48.1328 421.352 48.4648C421.352 48.6406 421.424 48.7715 421.568 48.8574C421.713 48.9395 421.961 48.9805 422.312 48.9805H423.449C424.145 48.9805 424.678 49.127 425.049 49.4199C425.424 49.7129 425.611 50.1387 425.611 50.6973C425.611 51.4082 425.326 51.9492 424.756 52.3203C424.186 52.6953 423.354 52.8828 422.26 52.8828C421.42 52.8828 420.771 52.7266 420.314 52.4141C419.861 52.1016 419.635 51.6602 419.635 51.0898C419.635 50.6992 419.76 50.3613 420.01 50.0762C420.26 49.791 420.611 49.5977 421.064 49.4961C420.9 49.4219 420.762 49.3066 420.648 49.1504C420.539 48.9941 420.484 48.8125 420.484 48.6055C420.484 48.3711 420.547 48.166 420.672 47.9902C420.797 47.8145 420.994 47.6445 421.264 47.4805C420.932 47.3438 420.66 47.1113 420.449 46.7832C420.242 46.4551 420.139 46.0801 420.139 45.6582C420.139 44.9551 420.35 44.4141 420.771 44.0352C421.193 43.6523 421.791 43.4609 422.564 43.4609C422.9 43.4609 423.203 43.5 423.473 43.5781H425.693ZM420.572 51.0781C420.572 51.4258 420.719 51.6895 421.012 51.8691C421.305 52.0488 421.725 52.1387 422.271 52.1387C423.088 52.1387 423.691 52.0156 424.082 51.7695C424.477 51.5273 424.674 51.1973 424.674 50.7793C424.674 50.4316 424.566 50.1895 424.352 50.0527C424.137 49.9199 423.732 49.8535 423.139 49.8535H421.973C421.531 49.8535 421.188 49.959 420.941 50.1699C420.695 50.3809 420.572 50.6836 420.572 51.0781ZM421.1 45.6348C421.1 46.084 421.227 46.4238 421.48 46.6543C421.734 46.8848 422.088 47 422.541 47C423.49 47 423.965 46.5391 423.965 45.6172C423.965 44.6523 423.484 44.1699 422.523 44.1699C422.066 44.1699 421.715 44.293 421.469 44.5391C421.223 44.7852 421.1 45.1504 421.1 45.6348ZM429.941 43.4609C430.227 43.4609 430.482 43.4844 430.709 43.5312L430.574 44.4336C430.309 44.375 430.074 44.3457 429.871 44.3457C429.352 44.3457 428.906 44.5566 428.535 44.9785C428.168 45.4004 427.984 45.9258 427.984 46.5547V50H427.012V43.5781H427.814L427.926 44.7676H427.973C428.211 44.3496 428.498 44.0273 428.834 43.8008C429.17 43.5742 429.539 43.4609 429.941 43.4609ZM435.859 50L435.666 49.0859H435.619C435.299 49.4883 434.979 49.7617 434.658 49.9062C434.342 50.0469 433.945 50.1172 433.469 50.1172C432.832 50.1172 432.332 49.9531 431.969 49.625C431.609 49.2969 431.43 48.8301 431.43 48.2246C431.43 46.9277 432.467 46.248 434.541 46.1855L435.631 46.1504V45.752C435.631 45.248 435.521 44.877 435.303 44.6387C435.088 44.3965 434.742 44.2754 434.266 44.2754C433.73 44.2754 433.125 44.4395 432.449 44.7676L432.15 44.0234C432.467 43.8516 432.812 43.7168 433.188 43.6191C433.566 43.5215 433.945 43.4727 434.324 43.4727C435.09 43.4727 435.656 43.6426 436.023 43.9824C436.395 44.3223 436.58 44.8672 436.58 45.6172V50H435.859ZM433.662 49.3145C434.268 49.3145 434.742 49.1484 435.086 48.8164C435.434 48.4844 435.607 48.0195 435.607 47.4219V46.8418L434.635 46.8828C433.861 46.9102 433.303 47.0312 432.959 47.2461C432.619 47.457 432.449 47.7871 432.449 48.2363C432.449 48.5879 432.555 48.8555 432.766 49.0391C432.98 49.2227 433.279 49.3145 433.662 49.3145ZM442.984 50V45.8457C442.984 45.3223 442.865 44.9316 442.627 44.6738C442.389 44.416 442.016 44.2871 441.508 44.2871C440.836 44.2871 440.344 44.4688 440.031 44.832C439.719 45.1953 439.562 45.7949 439.562 46.6309V50H438.59V43.5781H439.381L439.539 44.457H439.586C439.785 44.1406 440.064 43.8965 440.424 43.7246C440.783 43.5488 441.184 43.4609 441.625 43.4609C442.398 43.4609 442.98 43.6484 443.371 44.0234C443.762 44.3945 443.957 44.9902 443.957 45.8105V50H442.984ZM448.035 49.3145C448.207 49.3145 448.373 49.3027 448.533 49.2793C448.693 49.252 448.82 49.2246 448.914 49.1973V49.9414C448.809 49.9922 448.652 50.0332 448.445 50.0645C448.242 50.0996 448.059 50.1172 447.895 50.1172C446.652 50.1172 446.031 49.4629 446.031 48.1543V44.334H445.111V43.8652L446.031 43.4609L446.441 42.0898H447.004V43.5781H448.867V44.334H447.004V48.1133C447.004 48.5 447.096 48.7969 447.279 49.0039C447.463 49.2109 447.715 49.3145 448.035 49.3145ZM454.346 48.248C454.346 48.8457 454.123 49.3066 453.678 49.6309C453.232 49.9551 452.607 50.1172 451.803 50.1172C450.951 50.1172 450.287 49.9824 449.811 49.7129V48.8105C450.119 48.9668 450.449 49.0898 450.801 49.1797C451.156 49.2695 451.498 49.3145 451.826 49.3145C452.334 49.3145 452.725 49.2344 452.998 49.0742C453.271 48.9102 453.408 48.6621 453.408 48.3301C453.408 48.0801 453.299 47.8672 453.08 47.6914C452.865 47.5117 452.443 47.3008 451.814 47.0586C451.217 46.8359 450.791 46.6426 450.537 46.4785C450.287 46.3105 450.1 46.1211 449.975 45.9102C449.854 45.6992 449.793 45.4473 449.793 45.1543C449.793 44.6309 450.006 44.2188 450.432 43.918C450.857 43.6133 451.441 43.4609 452.184 43.4609C452.875 43.4609 453.551 43.6016 454.211 43.8828L453.865 44.6738C453.221 44.4082 452.637 44.2754 452.113 44.2754C451.652 44.2754 451.305 44.3477 451.07 44.4922C450.836 44.6367 450.719 44.8359 450.719 45.0898C450.719 45.2617 450.762 45.4082 450.848 45.5293C450.938 45.6504 451.08 45.7656 451.275 45.875C451.471 45.9844 451.846 46.1426 452.4 46.3496C453.162 46.627 453.676 46.9062 453.941 47.1875C454.211 47.4688 454.346 47.8223 454.346 48.248ZM455.793 49.3789C455.793 49.1172 455.852 48.9199 455.969 48.7871C456.09 48.6504 456.262 48.582 456.484 48.582C456.711 48.582 456.887 48.6504 457.012 48.7871C457.141 48.9199 457.205 49.1172 457.205 49.3789C457.205 49.6328 457.141 49.8281 457.012 49.9648C456.883 50.1016 456.707 50.1699 456.484 50.1699C456.285 50.1699 456.119 50.1094 455.986 49.9883C455.857 49.8633 455.793 49.6602 455.793 49.3789ZM455.793 44.2051C455.793 43.6777 456.023 43.4141 456.484 43.4141C456.965 43.4141 457.205 43.6777 457.205 44.2051C457.205 44.459 457.141 44.6543 457.012 44.791C456.883 44.9277 456.707 44.9961 456.484 44.9961C456.285 44.9961 456.119 44.9355 455.986 44.8145C455.857 44.6895 455.793 44.4863 455.793 44.2051ZM464.482 44.7676C465.385 44.7676 466.094 44.9922 466.609 45.4414C467.129 45.8867 467.389 46.498 467.389 47.2754C467.389 48.1621 467.105 48.8574 466.539 49.3613C465.977 49.8652 465.199 50.1172 464.207 50.1172C463.242 50.1172 462.506 49.9629 461.998 49.6543V48.7168C462.271 48.8926 462.611 49.0312 463.018 49.1328C463.424 49.2305 463.824 49.2793 464.219 49.2793C464.906 49.2793 465.439 49.1172 465.818 48.793C466.201 48.4688 466.393 48 466.393 47.3867C466.393 46.1914 465.66 45.5938 464.195 45.5938C463.824 45.5938 463.328 45.6504 462.707 45.7637L462.203 45.4414L462.525 41.4336H466.785V42.3301H463.357L463.141 44.9023C463.59 44.8125 464.037 44.7676 464.482 44.7676ZM471.695 47.2285V46.3379H474.572V47.2285H471.695ZM481.451 44.7676C482.354 44.7676 483.062 44.9922 483.578 45.4414C484.098 45.8867 484.357 46.498 484.357 47.2754C484.357 48.1621 484.074 48.8574 483.508 49.3613C482.945 49.8652 482.168 50.1172 481.176 50.1172C480.211 50.1172 479.475 49.9629 478.967 49.6543V48.7168C479.24 48.8926 479.58 49.0312 479.986 49.1328C480.393 49.2305 480.793 49.2793 481.188 49.2793C481.875 49.2793 482.408 49.1172 482.787 48.793C483.17 48.4688 483.361 48 483.361 47.3867C483.361 46.1914 482.629 45.5938 481.164 45.5938C480.793 45.5938 480.297 45.6504 479.676 45.7637L479.172 45.4414L479.494 41.4336H483.754V42.3301H480.326L480.109 44.9023C480.559 44.8125 481.006 44.7676 481.451 44.7676ZM485.945 49.3789C485.945 49.1172 486.004 48.9199 486.121 48.7871C486.242 48.6504 486.414 48.582 486.637 48.582C486.863 48.582 487.039 48.6504 487.164 48.7871C487.293 48.9199 487.357 49.1172 487.357 49.3789C487.357 49.6328 487.293 49.8281 487.164 49.9648C487.035 50.1016 486.859 50.1699 486.637 50.1699C486.438 50.1699 486.271 50.1094 486.139 49.9883C486.01 49.8633 485.945 49.6602 485.945 49.3789ZM494.518 45.7051C494.518 47.1855 494.283 48.291 493.814 49.0215C493.35 49.752 492.637 50.1172 491.676 50.1172C490.754 50.1172 490.053 49.7441 489.572 48.998C489.092 48.248 488.852 47.1504 488.852 45.7051C488.852 44.2129 489.084 43.1055 489.549 42.3828C490.014 41.6602 490.723 41.2988 491.676 41.2988C492.605 41.2988 493.311 41.6758 493.791 42.4297C494.275 43.1836 494.518 44.2754 494.518 45.7051ZM489.836 45.7051C489.836 46.9512 489.982 47.8594 490.275 48.4297C490.568 48.9961 491.035 49.2793 491.676 49.2793C492.324 49.2793 492.793 48.9922 493.082 48.418C493.375 47.8398 493.521 46.9355 493.521 45.7051C493.521 44.4746 493.375 43.5742 493.082 43.0039C492.793 42.4297 492.324 42.1426 491.676 42.1426C491.035 42.1426 490.568 42.4258 490.275 42.9922C489.982 43.5547 489.836 44.459 489.836 45.7051ZM496.539 43.9883C496.539 44.6523 496.611 45.1504 496.756 45.4824C496.9 45.8145 497.135 45.9805 497.459 45.9805C498.1 45.9805 498.42 45.3164 498.42 43.9883C498.42 42.668 498.1 42.0078 497.459 42.0078C497.135 42.0078 496.9 42.1719 496.756 42.5C496.611 42.8281 496.539 43.3242 496.539 43.9883ZM499.223 43.9883C499.223 44.8789 499.072 45.5527 498.771 46.0098C498.475 46.4629 498.037 46.6895 497.459 46.6895C496.912 46.6895 496.486 46.457 496.182 45.9922C495.881 45.5273 495.73 44.8594 495.73 43.9883C495.73 43.1016 495.875 42.4336 496.164 41.9844C496.457 41.5352 496.889 41.3105 497.459 41.3105C498.025 41.3105 498.461 41.543 498.766 42.0078C499.07 42.4727 499.223 43.1328 499.223 43.9883ZM501.695 47.4219C501.695 48.0898 501.768 48.5898 501.912 48.9219C502.057 49.25 502.293 49.4141 502.621 49.4141C502.949 49.4141 503.191 49.252 503.348 48.9277C503.504 48.5996 503.582 48.0977 503.582 47.4219C503.582 46.7539 503.504 46.2598 503.348 45.9395C503.191 45.6152 502.949 45.4531 502.621 45.4531C502.293 45.4531 502.057 45.6152 501.912 45.9395C501.768 46.2598 501.695 46.7539 501.695 47.4219ZM504.385 47.4219C504.385 48.3086 504.234 48.9805 503.934 49.4375C503.637 49.8906 503.199 50.1172 502.621 50.1172C502.066 50.1172 501.639 49.8848 501.338 49.4199C501.041 48.9551 500.893 48.2891 500.893 47.4219C500.893 46.5352 501.037 45.8672 501.326 45.418C501.619 44.9688 502.051 44.7441 502.621 44.7441C503.176 44.7441 503.607 44.9746 503.916 45.4355C504.229 45.8926 504.385 46.5547 504.385 47.4219ZM502.873 41.4336L498.121 50H497.26L502.012 41.4336H502.873Z" fill="#252423"/>
<path d="M380.575 566V556.006H381.737V564.947H386.146V566H380.575ZM394.186 558.918C394.186 559.93 393.839 560.709 393.146 561.256C392.458 561.798 391.472 562.069 390.187 562.069H389.011V566H387.849V556.006H390.439C392.937 556.006 394.186 556.977 394.186 558.918ZM389.011 561.071H390.057C391.087 561.071 391.832 560.905 392.292 560.572C392.752 560.24 392.982 559.706 392.982 558.973C392.982 558.312 392.766 557.82 392.333 557.496C391.9 557.173 391.226 557.011 390.31 557.011H389.011V561.071ZM403.168 558.371C403.501 558.371 403.799 558.398 404.063 558.453L403.906 559.506C403.596 559.438 403.323 559.403 403.086 559.403C402.48 559.403 401.96 559.649 401.527 560.142C401.099 560.634 400.885 561.247 400.885 561.98V566H399.75V558.508H400.687L400.816 559.896H400.871C401.149 559.408 401.484 559.032 401.876 558.768C402.268 558.503 402.699 558.371 403.168 558.371ZM408.63 566.137C407.522 566.137 406.647 565.799 406.005 565.125C405.367 564.451 405.048 563.514 405.048 562.315C405.048 561.108 405.344 560.148 405.937 559.438C406.534 558.727 407.333 558.371 408.336 558.371C409.275 558.371 410.018 558.681 410.564 559.301C411.111 559.916 411.385 560.729 411.385 561.741V562.459H406.224C406.246 563.339 406.467 564.006 406.887 564.462C407.311 564.918 407.905 565.146 408.671 565.146C409.478 565.146 410.275 564.977 411.063 564.64V565.651C410.662 565.825 410.282 565.948 409.922 566.021C409.566 566.098 409.136 566.137 408.63 566.137ZM408.322 559.321C407.721 559.321 407.24 559.517 406.88 559.909C406.524 560.301 406.315 560.843 406.251 561.536H410.168C410.168 560.821 410.008 560.274 409.689 559.896C409.37 559.513 408.915 559.321 408.322 559.321ZM419.444 566L418.07 561.604C417.984 561.336 417.822 560.725 417.585 559.772H417.53C417.348 560.57 417.188 561.185 417.052 561.618L415.637 566H414.324L412.28 558.508H413.47C413.953 560.39 414.32 561.823 414.57 562.808C414.826 563.792 414.971 564.455 415.008 564.797H415.062C415.113 564.537 415.192 564.202 415.302 563.792C415.416 563.377 415.514 563.049 415.596 562.808L416.97 558.508H418.2L419.54 562.808C419.795 563.591 419.968 564.25 420.06 564.783H420.114C420.132 564.619 420.18 564.366 420.258 564.024C420.34 563.683 420.816 561.844 421.687 558.508H422.862L420.791 566H419.444ZM428.83 566L428.604 564.934H428.55C428.176 565.403 427.802 565.722 427.429 565.891C427.06 566.055 426.597 566.137 426.041 566.137C425.298 566.137 424.715 565.945 424.291 565.562C423.872 565.18 423.662 564.635 423.662 563.929C423.662 562.416 424.872 561.623 427.292 561.55L428.563 561.509V561.044C428.563 560.456 428.436 560.023 428.181 559.745C427.93 559.463 427.527 559.321 426.971 559.321C426.346 559.321 425.64 559.513 424.852 559.896L424.503 559.027C424.872 558.827 425.275 558.67 425.713 558.556C426.155 558.442 426.597 558.385 427.039 558.385C427.932 558.385 428.593 558.583 429.021 558.979C429.454 559.376 429.671 560.012 429.671 560.887V566H428.83ZM426.267 565.2C426.973 565.2 427.527 565.007 427.928 564.619C428.333 564.232 428.536 563.689 428.536 562.992V562.315L427.401 562.363C426.499 562.395 425.847 562.536 425.446 562.787C425.05 563.033 424.852 563.418 424.852 563.942C424.852 564.353 424.975 564.665 425.221 564.879C425.471 565.093 425.82 565.2 426.267 565.2ZM435.434 558.371C435.766 558.371 436.065 558.398 436.329 558.453L436.172 559.506C435.862 559.438 435.589 559.403 435.352 559.403C434.745 559.403 434.226 559.649 433.793 560.142C433.365 560.634 433.15 561.247 433.15 561.98V566H432.016V558.508H432.952L433.082 559.896H433.137C433.415 559.408 433.75 559.032 434.142 558.768C434.534 558.503 434.964 558.371 435.434 558.371ZM442.83 564.995H442.769C442.244 565.756 441.461 566.137 440.417 566.137C439.437 566.137 438.674 565.802 438.127 565.132C437.585 564.462 437.313 563.509 437.313 562.274C437.313 561.039 437.587 560.08 438.134 559.396C438.681 558.713 439.442 558.371 440.417 558.371C441.433 558.371 442.213 558.74 442.755 559.479H442.844L442.796 558.938L442.769 558.412V555.363H443.903V566H442.98L442.83 564.995ZM440.561 565.187C441.335 565.187 441.896 564.977 442.242 564.558C442.593 564.134 442.769 563.452 442.769 562.514V562.274C442.769 561.213 442.591 560.456 442.235 560.005C441.884 559.549 441.322 559.321 440.547 559.321C439.882 559.321 439.371 559.581 439.016 560.101C438.665 560.616 438.489 561.345 438.489 562.288C438.489 563.245 438.665 563.967 439.016 564.455C439.367 564.943 439.882 565.187 440.561 565.187ZM451.149 563.956C451.149 564.653 450.89 565.191 450.37 565.569C449.851 565.948 449.121 566.137 448.183 566.137C447.189 566.137 446.414 565.979 445.858 565.665V564.612C446.218 564.795 446.604 564.938 447.014 565.043C447.428 565.148 447.827 565.2 448.21 565.2C448.802 565.2 449.258 565.107 449.577 564.92C449.896 564.729 450.056 564.439 450.056 564.052C450.056 563.76 449.928 563.512 449.673 563.307C449.422 563.097 448.93 562.851 448.196 562.568C447.499 562.309 447.002 562.083 446.706 561.892C446.414 561.696 446.196 561.475 446.05 561.229C445.909 560.982 445.838 560.688 445.838 560.347C445.838 559.736 446.086 559.255 446.583 558.904C447.08 558.549 447.761 558.371 448.627 558.371C449.434 558.371 450.222 558.535 450.992 558.863L450.589 559.786C449.837 559.476 449.156 559.321 448.545 559.321C448.007 559.321 447.602 559.406 447.328 559.574C447.055 559.743 446.918 559.975 446.918 560.271C446.918 560.472 446.968 560.643 447.068 560.784C447.173 560.925 447.34 561.06 447.567 561.188C447.795 561.315 448.233 561.5 448.88 561.741C449.769 562.065 450.368 562.391 450.678 562.719C450.992 563.047 451.149 563.459 451.149 563.956Z" fill="#252423"/>
<path d="M358 561C358 565.418 361.582 569 366 569C370.418 569 374 565.418 374 561C374 556.582 370.418 553 366 553C361.582 553 358 556.582 358 561Z" fill="url(#paint5_linear)"/>
<path d="M490.814 566L489.57 562.821H485.564L484.334 566H483.158L487.109 555.965H488.087L492.018 566H490.814ZM489.208 561.775L488.046 558.679C487.896 558.287 487.741 557.806 487.581 557.236C487.481 557.674 487.337 558.155 487.15 558.679L485.975 561.775H489.208ZM494.355 566H493.221V558.508H494.355V566ZM493.125 556.478C493.125 556.218 493.189 556.029 493.316 555.91C493.444 555.787 493.604 555.726 493.795 555.726C493.977 555.726 494.134 555.787 494.267 555.91C494.399 556.033 494.465 556.222 494.465 556.478C494.465 556.733 494.399 556.924 494.267 557.052C494.134 557.175 493.977 557.236 493.795 557.236C493.604 557.236 493.444 557.175 493.316 557.052C493.189 556.924 493.125 556.733 493.125 556.478ZM500.18 558.371C500.512 558.371 500.811 558.398 501.075 558.453L500.918 559.506C500.608 559.438 500.335 559.403 500.098 559.403C499.492 559.403 498.972 559.649 498.539 560.142C498.111 560.634 497.896 561.247 497.896 561.98V566H496.762V558.508H497.698L497.828 559.896H497.883C498.161 559.408 498.496 559.032 498.888 558.768C499.28 558.503 499.71 558.371 500.18 558.371ZM507.576 564.995H507.515C506.991 565.756 506.207 566.137 505.163 566.137C504.183 566.137 503.42 565.802 502.873 565.132C502.331 564.462 502.06 563.509 502.06 562.274C502.06 561.039 502.333 560.08 502.88 559.396C503.427 558.713 504.188 558.371 505.163 558.371C506.179 558.371 506.959 558.74 507.501 559.479H507.59L507.542 558.938L507.515 558.412V555.363H508.649V566H507.727L507.576 564.995ZM505.307 565.187C506.081 565.187 506.642 564.977 506.988 564.558C507.339 564.134 507.515 563.452 507.515 562.514V562.274C507.515 561.213 507.337 560.456 506.981 560.005C506.631 559.549 506.068 559.321 505.293 559.321C504.628 559.321 504.117 559.581 503.762 560.101C503.411 560.616 503.235 561.345 503.235 562.288C503.235 563.245 503.411 563.967 503.762 564.455C504.113 564.943 504.628 565.187 505.307 565.187ZM514.48 558.371C514.813 558.371 515.112 558.398 515.376 558.453L515.219 559.506C514.909 559.438 514.635 559.403 514.398 559.403C513.792 559.403 513.273 559.649 512.84 560.142C512.411 560.634 512.197 561.247 512.197 561.98V566H511.062V558.508H511.999L512.129 559.896H512.184C512.462 559.408 512.797 559.032 513.188 558.768C513.58 558.503 514.011 558.371 514.48 558.371ZM523.244 562.247C523.244 563.468 522.937 564.423 522.321 565.111C521.706 565.795 520.856 566.137 519.771 566.137C519.102 566.137 518.507 565.979 517.987 565.665C517.468 565.351 517.067 564.899 516.784 564.312C516.502 563.724 516.36 563.035 516.36 562.247C516.36 561.026 516.666 560.076 517.276 559.396C517.887 558.713 518.735 558.371 519.819 558.371C520.868 558.371 521.699 558.72 522.314 559.417C522.934 560.114 523.244 561.058 523.244 562.247ZM517.536 562.247C517.536 563.204 517.728 563.933 518.11 564.435C518.493 564.936 519.056 565.187 519.799 565.187C520.542 565.187 521.104 564.938 521.487 564.441C521.875 563.94 522.068 563.209 522.068 562.247C522.068 561.295 521.875 560.572 521.487 560.08C521.104 559.583 520.537 559.335 519.785 559.335C519.042 559.335 518.482 559.579 518.104 560.066C517.725 560.554 517.536 561.281 517.536 562.247ZM528.727 566.137C528.239 566.137 527.792 566.048 527.387 565.87C526.986 565.688 526.648 565.41 526.375 565.036H526.293C526.348 565.474 526.375 565.888 526.375 566.28V569.363H525.24V558.508H526.163L526.32 559.533H526.375C526.667 559.123 527.006 558.827 527.394 558.645C527.781 558.462 528.225 558.371 528.727 558.371C529.72 558.371 530.486 558.711 531.023 559.39C531.566 560.069 531.837 561.021 531.837 562.247C531.837 563.478 531.561 564.435 531.01 565.118C530.463 565.797 529.702 566.137 528.727 566.137ZM528.562 559.335C527.797 559.335 527.243 559.547 526.901 559.971C526.56 560.395 526.384 561.069 526.375 561.994V562.247C526.375 563.3 526.55 564.054 526.901 564.51C527.252 564.961 527.815 565.187 528.59 565.187C529.237 565.187 529.743 564.924 530.107 564.4C530.477 563.876 530.661 563.154 530.661 562.233C530.661 561.299 530.477 560.584 530.107 560.087C529.743 559.586 529.228 559.335 528.562 559.335Z" fill="#252423"/>
<path d="M461.891 561C461.891 565.418 465.472 569 469.891 569C474.309 569 477.891 565.418 477.891 561C477.891 556.582 474.309 553 469.891 553C465.472 553 461.891 556.582 461.891 561Z" fill="url(#paint6_linear)"/>
<path d="M571.785 566V556.006H572.947V566H571.785ZM576.857 566H575.695V556.006H581.267V557.038H576.857V560.695H581V561.728H576.857V566ZM591.603 560.989C591.603 562.589 591.197 563.847 590.386 564.763C589.579 565.679 588.456 566.137 587.016 566.137C585.544 566.137 584.407 565.688 583.604 564.79C582.807 563.888 582.408 562.616 582.408 560.976C582.408 559.349 582.809 558.089 583.611 557.195C584.413 556.298 585.553 555.849 587.029 555.849C588.465 555.849 589.586 556.304 590.393 557.216C591.199 558.127 591.603 559.385 591.603 560.989ZM583.639 560.989C583.639 562.343 583.926 563.37 584.5 564.072C585.079 564.77 585.917 565.118 587.016 565.118C588.123 565.118 588.959 564.77 589.524 564.072C590.09 563.375 590.372 562.347 590.372 560.989C590.372 559.645 590.09 558.626 589.524 557.934C588.964 557.236 588.132 556.888 587.029 556.888C585.922 556.888 585.079 557.239 584.5 557.94C583.926 558.638 583.639 559.654 583.639 560.989Z" fill="#252423"/>
<path d="M546.938 561C546.938 565.418 550.519 569 554.938 569C559.356 569 562.938 565.418 562.938 561C562.938 556.582 559.356 553 554.938 553C550.519 553 546.938 556.582 546.938 561Z" fill="url(#paint7_linear)"/>
<path d="M635.451 566H634.289V557.038H631.124V556.006H638.616V557.038H635.451V566ZM643.121 566.137C642.014 566.137 641.139 565.799 640.496 565.125C639.858 564.451 639.539 563.514 639.539 562.315C639.539 561.108 639.835 560.148 640.428 559.438C641.025 558.727 641.825 558.371 642.827 558.371C643.766 558.371 644.509 558.681 645.056 559.301C645.603 559.916 645.876 560.729 645.876 561.741V562.459H640.715C640.738 563.339 640.959 564.006 641.378 564.462C641.802 564.918 642.396 565.146 643.162 565.146C643.969 565.146 644.766 564.977 645.555 564.64V565.651C645.154 565.825 644.773 565.948 644.413 566.021C644.058 566.098 643.627 566.137 643.121 566.137ZM642.813 559.321C642.212 559.321 641.731 559.517 641.371 559.909C641.016 560.301 640.806 560.843 640.742 561.536H644.659C644.659 560.821 644.5 560.274 644.181 559.896C643.862 559.513 643.406 559.321 642.813 559.321ZM652.425 566L652.199 564.934H652.145C651.771 565.403 651.397 565.722 651.023 565.891C650.654 566.055 650.192 566.137 649.636 566.137C648.893 566.137 648.31 565.945 647.886 565.562C647.466 565.18 647.257 564.635 647.257 563.929C647.257 562.416 648.467 561.623 650.887 561.55L652.158 561.509V561.044C652.158 560.456 652.031 560.023 651.775 559.745C651.525 559.463 651.121 559.321 650.565 559.321C649.941 559.321 649.235 559.513 648.446 559.896L648.098 559.027C648.467 558.827 648.87 558.67 649.308 558.556C649.75 558.442 650.192 558.385 650.634 558.385C651.527 558.385 652.188 558.583 652.616 558.979C653.049 559.376 653.266 560.012 653.266 560.887V566H652.425ZM649.861 565.2C650.568 565.2 651.121 565.007 651.522 564.619C651.928 564.232 652.131 563.689 652.131 562.992V562.315L650.996 562.363C650.094 562.395 649.442 562.536 649.041 562.787C648.645 563.033 648.446 563.418 648.446 563.942C648.446 564.353 648.569 564.665 648.815 564.879C649.066 565.093 649.415 565.2 649.861 565.2ZM665.16 566V561.126C665.16 560.529 665.033 560.082 664.777 559.786C664.522 559.485 664.126 559.335 663.588 559.335C662.882 559.335 662.36 559.538 662.022 559.943C661.685 560.349 661.517 560.973 661.517 561.816V566H660.382V561.126C660.382 560.529 660.254 560.082 659.999 559.786C659.744 559.485 659.345 559.335 658.803 559.335C658.092 559.335 657.57 559.549 657.237 559.978C656.909 560.401 656.745 561.099 656.745 562.069V566H655.61V558.508H656.533L656.718 559.533H656.772C656.987 559.169 657.287 558.884 657.675 558.679C658.067 558.474 658.504 558.371 658.987 558.371C660.159 558.371 660.924 558.795 661.284 559.643H661.339C661.562 559.251 661.886 558.941 662.31 558.713C662.733 558.485 663.216 558.371 663.759 558.371C664.606 558.371 665.24 558.59 665.659 559.027C666.083 559.46 666.295 560.155 666.295 561.112V566H665.16Z" fill="#252423"/>
<path d="M609.719 561C609.719 565.418 613.3 569 617.719 569C622.137 569 625.719 565.418 625.719 561C625.719 556.582 622.137 553 617.719 553C613.3 553 609.719 556.582 609.719 561Z" fill="url(#paint8_linear)"/>
<path d="M713.412 560.907C713.412 562.557 712.963 563.819 712.065 564.694C711.172 565.565 709.885 566 708.203 566H705.435V556.006H708.497C710.051 556.006 711.259 556.437 712.12 557.298C712.981 558.159 713.412 559.362 713.412 560.907ZM712.182 560.948C712.182 559.645 711.854 558.663 711.197 558.002C710.546 557.341 709.575 557.011 708.285 557.011H706.597V564.995H708.012C709.397 564.995 710.438 564.656 711.136 563.977C711.833 563.293 712.182 562.284 712.182 560.948ZM721.93 566L720.686 562.821H716.68L715.449 566H714.273L718.225 555.965H719.202L723.133 566H721.93ZM720.323 561.775L719.161 558.679C719.011 558.287 718.856 557.806 718.696 557.236C718.596 557.674 718.452 558.155 718.266 558.679L717.09 561.775H720.323ZM733.182 560.989C733.182 562.589 732.776 563.847 731.965 564.763C731.158 565.679 730.035 566.137 728.595 566.137C727.123 566.137 725.986 565.688 725.184 564.79C724.386 563.888 723.987 562.616 723.987 560.976C723.987 559.349 724.388 558.089 725.19 557.195C725.993 556.298 727.132 555.849 728.608 555.849C730.044 555.849 731.165 556.304 731.972 557.216C732.778 558.127 733.182 559.385 733.182 560.989ZM725.218 560.989C725.218 562.343 725.505 563.37 726.079 564.072C726.658 564.77 727.496 565.118 728.595 565.118C729.702 565.118 730.538 564.77 731.104 564.072C731.669 563.375 731.951 562.347 731.951 560.989C731.951 559.645 731.669 558.626 731.104 557.934C730.543 557.236 729.711 556.888 728.608 556.888C727.501 556.888 726.658 557.239 726.079 557.94C725.505 558.638 725.218 559.654 725.218 560.989ZM739.04 556.006L735.314 566H734.18L737.905 556.006H739.04ZM746.519 558.508V559.226L745.131 559.39C745.258 559.549 745.372 559.759 745.473 560.019C745.573 560.274 745.623 560.563 745.623 560.887C745.623 561.62 745.372 562.206 744.871 562.644C744.37 563.081 743.682 563.3 742.807 563.3C742.583 563.3 742.374 563.282 742.178 563.245C741.695 563.5 741.453 563.822 741.453 564.209C741.453 564.414 741.537 564.567 741.706 564.667C741.875 564.763 742.164 564.811 742.574 564.811H743.9C744.712 564.811 745.334 564.981 745.767 565.323C746.204 565.665 746.423 566.162 746.423 566.813C746.423 567.643 746.09 568.274 745.425 568.707C744.759 569.145 743.789 569.363 742.513 569.363C741.533 569.363 740.776 569.181 740.243 568.816C739.715 568.452 739.45 567.937 739.45 567.271C739.45 566.816 739.596 566.422 739.888 566.089C740.179 565.756 740.59 565.531 741.118 565.412C740.927 565.326 740.765 565.191 740.633 565.009C740.505 564.826 740.441 564.615 740.441 564.373C740.441 564.1 740.514 563.86 740.66 563.655C740.806 563.45 741.036 563.252 741.351 563.061C740.963 562.901 740.646 562.63 740.4 562.247C740.159 561.864 740.038 561.427 740.038 560.935C740.038 560.114 740.284 559.483 740.776 559.041C741.269 558.594 741.966 558.371 742.868 558.371C743.26 558.371 743.613 558.417 743.928 558.508H746.519ZM740.544 567.258C740.544 567.663 740.715 567.971 741.057 568.181C741.398 568.39 741.888 568.495 742.526 568.495C743.479 568.495 744.183 568.352 744.639 568.064C745.099 567.782 745.329 567.397 745.329 566.909C745.329 566.504 745.204 566.221 744.953 566.062C744.702 565.907 744.231 565.829 743.538 565.829H742.178C741.663 565.829 741.262 565.952 740.975 566.198C740.688 566.444 740.544 566.798 740.544 567.258ZM741.159 560.907C741.159 561.431 741.307 561.828 741.604 562.097C741.9 562.366 742.312 562.5 742.841 562.5C743.948 562.5 744.502 561.962 744.502 560.887C744.502 559.761 743.941 559.198 742.82 559.198C742.287 559.198 741.877 559.342 741.59 559.629C741.303 559.916 741.159 560.342 741.159 560.907ZM751.475 558.371C751.807 558.371 752.106 558.398 752.37 558.453L752.213 559.506C751.903 559.438 751.63 559.403 751.393 559.403C750.786 559.403 750.267 559.649 749.834 560.142C749.406 560.634 749.191 561.247 749.191 561.98V566H748.057V558.508H748.993L749.123 559.896H749.178C749.456 559.408 749.791 559.032 750.183 558.768C750.575 558.503 751.005 558.371 751.475 558.371ZM758.379 566L758.153 564.934H758.099C757.725 565.403 757.351 565.722 756.978 565.891C756.608 566.055 756.146 566.137 755.59 566.137C754.847 566.137 754.264 565.945 753.84 565.562C753.421 565.18 753.211 564.635 753.211 563.929C753.211 562.416 754.421 561.623 756.841 561.55L758.112 561.509V561.044C758.112 560.456 757.985 560.023 757.729 559.745C757.479 559.463 757.076 559.321 756.52 559.321C755.895 559.321 755.189 559.513 754.4 559.896L754.052 559.027C754.421 558.827 754.824 558.67 755.262 558.556C755.704 558.442 756.146 558.385 756.588 558.385C757.481 558.385 758.142 558.583 758.57 558.979C759.003 559.376 759.22 560.012 759.22 560.887V566H758.379ZM755.815 565.2C756.522 565.2 757.076 565.007 757.477 564.619C757.882 564.232 758.085 563.689 758.085 562.992V562.315L756.95 562.363C756.048 562.395 755.396 562.536 754.995 562.787C754.599 563.033 754.4 563.418 754.4 563.942C754.4 564.353 754.523 564.665 754.77 564.879C755.02 565.093 755.369 565.2 755.815 565.2ZM766.691 566V561.153C766.691 560.543 766.552 560.087 766.274 559.786C765.996 559.485 765.561 559.335 764.969 559.335C764.185 559.335 763.611 559.547 763.246 559.971C762.882 560.395 762.699 561.094 762.699 562.069V566H761.564V558.508H762.487L762.672 559.533H762.727C762.959 559.164 763.285 558.879 763.704 558.679C764.123 558.474 764.59 558.371 765.105 558.371C766.008 558.371 766.687 558.59 767.143 559.027C767.598 559.46 767.826 560.155 767.826 561.112V566H766.691ZM772.584 565.2C772.785 565.2 772.978 565.187 773.165 565.159C773.352 565.127 773.5 565.095 773.609 565.063V565.932C773.486 565.991 773.304 566.039 773.062 566.075C772.826 566.116 772.611 566.137 772.42 566.137C770.971 566.137 770.246 565.373 770.246 563.847V559.39H769.173V558.843L770.246 558.371L770.725 556.771H771.381V558.508H773.555V559.39H771.381V563.799C771.381 564.25 771.488 564.596 771.702 564.838C771.916 565.079 772.21 565.2 772.584 565.2ZM779.946 563.956C779.946 564.653 779.687 565.191 779.167 565.569C778.647 565.948 777.918 566.137 776.979 566.137C775.986 566.137 775.211 565.979 774.655 565.665V564.612C775.015 564.795 775.4 564.938 775.811 565.043C776.225 565.148 776.624 565.2 777.007 565.2C777.599 565.2 778.055 565.107 778.374 564.92C778.693 564.729 778.853 564.439 778.853 564.052C778.853 563.76 778.725 563.512 778.47 563.307C778.219 563.097 777.727 562.851 776.993 562.568C776.296 562.309 775.799 562.083 775.503 561.892C775.211 561.696 774.993 561.475 774.847 561.229C774.705 560.982 774.635 560.688 774.635 560.347C774.635 559.736 774.883 559.255 775.38 558.904C775.877 558.549 776.558 558.371 777.424 558.371C778.23 558.371 779.019 558.535 779.789 558.863L779.386 559.786C778.634 559.476 777.952 559.321 777.342 559.321C776.804 559.321 776.398 559.406 776.125 559.574C775.852 559.743 775.715 559.975 775.715 560.271C775.715 560.472 775.765 560.643 775.865 560.784C775.97 560.925 776.136 561.06 776.364 561.188C776.592 561.315 777.03 561.5 777.677 561.741C778.565 562.065 779.165 562.391 779.475 562.719C779.789 563.047 779.946 563.459 779.946 563.956Z" fill="#252423"/>
<path d="M682.828 561C682.828 565.418 686.41 569 690.828 569C695.246 569 698.828 565.418 698.828 561C698.828 556.582 695.246 553 690.828 553C686.41 553 682.828 556.582 682.828 561Z" fill="url(#paint9_linear)"/>
<defs>
<linearGradient id="paint0_linear" x1="569.001" y1="97.4812" x2="569.001" y2="485.481" gradientUnits="userSpaceOnUse">
<stop stop-color="#5A79E5"/>
<stop offset="1" stop-color="#D25AE5" stop-opacity="0.21"/>
</linearGradient>
<linearGradient id="paint1_linear" x1="471.999" y1="209.204" x2="471.999" y2="291.481" gradientUnits="userSpaceOnUse">
<stop stop-color="#FFF500"/>
<stop offset="0.0001" stop-color="#8FFFBC"/>
<stop offset="1" stop-color="#BAFF62"/>
</linearGradient>
<linearGradient id="paint2_linear" x1="481.179" y1="177.679" x2="481.179" y2="291.48" gradientUnits="userSpaceOnUse">
<stop stop-color="#FF9B85"/>
<stop offset="1" stop-color="#FFB774"/>
</linearGradient>
<linearGradient id="paint3_linear" x1="490.535" y1="107.181" x2="490.535" y2="291.481" gradientUnits="userSpaceOnUse">
<stop stop-color="#FFA3F6"/>
<stop offset="1" stop-color="#D2AEFF"/>
</linearGradient>
<linearGradient id="paint4_linear" x1="539.121" y1="97.4805" x2="539.121" y2="291.48" gradientUnits="userSpaceOnUse">
<stop stop-color="#6FFFF6" stop-opacity="0.88"/>
<stop offset="1" stop-color="#7471FB"/>
</linearGradient>
<linearGradient id="paint5_linear" x1="366" y1="553" x2="366" y2="569" gradientUnits="userSpaceOnUse">
<stop stop-color="#5A79E5"/>
<stop offset="1" stop-color="#D25AE5" stop-opacity="0.21"/>
</linearGradient>
<linearGradient id="paint6_linear" x1="469.891" y1="553" x2="469.891" y2="569" gradientUnits="userSpaceOnUse">
<stop stop-color="#FFF500"/>
<stop offset="0.0001" stop-color="#8FFFBC"/>
<stop offset="1" stop-color="#BAFF62"/>
</linearGradient>
<linearGradient id="paint7_linear" x1="554.938" y1="553" x2="554.938" y2="569" gradientUnits="userSpaceOnUse">
<stop stop-color="#FF9B85"/>
<stop offset="1" stop-color="#FFB774"/>
</linearGradient>
<linearGradient id="paint8_linear" x1="617.719" y1="553" x2="617.719" y2="569" gradientUnits="userSpaceOnUse">
<stop stop-color="#FFA3F6"/>
<stop offset="1" stop-color="#D2AEFF"/>
</linearGradient>
<linearGradient id="paint9_linear" x1="690.828" y1="553" x2="690.828" y2="569" gradientUnits="userSpaceOnUse">
<stop stop-color="#6FFFF6" stop-opacity="0.88"/>
<stop offset="1" stop-color="#7471FB"/>
</linearGradient>
</defs>
</svg>
