<svg width="548" height="553" viewBox="0 0 548 553" fill="none" xmlns="http://www.w3.org/2000/svg">
<rect width="548" height="553" rx="16" fill="white" fill-opacity="0.6"/>
<path fill-rule="evenodd" clip-rule="evenodd" d="M278.5 365C368.246 365 441 292.246 441 202.5C441 112.754 368.246 40 278.5 40C188.754 40 116 112.754 116 202.5C116 292.246 188.754 365 278.5 365ZM278.5 298.898C331.739 298.898 374.898 255.739 374.898 202.5C374.898 149.261 331.739 106.102 278.5 106.102C225.261 106.102 182.102 149.261 182.102 202.5C182.102 255.739 225.261 298.898 278.5 298.898Z" fill="url(#paint0_linear)"/>
<path d="M237.02 178H236.315V168.662H233.068V168.006H240.267V168.662H237.02V178ZM248.221 174.274C248.221 175.487 247.927 176.435 247.34 177.118C246.752 177.797 245.941 178.137 244.906 178.137C244.254 178.137 243.68 177.979 243.183 177.665C242.687 177.351 242.306 176.899 242.042 176.312C241.777 175.724 241.645 175.045 241.645 174.274C241.645 173.062 241.939 172.119 242.527 171.444C243.115 170.765 243.922 170.426 244.947 170.426C245.968 170.426 246.768 170.77 247.346 171.458C247.93 172.142 248.221 173.08 248.221 174.274ZM242.356 174.274C242.356 175.295 242.58 176.093 243.026 176.667C243.477 177.237 244.113 177.521 244.933 177.521C245.754 177.521 246.387 177.237 246.834 176.667C247.285 176.093 247.511 175.295 247.511 174.274C247.511 173.249 247.283 172.454 246.827 171.889C246.376 171.324 245.74 171.041 244.92 171.041C244.099 171.041 243.466 171.324 243.019 171.889C242.577 172.449 242.356 173.244 242.356 174.274ZM252.731 177.535C253.159 177.535 253.533 177.499 253.852 177.426V177.973C253.524 178.082 253.146 178.137 252.717 178.137C252.061 178.137 251.576 177.961 251.261 177.61C250.951 177.259 250.796 176.708 250.796 175.956V171.157H249.696V170.761L250.796 170.453L251.138 168.771H251.487V170.569H253.667V171.157H251.487V175.86C251.487 176.43 251.587 176.852 251.788 177.125C251.988 177.398 252.303 177.535 252.731 177.535ZM260.46 178L260.289 176.824H260.235C259.861 177.303 259.476 177.642 259.079 177.843C258.687 178.039 258.223 178.137 257.685 178.137C256.956 178.137 256.388 177.95 255.983 177.576C255.577 177.202 255.374 176.685 255.374 176.024C255.374 175.3 255.675 174.737 256.277 174.336C256.883 173.935 257.758 173.723 258.902 173.7L260.317 173.659V173.167C260.317 172.461 260.173 171.927 259.886 171.567C259.599 171.207 259.136 171.027 258.498 171.027C257.81 171.027 257.097 171.219 256.359 171.602L256.106 171.014C256.921 170.631 257.728 170.439 258.526 170.439C259.341 170.439 259.95 170.651 260.351 171.075C260.756 171.499 260.959 172.16 260.959 173.058V178H260.46ZM257.726 177.521C258.519 177.521 259.143 177.296 259.599 176.845C260.059 176.389 260.289 175.758 260.289 174.951V174.22L258.991 174.274C257.947 174.325 257.202 174.489 256.755 174.767C256.313 175.04 256.092 175.468 256.092 176.052C256.092 176.517 256.233 176.879 256.516 177.139C256.803 177.394 257.206 177.521 257.726 177.521ZM264.539 178H263.862V167.363H264.539V178ZM272.328 178H271.651V170.569H272.328V178ZM271.555 168.505C271.555 168.067 271.699 167.849 271.986 167.849C272.127 167.849 272.237 167.906 272.314 168.02C272.396 168.133 272.437 168.295 272.437 168.505C272.437 168.71 272.396 168.872 272.314 168.99C272.237 169.109 272.127 169.168 271.986 169.168C271.699 169.168 271.555 168.947 271.555 168.505ZM280.494 178V173.181C280.494 172.433 280.337 171.891 280.023 171.554C279.708 171.212 279.221 171.041 278.56 171.041C277.671 171.041 277.02 171.267 276.605 171.718C276.195 172.164 275.99 172.891 275.99 173.898V178H275.313V170.569H275.887L276.017 171.588H276.058C276.541 170.813 277.4 170.426 278.635 170.426C280.321 170.426 281.164 171.33 281.164 173.14V178H280.494ZM286.822 171.157H285.072V178H284.396V171.157H283.015V170.761L284.396 170.508V169.934C284.396 169.022 284.562 168.354 284.895 167.931C285.232 167.502 285.781 167.288 286.542 167.288C286.952 167.288 287.362 167.35 287.773 167.473L287.615 168.061C287.251 167.947 286.888 167.89 286.528 167.89C286 167.89 285.624 168.047 285.4 168.361C285.182 168.671 285.072 169.177 285.072 169.879V170.569H286.822V171.157ZM288.935 178H288.258V167.363H288.935V178ZM296.431 178L296.261 176.824H296.206C295.832 177.303 295.447 177.642 295.051 177.843C294.659 178.039 294.194 178.137 293.656 178.137C292.927 178.137 292.36 177.95 291.954 177.576C291.548 177.202 291.346 176.685 291.346 176.024C291.346 175.3 291.646 174.737 292.248 174.336C292.854 173.935 293.729 173.723 294.873 173.7L296.288 173.659V173.167C296.288 172.461 296.144 171.927 295.857 171.567C295.57 171.207 295.108 171.027 294.47 171.027C293.781 171.027 293.068 171.219 292.33 171.602L292.077 171.014C292.893 170.631 293.699 170.439 294.497 170.439C295.313 170.439 295.921 170.651 296.322 171.075C296.728 171.499 296.931 172.16 296.931 173.058V178H296.431ZM293.697 177.521C294.49 177.521 295.114 177.296 295.57 176.845C296.03 176.389 296.261 175.758 296.261 174.951V174.22L294.962 174.274C293.918 174.325 293.173 174.489 292.726 174.767C292.284 175.04 292.063 175.468 292.063 176.052C292.063 176.517 292.205 176.879 292.487 177.139C292.774 177.394 293.178 177.521 293.697 177.521ZM301.796 177.535C302.224 177.535 302.598 177.499 302.917 177.426V177.973C302.588 178.082 302.21 178.137 301.782 178.137C301.126 178.137 300.64 177.961 300.326 177.61C300.016 177.259 299.861 176.708 299.861 175.956V171.157H298.76V170.761L299.861 170.453L300.203 168.771H300.551V170.569H302.732V171.157H300.551V175.86C300.551 176.43 300.652 176.852 300.852 177.125C301.053 177.398 301.367 177.535 301.796 177.535ZM305.69 178H305.013V170.569H305.69V178ZM304.917 168.505C304.917 168.067 305.061 167.849 305.348 167.849C305.489 167.849 305.599 167.906 305.676 168.02C305.758 168.133 305.799 168.295 305.799 168.505C305.799 168.71 305.758 168.872 305.676 168.99C305.599 169.109 305.489 169.168 305.348 169.168C305.061 169.168 304.917 168.947 304.917 168.505ZM314.82 174.274C314.82 175.487 314.526 176.435 313.939 177.118C313.351 177.797 312.54 178.137 311.505 178.137C310.853 178.137 310.279 177.979 309.782 177.665C309.286 177.351 308.905 176.899 308.641 176.312C308.376 175.724 308.244 175.045 308.244 174.274C308.244 173.062 308.538 172.119 309.126 171.444C309.714 170.765 310.521 170.426 311.546 170.426C312.567 170.426 313.367 170.77 313.945 171.458C314.529 172.142 314.82 173.08 314.82 174.274ZM308.955 174.274C308.955 175.295 309.178 176.093 309.625 176.667C310.076 177.237 310.712 177.521 311.532 177.521C312.353 177.521 312.986 177.237 313.433 176.667C313.884 176.093 314.109 175.295 314.109 174.274C314.109 173.249 313.882 172.454 313.426 171.889C312.975 171.324 312.339 171.041 311.519 171.041C310.698 171.041 310.065 171.324 309.618 171.889C309.176 172.449 308.955 173.244 308.955 174.274ZM322.55 178V173.181C322.55 172.433 322.392 171.891 322.078 171.554C321.764 171.212 321.276 171.041 320.615 171.041C319.726 171.041 319.075 171.267 318.66 171.718C318.25 172.164 318.045 172.891 318.045 173.898V178H317.368V170.569H317.942L318.072 171.588H318.113C318.596 170.813 319.455 170.426 320.69 170.426C322.377 170.426 323.22 171.33 323.22 173.14V178H322.55Z" fill="#252423"/>
<path d="M206.816 408H204.482V395.725H200.283V393.723H211.016V395.725H206.816V408ZM223.249 402.58C223.249 404.344 222.796 405.721 221.891 406.711C220.986 407.701 219.727 408.195 218.112 408.195C217.103 408.195 216.211 407.967 215.436 407.512C214.662 407.056 214.066 406.402 213.649 405.549C213.233 404.696 213.024 403.706 213.024 402.58C213.024 400.829 213.473 399.462 214.372 398.479C215.27 397.495 216.537 397.004 218.171 397.004C219.733 397.004 220.97 397.508 221.882 398.518C222.793 399.52 223.249 400.874 223.249 402.58ZM215.387 402.58C215.387 405.074 216.309 406.32 218.151 406.32C219.974 406.32 220.886 405.074 220.886 402.58C220.886 400.113 219.968 398.879 218.132 398.879C217.168 398.879 216.468 399.198 216.032 399.836C215.602 400.474 215.387 401.389 215.387 402.58ZM228.812 402.297L230.111 400.676L233.373 397.199H236.019L231.673 401.838L236.293 408H233.597L230.13 403.264L228.871 404.299V408H226.595V392.805H228.871V400.217L228.754 402.297H228.812ZM243.457 408.195C241.778 408.195 240.463 407.707 239.512 406.73C238.568 405.747 238.096 404.396 238.096 402.678C238.096 400.913 238.536 399.527 239.414 398.518C240.293 397.508 241.501 397.004 243.037 397.004C244.463 397.004 245.59 397.437 246.416 398.303C247.243 399.169 247.657 400.36 247.657 401.877V403.117H240.459C240.492 404.165 240.775 404.973 241.309 405.539C241.843 406.099 242.595 406.379 243.565 406.379C244.203 406.379 244.795 406.32 245.342 406.203C245.896 406.079 246.488 405.878 247.12 405.598V407.463C246.56 407.73 245.993 407.919 245.42 408.029C244.847 408.14 244.193 408.195 243.457 408.195ZM243.037 398.742C242.308 398.742 241.722 398.973 241.28 399.436C240.843 399.898 240.583 400.572 240.498 401.457H245.401C245.388 400.565 245.173 399.891 244.756 399.436C244.34 398.973 243.767 398.742 243.037 398.742ZM260.466 408H258.161V401.359C258.161 400.526 257.992 399.904 257.654 399.494C257.321 399.084 256.791 398.879 256.062 398.879C255.092 398.879 254.382 399.165 253.933 399.738C253.484 400.311 253.259 401.271 253.259 402.619V408H250.964V397.199H252.761L253.083 398.615H253.2C253.526 398.101 253.988 397.704 254.587 397.424C255.186 397.144 255.85 397.004 256.579 397.004C259.17 397.004 260.466 398.322 260.466 400.959V408ZM271.615 404.924C271.615 405.979 271.231 406.789 270.463 407.355C269.695 407.915 268.594 408.195 267.162 408.195C265.723 408.195 264.568 407.977 263.695 407.541V405.559C264.965 406.145 266.146 406.438 267.24 406.438C268.653 406.438 269.359 406.011 269.359 405.158C269.359 404.885 269.281 404.657 269.125 404.475C268.969 404.292 268.712 404.104 268.354 403.908C267.995 403.713 267.497 403.492 266.859 403.244C265.616 402.762 264.773 402.281 264.33 401.799C263.894 401.317 263.676 400.692 263.676 399.924C263.676 398.999 264.047 398.283 264.789 397.775C265.538 397.261 266.553 397.004 267.836 397.004C269.105 397.004 270.307 397.261 271.439 397.775L270.697 399.504C269.532 399.022 268.552 398.781 267.758 398.781C266.547 398.781 265.941 399.126 265.941 399.816C265.941 400.155 266.098 400.441 266.41 400.676C266.729 400.91 267.419 401.232 268.48 401.643C269.372 401.988 270.02 402.303 270.424 402.59C270.827 402.876 271.127 403.208 271.322 403.586C271.518 403.957 271.615 404.403 271.615 404.924ZM281.563 408L281.104 406.496H281.026C280.505 407.154 279.981 407.603 279.454 407.844C278.927 408.078 278.249 408.195 277.423 408.195C276.361 408.195 275.531 407.909 274.932 407.336C274.34 406.763 274.044 405.952 274.044 404.904C274.044 403.791 274.457 402.951 275.284 402.385C276.111 401.818 277.371 401.509 279.063 401.457L280.929 401.398V400.822C280.929 400.132 280.766 399.618 280.44 399.279C280.121 398.934 279.623 398.762 278.946 398.762C278.393 398.762 277.862 398.843 277.354 399.006C276.846 399.169 276.358 399.361 275.889 399.582L275.147 397.941C275.733 397.635 276.374 397.404 277.071 397.248C277.768 397.085 278.425 397.004 279.044 397.004C280.417 397.004 281.453 397.303 282.149 397.902C282.852 398.501 283.204 399.442 283.204 400.725V408H281.563ZM278.145 406.438C278.979 406.438 279.646 406.206 280.147 405.744C280.655 405.275 280.909 404.621 280.909 403.781V402.844L279.522 402.902C278.442 402.941 277.654 403.124 277.159 403.449C276.671 403.768 276.427 404.26 276.427 404.924C276.427 405.406 276.57 405.78 276.856 406.047C277.143 406.307 277.572 406.438 278.145 406.438ZM289.402 408H287.107V392.805H289.402V408ZM298.11 408.195C296.43 408.195 295.115 407.707 294.164 406.73C293.22 405.747 292.748 404.396 292.748 402.678C292.748 400.913 293.188 399.527 294.067 398.518C294.946 397.508 296.153 397.004 297.69 397.004C299.116 397.004 300.242 397.437 301.069 398.303C301.896 399.169 302.309 400.36 302.309 401.877V403.117H295.112C295.144 404.165 295.427 404.973 295.961 405.539C296.495 406.099 297.247 406.379 298.217 406.379C298.855 406.379 299.448 406.32 299.995 406.203C300.548 406.079 301.14 405.878 301.772 405.598V407.463C301.212 407.73 300.646 407.919 300.073 408.029C299.5 408.14 298.845 408.195 298.11 408.195ZM297.69 398.742C296.961 398.742 296.375 398.973 295.932 399.436C295.496 399.898 295.235 400.572 295.151 401.457H300.053C300.04 400.565 299.825 399.891 299.409 399.436C298.992 398.973 298.419 398.742 297.69 398.742ZM317.488 408H315.193V398.781C315.193 397.681 315.219 396.809 315.271 396.164C315.122 396.32 314.936 396.493 314.715 396.682C314.5 396.87 313.771 397.469 312.527 398.479L311.375 397.023L315.574 393.723H317.488V408ZM332.554 400.861C332.554 403.342 332.153 405.184 331.352 406.389C330.558 407.593 329.341 408.195 327.7 408.195C326.111 408.195 324.907 407.574 324.087 406.33C323.266 405.087 322.856 403.264 322.856 400.861C322.856 398.342 323.253 396.486 324.048 395.295C324.848 394.097 326.066 393.498 327.7 393.498C329.295 393.498 330.503 394.123 331.323 395.373C332.143 396.623 332.554 398.452 332.554 400.861ZM325.18 400.861C325.18 402.808 325.379 404.198 325.776 405.031C326.18 405.865 326.821 406.281 327.7 406.281C328.579 406.281 329.22 405.858 329.624 405.012C330.034 404.165 330.239 402.782 330.239 400.861C330.239 398.947 330.034 397.564 329.624 396.711C329.22 395.852 328.579 395.422 327.7 395.422C326.821 395.422 326.18 395.842 325.776 396.682C325.379 397.521 325.18 398.915 325.18 400.861ZM336.847 398C336.847 398.97 336.942 399.693 337.13 400.168C337.319 400.643 337.629 400.881 338.058 400.881C338.918 400.881 339.347 399.921 339.347 398C339.347 396.079 338.918 395.119 338.058 395.119C337.629 395.119 337.319 395.357 337.13 395.832C336.942 396.307 336.847 397.03 336.847 398ZM341.242 397.98C341.242 399.478 340.972 400.604 340.431 401.359C339.897 402.108 339.106 402.482 338.058 402.482C337.069 402.482 336.3 402.095 335.754 401.32C335.213 400.539 334.943 399.426 334.943 397.98C334.943 395.005 335.981 393.518 338.058 393.518C339.08 393.518 339.865 393.905 340.412 394.68C340.965 395.448 341.242 396.548 341.242 397.98ZM346.144 403.703C346.144 404.673 346.239 405.399 346.427 405.881C346.623 406.363 346.935 406.604 347.365 406.604C348.218 406.604 348.644 405.637 348.644 403.703C348.644 401.796 348.218 400.842 347.365 400.842C346.935 400.842 346.623 401.076 346.427 401.545C346.239 402.014 346.144 402.733 346.144 403.703ZM350.539 403.703C350.539 405.201 350.268 406.324 349.728 407.072C349.188 407.821 348.4 408.195 347.365 408.195C346.375 408.195 345.607 407.811 345.06 407.043C344.513 406.268 344.24 405.155 344.24 403.703C344.24 400.728 345.282 399.24 347.365 399.24C348.367 399.24 349.145 399.624 349.699 400.393C350.259 401.161 350.539 402.264 350.539 403.703ZM347.638 393.723L339.718 408H337.824L345.744 393.723H347.638Z" fill="black"/>
<path d="M232.608 213H229.59V204.738L229.62 203.381L229.668 201.896C229.167 202.398 228.819 202.727 228.623 202.883L226.983 204.201L225.528 202.385L230.127 198.723H232.608V213ZM244.734 213H241.716V204.738L241.745 203.381L241.794 201.896C241.293 202.398 240.945 202.727 240.749 202.883L239.109 204.201L237.654 202.385L242.253 198.723H244.734V213ZM253.08 210.9C252.742 212.215 252.169 213.775 251.361 215.578H249.213C249.636 213.846 249.965 212.212 250.199 210.676H252.934L253.08 210.9ZM257.315 213L262.677 201.281H255.636V198.742H265.88V200.637L260.479 213H257.315ZM277.449 201.916C277.449 202.808 277.179 203.566 276.638 204.191C276.098 204.816 275.339 205.246 274.363 205.48V205.539C275.515 205.682 276.388 206.034 276.98 206.594C277.573 207.147 277.869 207.896 277.869 208.84C277.869 210.214 277.371 211.285 276.375 212.053C275.379 212.814 273.956 213.195 272.107 213.195C270.558 213.195 269.184 212.938 267.986 212.424V209.855C268.539 210.135 269.148 210.363 269.812 210.539C270.476 210.715 271.134 210.803 271.785 210.803C272.781 210.803 273.517 210.633 273.992 210.295C274.467 209.956 274.705 209.413 274.705 208.664C274.705 207.993 274.431 207.518 273.884 207.238C273.337 206.958 272.465 206.818 271.267 206.818H270.183V204.504H271.287C272.393 204.504 273.201 204.361 273.709 204.074C274.223 203.781 274.48 203.283 274.48 202.58C274.48 201.499 273.803 200.959 272.449 200.959C271.98 200.959 271.502 201.037 271.013 201.193C270.532 201.35 269.994 201.62 269.402 202.004L268.005 199.924C269.308 198.986 270.86 198.518 272.664 198.518C274.142 198.518 275.307 198.817 276.16 199.416C277.019 200.015 277.449 200.848 277.449 201.916ZM290.053 205.861C290.053 208.355 289.643 210.201 288.823 211.398C288.009 212.596 286.752 213.195 285.053 213.195C283.406 213.195 282.162 212.577 281.323 211.34C280.489 210.103 280.073 208.277 280.073 205.861C280.073 203.342 280.48 201.486 281.293 200.295C282.107 199.097 283.36 198.498 285.053 198.498C286.7 198.498 287.944 199.123 288.784 200.373C289.63 201.623 290.053 203.452 290.053 205.861ZM283.071 205.861C283.071 207.613 283.22 208.869 283.52 209.631C283.826 210.386 284.337 210.764 285.053 210.764C285.756 210.764 286.264 210.38 286.577 209.611C286.889 208.843 287.045 207.593 287.045 205.861C287.045 204.11 286.886 202.854 286.567 202.092C286.254 201.324 285.75 200.939 285.053 200.939C284.343 200.939 283.836 201.324 283.53 202.092C283.224 202.854 283.071 204.11 283.071 205.861ZM295.958 210.9C295.62 212.215 295.047 213.775 294.239 215.578H292.091C292.514 213.846 292.843 212.212 293.077 210.676H295.812L295.958 210.9ZM308.68 205.861C308.68 208.355 308.27 210.201 307.449 211.398C306.635 212.596 305.379 213.195 303.68 213.195C302.033 213.195 300.789 212.577 299.949 211.34C299.116 210.103 298.699 208.277 298.699 205.861C298.699 203.342 299.106 201.486 299.92 200.295C300.734 199.097 301.987 198.498 303.68 198.498C305.327 198.498 306.57 199.123 307.41 200.373C308.257 201.623 308.68 203.452 308.68 205.861ZM301.697 205.861C301.697 207.613 301.847 208.869 302.146 209.631C302.452 210.386 302.964 210.764 303.68 210.764C304.383 210.764 304.891 210.38 305.203 209.611C305.516 208.843 305.672 207.593 305.672 205.861C305.672 204.11 305.512 202.854 305.193 202.092C304.881 201.324 304.376 200.939 303.68 200.939C302.97 200.939 302.462 201.324 302.156 202.092C301.85 202.854 301.697 204.11 301.697 205.861ZM320.805 205.861C320.805 208.355 320.395 210.201 319.575 211.398C318.761 212.596 317.505 213.195 315.805 213.195C314.158 213.195 312.915 212.577 312.075 211.34C311.242 210.103 310.825 208.277 310.825 205.861C310.825 203.342 311.232 201.486 312.046 200.295C312.86 199.097 314.113 198.498 315.805 198.498C317.453 198.498 318.696 199.123 319.536 200.373C320.382 201.623 320.805 203.452 320.805 205.861ZM313.823 205.861C313.823 207.613 313.973 208.869 314.272 209.631C314.578 210.386 315.089 210.764 315.805 210.764C316.509 210.764 317.016 210.38 317.329 209.611C317.641 208.843 317.798 207.593 317.798 205.861C317.798 204.11 317.638 202.854 317.319 202.092C317.007 201.324 316.502 200.939 315.805 200.939C315.096 200.939 314.588 201.324 314.282 202.092C313.976 202.854 313.823 204.11 313.823 205.861ZM332.931 205.861C332.931 208.355 332.521 210.201 331.701 211.398C330.887 212.596 329.63 213.195 327.931 213.195C326.284 213.195 325.041 212.577 324.201 211.34C323.367 210.103 322.951 208.277 322.951 205.861C322.951 203.342 323.358 201.486 324.171 200.295C324.985 199.097 326.239 198.498 327.931 198.498C329.578 198.498 330.822 199.123 331.662 200.373C332.508 201.623 332.931 203.452 332.931 205.861ZM325.949 205.861C325.949 207.613 326.099 208.869 326.398 209.631C326.704 210.386 327.215 210.764 327.931 210.764C328.634 210.764 329.142 210.38 329.455 209.611C329.767 208.843 329.923 207.593 329.923 205.861C329.923 204.11 329.764 202.854 329.445 202.092C329.132 201.324 328.628 200.939 327.931 200.939C327.222 200.939 326.714 201.324 326.408 202.092C326.102 202.854 325.949 204.11 325.949 205.861ZM264.804 240V225.723H267.831V240H264.804ZM278.189 228.037C277.05 228.037 276.168 228.467 275.543 229.326C274.918 230.179 274.605 231.37 274.605 232.9C274.605 236.084 275.8 237.676 278.189 237.676C279.192 237.676 280.406 237.425 281.832 236.924V239.463C280.66 239.951 279.352 240.195 277.906 240.195C275.829 240.195 274.241 239.567 273.141 238.311C272.04 237.048 271.49 235.238 271.49 232.881C271.49 231.396 271.76 230.098 272.301 228.984C272.841 227.865 273.616 227.008 274.625 226.416C275.641 225.817 276.829 225.518 278.189 225.518C279.576 225.518 280.969 225.853 282.369 226.523L281.393 228.984C280.859 228.73 280.322 228.509 279.781 228.32C279.241 228.132 278.71 228.037 278.189 228.037ZM293.802 240H285.579V225.723H293.802V228.203H288.606V231.338H293.44V233.818H288.606V237.5H293.802V240Z" fill="#2BD2F7"/>
<path d="M231.816 442H229.482V429.725H225.283V427.723H236.016V429.725H231.816V442ZM243.386 442.195C241.706 442.195 240.391 441.707 239.44 440.73C238.496 439.747 238.024 438.396 238.024 436.678C238.024 434.913 238.464 433.527 239.343 432.518C240.221 431.508 241.429 431.004 242.966 431.004C244.391 431.004 245.518 431.437 246.345 432.303C247.171 433.169 247.585 434.36 247.585 435.877V437.117H240.387C240.42 438.165 240.703 438.973 241.237 439.539C241.771 440.099 242.523 440.379 243.493 440.379C244.131 440.379 244.723 440.32 245.27 440.203C245.824 440.079 246.416 439.878 247.048 439.598V441.463C246.488 441.73 245.921 441.919 245.348 442.029C244.776 442.14 244.121 442.195 243.386 442.195ZM242.966 432.742C242.236 432.742 241.651 432.973 241.208 433.436C240.772 433.898 240.511 434.572 240.427 435.457H245.329C245.316 434.565 245.101 433.891 244.684 433.436C244.268 432.973 243.695 432.742 242.966 432.742ZM257.65 442L257.191 440.496H257.113C256.592 441.154 256.068 441.603 255.541 441.844C255.013 442.078 254.336 442.195 253.509 442.195C252.448 442.195 251.618 441.909 251.019 441.336C250.427 440.763 250.13 439.952 250.13 438.904C250.13 437.791 250.544 436.951 251.371 436.385C252.198 435.818 253.457 435.509 255.15 435.457L257.015 435.398V434.822C257.015 434.132 256.852 433.618 256.527 433.279C256.208 432.934 255.71 432.762 255.033 432.762C254.479 432.762 253.949 432.843 253.441 433.006C252.933 433.169 252.445 433.361 251.976 433.582L251.234 431.941C251.82 431.635 252.461 431.404 253.158 431.248C253.854 431.085 254.512 431.004 255.13 431.004C256.504 431.004 257.539 431.303 258.236 431.902C258.939 432.501 259.291 433.442 259.291 434.725V442H257.65ZM254.232 440.438C255.065 440.438 255.733 440.206 256.234 439.744C256.742 439.275 256.996 438.621 256.996 437.781V436.844L255.609 436.902C254.528 436.941 253.74 437.124 253.246 437.449C252.757 437.768 252.513 438.26 252.513 438.924C252.513 439.406 252.657 439.78 252.943 440.047C253.229 440.307 253.659 440.438 254.232 440.438ZM272.295 442H269.991V435.34C269.991 434.513 269.834 433.898 269.522 433.494C269.209 433.084 268.721 432.879 268.057 432.879C267.172 432.879 266.521 433.169 266.104 433.748C265.694 434.321 265.489 435.278 265.489 436.619V442H263.194V431.199H264.991L265.313 432.615H265.43C265.73 432.101 266.162 431.704 266.729 431.424C267.302 431.144 267.93 431.004 268.614 431.004C270.274 431.004 271.374 431.57 271.914 432.703H272.071C272.39 432.169 272.839 431.753 273.418 431.453C273.998 431.154 274.662 431.004 275.411 431.004C276.7 431.004 277.637 431.329 278.223 431.98C278.815 432.632 279.112 433.624 279.112 434.959V442H276.817V435.34C276.817 434.513 276.657 433.898 276.338 433.494C276.026 433.084 275.537 432.879 274.873 432.879C273.982 432.879 273.327 433.159 272.911 433.719C272.5 434.272 272.295 435.125 272.295 436.277V442ZM295.665 442L301.309 429.764H293.887V427.742H303.761V429.344L298.145 442H295.665ZM308.015 432C308.015 432.97 308.11 433.693 308.298 434.168C308.487 434.643 308.796 434.881 309.226 434.881C310.086 434.881 310.515 433.921 310.515 432C310.515 430.079 310.086 429.119 309.226 429.119C308.796 429.119 308.487 429.357 308.298 429.832C308.11 430.307 308.015 431.03 308.015 432ZM312.41 431.98C312.41 433.478 312.14 434.604 311.599 435.359C311.065 436.108 310.274 436.482 309.226 436.482C308.237 436.482 307.468 436.095 306.921 435.32C306.381 434.539 306.111 433.426 306.111 431.98C306.111 429.005 307.149 427.518 309.226 427.518C310.248 427.518 311.033 427.905 311.58 428.68C312.133 429.448 312.41 430.548 312.41 431.98ZM317.312 437.703C317.312 438.673 317.407 439.399 317.595 439.881C317.791 440.363 318.103 440.604 318.533 440.604C319.386 440.604 319.812 439.637 319.812 437.703C319.812 435.796 319.386 434.842 318.533 434.842C318.103 434.842 317.791 435.076 317.595 435.545C317.407 436.014 317.312 436.733 317.312 437.703ZM321.707 437.703C321.707 439.201 321.436 440.324 320.896 441.072C320.356 441.821 319.568 442.195 318.533 442.195C317.543 442.195 316.775 441.811 316.228 441.043C315.681 440.268 315.408 439.155 315.408 437.703C315.408 434.728 316.449 433.24 318.533 433.24C319.535 433.24 320.313 433.624 320.867 434.393C321.427 435.161 321.707 436.264 321.707 437.703ZM318.806 427.723L310.886 442H308.992L316.912 427.723H318.806Z" fill="black"/>
<defs>
<linearGradient id="paint0_linear" x1="278.5" y1="40" x2="278.5" y2="365" gradientUnits="userSpaceOnUse">
<stop stop-color="#4AFFD9"/>
<stop offset="1" stop-color="#76CEFF"/>
</linearGradient>
</defs>
</svg>
