<svg width="548" height="553" viewBox="0 0 548 553" fill="none" xmlns="http://www.w3.org/2000/svg">
<rect width="548" height="553" rx="16" fill="white" fill-opacity="0.6"/>
<path fill-rule="evenodd" clip-rule="evenodd" d="M279.5 365C369.246 365 442 292.246 442 202.5C442 112.754 369.246 40 279.5 40C189.754 40 117 112.754 117 202.5C117 292.246 189.754 365 279.5 365ZM279.498 298.898C332.738 298.898 375.897 255.739 375.897 202.5C375.897 149.261 332.738 106.102 279.498 106.102C226.259 106.102 183.1 149.261 183.1 202.5C183.1 255.739 226.259 298.898 279.498 298.898Z" fill="url(#paint0_linear)"/>
<mask id="mask0" mask-type="alpha" maskUnits="userSpaceOnUse" x="117" y="40" width="325" height="325">
<path fill-rule="evenodd" clip-rule="evenodd" d="M279.5 365C369.246 365 442 292.246 442 202.5C442 112.754 369.246 40 279.5 40C189.754 40 117 112.754 117 202.5C117 292.246 189.754 365 279.5 365ZM279.498 298.898C332.738 298.898 375.897 255.739 375.897 202.5C375.897 149.261 332.738 106.102 279.498 106.102C226.259 106.102 183.1 149.261 183.1 202.5C183.1 255.739 226.259 298.898 279.498 298.898Z" fill="url(#paint1_linear)"/>
</mask>
<g mask="url(#mask0)">
<path d="M280.419 112.529V40.9185L385.08 -7.73975L498.004 70.297L511.775 362.246L335.138 367.65L309.115 288.892L280.419 112.529Z" fill="url(#paint2_linear)"/>
</g>
<path d="M237.02 178H236.315V168.662H233.068V168.006H240.267V168.662H237.02V178ZM248.221 174.274C248.221 175.487 247.927 176.435 247.34 177.118C246.752 177.797 245.941 178.137 244.906 178.137C244.254 178.137 243.68 177.979 243.183 177.665C242.687 177.351 242.306 176.899 242.042 176.312C241.777 175.724 241.645 175.045 241.645 174.274C241.645 173.062 241.939 172.119 242.527 171.444C243.115 170.765 243.922 170.426 244.947 170.426C245.968 170.426 246.768 170.77 247.346 171.458C247.93 172.142 248.221 173.08 248.221 174.274ZM242.356 174.274C242.356 175.295 242.58 176.093 243.026 176.667C243.477 177.237 244.113 177.521 244.933 177.521C245.754 177.521 246.387 177.237 246.834 176.667C247.285 176.093 247.511 175.295 247.511 174.274C247.511 173.249 247.283 172.454 246.827 171.889C246.376 171.324 245.74 171.041 244.92 171.041C244.099 171.041 243.466 171.324 243.019 171.889C242.577 172.449 242.356 173.244 242.356 174.274ZM252.731 177.535C253.159 177.535 253.533 177.499 253.852 177.426V177.973C253.524 178.082 253.146 178.137 252.717 178.137C252.061 178.137 251.576 177.961 251.261 177.61C250.951 177.259 250.796 176.708 250.796 175.956V171.157H249.696V170.761L250.796 170.453L251.138 168.771H251.487V170.569H253.667V171.157H251.487V175.86C251.487 176.43 251.587 176.852 251.788 177.125C251.988 177.398 252.303 177.535 252.731 177.535ZM260.46 178L260.289 176.824H260.235C259.861 177.303 259.476 177.642 259.079 177.843C258.687 178.039 258.223 178.137 257.685 178.137C256.956 178.137 256.388 177.95 255.983 177.576C255.577 177.202 255.374 176.685 255.374 176.024C255.374 175.3 255.675 174.737 256.277 174.336C256.883 173.935 257.758 173.723 258.902 173.7L260.317 173.659V173.167C260.317 172.461 260.173 171.927 259.886 171.567C259.599 171.207 259.136 171.027 258.498 171.027C257.81 171.027 257.097 171.219 256.359 171.602L256.106 171.014C256.921 170.631 257.728 170.439 258.526 170.439C259.341 170.439 259.95 170.651 260.351 171.075C260.756 171.499 260.959 172.16 260.959 173.058V178H260.46ZM257.726 177.521C258.519 177.521 259.143 177.296 259.599 176.845C260.059 176.389 260.289 175.758 260.289 174.951V174.22L258.991 174.274C257.947 174.325 257.202 174.489 256.755 174.767C256.313 175.04 256.092 175.468 256.092 176.052C256.092 176.517 256.233 176.879 256.516 177.139C256.803 177.394 257.206 177.521 257.726 177.521ZM264.539 178H263.862V167.363H264.539V178ZM272.328 178H271.651V170.569H272.328V178ZM271.555 168.505C271.555 168.067 271.699 167.849 271.986 167.849C272.127 167.849 272.237 167.906 272.314 168.02C272.396 168.133 272.437 168.295 272.437 168.505C272.437 168.71 272.396 168.872 272.314 168.99C272.237 169.109 272.127 169.168 271.986 169.168C271.699 169.168 271.555 168.947 271.555 168.505ZM280.494 178V173.181C280.494 172.433 280.337 171.891 280.023 171.554C279.708 171.212 279.221 171.041 278.56 171.041C277.671 171.041 277.02 171.267 276.605 171.718C276.195 172.164 275.99 172.891 275.99 173.898V178H275.313V170.569H275.887L276.017 171.588H276.058C276.541 170.813 277.4 170.426 278.635 170.426C280.321 170.426 281.164 171.33 281.164 173.14V178H280.494ZM286.822 171.157H285.072V178H284.396V171.157H283.015V170.761L284.396 170.508V169.934C284.396 169.022 284.562 168.354 284.895 167.931C285.232 167.502 285.781 167.288 286.542 167.288C286.952 167.288 287.362 167.35 287.773 167.473L287.615 168.061C287.251 167.947 286.888 167.89 286.528 167.89C286 167.89 285.624 168.047 285.4 168.361C285.182 168.671 285.072 169.177 285.072 169.879V170.569H286.822V171.157ZM288.935 178H288.258V167.363H288.935V178ZM296.431 178L296.261 176.824H296.206C295.832 177.303 295.447 177.642 295.051 177.843C294.659 178.039 294.194 178.137 293.656 178.137C292.927 178.137 292.36 177.95 291.954 177.576C291.548 177.202 291.346 176.685 291.346 176.024C291.346 175.3 291.646 174.737 292.248 174.336C292.854 173.935 293.729 173.723 294.873 173.7L296.288 173.659V173.167C296.288 172.461 296.144 171.927 295.857 171.567C295.57 171.207 295.108 171.027 294.47 171.027C293.781 171.027 293.068 171.219 292.33 171.602L292.077 171.014C292.893 170.631 293.699 170.439 294.497 170.439C295.313 170.439 295.921 170.651 296.322 171.075C296.728 171.499 296.931 172.16 296.931 173.058V178H296.431ZM293.697 177.521C294.49 177.521 295.114 177.296 295.57 176.845C296.03 176.389 296.261 175.758 296.261 174.951V174.22L294.962 174.274C293.918 174.325 293.173 174.489 292.726 174.767C292.284 175.04 292.063 175.468 292.063 176.052C292.063 176.517 292.205 176.879 292.487 177.139C292.774 177.394 293.178 177.521 293.697 177.521ZM301.796 177.535C302.224 177.535 302.598 177.499 302.917 177.426V177.973C302.588 178.082 302.21 178.137 301.782 178.137C301.126 178.137 300.64 177.961 300.326 177.61C300.016 177.259 299.861 176.708 299.861 175.956V171.157H298.76V170.761L299.861 170.453L300.203 168.771H300.551V170.569H302.732V171.157H300.551V175.86C300.551 176.43 300.652 176.852 300.852 177.125C301.053 177.398 301.367 177.535 301.796 177.535ZM305.69 178H305.013V170.569H305.69V178ZM304.917 168.505C304.917 168.067 305.061 167.849 305.348 167.849C305.489 167.849 305.599 167.906 305.676 168.02C305.758 168.133 305.799 168.295 305.799 168.505C305.799 168.71 305.758 168.872 305.676 168.99C305.599 169.109 305.489 169.168 305.348 169.168C305.061 169.168 304.917 168.947 304.917 168.505ZM314.82 174.274C314.82 175.487 314.526 176.435 313.939 177.118C313.351 177.797 312.54 178.137 311.505 178.137C310.853 178.137 310.279 177.979 309.782 177.665C309.286 177.351 308.905 176.899 308.641 176.312C308.376 175.724 308.244 175.045 308.244 174.274C308.244 173.062 308.538 172.119 309.126 171.444C309.714 170.765 310.521 170.426 311.546 170.426C312.567 170.426 313.367 170.77 313.945 171.458C314.529 172.142 314.82 173.08 314.82 174.274ZM308.955 174.274C308.955 175.295 309.178 176.093 309.625 176.667C310.076 177.237 310.712 177.521 311.532 177.521C312.353 177.521 312.986 177.237 313.433 176.667C313.884 176.093 314.109 175.295 314.109 174.274C314.109 173.249 313.882 172.454 313.426 171.889C312.975 171.324 312.339 171.041 311.519 171.041C310.698 171.041 310.065 171.324 309.618 171.889C309.176 172.449 308.955 173.244 308.955 174.274ZM322.55 178V173.181C322.55 172.433 322.392 171.891 322.078 171.554C321.764 171.212 321.276 171.041 320.615 171.041C319.726 171.041 319.075 171.267 318.66 171.718C318.25 172.164 318.045 172.891 318.045 173.898V178H317.368V170.569H317.942L318.072 171.588H318.113C318.596 170.813 319.455 170.426 320.69 170.426C322.377 170.426 323.22 171.33 323.22 173.14V178H322.55Z" fill="#252423"/>
<path d="M68.7637 469.006V475.473C68.7637 476.621 68.431 477.519 67.7656 478.166C67.1003 478.813 66.1729 479.137 64.9834 479.137C63.8258 479.137 62.9212 478.813 62.2695 478.166C61.6224 477.514 61.2988 476.607 61.2988 475.445V469.006H62.0029V475.473C62.0029 476.434 62.2695 477.184 62.8027 477.722C63.3359 478.255 64.0902 478.521 65.0654 478.521C66.0179 478.521 66.7562 478.259 67.2803 477.735C67.8044 477.207 68.0664 476.475 68.0664 475.541V469.006H68.7637ZM76.992 479V474.181C76.992 473.433 76.8347 472.891 76.5203 472.554C76.2058 472.212 75.7182 472.041 75.0574 472.041C74.1687 472.041 73.517 472.267 73.1023 472.718C72.6921 473.164 72.4871 473.891 72.4871 474.898V479H71.8103V471.569H72.3845L72.5144 472.588H72.5554C73.0385 471.813 73.8976 471.426 75.1326 471.426C76.8188 471.426 77.6619 472.33 77.6619 474.14V479H76.992ZM81.2349 479H80.5581V468.363H81.2349V479ZM90.3655 475.274C90.3655 476.487 90.0716 477.435 89.4837 478.118C88.8958 478.797 88.0846 479.137 87.0501 479.137C86.3984 479.137 85.8242 478.979 85.3274 478.665C84.8307 478.351 84.4501 477.899 84.1858 477.312C83.9215 476.724 83.7893 476.045 83.7893 475.274C83.7893 474.062 84.0833 473.119 84.6712 472.444C85.2591 471.765 86.0657 471.426 87.0911 471.426C88.1119 471.426 88.9117 471.77 89.4905 472.458C90.0738 473.142 90.3655 474.08 90.3655 475.274ZM84.5003 475.274C84.5003 476.295 84.7236 477.093 85.1702 477.667C85.6214 478.237 86.2571 478.521 87.0774 478.521C87.8977 478.521 88.5312 478.237 88.9778 477.667C89.429 477.093 89.6546 476.295 89.6546 475.274C89.6546 474.249 89.4267 473.454 88.971 472.889C88.5198 472.324 87.8841 472.041 87.0637 472.041C86.2434 472.041 85.61 472.324 85.1634 472.889C84.7213 473.449 84.5003 474.244 84.5003 475.274ZM95.8799 479.137C94.8181 479.137 93.9864 478.802 93.3848 478.132C92.7832 477.462 92.4825 476.528 92.4825 475.329C92.4825 474.099 92.7946 473.142 93.419 472.458C94.0433 471.77 94.8978 471.426 95.9825 471.426C96.625 471.426 97.2403 471.537 97.8282 471.761L97.6436 472.362C97.001 472.148 96.4427 472.041 95.9688 472.041C95.0573 472.041 94.3669 472.324 93.8975 472.889C93.4281 473.449 93.1934 474.258 93.1934 475.315C93.1934 476.318 93.4281 477.104 93.8975 477.674C94.3669 478.239 95.0232 478.521 95.8662 478.521C96.5407 478.521 97.1674 478.401 97.7461 478.159V478.788C97.2722 479.021 96.6501 479.137 95.8799 479.137ZM100.724 475.739L104.518 471.569H105.339L102.413 474.741L105.592 479H104.778L101.955 475.247L100.738 476.354V479H100.061V468.363H100.738V473.695L100.69 475.739H100.724ZM110.334 479.137C109.253 479.137 108.41 478.804 107.804 478.139C107.203 477.473 106.902 476.541 106.902 475.343C106.902 474.158 107.194 473.21 107.777 472.499C108.36 471.784 109.146 471.426 110.135 471.426C111.01 471.426 111.701 471.731 112.207 472.342C112.712 472.952 112.965 473.782 112.965 474.83V475.377H107.613C107.622 476.398 107.859 477.177 108.324 477.715C108.793 478.253 109.463 478.521 110.334 478.521C110.757 478.521 111.129 478.492 111.448 478.433C111.771 478.373 112.179 478.246 112.671 478.05V478.665C112.252 478.847 111.865 478.97 111.509 479.034C111.154 479.103 110.762 479.137 110.334 479.137ZM110.135 472.027C109.42 472.027 108.846 472.264 108.413 472.738C107.98 473.208 107.727 473.887 107.654 474.775H112.248C112.248 473.914 112.061 473.242 111.687 472.759C111.313 472.271 110.796 472.027 110.135 472.027ZM118.227 471.426C118.765 471.426 119.229 471.524 119.621 471.72C120.013 471.916 120.364 472.251 120.674 472.725H120.715C120.688 472.15 120.674 471.588 120.674 471.036V468.363H121.344V479H120.9L120.729 477.865H120.674C120.109 478.713 119.298 479.137 118.241 479.137C117.215 479.137 116.431 478.818 115.889 478.18C115.347 477.542 115.076 476.612 115.076 475.391C115.076 474.105 115.344 473.123 115.882 472.444C116.42 471.765 117.201 471.426 118.227 471.426ZM118.227 472.041C117.416 472.041 116.805 472.326 116.395 472.896C115.989 473.465 115.786 474.292 115.786 475.377C115.786 477.482 116.604 478.535 118.241 478.535C119.079 478.535 119.694 478.291 120.086 477.804C120.478 477.316 120.674 476.512 120.674 475.391V475.274C120.674 474.126 120.48 473.301 120.093 472.8C119.71 472.294 119.088 472.041 118.227 472.041ZM128.634 479V469.006H129.331V479H128.634ZM141.763 479V474.126C141.763 473.401 141.622 472.873 141.339 472.54C141.057 472.207 140.624 472.041 140.041 472.041C139.28 472.041 138.717 472.251 138.352 472.67C137.988 473.089 137.805 473.748 137.805 474.646V479H137.115V473.921C137.115 472.668 136.541 472.041 135.392 472.041C134.613 472.041 134.046 472.269 133.69 472.725C133.335 473.176 133.157 473.9 133.157 474.898V479H132.48V471.569H133.041L133.184 472.588H133.225C133.43 472.219 133.722 471.934 134.1 471.733C134.478 471.528 134.895 471.426 135.351 471.426C136.522 471.426 137.274 471.866 137.607 472.745H137.634C137.876 472.321 138.199 471.995 138.605 471.768C139.015 471.54 139.48 471.426 140 471.426C140.811 471.426 141.419 471.642 141.825 472.075C142.23 472.508 142.433 473.196 142.433 474.14V479H141.763ZM154.613 479V474.126C154.613 473.401 154.471 472.873 154.189 472.54C153.906 472.207 153.473 472.041 152.89 472.041C152.129 472.041 151.566 472.251 151.202 472.67C150.837 473.089 150.655 473.748 150.655 474.646V479H149.964V473.921C149.964 472.668 149.39 472.041 148.242 472.041C147.462 472.041 146.895 472.269 146.539 472.725C146.184 473.176 146.006 473.9 146.006 474.898V479H145.329V471.569H145.89L146.034 472.588H146.075C146.28 472.219 146.571 471.934 146.95 471.733C147.328 471.528 147.745 471.426 148.201 471.426C149.372 471.426 150.124 471.866 150.456 472.745H150.484C150.725 472.321 151.049 471.995 151.454 471.768C151.865 471.54 152.329 471.426 152.849 471.426C153.66 471.426 154.269 471.642 154.674 472.075C155.08 472.508 155.283 473.196 155.283 474.14V479H154.613ZM161.18 479.137C160.1 479.137 159.257 478.804 158.651 478.139C158.049 477.473 157.748 476.541 157.748 475.343C157.748 474.158 158.04 473.21 158.623 472.499C159.206 471.784 159.993 471.426 160.982 471.426C161.857 471.426 162.547 471.731 163.053 472.342C163.559 472.952 163.812 473.782 163.812 474.83V475.377H158.459C158.468 476.398 158.705 477.177 159.17 477.715C159.639 478.253 160.309 478.521 161.18 478.521C161.604 478.521 161.975 478.492 162.294 478.433C162.618 478.373 163.026 478.246 163.518 478.05V478.665C163.098 478.847 162.711 478.97 162.356 479.034C162 479.103 161.608 479.137 161.18 479.137ZM160.982 472.027C160.266 472.027 159.692 472.264 159.259 472.738C158.826 473.208 158.573 473.887 158.5 474.775H163.094C163.094 473.914 162.907 473.242 162.533 472.759C162.16 472.271 161.642 472.027 160.982 472.027ZM169.073 471.426C169.611 471.426 170.076 471.524 170.468 471.72C170.86 471.916 171.21 472.251 171.52 472.725H171.561C171.534 472.15 171.52 471.588 171.52 471.036V468.363H172.19V479H171.746L171.575 477.865H171.52C170.955 478.713 170.144 479.137 169.087 479.137C168.061 479.137 167.278 478.818 166.735 478.18C166.193 477.542 165.922 476.612 165.922 475.391C165.922 474.105 166.191 473.123 166.728 472.444C167.266 471.765 168.048 471.426 169.073 471.426ZM169.073 472.041C168.262 472.041 167.651 472.326 167.241 472.896C166.835 473.465 166.633 474.292 166.633 475.377C166.633 477.482 167.451 478.535 169.087 478.535C169.925 478.535 170.541 478.291 170.933 477.804C171.324 477.316 171.52 476.512 171.52 475.391V475.274C171.52 474.126 171.327 473.301 170.939 472.8C170.557 472.294 169.934 472.041 169.073 472.041Z" fill="#252423"/>
<line x1="35" y1="474" x2="45" y2="474" stroke="url(#paint3_linear)" stroke-width="10" stroke-linecap="round"/>
<path d="M61.415 508V498.006H62.1123V507.344H66.877V508H61.415ZM75.0711 504.274C75.0711 505.487 74.7771 506.435 74.1892 507.118C73.6013 507.797 72.7901 508.137 71.7556 508.137C71.1039 508.137 70.5297 507.979 70.033 507.665C69.5362 507.351 69.1557 506.899 68.8914 506.312C68.627 505.724 68.4949 505.045 68.4949 504.274C68.4949 503.062 68.7888 502.119 69.3767 501.444C69.9646 500.765 70.7712 500.426 71.7966 500.426C72.8175 500.426 73.6173 500.77 74.1961 501.458C74.7794 502.142 75.0711 503.08 75.0711 504.274ZM69.2058 504.274C69.2058 505.295 69.4291 506.093 69.8757 506.667C70.3269 507.237 70.9627 507.521 71.783 507.521C72.6033 507.521 73.2367 507.237 73.6834 506.667C74.1345 506.093 74.3601 505.295 74.3601 504.274C74.3601 503.249 74.1323 502.454 73.6765 501.889C73.2254 501.324 72.5896 501.041 71.7693 501.041C70.949 501.041 70.3155 501.324 69.8689 501.889C69.4268 502.449 69.2058 503.244 69.2058 504.274ZM80.5855 508.137C79.5236 508.137 78.6919 507.802 78.0904 507.132C77.4888 506.462 77.188 505.528 77.188 504.329C77.188 503.099 77.5002 502.142 78.1245 501.458C78.7489 500.77 79.6034 500.426 80.688 500.426C81.3306 500.426 81.9458 500.537 82.5337 500.761L82.3491 501.362C81.7066 501.148 81.1483 501.041 80.6743 501.041C79.7629 501.041 79.0724 501.324 78.603 501.889C78.1336 502.449 77.8989 503.258 77.8989 504.315C77.8989 505.318 78.1336 506.104 78.603 506.674C79.0724 507.239 79.7287 507.521 80.5718 507.521C81.2463 507.521 81.8729 507.401 82.4517 507.159V507.788C81.9777 508.021 81.3557 508.137 80.5855 508.137ZM85.43 504.739L89.2239 500.569H90.0442L87.1184 503.741L90.2971 508H89.4837L86.6604 504.247L85.4436 505.354V508H84.7669V497.363H85.4436V502.695L85.3958 504.739H85.43ZM95.0391 508.137C93.959 508.137 93.1159 507.804 92.5098 507.139C91.9082 506.473 91.6075 505.541 91.6075 504.343C91.6075 503.158 91.8991 502.21 92.4825 501.499C93.0658 500.784 93.8519 500.426 94.8409 500.426C95.7159 500.426 96.4063 500.731 96.9121 501.342C97.418 501.952 97.6709 502.782 97.6709 503.83V504.377H92.3184C92.3275 505.398 92.5645 506.177 93.0293 506.715C93.4987 507.253 94.1687 507.521 95.0391 507.521C95.4629 507.521 95.8343 507.492 96.1534 507.433C96.4769 507.373 96.8848 507.246 97.377 507.05V507.665C96.9577 507.847 96.5704 507.97 96.2149 508.034C95.8594 508.103 95.4675 508.137 95.0391 508.137ZM94.8409 501.027C94.1254 501.027 93.5511 501.264 93.1182 501.738C92.6853 502.208 92.4323 502.887 92.3594 503.775H96.9532C96.9532 502.914 96.7663 502.242 96.3926 501.759C96.0189 501.271 95.5017 501.027 94.8409 501.027ZM102.932 500.426C103.47 500.426 103.935 500.524 104.327 500.72C104.719 500.916 105.07 501.251 105.38 501.725H105.421C105.393 501.15 105.38 500.588 105.38 500.036V497.363H106.05V508H105.605L105.434 506.865H105.38C104.815 507.713 104.003 508.137 102.946 508.137C101.921 508.137 101.137 507.818 100.595 507.18C100.052 506.542 99.7811 505.612 99.7811 504.391C99.7811 503.105 100.05 502.123 100.588 501.444C101.125 500.765 101.907 500.426 102.932 500.426ZM102.932 501.041C102.121 501.041 101.511 501.326 101.1 501.896C100.695 502.465 100.492 503.292 100.492 504.377C100.492 506.482 101.31 507.535 102.946 507.535C103.785 507.535 104.4 507.291 104.792 506.804C105.184 506.316 105.38 505.512 105.38 504.391V504.274C105.38 503.126 105.186 502.301 104.799 501.8C104.416 501.294 103.794 501.041 102.932 501.041ZM118.951 508H112.697V507.398L115.356 504.623C116.103 503.848 116.627 503.256 116.928 502.846C117.229 502.436 117.45 502.044 117.591 501.67C117.732 501.296 117.803 500.904 117.803 500.494C117.803 499.897 117.607 499.412 117.215 499.038C116.823 498.664 116.315 498.478 115.691 498.478C114.857 498.478 114.059 498.781 113.298 499.387L112.929 498.915C113.763 498.213 114.688 497.862 115.704 497.862C116.575 497.862 117.258 498.095 117.755 498.56C118.256 499.024 118.507 499.665 118.507 500.48C118.507 501.141 118.339 501.782 118.001 502.401C117.669 503.017 117.058 503.778 116.169 504.685L113.606 507.316V507.344H118.951V508ZM125.02 498.006L121.294 508H120.583L124.302 498.006H125.02ZM132.366 500.357C132.366 500.977 132.17 501.499 131.778 501.923C131.391 502.347 130.869 502.618 130.213 502.736V502.777C131.015 502.878 131.625 503.133 132.045 503.543C132.464 503.953 132.674 504.505 132.674 505.197C132.674 506.132 132.355 506.856 131.717 507.371C131.083 507.882 130.169 508.137 128.975 508.137C127.959 508.137 127.073 507.948 126.316 507.569V506.893C126.699 507.093 127.127 507.25 127.601 507.364C128.08 507.478 128.529 507.535 128.948 507.535C129.955 507.535 130.712 507.332 131.218 506.927C131.723 506.517 131.976 505.94 131.976 505.197C131.976 504.536 131.717 504.028 131.197 503.673C130.682 503.317 129.923 503.14 128.921 503.14H127.841V502.483H128.934C129.764 502.483 130.42 502.287 130.903 501.896C131.391 501.499 131.635 500.964 131.635 500.289C131.635 499.733 131.436 499.289 131.04 498.956C130.648 498.619 130.133 498.45 129.495 498.45C128.998 498.45 128.545 498.521 128.135 498.662C127.724 498.799 127.264 499.036 126.754 499.373L126.419 498.915C126.806 498.591 127.273 498.336 127.82 498.149C128.367 497.958 128.921 497.862 129.481 497.862C130.402 497.862 131.113 498.081 131.614 498.519C132.115 498.951 132.366 499.564 132.366 500.357Z" fill="#252423"/>
<line x1="35" y1="503" x2="45" y2="503" stroke="url(#paint4_linear)" stroke-width="10" stroke-linecap="round" stroke-linejoin="round"/>
<path d="M210.02 397.004C210.02 397.909 209.756 398.664 209.229 399.27C208.701 399.868 207.959 400.272 207.002 400.48V400.559C208.148 400.702 209.007 401.06 209.58 401.633C210.153 402.199 210.439 402.954 210.439 403.898C210.439 405.272 209.954 406.333 208.984 407.082C208.014 407.824 206.634 408.195 204.844 408.195C203.262 408.195 201.927 407.938 200.84 407.424V405.383C201.445 405.682 202.087 405.913 202.764 406.076C203.441 406.239 204.092 406.32 204.717 406.32C205.824 406.32 206.65 406.115 207.197 405.705C207.744 405.295 208.018 404.66 208.018 403.801C208.018 403.039 207.715 402.479 207.109 402.121C206.504 401.763 205.553 401.584 204.258 401.584H203.018V399.719H204.277C206.556 399.719 207.695 398.931 207.695 397.355C207.695 396.743 207.497 396.271 207.1 395.939C206.702 395.607 206.117 395.441 205.342 395.441C204.801 395.441 204.281 395.52 203.779 395.676C203.278 395.826 202.686 396.122 202.002 396.564L200.879 394.963C202.188 393.999 203.708 393.518 205.439 393.518C206.878 393.518 208.001 393.827 208.809 394.445C209.616 395.064 210.02 395.917 210.02 397.004ZM232.582 400.842C232.582 402.574 232.25 404.032 231.586 405.217C230.928 406.402 229.968 407.235 228.705 407.717L232.123 411.398H228.978L226.283 408.195H225.902C223.747 408.195 222.09 407.557 220.931 406.281C219.779 404.999 219.203 403.179 219.203 400.822C219.203 398.465 219.782 396.656 220.941 395.393C222.106 394.13 223.767 393.498 225.921 393.498C228.044 393.498 229.685 394.139 230.843 395.422C232.002 396.704 232.582 398.511 232.582 400.842ZM221.683 400.842C221.683 402.6 222.038 403.934 222.748 404.846C223.457 405.751 224.509 406.203 225.902 406.203C227.289 406.203 228.334 405.754 229.037 404.855C229.746 403.957 230.101 402.619 230.101 400.842C230.101 399.09 229.75 397.762 229.046 396.857C228.35 395.952 227.308 395.5 225.921 395.5C224.522 395.5 223.464 395.952 222.748 396.857C222.038 397.762 221.683 399.09 221.683 400.842ZM241.159 402.521C241.159 400.796 241.41 399.182 241.911 397.678C242.419 396.174 243.148 394.855 244.099 393.723H246.101C245.196 394.947 244.502 396.32 244.021 397.844C243.539 399.361 243.298 400.913 243.298 402.502C243.298 404.09 243.539 405.63 244.021 407.121C244.502 408.612 245.189 409.96 246.081 411.164H244.099C243.142 410.057 242.413 408.765 241.911 407.287C241.41 405.809 241.159 404.221 241.159 402.521ZM257.963 408H248.285V406.262L251.967 402.561C253.054 401.447 253.773 400.66 254.125 400.197C254.483 399.729 254.743 399.289 254.906 398.879C255.069 398.469 255.15 398.029 255.15 397.561C255.15 396.916 254.955 396.408 254.564 396.037C254.18 395.666 253.646 395.48 252.963 395.48C252.416 395.48 251.885 395.581 251.371 395.783C250.863 395.985 250.274 396.35 249.604 396.877L248.363 395.363C249.158 394.693 249.929 394.217 250.678 393.938C251.426 393.658 252.224 393.518 253.07 393.518C254.398 393.518 255.463 393.866 256.264 394.562C257.064 395.253 257.465 396.184 257.465 397.355C257.465 398 257.348 398.612 257.113 399.191C256.885 399.771 256.531 400.37 256.049 400.988C255.574 401.6 254.779 402.43 253.666 403.479L251.186 405.881V405.979H257.963V408ZM270.596 404.885H268.673V408H266.436V404.885H259.913V403.117L266.436 393.684H268.673V402.98H270.596V404.885ZM266.436 402.98V399.396C266.436 398.12 266.469 397.076 266.534 396.262H266.456C266.274 396.691 265.987 397.212 265.596 397.824L262.052 402.98H266.436ZM288.051 408L286.655 402.961C286.485 402.427 286.179 401.187 285.737 399.24H285.649C285.271 400.998 284.972 402.245 284.75 402.98L283.315 408H280.776L277.748 397.199H280.092L281.469 402.521C281.782 403.837 282.003 404.963 282.133 405.9H282.192C282.257 405.425 282.355 404.882 282.485 404.27C282.621 403.651 282.739 403.189 282.836 402.883L284.477 397.199H286.996L288.588 402.883C288.686 403.202 288.806 403.69 288.95 404.348C289.099 405.005 289.187 405.516 289.213 405.881H289.291C289.389 405.08 289.617 403.96 289.975 402.521L291.371 397.199H293.676L290.629 408H288.051ZM300.958 408.195C299.279 408.195 297.963 407.707 297.013 406.73C296.069 405.747 295.597 404.396 295.597 402.678C295.597 400.913 296.036 399.527 296.915 398.518C297.794 397.508 299.002 397.004 300.538 397.004C301.964 397.004 303.09 397.437 303.917 398.303C304.744 399.169 305.157 400.36 305.157 401.877V403.117H297.96C297.993 404.165 298.276 404.973 298.81 405.539C299.344 406.099 300.096 406.379 301.066 406.379C301.704 406.379 302.296 406.32 302.843 406.203C303.396 406.079 303.989 405.878 304.62 405.598V407.463C304.06 407.73 303.494 407.919 302.921 408.029C302.348 408.14 301.694 408.195 300.958 408.195ZM300.538 398.742C299.809 398.742 299.223 398.973 298.78 399.436C298.344 399.898 298.084 400.572 297.999 401.457H302.902C302.889 400.565 302.674 399.891 302.257 399.436C301.84 398.973 301.267 398.742 300.538 398.742ZM313.182 408.195C311.502 408.195 310.187 407.707 309.236 406.73C308.292 405.747 307.82 404.396 307.82 402.678C307.82 400.913 308.26 399.527 309.139 398.518C310.018 397.508 311.225 397.004 312.762 397.004C314.188 397.004 315.314 397.437 316.141 398.303C316.967 399.169 317.381 400.36 317.381 401.877V403.117H310.184C310.216 404.165 310.499 404.973 311.033 405.539C311.567 406.099 312.319 406.379 313.289 406.379C313.927 406.379 314.52 406.32 315.066 406.203C315.62 406.079 316.212 405.878 316.844 405.598V407.463C316.284 407.73 315.717 407.919 315.145 408.029C314.572 408.14 313.917 408.195 313.182 408.195ZM312.762 398.742C312.033 398.742 311.447 398.973 311.004 399.436C310.568 399.898 310.307 400.572 310.223 401.457H315.125C315.112 400.565 314.897 399.891 314.48 399.436C314.064 398.973 313.491 398.742 312.762 398.742ZM322.905 402.297L324.204 400.676L327.466 397.199H330.112L325.766 401.838L330.386 408H327.69L324.223 403.264L322.964 404.299V408H320.688V392.805H322.964V400.217L322.846 402.297H322.905ZM336.73 402.521C336.73 404.234 336.476 405.829 335.968 407.307C335.467 408.785 334.741 410.07 333.791 411.164H331.808C332.707 409.947 333.393 408.596 333.869 407.111C334.351 405.627 334.591 404.09 334.591 402.502C334.591 400.907 334.351 399.354 333.869 397.844C333.387 396.327 332.694 394.953 331.789 393.723H333.791C334.748 394.862 335.477 396.187 335.978 397.697C336.479 399.201 336.73 400.809 336.73 402.521Z" fill="black"/>
<path d="M411.906 479H411.236V471.72C411.236 471.059 411.264 470.373 411.318 469.662C411.25 469.73 411.179 469.797 411.106 469.86C411.033 469.924 410.329 470.478 408.994 471.521L408.604 471.036L411.318 469.006H411.906V479ZM422.814 473.244C422.814 474.557 422.641 475.655 422.295 476.539C421.953 477.423 421.451 478.077 420.791 478.501C420.134 478.925 419.339 479.137 418.405 479.137C417.931 479.137 417.493 479.077 417.092 478.959V478.371C417.288 478.435 417.523 478.485 417.796 478.521C418.074 478.553 418.286 478.569 418.432 478.569C419.558 478.569 420.44 478.164 421.078 477.353C421.716 476.537 422.071 475.35 422.144 473.791H422.062C421.729 474.229 421.333 474.566 420.873 474.803C420.412 475.035 419.932 475.151 419.43 475.151C418.505 475.151 417.783 474.896 417.263 474.386C416.748 473.875 416.491 473.151 416.491 472.212C416.491 471.209 416.773 470.398 417.338 469.778C417.908 469.159 418.646 468.849 419.553 468.849C420.21 468.849 420.784 469.022 421.276 469.368C421.768 469.71 422.146 470.214 422.411 470.879C422.68 471.544 422.814 472.333 422.814 473.244ZM419.553 469.45C418.833 469.45 418.259 469.694 417.831 470.182C417.402 470.665 417.188 471.328 417.188 472.171C417.188 472.964 417.386 473.565 417.783 473.976C418.179 474.386 418.747 474.591 419.485 474.591C419.945 474.591 420.374 474.488 420.77 474.283C421.171 474.078 421.488 473.807 421.72 473.47C421.957 473.128 422.076 472.782 422.076 472.431C422.076 471.897 421.969 471.398 421.754 470.934C421.545 470.469 421.249 470.106 420.866 469.847C420.488 469.582 420.05 469.45 419.553 469.45ZM426.237 477.373L426.319 477.517C425.977 478.724 425.58 479.82 425.129 480.805H424.685C425.036 479.551 425.286 478.408 425.437 477.373H426.237ZM431.696 468.835C432.544 468.835 433.225 469.051 433.74 469.484C434.26 469.917 434.52 470.503 434.52 471.241C434.52 471.752 434.358 472.203 434.034 472.595C433.715 472.987 433.196 473.349 432.476 473.682C433.351 474.042 433.966 474.436 434.321 474.864C434.677 475.293 434.855 475.812 434.855 476.423C434.855 477.248 434.565 477.906 433.986 478.398C433.412 478.891 432.64 479.137 431.669 479.137C430.662 479.137 429.889 478.907 429.352 478.446C428.814 477.986 428.545 477.316 428.545 476.437C428.545 475.84 428.734 475.315 429.112 474.864C429.491 474.413 430.076 474.028 430.869 473.709C430.136 473.363 429.618 472.998 429.318 472.615C429.017 472.228 428.866 471.765 428.866 471.228C428.866 470.749 428.987 470.33 429.229 469.97C429.47 469.605 429.807 469.325 430.24 469.129C430.678 468.933 431.163 468.835 431.696 468.835ZM429.242 476.539C429.242 477.168 429.454 477.656 429.878 478.002C430.306 478.348 430.903 478.521 431.669 478.521C432.416 478.521 433.018 478.339 433.474 477.975C433.929 477.605 434.157 477.106 434.157 476.478C434.157 475.912 433.977 475.454 433.617 475.104C433.262 474.748 432.574 474.377 431.553 473.989C430.714 474.313 430.12 474.671 429.769 475.062C429.418 475.454 429.242 475.947 429.242 476.539ZM431.683 469.45C431.04 469.45 430.523 469.61 430.131 469.929C429.744 470.243 429.55 470.676 429.55 471.228C429.55 471.547 429.621 471.829 429.762 472.075C429.908 472.317 430.115 472.538 430.384 472.738C430.657 472.934 431.113 473.164 431.751 473.429C432.494 473.142 433.027 472.825 433.351 472.479C433.674 472.132 433.836 471.715 433.836 471.228C433.836 470.681 433.642 470.248 433.255 469.929C432.872 469.61 432.348 469.45 431.683 469.45ZM440.868 479H440.198V471.72C440.198 471.059 440.225 470.373 440.28 469.662C440.212 469.73 440.141 469.797 440.068 469.86C439.995 469.924 439.291 470.478 437.956 471.521L437.566 471.036L440.28 469.006H440.868V479ZM449.356 479H448.686V471.72C448.686 471.059 448.714 470.373 448.768 469.662C448.7 469.73 448.629 469.797 448.556 469.86C448.483 469.924 447.779 470.478 446.444 471.521L446.054 471.036L448.768 469.006H449.356V479ZM455.199 477.373L455.281 477.517C454.939 478.724 454.542 479.82 454.091 480.805H453.647C453.998 479.551 454.248 478.408 454.399 477.373H455.199ZM463.892 473.976C463.892 475.73 463.623 477.029 463.085 477.872C462.552 478.715 461.743 479.137 460.658 479.137C459.615 479.137 458.822 478.704 458.279 477.838C457.737 476.967 457.466 475.68 457.466 473.976C457.466 472.235 457.728 470.945 458.252 470.106C458.781 469.268 459.583 468.849 460.658 468.849C461.711 468.849 462.513 469.284 463.065 470.154C463.616 471.02 463.892 472.294 463.892 473.976ZM458.204 473.976C458.204 475.525 458.407 476.671 458.813 477.414C459.218 478.152 459.833 478.521 460.658 478.521C461.52 478.521 462.146 478.139 462.538 477.373C462.935 476.607 463.133 475.475 463.133 473.976C463.133 472.499 462.935 471.378 462.538 470.612C462.146 469.847 461.52 469.464 460.658 469.464C459.797 469.464 459.173 469.847 458.785 470.612C458.398 471.378 458.204 472.499 458.204 473.976ZM467.451 479L471.566 469.662H465.913V469.006H472.38V469.505L468.251 479H467.451ZM480.348 471.357C480.348 471.977 480.152 472.499 479.76 472.923C479.373 473.347 478.851 473.618 478.195 473.736V473.777C478.997 473.878 479.608 474.133 480.027 474.543C480.446 474.953 480.656 475.505 480.656 476.197C480.656 477.132 480.337 477.856 479.699 478.371C479.065 478.882 478.152 479.137 476.958 479.137C475.941 479.137 475.055 478.948 474.299 478.569V477.893C474.681 478.093 475.11 478.25 475.584 478.364C476.062 478.478 476.511 478.535 476.93 478.535C477.938 478.535 478.694 478.332 479.2 477.927C479.706 477.517 479.959 476.94 479.959 476.197C479.959 475.536 479.699 475.028 479.179 474.673C478.664 474.317 477.906 474.14 476.903 474.14H475.823V473.483H476.917C477.746 473.483 478.402 473.287 478.885 472.896C479.373 472.499 479.617 471.964 479.617 471.289C479.617 470.733 479.419 470.289 479.022 469.956C478.63 469.619 478.115 469.45 477.477 469.45C476.98 469.45 476.527 469.521 476.117 469.662C475.707 469.799 475.246 470.036 474.736 470.373L474.401 469.915C474.788 469.591 475.256 469.336 475.802 469.149C476.349 468.958 476.903 468.862 477.464 468.862C478.384 468.862 479.095 469.081 479.596 469.519C480.098 469.951 480.348 470.564 480.348 471.357ZM483.251 478.467C483.251 478.02 483.434 477.797 483.798 477.797C484.172 477.797 484.359 478.02 484.359 478.467C484.359 478.913 484.172 479.137 483.798 479.137C483.434 479.137 483.251 478.913 483.251 478.467ZM493.182 473.976C493.182 475.73 492.913 477.029 492.375 477.872C491.842 478.715 491.033 479.137 489.948 479.137C488.905 479.137 488.112 478.704 487.57 477.838C487.027 476.967 486.756 475.68 486.756 473.976C486.756 472.235 487.018 470.945 487.542 470.106C488.071 469.268 488.873 468.849 489.948 468.849C491.001 468.849 491.803 469.284 492.355 470.154C492.906 471.02 493.182 472.294 493.182 473.976ZM487.494 473.976C487.494 475.525 487.697 476.671 488.103 477.414C488.508 478.152 489.124 478.521 489.948 478.521C490.81 478.521 491.436 478.139 491.828 477.373C492.225 476.607 492.423 475.475 492.423 473.976C492.423 472.499 492.225 471.378 491.828 470.612C491.436 469.847 490.81 469.464 489.948 469.464C489.087 469.464 488.463 469.847 488.075 470.612C487.688 471.378 487.494 472.499 487.494 473.976ZM501.67 473.976C501.67 475.73 501.401 477.029 500.863 477.872C500.33 478.715 499.521 479.137 498.436 479.137C497.393 479.137 496.6 478.704 496.058 477.838C495.515 476.967 495.244 475.68 495.244 473.976C495.244 472.235 495.506 470.945 496.03 470.106C496.559 469.268 497.361 468.849 498.436 468.849C499.489 468.849 500.291 469.284 500.843 470.154C501.394 471.02 501.67 472.294 501.67 473.976ZM495.982 473.976C495.982 475.525 496.185 476.671 496.591 477.414C496.996 478.152 497.612 478.521 498.436 478.521C499.298 478.521 499.924 478.139 500.316 477.373C500.713 476.607 500.911 475.475 500.911 473.976C500.911 472.499 500.713 471.378 500.316 470.612C499.924 469.847 499.298 469.464 498.436 469.464C497.575 469.464 496.951 469.847 496.563 470.612C496.176 471.378 495.982 472.499 495.982 473.976ZM508.488 479V469.006H509.185V479H508.488ZM516.771 469.491C515.517 469.491 514.531 469.892 513.811 470.694C513.091 471.496 512.731 472.595 512.731 473.989C512.731 475.416 513.07 476.523 513.749 477.312C514.428 478.1 515.399 478.494 516.661 478.494C517.5 478.494 518.27 478.387 518.972 478.173V478.788C518.311 479.021 517.486 479.137 516.497 479.137C515.094 479.137 513.989 478.683 513.182 477.776C512.375 476.869 511.972 475.603 511.972 473.976C511.972 472.959 512.163 472.064 512.546 471.289C512.934 470.514 513.487 469.917 514.207 469.498C514.932 469.074 515.773 468.862 516.73 468.862C517.705 468.862 518.578 469.045 519.348 469.409L519.068 470.038C518.338 469.674 517.573 469.491 516.771 469.491ZM527.152 479H521.69V469.006H527.152V469.648H522.388V473.429H526.886V474.071H522.388V478.357H527.152V479Z" fill="black"/>
<path d="M411.906 508H411.236V500.72C411.236 500.059 411.264 499.373 411.318 498.662C411.25 498.73 411.179 498.797 411.106 498.86C411.033 498.924 410.329 499.478 408.994 500.521L408.604 500.036L411.318 498.006H411.906V508ZM416.628 503.741C416.628 502.442 416.803 501.351 417.154 500.467C417.509 499.578 418.011 498.92 418.658 498.491C419.31 498.063 420.093 497.849 421.009 497.849C421.438 497.849 421.83 497.901 422.185 498.006V498.607C421.852 498.484 421.451 498.423 420.982 498.423C419.856 498.423 418.979 498.828 418.35 499.64C417.726 500.451 417.375 501.631 417.297 503.181H417.386C417.733 502.734 418.129 502.397 418.576 502.169C419.022 501.941 419.494 501.827 419.991 501.827C420.925 501.827 421.654 502.094 422.178 502.627C422.707 503.16 422.971 503.896 422.971 504.835C422.971 505.856 422.693 506.662 422.137 507.255C421.586 507.843 420.841 508.137 419.902 508.137C418.89 508.137 418.09 507.752 417.503 506.981C416.919 506.207 416.628 505.127 416.628 503.741ZM419.902 507.535C420.649 507.535 421.23 507.3 421.645 506.831C422.06 506.362 422.267 505.692 422.267 504.821C422.267 504.056 422.062 503.459 421.652 503.03C421.242 502.602 420.684 502.388 419.977 502.388C419.512 502.388 419.079 502.49 418.678 502.695C418.282 502.9 417.965 503.174 417.728 503.516C417.491 503.853 417.373 504.199 417.373 504.555C417.373 505.061 417.484 505.548 417.708 506.018C417.935 506.482 418.241 506.852 418.624 507.125C419.011 507.398 419.437 507.535 419.902 507.535ZM426.237 506.373L426.319 506.517C425.977 507.724 425.58 508.82 425.129 509.805H424.685C425.036 508.551 425.286 507.408 425.437 506.373H426.237ZM435.518 505.45H433.795V508H433.152V505.45H428.012V504.992L432.968 497.951H433.795V504.862H435.518V505.45ZM433.152 504.862V502.005C433.152 500.629 433.184 499.473 433.248 498.539H433.193C433.102 498.708 432.822 499.136 432.353 499.824L428.825 504.862H433.152ZM443.418 502.976C443.418 504.73 443.149 506.029 442.611 506.872C442.078 507.715 441.269 508.137 440.184 508.137C439.141 508.137 438.348 507.704 437.806 506.838C437.263 505.967 436.992 504.68 436.992 502.976C436.992 501.235 437.254 499.945 437.778 499.106C438.307 498.268 439.109 497.849 440.184 497.849C441.237 497.849 442.039 498.284 442.591 499.154C443.142 500.02 443.418 501.294 443.418 502.976ZM437.73 502.976C437.73 504.525 437.933 505.671 438.339 506.414C438.744 507.152 439.36 507.521 440.184 507.521C441.046 507.521 441.672 507.139 442.064 506.373C442.461 505.607 442.659 504.475 442.659 502.976C442.659 501.499 442.461 500.378 442.064 499.612C441.672 498.847 441.046 498.464 440.184 498.464C439.323 498.464 438.699 498.847 438.311 499.612C437.924 500.378 437.73 501.499 437.73 502.976ZM446.977 508L451.092 498.662H445.439V498.006H451.906V498.505L447.777 508H446.977ZM455.199 506.373L455.281 506.517C454.939 507.724 454.542 508.82 454.091 509.805H453.647C453.998 508.551 454.248 507.408 454.399 506.373H455.199ZM463.892 502.976C463.892 504.73 463.623 506.029 463.085 506.872C462.552 507.715 461.743 508.137 460.658 508.137C459.615 508.137 458.822 507.704 458.279 506.838C457.737 505.967 457.466 504.68 457.466 502.976C457.466 501.235 457.728 499.945 458.252 499.106C458.781 498.268 459.583 497.849 460.658 497.849C461.711 497.849 462.513 498.284 463.065 499.154C463.616 500.02 463.892 501.294 463.892 502.976ZM458.204 502.976C458.204 504.525 458.407 505.671 458.813 506.414C459.218 507.152 459.833 507.521 460.658 507.521C461.52 507.521 462.146 507.139 462.538 506.373C462.935 505.607 463.133 504.475 463.133 502.976C463.133 501.499 462.935 500.378 462.538 499.612C462.146 498.847 461.52 498.464 460.658 498.464C459.797 498.464 459.173 498.847 458.785 499.612C458.398 500.378 458.204 501.499 458.204 502.976ZM472.195 508H465.94V507.398L468.6 504.623C469.347 503.848 469.871 503.256 470.172 502.846C470.473 502.436 470.694 502.044 470.835 501.67C470.976 501.296 471.047 500.904 471.047 500.494C471.047 499.897 470.851 499.412 470.459 499.038C470.067 498.664 469.559 498.478 468.934 498.478C468.101 498.478 467.303 498.781 466.542 499.387L466.173 498.915C467.007 498.213 467.932 497.862 468.948 497.862C469.819 497.862 470.502 498.095 470.999 498.56C471.5 499.024 471.751 499.665 471.751 500.48C471.751 501.141 471.582 501.782 471.245 502.401C470.912 503.017 470.302 503.778 469.413 504.685L466.85 507.316V507.344H472.195V508ZM475.939 508L480.054 498.662H474.401V498.006H480.868V498.505L476.739 508H475.939ZM483.251 507.467C483.251 507.02 483.434 506.797 483.798 506.797C484.172 506.797 484.359 507.02 484.359 507.467C484.359 507.913 484.172 508.137 483.798 508.137C483.434 508.137 483.251 507.913 483.251 507.467ZM493.182 502.976C493.182 504.73 492.913 506.029 492.375 506.872C491.842 507.715 491.033 508.137 489.948 508.137C488.905 508.137 488.112 507.704 487.57 506.838C487.027 505.967 486.756 504.68 486.756 502.976C486.756 501.235 487.018 499.945 487.542 499.106C488.071 498.268 488.873 497.849 489.948 497.849C491.001 497.849 491.803 498.284 492.355 499.154C492.906 500.02 493.182 501.294 493.182 502.976ZM487.494 502.976C487.494 504.525 487.697 505.671 488.103 506.414C488.508 507.152 489.124 507.521 489.948 507.521C490.81 507.521 491.436 507.139 491.828 506.373C492.225 505.607 492.423 504.475 492.423 502.976C492.423 501.499 492.225 500.378 491.828 499.612C491.436 498.847 490.81 498.464 489.948 498.464C489.087 498.464 488.463 498.847 488.075 499.612C487.688 500.378 487.494 501.499 487.494 502.976ZM501.67 502.976C501.67 504.73 501.401 506.029 500.863 506.872C500.33 507.715 499.521 508.137 498.436 508.137C497.393 508.137 496.6 507.704 496.058 506.838C495.515 505.967 495.244 504.68 495.244 502.976C495.244 501.235 495.506 499.945 496.03 499.106C496.559 498.268 497.361 497.849 498.436 497.849C499.489 497.849 500.291 498.284 500.843 499.154C501.394 500.02 501.67 501.294 501.67 502.976ZM495.982 502.976C495.982 504.525 496.185 505.671 496.591 506.414C496.996 507.152 497.612 507.521 498.436 507.521C499.298 507.521 499.924 507.139 500.316 506.373C500.713 505.607 500.911 504.475 500.911 502.976C500.911 501.499 500.713 500.378 500.316 499.612C499.924 498.847 499.298 498.464 498.436 498.464C497.575 498.464 496.951 498.847 496.563 499.612C496.176 500.378 495.982 501.499 495.982 502.976ZM508.488 508V498.006H509.185V508H508.488ZM516.771 498.491C515.517 498.491 514.531 498.892 513.811 499.694C513.091 500.496 512.731 501.595 512.731 502.989C512.731 504.416 513.07 505.523 513.749 506.312C514.428 507.1 515.399 507.494 516.661 507.494C517.5 507.494 518.27 507.387 518.972 507.173V507.788C518.311 508.021 517.486 508.137 516.497 508.137C515.094 508.137 513.989 507.683 513.182 506.776C512.375 505.869 511.972 504.603 511.972 502.976C511.972 501.959 512.163 501.064 512.546 500.289C512.934 499.514 513.487 498.917 514.207 498.498C514.932 498.074 515.773 497.862 516.73 497.862C517.705 497.862 518.578 498.045 519.348 498.409L519.068 499.038C518.338 498.674 517.573 498.491 516.771 498.491ZM527.152 508H521.69V498.006H527.152V498.648H522.388V502.429H526.886V503.071H522.388V507.357H527.152V508Z" fill="black"/>
<path d="M234.571 201.916C234.571 202.808 234.301 203.566 233.76 204.191C233.22 204.816 232.461 205.246 231.485 205.48V205.539C232.637 205.682 233.51 206.034 234.102 206.594C234.694 207.147 234.991 207.896 234.991 208.84C234.991 210.214 234.493 211.285 233.496 212.053C232.5 212.814 231.078 213.195 229.229 213.195C227.679 213.195 226.306 212.938 225.108 212.424V209.855C225.661 210.135 226.27 210.363 226.934 210.539C227.598 210.715 228.256 210.803 228.907 210.803C229.903 210.803 230.638 210.633 231.114 210.295C231.589 209.956 231.827 209.413 231.827 208.664C231.827 207.993 231.553 207.518 231.006 207.238C230.459 206.958 229.587 206.818 228.389 206.818H227.305V204.504H228.409C229.515 204.504 230.323 204.361 230.83 204.074C231.345 203.781 231.602 203.283 231.602 202.58C231.602 201.499 230.925 200.959 229.571 200.959C229.102 200.959 228.623 201.037 228.135 201.193C227.653 201.35 227.116 201.62 226.524 202.004L225.127 199.924C226.429 198.986 227.982 198.518 229.786 198.518C231.263 198.518 232.429 198.817 233.282 199.416C234.141 200.015 234.571 200.848 234.571 201.916ZM237.175 206.936C237.175 204.11 237.771 202.007 238.962 200.627C240.16 199.247 241.95 198.557 244.333 198.557C245.147 198.557 245.785 198.605 246.247 198.703V201.115C245.668 200.985 245.095 200.92 244.529 200.92C243.493 200.92 242.647 201.076 241.989 201.389C241.338 201.701 240.85 202.163 240.525 202.775C240.199 203.387 240.007 204.257 239.948 205.383H240.075C240.72 204.276 241.752 203.723 243.171 203.723C244.447 203.723 245.446 204.123 246.169 204.924C246.892 205.725 247.253 206.831 247.253 208.244C247.253 209.768 246.823 210.975 245.964 211.867C245.105 212.753 243.913 213.195 242.39 213.195C241.335 213.195 240.414 212.951 239.626 212.463C238.845 211.975 238.239 211.262 237.81 210.324C237.387 209.387 237.175 208.257 237.175 206.936ZM242.331 210.783C242.976 210.783 243.471 210.568 243.816 210.139C244.161 209.702 244.333 209.084 244.333 208.283C244.333 207.587 244.17 207.04 243.845 206.643C243.526 206.239 243.041 206.037 242.39 206.037C241.778 206.037 241.254 206.236 240.818 206.633C240.388 207.03 240.173 207.492 240.173 208.02C240.173 208.794 240.375 209.449 240.779 209.982C241.189 210.516 241.706 210.783 242.331 210.783ZM253.08 210.9C252.742 212.215 252.169 213.775 251.361 215.578H249.213C249.636 213.846 249.965 212.212 250.199 210.676H252.934L253.08 210.9ZM265.88 213H255.899V210.9L259.483 207.277C260.544 206.19 261.238 205.438 261.563 205.021C261.889 204.598 262.123 204.208 262.266 203.85C262.41 203.492 262.481 203.12 262.481 202.736C262.481 202.163 262.322 201.737 262.003 201.457C261.69 201.177 261.27 201.037 260.743 201.037C260.19 201.037 259.652 201.164 259.132 201.418C258.611 201.672 258.067 202.033 257.501 202.502L255.86 200.559C256.563 199.96 257.146 199.536 257.608 199.289C258.07 199.042 258.575 198.853 259.122 198.723C259.669 198.586 260.281 198.518 260.958 198.518C261.85 198.518 262.637 198.68 263.321 199.006C264.005 199.331 264.535 199.787 264.913 200.373C265.29 200.959 265.479 201.63 265.479 202.385C265.479 203.042 265.362 203.661 265.128 204.24C264.9 204.813 264.542 205.402 264.054 206.008C263.572 206.613 262.719 207.476 261.495 208.596L259.659 210.324V210.461H265.88V213ZM275.486 213H272.468V204.738L272.498 203.381L272.546 201.896C272.045 202.398 271.697 202.727 271.502 202.883L269.861 204.201L268.406 202.385L273.005 198.723H275.486V213ZM285.073 198.537C286.44 198.537 287.54 198.85 288.373 199.475C289.213 200.093 289.633 200.93 289.633 201.984C289.633 202.714 289.431 203.365 289.028 203.938C288.624 204.504 287.973 205.012 287.075 205.461C288.142 206.034 288.907 206.633 289.37 207.258C289.838 207.876 290.073 208.557 290.073 209.299C290.073 210.471 289.614 211.415 288.696 212.131C287.778 212.84 286.57 213.195 285.073 213.195C283.51 213.195 282.283 212.863 281.391 212.199C280.499 211.535 280.053 210.594 280.053 209.377C280.053 208.563 280.268 207.84 280.698 207.209C281.134 206.577 281.83 206.021 282.787 205.539C281.974 205.025 281.388 204.475 281.03 203.889C280.672 203.303 280.493 202.661 280.493 201.965C280.493 200.943 280.916 200.116 281.762 199.484C282.608 198.853 283.712 198.537 285.073 198.537ZM282.846 209.201C282.846 209.761 283.041 210.197 283.432 210.51C283.823 210.822 284.357 210.979 285.034 210.979C285.782 210.979 286.342 210.819 286.713 210.5C287.084 210.174 287.27 209.748 287.27 209.221C287.27 208.785 287.084 208.378 286.713 208C286.349 207.616 285.753 207.209 284.926 206.779C283.539 207.417 282.846 208.225 282.846 209.201ZM285.053 200.744C284.539 200.744 284.122 200.878 283.803 201.145C283.491 201.405 283.334 201.757 283.334 202.199C283.334 202.59 283.458 202.941 283.705 203.254C283.959 203.56 284.415 203.876 285.073 204.201C285.711 203.902 286.157 203.596 286.411 203.283C286.664 202.971 286.791 202.609 286.791 202.199C286.791 201.75 286.629 201.395 286.303 201.135C285.978 200.874 285.561 200.744 285.053 200.744ZM295.958 210.9C295.62 212.215 295.047 213.775 294.239 215.578H292.091C292.514 213.846 292.843 212.212 293.077 210.676H295.812L295.958 210.9ZM306.238 213H303.221V204.738L303.25 203.381L303.299 201.896C302.798 202.398 302.449 202.727 302.254 202.883L300.613 204.201L299.158 202.385L303.758 198.723H306.238V213ZM320.805 205.861C320.805 208.355 320.395 210.201 319.575 211.398C318.761 212.596 317.505 213.195 315.805 213.195C314.158 213.195 312.915 212.577 312.075 211.34C311.242 210.103 310.825 208.277 310.825 205.861C310.825 203.342 311.232 201.486 312.046 200.295C312.86 199.097 314.113 198.498 315.805 198.498C317.453 198.498 318.696 199.123 319.536 200.373C320.382 201.623 320.805 203.452 320.805 205.861ZM313.823 205.861C313.823 207.613 313.973 208.869 314.272 209.631C314.578 210.386 315.089 210.764 315.805 210.764C316.509 210.764 317.016 210.38 317.329 209.611C317.641 208.843 317.798 207.593 317.798 205.861C317.798 204.11 317.638 202.854 317.319 202.092C317.007 201.324 316.502 200.939 315.805 200.939C315.096 200.939 314.588 201.324 314.282 202.092C313.976 202.854 313.823 204.11 313.823 205.861ZM332.931 205.861C332.931 208.355 332.521 210.201 331.701 211.398C330.887 212.596 329.63 213.195 327.931 213.195C326.284 213.195 325.041 212.577 324.201 211.34C323.367 210.103 322.951 208.277 322.951 205.861C322.951 203.342 323.358 201.486 324.171 200.295C324.985 199.097 326.239 198.498 327.931 198.498C329.578 198.498 330.822 199.123 331.662 200.373C332.508 201.623 332.931 203.452 332.931 205.861ZM325.949 205.861C325.949 207.613 326.099 208.869 326.398 209.631C326.704 210.386 327.215 210.764 327.931 210.764C328.634 210.764 329.142 210.38 329.455 209.611C329.767 208.843 329.923 207.593 329.923 205.861C329.923 204.11 329.764 202.854 329.445 202.092C329.132 201.324 328.628 200.939 327.931 200.939C327.222 200.939 326.714 201.324 326.408 202.092C326.102 202.854 325.949 204.11 325.949 205.861ZM264.804 240V225.723H267.831V240H264.804ZM278.189 228.037C277.05 228.037 276.168 228.467 275.543 229.326C274.918 230.179 274.605 231.37 274.605 232.9C274.605 236.084 275.8 237.676 278.189 237.676C279.192 237.676 280.406 237.425 281.832 236.924V239.463C280.66 239.951 279.352 240.195 277.906 240.195C275.829 240.195 274.241 239.567 273.141 238.311C272.04 237.048 271.49 235.238 271.49 232.881C271.49 231.396 271.76 230.098 272.301 228.984C272.841 227.865 273.616 227.008 274.625 226.416C275.641 225.817 276.829 225.518 278.189 225.518C279.576 225.518 280.969 225.853 282.369 226.523L281.393 228.984C280.859 228.73 280.322 228.509 279.781 228.32C279.241 228.132 278.71 228.037 278.189 228.037ZM293.802 240H285.579V225.723H293.802V228.203H288.606V231.338H293.44V233.818H288.606V237.5H293.802V240Z" fill="#2BD2F7"/>
<defs>
<linearGradient id="paint0_linear" x1="279.5" y1="40" x2="279.5" y2="365" gradientUnits="userSpaceOnUse">
<stop stop-color="#C5FEF2"/>
<stop offset="1" stop-color="#0B41FF"/>
</linearGradient>
<linearGradient id="paint1_linear" x1="279.5" y1="40" x2="279.5" y2="365" gradientUnits="userSpaceOnUse">
<stop stop-color="#FC6972"/>
<stop offset="1" stop-color="#E32573"/>
</linearGradient>
<linearGradient id="paint2_linear" x1="396.097" y1="-7.73975" x2="396.097" y2="367.65" gradientUnits="userSpaceOnUse">
<stop stop-color="#FC6972"/>
<stop offset="1" stop-color="#E32573"/>
</linearGradient>
<linearGradient id="paint3_linear" x1="50" y1="479" x2="30" y2="479" gradientUnits="userSpaceOnUse">
<stop stop-color="#E01E73"/>
<stop offset="1" stop-color="#FF7272"/>
</linearGradient>
<linearGradient id="paint4_linear" x1="50" y1="508" x2="30" y2="508" gradientUnits="userSpaceOnUse">
<stop stop-color="#0A40FF"/>
<stop offset="1" stop-color="#C7FFF1"/>
</linearGradient>
</defs>
</svg>
