<svg width="548" height="553" viewBox="0 0 548 553" fill="none" xmlns="http://www.w3.org/2000/svg">
<rect width="548" height="553" rx="16" fill="white" fill-opacity="0.6"/>
<path fill-rule="evenodd" clip-rule="evenodd" d="M278.5 365C368.246 365 441 292.246 441 202.5C441 112.754 368.246 40 278.5 40C188.754 40 116 112.754 116 202.5C116 292.246 188.754 365 278.5 365ZM278.5 298.898C331.739 298.898 374.898 255.739 374.898 202.5C374.898 149.261 331.739 106.102 278.5 106.102C225.261 106.102 182.102 149.261 182.102 202.5C182.102 255.739 225.261 298.898 278.5 298.898Z" fill="url(#paint0_linear)"/>
<mask id="mask0" mask-type="alpha" maskUnits="userSpaceOnUse" x="116" y="40" width="325" height="325">
<path fill-rule="evenodd" clip-rule="evenodd" d="M278.5 365C368.246 365 441 292.246 441 202.5C441 112.754 368.246 40 278.5 40C188.754 40 116 112.754 116 202.5C116 292.246 188.754 365 278.5 365ZM278.5 298.898C331.739 298.898 374.898 255.739 374.898 202.5C374.898 149.261 331.739 106.102 278.5 106.102C225.261 106.102 182.102 149.261 182.102 202.5C182.102 255.739 225.261 298.898 278.5 298.898Z" fill="#C4C4C4"/>
</mask>
<g mask="url(#mask0)">
<path d="M279.418 112.528V40.9181L384.079 -7.74011L497.003 70.2966L510.774 362.246L291.353 401.723L285.845 299.816L279.418 112.528Z" fill="url(#paint1_linear)"/>
</g>
<path d="M237.02 178H236.315V168.662H233.068V168.006H240.267V168.662H237.02V178ZM248.221 174.274C248.221 175.487 247.927 176.435 247.34 177.118C246.752 177.797 245.941 178.137 244.906 178.137C244.254 178.137 243.68 177.979 243.183 177.665C242.687 177.351 242.306 176.899 242.042 176.312C241.777 175.724 241.645 175.045 241.645 174.274C241.645 173.062 241.939 172.119 242.527 171.444C243.115 170.765 243.922 170.426 244.947 170.426C245.968 170.426 246.768 170.77 247.346 171.458C247.93 172.142 248.221 173.08 248.221 174.274ZM242.356 174.274C242.356 175.295 242.58 176.093 243.026 176.667C243.477 177.237 244.113 177.521 244.933 177.521C245.754 177.521 246.387 177.237 246.834 176.667C247.285 176.093 247.511 175.295 247.511 174.274C247.511 173.249 247.283 172.454 246.827 171.889C246.376 171.324 245.74 171.041 244.92 171.041C244.099 171.041 243.466 171.324 243.019 171.889C242.577 172.449 242.356 173.244 242.356 174.274ZM252.731 177.535C253.159 177.535 253.533 177.499 253.852 177.426V177.973C253.524 178.082 253.146 178.137 252.717 178.137C252.061 178.137 251.576 177.961 251.261 177.61C250.951 177.259 250.796 176.708 250.796 175.956V171.157H249.696V170.761L250.796 170.453L251.138 168.771H251.487V170.569H253.667V171.157H251.487V175.86C251.487 176.43 251.587 176.852 251.788 177.125C251.988 177.398 252.303 177.535 252.731 177.535ZM260.46 178L260.289 176.824H260.235C259.861 177.303 259.476 177.642 259.079 177.843C258.687 178.039 258.223 178.137 257.685 178.137C256.956 178.137 256.388 177.95 255.983 177.576C255.577 177.202 255.374 176.685 255.374 176.024C255.374 175.3 255.675 174.737 256.277 174.336C256.883 173.935 257.758 173.723 258.902 173.7L260.317 173.659V173.167C260.317 172.461 260.173 171.927 259.886 171.567C259.599 171.207 259.136 171.027 258.498 171.027C257.81 171.027 257.097 171.219 256.359 171.602L256.106 171.014C256.921 170.631 257.728 170.439 258.526 170.439C259.341 170.439 259.95 170.651 260.351 171.075C260.756 171.499 260.959 172.16 260.959 173.058V178H260.46ZM257.726 177.521C258.519 177.521 259.143 177.296 259.599 176.845C260.059 176.389 260.289 175.758 260.289 174.951V174.22L258.991 174.274C257.947 174.325 257.202 174.489 256.755 174.767C256.313 175.04 256.092 175.468 256.092 176.052C256.092 176.517 256.233 176.879 256.516 177.139C256.803 177.394 257.206 177.521 257.726 177.521ZM264.539 178H263.862V167.363H264.539V178ZM272.328 178H271.651V170.569H272.328V178ZM271.555 168.505C271.555 168.067 271.699 167.849 271.986 167.849C272.127 167.849 272.237 167.906 272.314 168.02C272.396 168.133 272.437 168.295 272.437 168.505C272.437 168.71 272.396 168.872 272.314 168.99C272.237 169.109 272.127 169.168 271.986 169.168C271.699 169.168 271.555 168.947 271.555 168.505ZM280.494 178V173.181C280.494 172.433 280.337 171.891 280.023 171.554C279.708 171.212 279.221 171.041 278.56 171.041C277.671 171.041 277.02 171.267 276.605 171.718C276.195 172.164 275.99 172.891 275.99 173.898V178H275.313V170.569H275.887L276.017 171.588H276.058C276.541 170.813 277.4 170.426 278.635 170.426C280.321 170.426 281.164 171.33 281.164 173.14V178H280.494ZM286.822 171.157H285.072V178H284.396V171.157H283.015V170.761L284.396 170.508V169.934C284.396 169.022 284.562 168.354 284.895 167.931C285.232 167.502 285.781 167.288 286.542 167.288C286.952 167.288 287.362 167.35 287.773 167.473L287.615 168.061C287.251 167.947 286.888 167.89 286.528 167.89C286 167.89 285.624 168.047 285.4 168.361C285.182 168.671 285.072 169.177 285.072 169.879V170.569H286.822V171.157ZM288.935 178H288.258V167.363H288.935V178ZM296.431 178L296.261 176.824H296.206C295.832 177.303 295.447 177.642 295.051 177.843C294.659 178.039 294.194 178.137 293.656 178.137C292.927 178.137 292.36 177.95 291.954 177.576C291.548 177.202 291.346 176.685 291.346 176.024C291.346 175.3 291.646 174.737 292.248 174.336C292.854 173.935 293.729 173.723 294.873 173.7L296.288 173.659V173.167C296.288 172.461 296.144 171.927 295.857 171.567C295.57 171.207 295.108 171.027 294.47 171.027C293.781 171.027 293.068 171.219 292.33 171.602L292.077 171.014C292.893 170.631 293.699 170.439 294.497 170.439C295.313 170.439 295.921 170.651 296.322 171.075C296.728 171.499 296.931 172.16 296.931 173.058V178H296.431ZM293.697 177.521C294.49 177.521 295.114 177.296 295.57 176.845C296.03 176.389 296.261 175.758 296.261 174.951V174.22L294.962 174.274C293.918 174.325 293.173 174.489 292.726 174.767C292.284 175.04 292.063 175.468 292.063 176.052C292.063 176.517 292.205 176.879 292.487 177.139C292.774 177.394 293.178 177.521 293.697 177.521ZM301.796 177.535C302.224 177.535 302.598 177.499 302.917 177.426V177.973C302.588 178.082 302.21 178.137 301.782 178.137C301.126 178.137 300.64 177.961 300.326 177.61C300.016 177.259 299.861 176.708 299.861 175.956V171.157H298.76V170.761L299.861 170.453L300.203 168.771H300.551V170.569H302.732V171.157H300.551V175.86C300.551 176.43 300.652 176.852 300.852 177.125C301.053 177.398 301.367 177.535 301.796 177.535ZM305.69 178H305.013V170.569H305.69V178ZM304.917 168.505C304.917 168.067 305.061 167.849 305.348 167.849C305.489 167.849 305.599 167.906 305.676 168.02C305.758 168.133 305.799 168.295 305.799 168.505C305.799 168.71 305.758 168.872 305.676 168.99C305.599 169.109 305.489 169.168 305.348 169.168C305.061 169.168 304.917 168.947 304.917 168.505ZM314.82 174.274C314.82 175.487 314.526 176.435 313.939 177.118C313.351 177.797 312.54 178.137 311.505 178.137C310.853 178.137 310.279 177.979 309.782 177.665C309.286 177.351 308.905 176.899 308.641 176.312C308.376 175.724 308.244 175.045 308.244 174.274C308.244 173.062 308.538 172.119 309.126 171.444C309.714 170.765 310.521 170.426 311.546 170.426C312.567 170.426 313.367 170.77 313.945 171.458C314.529 172.142 314.82 173.08 314.82 174.274ZM308.955 174.274C308.955 175.295 309.178 176.093 309.625 176.667C310.076 177.237 310.712 177.521 311.532 177.521C312.353 177.521 312.986 177.237 313.433 176.667C313.884 176.093 314.109 175.295 314.109 174.274C314.109 173.249 313.882 172.454 313.426 171.889C312.975 171.324 312.339 171.041 311.519 171.041C310.698 171.041 310.065 171.324 309.618 171.889C309.176 172.449 308.955 173.244 308.955 174.274ZM322.55 178V173.181C322.55 172.433 322.392 171.891 322.078 171.554C321.764 171.212 321.276 171.041 320.615 171.041C319.726 171.041 319.075 171.267 318.66 171.718C318.25 172.164 318.045 172.891 318.045 173.898V178H317.368V170.569H317.942L318.072 171.588H318.113C318.596 170.813 319.455 170.426 320.69 170.426C322.377 170.426 323.22 171.33 323.22 173.14V178H322.55Z" fill="#252423"/>
<path d="M68.7637 469.006V475.473C68.7637 476.621 68.431 477.519 67.7656 478.166C67.1003 478.813 66.1729 479.137 64.9834 479.137C63.8258 479.137 62.9212 478.813 62.2695 478.166C61.6224 477.514 61.2988 476.607 61.2988 475.445V469.006H62.0029V475.473C62.0029 476.434 62.2695 477.184 62.8027 477.722C63.3359 478.255 64.0902 478.521 65.0654 478.521C66.0179 478.521 66.7562 478.259 67.2803 477.735C67.8044 477.207 68.0664 476.475 68.0664 475.541V469.006H68.7637ZM76.992 479V474.181C76.992 473.433 76.8347 472.891 76.5203 472.554C76.2058 472.212 75.7182 472.041 75.0574 472.041C74.1687 472.041 73.517 472.267 73.1023 472.718C72.6921 473.164 72.4871 473.891 72.4871 474.898V479H71.8103V471.569H72.3845L72.5144 472.588H72.5554C73.0385 471.813 73.8976 471.426 75.1326 471.426C76.8188 471.426 77.6619 472.33 77.6619 474.14V479H76.992ZM81.2349 479H80.5581V468.363H81.2349V479ZM90.3655 475.274C90.3655 476.487 90.0716 477.435 89.4837 478.118C88.8958 478.797 88.0846 479.137 87.0501 479.137C86.3984 479.137 85.8242 478.979 85.3274 478.665C84.8307 478.351 84.4501 477.899 84.1858 477.312C83.9215 476.724 83.7893 476.045 83.7893 475.274C83.7893 474.062 84.0833 473.119 84.6712 472.444C85.2591 471.765 86.0657 471.426 87.0911 471.426C88.1119 471.426 88.9117 471.77 89.4905 472.458C90.0738 473.142 90.3655 474.08 90.3655 475.274ZM84.5003 475.274C84.5003 476.295 84.7236 477.093 85.1702 477.667C85.6214 478.237 86.2571 478.521 87.0774 478.521C87.8977 478.521 88.5312 478.237 88.9778 477.667C89.429 477.093 89.6546 476.295 89.6546 475.274C89.6546 474.249 89.4267 473.454 88.971 472.889C88.5198 472.324 87.8841 472.041 87.0637 472.041C86.2434 472.041 85.61 472.324 85.1634 472.889C84.7213 473.449 84.5003 474.244 84.5003 475.274ZM95.8799 479.137C94.8181 479.137 93.9864 478.802 93.3848 478.132C92.7832 477.462 92.4825 476.528 92.4825 475.329C92.4825 474.099 92.7946 473.142 93.419 472.458C94.0433 471.77 94.8978 471.426 95.9825 471.426C96.625 471.426 97.2403 471.537 97.8282 471.761L97.6436 472.362C97.001 472.148 96.4427 472.041 95.9688 472.041C95.0573 472.041 94.3669 472.324 93.8975 472.889C93.4281 473.449 93.1934 474.258 93.1934 475.315C93.1934 476.318 93.4281 477.104 93.8975 477.674C94.3669 478.239 95.0232 478.521 95.8662 478.521C96.5407 478.521 97.1674 478.401 97.7461 478.159V478.788C97.2722 479.021 96.6501 479.137 95.8799 479.137ZM100.724 475.739L104.518 471.569H105.339L102.413 474.741L105.592 479H104.778L101.955 475.247L100.738 476.354V479H100.061V468.363H100.738V473.695L100.69 475.739H100.724ZM110.334 479.137C109.253 479.137 108.41 478.804 107.804 478.139C107.203 477.473 106.902 476.541 106.902 475.343C106.902 474.158 107.194 473.21 107.777 472.499C108.36 471.784 109.146 471.426 110.135 471.426C111.01 471.426 111.701 471.731 112.207 472.342C112.712 472.952 112.965 473.782 112.965 474.83V475.377H107.613C107.622 476.398 107.859 477.177 108.324 477.715C108.793 478.253 109.463 478.521 110.334 478.521C110.757 478.521 111.129 478.492 111.448 478.433C111.771 478.373 112.179 478.246 112.671 478.05V478.665C112.252 478.847 111.865 478.97 111.509 479.034C111.154 479.103 110.762 479.137 110.334 479.137ZM110.135 472.027C109.42 472.027 108.846 472.264 108.413 472.738C107.98 473.208 107.727 473.887 107.654 474.775H112.248C112.248 473.914 112.061 473.242 111.687 472.759C111.313 472.271 110.796 472.027 110.135 472.027ZM118.227 471.426C118.765 471.426 119.229 471.524 119.621 471.72C120.013 471.916 120.364 472.251 120.674 472.725H120.715C120.688 472.15 120.674 471.588 120.674 471.036V468.363H121.344V479H120.9L120.729 477.865H120.674C120.109 478.713 119.298 479.137 118.241 479.137C117.215 479.137 116.431 478.818 115.889 478.18C115.347 477.542 115.076 476.612 115.076 475.391C115.076 474.105 115.344 473.123 115.882 472.444C116.42 471.765 117.201 471.426 118.227 471.426ZM118.227 472.041C117.416 472.041 116.805 472.326 116.395 472.896C115.989 473.465 115.786 474.292 115.786 475.377C115.786 477.482 116.604 478.535 118.241 478.535C119.079 478.535 119.694 478.291 120.086 477.804C120.478 477.316 120.674 476.512 120.674 475.391V475.274C120.674 474.126 120.48 473.301 120.093 472.8C119.71 472.294 119.088 472.041 118.227 472.041ZM128.634 479V469.006H129.331V479H128.634ZM141.763 479V474.126C141.763 473.401 141.622 472.873 141.339 472.54C141.057 472.207 140.624 472.041 140.041 472.041C139.28 472.041 138.717 472.251 138.352 472.67C137.988 473.089 137.805 473.748 137.805 474.646V479H137.115V473.921C137.115 472.668 136.541 472.041 135.392 472.041C134.613 472.041 134.046 472.269 133.69 472.725C133.335 473.176 133.157 473.9 133.157 474.898V479H132.48V471.569H133.041L133.184 472.588H133.225C133.43 472.219 133.722 471.934 134.1 471.733C134.478 471.528 134.895 471.426 135.351 471.426C136.522 471.426 137.274 471.866 137.607 472.745H137.634C137.876 472.321 138.199 471.995 138.605 471.768C139.015 471.54 139.48 471.426 140 471.426C140.811 471.426 141.419 471.642 141.825 472.075C142.23 472.508 142.433 473.196 142.433 474.14V479H141.763ZM154.613 479V474.126C154.613 473.401 154.471 472.873 154.189 472.54C153.906 472.207 153.473 472.041 152.89 472.041C152.129 472.041 151.566 472.251 151.202 472.67C150.837 473.089 150.655 473.748 150.655 474.646V479H149.964V473.921C149.964 472.668 149.39 472.041 148.242 472.041C147.462 472.041 146.895 472.269 146.539 472.725C146.184 473.176 146.006 473.9 146.006 474.898V479H145.329V471.569H145.89L146.034 472.588H146.075C146.28 472.219 146.571 471.934 146.95 471.733C147.328 471.528 147.745 471.426 148.201 471.426C149.372 471.426 150.124 471.866 150.456 472.745H150.484C150.725 472.321 151.049 471.995 151.454 471.768C151.865 471.54 152.329 471.426 152.849 471.426C153.66 471.426 154.269 471.642 154.674 472.075C155.08 472.508 155.283 473.196 155.283 474.14V479H154.613ZM161.18 479.137C160.1 479.137 159.257 478.804 158.651 478.139C158.049 477.473 157.748 476.541 157.748 475.343C157.748 474.158 158.04 473.21 158.623 472.499C159.206 471.784 159.993 471.426 160.982 471.426C161.857 471.426 162.547 471.731 163.053 472.342C163.559 472.952 163.812 473.782 163.812 474.83V475.377H158.459C158.468 476.398 158.705 477.177 159.17 477.715C159.639 478.253 160.309 478.521 161.18 478.521C161.604 478.521 161.975 478.492 162.294 478.433C162.618 478.373 163.026 478.246 163.518 478.05V478.665C163.098 478.847 162.711 478.97 162.356 479.034C162 479.103 161.608 479.137 161.18 479.137ZM160.982 472.027C160.266 472.027 159.692 472.264 159.259 472.738C158.826 473.208 158.573 473.887 158.5 474.775H163.094C163.094 473.914 162.907 473.242 162.533 472.759C162.16 472.271 161.642 472.027 160.982 472.027ZM169.073 471.426C169.611 471.426 170.076 471.524 170.468 471.72C170.86 471.916 171.21 472.251 171.52 472.725H171.561C171.534 472.15 171.52 471.588 171.52 471.036V468.363H172.19V479H171.746L171.575 477.865H171.52C170.955 478.713 170.144 479.137 169.087 479.137C168.061 479.137 167.278 478.818 166.735 478.18C166.193 477.542 165.922 476.612 165.922 475.391C165.922 474.105 166.191 473.123 166.728 472.444C167.266 471.765 168.048 471.426 169.073 471.426ZM169.073 472.041C168.262 472.041 167.651 472.326 167.241 472.896C166.835 473.465 166.633 474.292 166.633 475.377C166.633 477.482 167.451 478.535 169.087 478.535C169.925 478.535 170.541 478.291 170.933 477.804C171.324 477.316 171.52 476.512 171.52 475.391V475.274C171.52 474.126 171.327 473.301 170.939 472.8C170.557 472.294 169.934 472.041 169.073 472.041Z" fill="#252423"/>
<line x1="35" y1="474" x2="45" y2="474" stroke="url(#paint2_linear)" stroke-width="10" stroke-linecap="round"/>
<path d="M61.415 508V498.006H62.1123V507.344H66.877V508H61.415ZM75.0711 504.274C75.0711 505.487 74.7771 506.435 74.1892 507.118C73.6013 507.797 72.7901 508.137 71.7556 508.137C71.1039 508.137 70.5297 507.979 70.033 507.665C69.5362 507.351 69.1557 506.899 68.8914 506.312C68.627 505.724 68.4949 505.045 68.4949 504.274C68.4949 503.062 68.7888 502.119 69.3767 501.444C69.9646 500.765 70.7712 500.426 71.7966 500.426C72.8175 500.426 73.6173 500.77 74.1961 501.458C74.7794 502.142 75.0711 503.08 75.0711 504.274ZM69.2058 504.274C69.2058 505.295 69.4291 506.093 69.8757 506.667C70.3269 507.237 70.9627 507.521 71.783 507.521C72.6033 507.521 73.2367 507.237 73.6834 506.667C74.1345 506.093 74.3601 505.295 74.3601 504.274C74.3601 503.249 74.1323 502.454 73.6765 501.889C73.2254 501.324 72.5896 501.041 71.7693 501.041C70.949 501.041 70.3155 501.324 69.8689 501.889C69.4268 502.449 69.2058 503.244 69.2058 504.274ZM80.5855 508.137C79.5236 508.137 78.6919 507.802 78.0904 507.132C77.4888 506.462 77.188 505.528 77.188 504.329C77.188 503.099 77.5002 502.142 78.1245 501.458C78.7489 500.77 79.6034 500.426 80.688 500.426C81.3306 500.426 81.9458 500.537 82.5337 500.761L82.3491 501.362C81.7066 501.148 81.1483 501.041 80.6743 501.041C79.7629 501.041 79.0724 501.324 78.603 501.889C78.1336 502.449 77.8989 503.258 77.8989 504.315C77.8989 505.318 78.1336 506.104 78.603 506.674C79.0724 507.239 79.7287 507.521 80.5718 507.521C81.2463 507.521 81.8729 507.401 82.4517 507.159V507.788C81.9777 508.021 81.3557 508.137 80.5855 508.137ZM85.43 504.739L89.2239 500.569H90.0442L87.1184 503.741L90.2971 508H89.4837L86.6604 504.247L85.4436 505.354V508H84.7669V497.363H85.4436V502.695L85.3958 504.739H85.43ZM95.0391 508.137C93.959 508.137 93.1159 507.804 92.5098 507.139C91.9082 506.473 91.6075 505.541 91.6075 504.343C91.6075 503.158 91.8991 502.21 92.4825 501.499C93.0658 500.784 93.8519 500.426 94.8409 500.426C95.7159 500.426 96.4063 500.731 96.9121 501.342C97.418 501.952 97.6709 502.782 97.6709 503.83V504.377H92.3184C92.3275 505.398 92.5645 506.177 93.0293 506.715C93.4987 507.253 94.1687 507.521 95.0391 507.521C95.4629 507.521 95.8343 507.492 96.1534 507.433C96.4769 507.373 96.8848 507.246 97.377 507.05V507.665C96.9577 507.847 96.5704 507.97 96.2149 508.034C95.8594 508.103 95.4675 508.137 95.0391 508.137ZM94.8409 501.027C94.1254 501.027 93.5511 501.264 93.1182 501.738C92.6853 502.208 92.4323 502.887 92.3594 503.775H96.9532C96.9532 502.914 96.7663 502.242 96.3926 501.759C96.0189 501.271 95.5017 501.027 94.8409 501.027ZM102.932 500.426C103.47 500.426 103.935 500.524 104.327 500.72C104.719 500.916 105.07 501.251 105.38 501.725H105.421C105.393 501.15 105.38 500.588 105.38 500.036V497.363H106.05V508H105.605L105.434 506.865H105.38C104.815 507.713 104.003 508.137 102.946 508.137C101.921 508.137 101.137 507.818 100.595 507.18C100.052 506.542 99.7811 505.612 99.7811 504.391C99.7811 503.105 100.05 502.123 100.588 501.444C101.125 500.765 101.907 500.426 102.932 500.426ZM102.932 501.041C102.121 501.041 101.511 501.326 101.1 501.896C100.695 502.465 100.492 503.292 100.492 504.377C100.492 506.482 101.31 507.535 102.946 507.535C103.785 507.535 104.4 507.291 104.792 506.804C105.184 506.316 105.38 505.512 105.38 504.391V504.274C105.38 503.126 105.186 502.301 104.799 501.8C104.416 501.294 103.794 501.041 102.932 501.041ZM118.951 508H112.697V507.398L115.356 504.623C116.103 503.848 116.627 503.256 116.928 502.846C117.229 502.436 117.45 502.044 117.591 501.67C117.732 501.296 117.803 500.904 117.803 500.494C117.803 499.897 117.607 499.412 117.215 499.038C116.823 498.664 116.315 498.478 115.691 498.478C114.857 498.478 114.059 498.781 113.298 499.387L112.929 498.915C113.763 498.213 114.688 497.862 115.704 497.862C116.575 497.862 117.258 498.095 117.755 498.56C118.256 499.024 118.507 499.665 118.507 500.48C118.507 501.141 118.339 501.782 118.001 502.401C117.669 503.017 117.058 503.778 116.169 504.685L113.606 507.316V507.344H118.951V508ZM125.02 498.006L121.294 508H120.583L124.302 498.006H125.02ZM132.366 500.357C132.366 500.977 132.17 501.499 131.778 501.923C131.391 502.347 130.869 502.618 130.213 502.736V502.777C131.015 502.878 131.625 503.133 132.045 503.543C132.464 503.953 132.674 504.505 132.674 505.197C132.674 506.132 132.355 506.856 131.717 507.371C131.083 507.882 130.169 508.137 128.975 508.137C127.959 508.137 127.073 507.948 126.316 507.569V506.893C126.699 507.093 127.127 507.25 127.601 507.364C128.08 507.478 128.529 507.535 128.948 507.535C129.955 507.535 130.712 507.332 131.218 506.927C131.723 506.517 131.976 505.94 131.976 505.197C131.976 504.536 131.717 504.028 131.197 503.673C130.682 503.317 129.923 503.14 128.921 503.14H127.841V502.483H128.934C129.764 502.483 130.42 502.287 130.903 501.896C131.391 501.499 131.635 500.964 131.635 500.289C131.635 499.733 131.436 499.289 131.04 498.956C130.648 498.619 130.133 498.45 129.495 498.45C128.998 498.45 128.545 498.521 128.135 498.662C127.724 498.799 127.264 499.036 126.754 499.373L126.419 498.915C126.806 498.591 127.273 498.336 127.82 498.149C128.367 497.958 128.921 497.862 129.481 497.862C130.402 497.862 131.113 498.081 131.614 498.519C132.115 498.951 132.366 499.564 132.366 500.357Z" fill="#252423"/>
<line x1="35" y1="503" x2="45" y2="503" stroke="url(#paint3_linear)" stroke-width="10" stroke-linecap="round" stroke-linejoin="round"/>
<path d="M210.557 408H200.879V406.262L204.561 402.561C205.648 401.447 206.367 400.66 206.719 400.197C207.077 399.729 207.337 399.289 207.5 398.879C207.663 398.469 207.744 398.029 207.744 397.561C207.744 396.916 207.549 396.408 207.158 396.037C206.774 395.666 206.24 395.48 205.557 395.48C205.01 395.48 204.479 395.581 203.965 395.783C203.457 395.985 202.868 396.35 202.197 396.877L200.957 395.363C201.751 394.693 202.523 394.217 203.271 393.938C204.02 393.658 204.818 393.518 205.664 393.518C206.992 393.518 208.057 393.866 208.857 394.562C209.658 395.253 210.059 396.184 210.059 397.355C210.059 398 209.941 398.612 209.707 399.191C209.479 399.771 209.124 400.37 208.643 400.988C208.167 401.6 207.373 402.43 206.26 403.479L203.779 405.881V405.979H210.557V408ZM232.582 400.842C232.582 402.574 232.25 404.032 231.586 405.217C230.928 406.402 229.968 407.235 228.705 407.717L232.123 411.398H228.978L226.283 408.195H225.902C223.747 408.195 222.09 407.557 220.931 406.281C219.779 404.999 219.203 403.179 219.203 400.822C219.203 398.465 219.782 396.656 220.941 395.393C222.106 394.13 223.767 393.498 225.921 393.498C228.044 393.498 229.685 394.139 230.843 395.422C232.002 396.704 232.582 398.511 232.582 400.842ZM221.683 400.842C221.683 402.6 222.038 403.934 222.748 404.846C223.457 405.751 224.509 406.203 225.902 406.203C227.289 406.203 228.334 405.754 229.037 404.855C229.746 403.957 230.101 402.619 230.101 400.842C230.101 399.09 229.75 397.762 229.046 396.857C228.35 395.952 227.308 395.5 225.921 395.5C224.522 395.5 223.464 395.952 222.748 396.857C222.038 397.762 221.683 399.09 221.683 400.842ZM241.159 402.521C241.159 400.796 241.41 399.182 241.911 397.678C242.419 396.174 243.148 394.855 244.099 393.723H246.101C245.196 394.947 244.502 396.32 244.021 397.844C243.539 399.361 243.298 400.913 243.298 402.502C243.298 404.09 243.539 405.63 244.021 407.121C244.502 408.612 245.189 409.96 246.081 411.164H244.099C243.142 410.057 242.413 408.765 241.911 407.287C241.41 405.809 241.159 404.221 241.159 402.521ZM255.023 408H252.729V398.781C252.729 397.681 252.755 396.809 252.807 396.164C252.657 396.32 252.471 396.493 252.25 396.682C252.035 396.87 251.306 397.469 250.062 398.479L248.91 397.023L253.109 393.723H255.023V408ZM270.089 408H260.411V406.262L264.093 402.561C265.18 401.447 265.899 400.66 266.251 400.197C266.609 399.729 266.869 399.289 267.032 398.879C267.195 398.469 267.276 398.029 267.276 397.561C267.276 396.916 267.081 396.408 266.69 396.037C266.306 395.666 265.772 395.48 265.089 395.48C264.542 395.48 264.011 395.581 263.497 395.783C262.989 395.985 262.4 396.35 261.729 396.877L260.489 395.363C261.283 394.693 262.055 394.217 262.804 393.938C263.552 393.658 264.35 393.518 265.196 393.518C266.524 393.518 267.589 393.866 268.389 394.562C269.19 395.253 269.591 396.184 269.591 397.355C269.591 398 269.473 398.612 269.239 399.191C269.011 399.771 268.656 400.37 268.175 400.988C267.699 401.6 266.905 402.43 265.792 403.479L263.311 405.881V405.979H270.089V408ZM288.051 408L286.655 402.961C286.485 402.427 286.179 401.187 285.737 399.24H285.649C285.271 400.998 284.972 402.245 284.75 402.98L283.315 408H280.776L277.748 397.199H280.092L281.469 402.521C281.782 403.837 282.003 404.963 282.133 405.9H282.192C282.257 405.425 282.355 404.882 282.485 404.27C282.621 403.651 282.739 403.189 282.836 402.883L284.477 397.199H286.996L288.588 402.883C288.686 403.202 288.806 403.69 288.95 404.348C289.099 405.005 289.187 405.516 289.213 405.881H289.291C289.389 405.08 289.617 403.96 289.975 402.521L291.371 397.199H293.676L290.629 408H288.051ZM300.958 408.195C299.279 408.195 297.963 407.707 297.013 406.73C296.069 405.747 295.597 404.396 295.597 402.678C295.597 400.913 296.036 399.527 296.915 398.518C297.794 397.508 299.002 397.004 300.538 397.004C301.964 397.004 303.09 397.437 303.917 398.303C304.744 399.169 305.157 400.36 305.157 401.877V403.117H297.96C297.993 404.165 298.276 404.973 298.81 405.539C299.344 406.099 300.096 406.379 301.066 406.379C301.704 406.379 302.296 406.32 302.843 406.203C303.396 406.079 303.989 405.878 304.62 405.598V407.463C304.06 407.73 303.494 407.919 302.921 408.029C302.348 408.14 301.694 408.195 300.958 408.195ZM300.538 398.742C299.809 398.742 299.223 398.973 298.78 399.436C298.344 399.898 298.084 400.572 297.999 401.457H302.902C302.889 400.565 302.674 399.891 302.257 399.436C301.84 398.973 301.267 398.742 300.538 398.742ZM313.182 408.195C311.502 408.195 310.187 407.707 309.236 406.73C308.292 405.747 307.82 404.396 307.82 402.678C307.82 400.913 308.26 399.527 309.139 398.518C310.018 397.508 311.225 397.004 312.762 397.004C314.188 397.004 315.314 397.437 316.141 398.303C316.967 399.169 317.381 400.36 317.381 401.877V403.117H310.184C310.216 404.165 310.499 404.973 311.033 405.539C311.567 406.099 312.319 406.379 313.289 406.379C313.927 406.379 314.52 406.32 315.066 406.203C315.62 406.079 316.212 405.878 316.844 405.598V407.463C316.284 407.73 315.717 407.919 315.145 408.029C314.572 408.14 313.917 408.195 313.182 408.195ZM312.762 398.742C312.033 398.742 311.447 398.973 311.004 399.436C310.568 399.898 310.307 400.572 310.223 401.457H315.125C315.112 400.565 314.897 399.891 314.48 399.436C314.064 398.973 313.491 398.742 312.762 398.742ZM322.905 402.297L324.204 400.676L327.466 397.199H330.112L325.766 401.838L330.386 408H327.69L324.223 403.264L322.964 404.299V408H320.688V392.805H322.964V400.217L322.846 402.297H322.905ZM336.73 402.521C336.73 404.234 336.476 405.829 335.968 407.307C335.467 408.785 334.741 410.07 333.791 411.164H331.808C332.707 409.947 333.393 408.596 333.869 407.111C334.351 405.627 334.591 404.09 334.591 402.502C334.591 400.907 334.351 399.354 333.869 397.844C333.387 396.327 332.694 394.953 331.789 393.723H333.791C334.748 394.862 335.477 396.187 335.978 397.697C336.479 399.201 336.73 400.809 336.73 402.521Z" fill="black"/>
<path d="M411.906 479H411.236V471.72C411.236 471.059 411.264 470.373 411.318 469.662C411.25 469.73 411.179 469.797 411.106 469.86C411.033 469.924 410.329 470.478 408.994 471.521L408.604 471.036L411.318 469.006H411.906V479ZM419.711 468.835C420.558 468.835 421.24 469.051 421.754 469.484C422.274 469.917 422.534 470.503 422.534 471.241C422.534 471.752 422.372 472.203 422.048 472.595C421.729 472.987 421.21 473.349 420.49 473.682C421.365 474.042 421.98 474.436 422.336 474.864C422.691 475.293 422.869 475.812 422.869 476.423C422.869 477.248 422.579 477.906 422.001 478.398C421.426 478.891 420.654 479.137 419.683 479.137C418.676 479.137 417.904 478.907 417.366 478.446C416.828 477.986 416.559 477.316 416.559 476.437C416.559 475.84 416.748 475.315 417.127 474.864C417.505 474.413 418.09 474.028 418.883 473.709C418.15 473.363 417.632 472.998 417.332 472.615C417.031 472.228 416.88 471.765 416.88 471.228C416.88 470.749 417.001 470.33 417.243 469.97C417.484 469.605 417.822 469.325 418.254 469.129C418.692 468.933 419.177 468.835 419.711 468.835ZM417.256 476.539C417.256 477.168 417.468 477.656 417.892 478.002C418.321 478.348 418.918 478.521 419.683 478.521C420.431 478.521 421.032 478.339 421.488 477.975C421.944 477.605 422.171 477.106 422.171 476.478C422.171 475.912 421.991 475.454 421.631 475.104C421.276 474.748 420.588 474.377 419.567 473.989C418.728 474.313 418.134 474.671 417.783 475.062C417.432 475.454 417.256 475.947 417.256 476.539ZM419.697 469.45C419.054 469.45 418.537 469.61 418.145 469.929C417.758 470.243 417.564 470.676 417.564 471.228C417.564 471.547 417.635 471.829 417.776 472.075C417.922 472.317 418.129 472.538 418.398 472.738C418.671 472.934 419.127 473.164 419.765 473.429C420.508 473.142 421.041 472.825 421.365 472.479C421.688 472.132 421.85 471.715 421.85 471.228C421.85 470.681 421.657 470.248 421.269 469.929C420.886 469.61 420.362 469.45 419.697 469.45ZM426.237 477.373L426.319 477.517C425.977 478.724 425.58 479.82 425.129 480.805H424.685C425.036 479.551 425.286 478.408 425.437 477.373H426.237ZM428.613 474.741C428.613 473.442 428.789 472.351 429.14 471.467C429.495 470.578 429.997 469.92 430.644 469.491C431.295 469.063 432.079 468.849 432.995 468.849C433.424 468.849 433.816 468.901 434.171 469.006V469.607C433.838 469.484 433.437 469.423 432.968 469.423C431.842 469.423 430.965 469.828 430.336 470.64C429.712 471.451 429.361 472.631 429.283 474.181H429.372C429.719 473.734 430.115 473.397 430.562 473.169C431.008 472.941 431.48 472.827 431.977 472.827C432.911 472.827 433.64 473.094 434.164 473.627C434.693 474.16 434.957 474.896 434.957 475.835C434.957 476.856 434.679 477.662 434.123 478.255C433.572 478.843 432.827 479.137 431.888 479.137C430.876 479.137 430.076 478.752 429.488 477.981C428.905 477.207 428.613 476.127 428.613 474.741ZM431.888 478.535C432.635 478.535 433.216 478.3 433.631 477.831C434.046 477.362 434.253 476.692 434.253 475.821C434.253 475.056 434.048 474.459 433.638 474.03C433.228 473.602 432.669 473.388 431.963 473.388C431.498 473.388 431.065 473.49 430.664 473.695C430.268 473.9 429.951 474.174 429.714 474.516C429.477 474.853 429.359 475.199 429.359 475.555C429.359 476.061 429.47 476.548 429.693 477.018C429.921 477.482 430.227 477.852 430.609 478.125C430.997 478.398 431.423 478.535 431.888 478.535ZM442.898 471.357C442.898 471.977 442.702 472.499 442.31 472.923C441.923 473.347 441.401 473.618 440.745 473.736V473.777C441.547 473.878 442.158 474.133 442.577 474.543C442.996 474.953 443.206 475.505 443.206 476.197C443.206 477.132 442.887 477.856 442.249 478.371C441.615 478.882 440.702 479.137 439.508 479.137C438.491 479.137 437.605 478.948 436.849 478.569V477.893C437.231 478.093 437.66 478.25 438.134 478.364C438.612 478.478 439.061 478.535 439.48 478.535C440.488 478.535 441.244 478.332 441.75 477.927C442.256 477.517 442.509 476.94 442.509 476.197C442.509 475.536 442.249 475.028 441.729 474.673C441.214 474.317 440.456 474.14 439.453 474.14H438.373V473.483H439.467C440.296 473.483 440.952 473.287 441.435 472.896C441.923 472.499 442.167 471.964 442.167 471.289C442.167 470.733 441.969 470.289 441.572 469.956C441.18 469.619 440.665 469.45 440.027 469.45C439.53 469.45 439.077 469.521 438.667 469.662C438.257 469.799 437.796 470.036 437.286 470.373L436.951 469.915C437.338 469.591 437.806 469.336 438.352 469.149C438.899 468.958 439.453 468.862 440.014 468.862C440.934 468.862 441.645 469.081 442.146 469.519C442.648 469.951 442.898 470.564 442.898 471.357ZM445.589 474.741C445.589 473.442 445.765 472.351 446.116 471.467C446.471 470.578 446.973 469.92 447.62 469.491C448.271 469.063 449.055 468.849 449.971 468.849C450.4 468.849 450.792 468.901 451.147 469.006V469.607C450.814 469.484 450.413 469.423 449.944 469.423C448.818 469.423 447.941 469.828 447.312 470.64C446.688 471.451 446.337 472.631 446.259 474.181H446.348C446.695 473.734 447.091 473.397 447.538 473.169C447.984 472.941 448.456 472.827 448.953 472.827C449.887 472.827 450.616 473.094 451.14 473.627C451.669 474.16 451.933 474.896 451.933 475.835C451.933 476.856 451.655 477.662 451.099 478.255C450.548 478.843 449.803 479.137 448.864 479.137C447.852 479.137 447.052 478.752 446.464 477.981C445.881 477.207 445.589 476.127 445.589 474.741ZM448.864 478.535C449.611 478.535 450.192 478.3 450.607 477.831C451.022 477.362 451.229 476.692 451.229 475.821C451.229 475.056 451.024 474.459 450.614 474.03C450.204 473.602 449.645 473.388 448.939 473.388C448.474 473.388 448.041 473.49 447.64 473.695C447.244 473.9 446.927 474.174 446.69 474.516C446.453 474.853 446.335 475.199 446.335 475.555C446.335 476.061 446.446 476.548 446.67 477.018C446.897 477.482 447.203 477.852 447.586 478.125C447.973 478.398 448.399 478.535 448.864 478.535ZM455.199 477.373L455.281 477.517C454.939 478.724 454.542 479.82 454.091 480.805H453.647C453.998 479.551 454.248 478.408 454.399 477.373H455.199ZM463.762 473.244C463.762 474.557 463.589 475.655 463.242 476.539C462.901 477.423 462.399 478.077 461.738 478.501C461.082 478.925 460.287 479.137 459.353 479.137C458.879 479.137 458.441 479.077 458.04 478.959V478.371C458.236 478.435 458.471 478.485 458.744 478.521C459.022 478.553 459.234 478.569 459.38 478.569C460.506 478.569 461.388 478.164 462.026 477.353C462.664 476.537 463.019 475.35 463.092 473.791H463.01C462.677 474.229 462.281 474.566 461.82 474.803C461.36 475.035 460.879 475.151 460.378 475.151C459.453 475.151 458.731 474.896 458.211 474.386C457.696 473.875 457.439 473.151 457.439 472.212C457.439 471.209 457.721 470.398 458.286 469.778C458.856 469.159 459.594 468.849 460.501 468.849C461.157 468.849 461.732 469.022 462.224 469.368C462.716 469.71 463.094 470.214 463.359 470.879C463.627 471.544 463.762 472.333 463.762 473.244ZM460.501 469.45C459.781 469.45 459.207 469.694 458.778 470.182C458.35 470.665 458.136 471.328 458.136 472.171C458.136 472.964 458.334 473.565 458.731 473.976C459.127 474.386 459.694 474.591 460.433 474.591C460.893 474.591 461.321 474.488 461.718 474.283C462.119 474.078 462.436 473.807 462.668 473.47C462.905 473.128 463.024 472.782 463.024 472.431C463.024 471.897 462.917 471.398 462.702 470.934C462.493 470.469 462.196 470.106 461.814 469.847C461.435 469.582 460.998 469.45 460.501 469.45ZM472.38 473.976C472.38 475.73 472.111 477.029 471.573 477.872C471.04 478.715 470.231 479.137 469.146 479.137C468.103 479.137 467.31 478.704 466.768 477.838C466.225 476.967 465.954 475.68 465.954 473.976C465.954 472.235 466.216 470.945 466.74 470.106C467.269 469.268 468.071 468.849 469.146 468.849C470.199 468.849 471.001 469.284 471.553 470.154C472.104 471.02 472.38 472.294 472.38 473.976ZM466.692 473.976C466.692 475.525 466.895 476.671 467.301 477.414C467.706 478.152 468.322 478.521 469.146 478.521C470.008 478.521 470.634 478.139 471.026 477.373C471.423 476.607 471.621 475.475 471.621 473.976C471.621 472.499 471.423 471.378 471.026 470.612C470.634 469.847 470.008 469.464 469.146 469.464C468.285 469.464 467.661 469.847 467.273 470.612C466.886 471.378 466.692 472.499 466.692 473.976ZM480.868 473.976C480.868 475.73 480.599 477.029 480.061 477.872C479.528 478.715 478.719 479.137 477.634 479.137C476.591 479.137 475.798 478.704 475.256 477.838C474.713 476.967 474.442 475.68 474.442 473.976C474.442 472.235 474.704 470.945 475.228 470.106C475.757 469.268 476.559 468.849 477.634 468.849C478.687 468.849 479.489 469.284 480.041 470.154C480.592 471.02 480.868 472.294 480.868 473.976ZM475.18 473.976C475.18 475.525 475.383 476.671 475.789 477.414C476.194 478.152 476.81 478.521 477.634 478.521C478.496 478.521 479.122 478.139 479.514 477.373C479.911 476.607 480.109 475.475 480.109 473.976C480.109 472.499 479.911 471.378 479.514 470.612C479.122 469.847 478.496 469.464 477.634 469.464C476.773 469.464 476.149 469.847 475.761 470.612C475.374 471.378 475.18 472.499 475.18 473.976ZM483.251 478.467C483.251 478.02 483.434 477.797 483.798 477.797C484.172 477.797 484.359 478.02 484.359 478.467C484.359 478.913 484.172 479.137 483.798 479.137C483.434 479.137 483.251 478.913 483.251 478.467ZM493.182 473.976C493.182 475.73 492.913 477.029 492.375 477.872C491.842 478.715 491.033 479.137 489.948 479.137C488.905 479.137 488.112 478.704 487.57 477.838C487.027 476.967 486.756 475.68 486.756 473.976C486.756 472.235 487.018 470.945 487.542 470.106C488.071 469.268 488.873 468.849 489.948 468.849C491.001 468.849 491.803 469.284 492.355 470.154C492.906 471.02 493.182 472.294 493.182 473.976ZM487.494 473.976C487.494 475.525 487.697 476.671 488.103 477.414C488.508 478.152 489.124 478.521 489.948 478.521C490.81 478.521 491.436 478.139 491.828 477.373C492.225 476.607 492.423 475.475 492.423 473.976C492.423 472.499 492.225 471.378 491.828 470.612C491.436 469.847 490.81 469.464 489.948 469.464C489.087 469.464 488.463 469.847 488.075 470.612C487.688 471.378 487.494 472.499 487.494 473.976ZM501.67 473.976C501.67 475.73 501.401 477.029 500.863 477.872C500.33 478.715 499.521 479.137 498.436 479.137C497.393 479.137 496.6 478.704 496.058 477.838C495.515 476.967 495.244 475.68 495.244 473.976C495.244 472.235 495.506 470.945 496.03 470.106C496.559 469.268 497.361 468.849 498.436 468.849C499.489 468.849 500.291 469.284 500.843 470.154C501.394 471.02 501.67 472.294 501.67 473.976ZM495.982 473.976C495.982 475.525 496.185 476.671 496.591 477.414C496.996 478.152 497.612 478.521 498.436 478.521C499.298 478.521 499.924 478.139 500.316 477.373C500.713 476.607 500.911 475.475 500.911 473.976C500.911 472.499 500.713 471.378 500.316 470.612C499.924 469.847 499.298 469.464 498.436 469.464C497.575 469.464 496.951 469.847 496.563 470.612C496.176 471.378 495.982 472.499 495.982 473.976ZM508.488 479V469.006H509.185V479H508.488ZM516.771 469.491C515.517 469.491 514.531 469.892 513.811 470.694C513.091 471.496 512.731 472.595 512.731 473.989C512.731 475.416 513.07 476.523 513.749 477.312C514.428 478.1 515.399 478.494 516.661 478.494C517.5 478.494 518.27 478.387 518.972 478.173V478.788C518.311 479.021 517.486 479.137 516.497 479.137C515.094 479.137 513.989 478.683 513.182 477.776C512.375 476.869 511.972 475.603 511.972 473.976C511.972 472.959 512.163 472.064 512.546 471.289C512.934 470.514 513.487 469.917 514.207 469.498C514.932 469.074 515.773 468.862 516.73 468.862C517.705 468.862 518.578 469.045 519.348 469.409L519.068 470.038C518.338 469.674 517.573 469.491 516.771 469.491ZM527.152 479H521.69V469.006H527.152V469.648H522.388V473.429H526.886V474.071H522.388V478.357H527.152V479Z" fill="black"/>
<path d="M411.906 508H411.236V500.72C411.236 500.059 411.264 499.373 411.318 498.662C411.25 498.73 411.179 498.797 411.106 498.86C411.033 498.924 410.329 499.478 408.994 500.521L408.604 500.036L411.318 498.006H411.906V508ZM422.424 500.357C422.424 500.977 422.228 501.499 421.837 501.923C421.449 502.347 420.927 502.618 420.271 502.736V502.777C421.073 502.878 421.684 503.133 422.103 503.543C422.522 503.953 422.732 504.505 422.732 505.197C422.732 506.132 422.413 506.856 421.775 507.371C421.142 507.882 420.228 508.137 419.034 508.137C418.018 508.137 417.131 507.948 416.375 507.569V506.893C416.757 507.093 417.186 507.25 417.66 507.364C418.138 507.478 418.587 507.535 419.006 507.535C420.014 507.535 420.77 507.332 421.276 506.927C421.782 506.517 422.035 505.94 422.035 505.197C422.035 504.536 421.775 504.028 421.255 503.673C420.74 503.317 419.982 503.14 418.979 503.14H417.899V502.483H418.993C419.822 502.483 420.478 502.287 420.962 501.896C421.449 501.499 421.693 500.964 421.693 500.289C421.693 499.733 421.495 499.289 421.098 498.956C420.706 498.619 420.191 498.45 419.553 498.45C419.057 498.45 418.603 498.521 418.193 498.662C417.783 498.799 417.323 499.036 416.812 499.373L416.477 498.915C416.865 498.591 417.332 498.336 417.879 498.149C418.425 497.958 418.979 497.862 419.54 497.862C420.46 497.862 421.171 498.081 421.672 498.519C422.174 498.951 422.424 499.564 422.424 500.357ZM426.237 506.373L426.319 506.517C425.977 507.724 425.58 508.82 425.129 509.805H424.685C425.036 508.551 425.286 507.408 425.437 506.373H426.237ZM431.696 497.835C432.544 497.835 433.225 498.051 433.74 498.484C434.26 498.917 434.52 499.503 434.52 500.241C434.52 500.752 434.358 501.203 434.034 501.595C433.715 501.987 433.196 502.349 432.476 502.682C433.351 503.042 433.966 503.436 434.321 503.864C434.677 504.293 434.855 504.812 434.855 505.423C434.855 506.248 434.565 506.906 433.986 507.398C433.412 507.891 432.64 508.137 431.669 508.137C430.662 508.137 429.889 507.907 429.352 507.446C428.814 506.986 428.545 506.316 428.545 505.437C428.545 504.84 428.734 504.315 429.112 503.864C429.491 503.413 430.076 503.028 430.869 502.709C430.136 502.363 429.618 501.998 429.318 501.615C429.017 501.228 428.866 500.765 428.866 500.228C428.866 499.749 428.987 499.33 429.229 498.97C429.47 498.605 429.807 498.325 430.24 498.129C430.678 497.933 431.163 497.835 431.696 497.835ZM429.242 505.539C429.242 506.168 429.454 506.656 429.878 507.002C430.306 507.348 430.903 507.521 431.669 507.521C432.416 507.521 433.018 507.339 433.474 506.975C433.929 506.605 434.157 506.106 434.157 505.478C434.157 504.912 433.977 504.454 433.617 504.104C433.262 503.748 432.574 503.377 431.553 502.989C430.714 503.313 430.12 503.671 429.769 504.062C429.418 504.454 429.242 504.947 429.242 505.539ZM431.683 498.45C431.04 498.45 430.523 498.61 430.131 498.929C429.744 499.243 429.55 499.676 429.55 500.228C429.55 500.547 429.621 500.829 429.762 501.075C429.908 501.317 430.115 501.538 430.384 501.738C430.657 501.934 431.113 502.164 431.751 502.429C432.494 502.142 433.027 501.825 433.351 501.479C433.674 501.132 433.836 500.715 433.836 500.228C433.836 499.681 433.642 499.248 433.255 498.929C432.872 498.61 432.348 498.45 431.683 498.45ZM440.868 508H440.198V500.72C440.198 500.059 440.225 499.373 440.28 498.662C440.212 498.73 440.141 498.797 440.068 498.86C439.995 498.924 439.291 499.478 437.956 500.521L437.566 500.036L440.28 498.006H440.868V508ZM451.386 500.357C451.386 500.977 451.19 501.499 450.798 501.923C450.411 502.347 449.889 502.618 449.233 502.736V502.777C450.035 502.878 450.646 503.133 451.065 503.543C451.484 503.953 451.694 504.505 451.694 505.197C451.694 506.132 451.375 506.856 450.737 507.371C450.103 507.882 449.19 508.137 447.996 508.137C446.979 508.137 446.093 507.948 445.337 507.569V506.893C445.719 507.093 446.148 507.25 446.622 507.364C447.1 507.478 447.549 507.535 447.968 507.535C448.976 507.535 449.732 507.332 450.238 506.927C450.744 506.517 450.997 505.94 450.997 505.197C450.997 504.536 450.737 504.028 450.217 503.673C449.702 503.317 448.944 503.14 447.941 503.14H446.861V502.483H447.955C448.784 502.483 449.44 502.287 449.923 501.896C450.411 501.499 450.655 500.964 450.655 500.289C450.655 499.733 450.457 499.289 450.06 498.956C449.668 498.619 449.153 498.45 448.515 498.45C448.019 498.45 447.565 498.521 447.155 498.662C446.745 498.799 446.284 499.036 445.774 499.373L445.439 498.915C445.826 498.591 446.294 498.336 446.84 498.149C447.387 497.958 447.941 497.862 448.502 497.862C449.422 497.862 450.133 498.081 450.634 498.519C451.136 498.951 451.386 499.564 451.386 500.357ZM455.199 506.373L455.281 506.517C454.939 507.724 454.542 508.82 454.091 509.805H453.647C453.998 508.551 454.248 507.408 454.399 506.373H455.199ZM460.658 497.835C461.506 497.835 462.187 498.051 462.702 498.484C463.222 498.917 463.482 499.503 463.482 500.241C463.482 500.752 463.32 501.203 462.996 501.595C462.677 501.987 462.158 502.349 461.438 502.682C462.313 503.042 462.928 503.436 463.283 503.864C463.639 504.293 463.817 504.812 463.817 505.423C463.817 506.248 463.527 506.906 462.948 507.398C462.374 507.891 461.602 508.137 460.631 508.137C459.624 508.137 458.851 507.907 458.314 507.446C457.776 506.986 457.507 506.316 457.507 505.437C457.507 504.84 457.696 504.315 458.074 503.864C458.453 503.413 459.038 503.028 459.831 502.709C459.097 502.363 458.58 501.998 458.279 501.615C457.979 501.228 457.828 500.765 457.828 500.228C457.828 499.749 457.949 499.33 458.191 498.97C458.432 498.605 458.769 498.325 459.202 498.129C459.64 497.933 460.125 497.835 460.658 497.835ZM458.204 505.539C458.204 506.168 458.416 506.656 458.84 507.002C459.268 507.348 459.865 507.521 460.631 507.521C461.378 507.521 461.98 507.339 462.436 506.975C462.891 506.605 463.119 506.106 463.119 505.478C463.119 504.912 462.939 504.454 462.579 504.104C462.224 503.748 461.536 503.377 460.515 502.989C459.676 503.313 459.082 503.671 458.731 504.062C458.38 504.454 458.204 504.947 458.204 505.539ZM460.645 498.45C460.002 498.45 459.485 498.61 459.093 498.929C458.706 499.243 458.512 499.676 458.512 500.228C458.512 500.547 458.583 500.829 458.724 501.075C458.87 501.317 459.077 501.538 459.346 501.738C459.619 501.934 460.075 502.164 460.713 502.429C461.456 502.142 461.989 501.825 462.313 501.479C462.636 501.132 462.798 500.715 462.798 500.228C462.798 499.681 462.604 499.248 462.217 498.929C461.834 498.61 461.31 498.45 460.645 498.45ZM466.063 503.741C466.063 502.442 466.239 501.351 466.59 500.467C466.945 499.578 467.447 498.92 468.094 498.491C468.745 498.063 469.529 497.849 470.445 497.849C470.874 497.849 471.266 497.901 471.621 498.006V498.607C471.288 498.484 470.887 498.423 470.418 498.423C469.292 498.423 468.415 498.828 467.786 499.64C467.162 500.451 466.811 501.631 466.733 503.181H466.822C467.169 502.734 467.565 502.397 468.012 502.169C468.458 501.941 468.93 501.827 469.427 501.827C470.361 501.827 471.09 502.094 471.614 502.627C472.143 503.16 472.407 503.896 472.407 504.835C472.407 505.856 472.129 506.662 471.573 507.255C471.022 507.843 470.277 508.137 469.338 508.137C468.326 508.137 467.526 507.752 466.938 506.981C466.355 506.207 466.063 505.127 466.063 503.741ZM469.338 507.535C470.085 507.535 470.666 507.3 471.081 506.831C471.496 506.362 471.703 505.692 471.703 504.821C471.703 504.056 471.498 503.459 471.088 503.03C470.678 502.602 470.119 502.388 469.413 502.388C468.948 502.388 468.515 502.49 468.114 502.695C467.718 502.9 467.401 503.174 467.164 503.516C466.927 503.853 466.809 504.199 466.809 504.555C466.809 505.061 466.92 505.548 467.143 506.018C467.371 506.482 467.677 506.852 468.059 507.125C468.447 507.398 468.873 507.535 469.338 507.535ZM480.738 502.244C480.738 503.557 480.565 504.655 480.218 505.539C479.877 506.423 479.375 507.077 478.715 507.501C478.058 507.925 477.263 508.137 476.329 508.137C475.855 508.137 475.417 508.077 475.016 507.959V507.371C475.212 507.435 475.447 507.485 475.72 507.521C475.998 507.553 476.21 507.569 476.356 507.569C477.482 507.569 478.364 507.164 479.002 506.353C479.64 505.537 479.995 504.35 480.068 502.791H479.986C479.653 503.229 479.257 503.566 478.797 503.803C478.336 504.035 477.855 504.151 477.354 504.151C476.429 504.151 475.707 503.896 475.187 503.386C474.672 502.875 474.415 502.151 474.415 501.212C474.415 500.209 474.697 499.398 475.262 498.778C475.832 498.159 476.57 497.849 477.477 497.849C478.133 497.849 478.708 498.022 479.2 498.368C479.692 498.71 480.07 499.214 480.335 499.879C480.604 500.544 480.738 501.333 480.738 502.244ZM477.477 498.45C476.757 498.45 476.183 498.694 475.755 499.182C475.326 499.665 475.112 500.328 475.112 501.171C475.112 501.964 475.31 502.565 475.707 502.976C476.103 503.386 476.671 503.591 477.409 503.591C477.869 503.591 478.298 503.488 478.694 503.283C479.095 503.078 479.412 502.807 479.644 502.47C479.881 502.128 480 501.782 480 501.431C480 500.897 479.893 500.398 479.678 499.934C479.469 499.469 479.173 499.106 478.79 498.847C478.411 498.582 477.974 498.45 477.477 498.45ZM483.251 507.467C483.251 507.02 483.434 506.797 483.798 506.797C484.172 506.797 484.359 507.02 484.359 507.467C484.359 507.913 484.172 508.137 483.798 508.137C483.434 508.137 483.251 507.913 483.251 507.467ZM493.182 502.976C493.182 504.73 492.913 506.029 492.375 506.872C491.842 507.715 491.033 508.137 489.948 508.137C488.905 508.137 488.112 507.704 487.57 506.838C487.027 505.967 486.756 504.68 486.756 502.976C486.756 501.235 487.018 499.945 487.542 499.106C488.071 498.268 488.873 497.849 489.948 497.849C491.001 497.849 491.803 498.284 492.355 499.154C492.906 500.02 493.182 501.294 493.182 502.976ZM487.494 502.976C487.494 504.525 487.697 505.671 488.103 506.414C488.508 507.152 489.124 507.521 489.948 507.521C490.81 507.521 491.436 507.139 491.828 506.373C492.225 505.607 492.423 504.475 492.423 502.976C492.423 501.499 492.225 500.378 491.828 499.612C491.436 498.847 490.81 498.464 489.948 498.464C489.087 498.464 488.463 498.847 488.075 499.612C487.688 500.378 487.494 501.499 487.494 502.976ZM501.67 502.976C501.67 504.73 501.401 506.029 500.863 506.872C500.33 507.715 499.521 508.137 498.436 508.137C497.393 508.137 496.6 507.704 496.058 506.838C495.515 505.967 495.244 504.68 495.244 502.976C495.244 501.235 495.506 499.945 496.03 499.106C496.559 498.268 497.361 497.849 498.436 497.849C499.489 497.849 500.291 498.284 500.843 499.154C501.394 500.02 501.67 501.294 501.67 502.976ZM495.982 502.976C495.982 504.525 496.185 505.671 496.591 506.414C496.996 507.152 497.612 507.521 498.436 507.521C499.298 507.521 499.924 507.139 500.316 506.373C500.713 505.607 500.911 504.475 500.911 502.976C500.911 501.499 500.713 500.378 500.316 499.612C499.924 498.847 499.298 498.464 498.436 498.464C497.575 498.464 496.951 498.847 496.563 499.612C496.176 500.378 495.982 501.499 495.982 502.976ZM508.488 508V498.006H509.185V508H508.488ZM516.771 498.491C515.517 498.491 514.531 498.892 513.811 499.694C513.091 500.496 512.731 501.595 512.731 502.989C512.731 504.416 513.07 505.523 513.749 506.312C514.428 507.1 515.399 507.494 516.661 507.494C517.5 507.494 518.27 507.387 518.972 507.173V507.788C518.311 508.021 517.486 508.137 516.497 508.137C515.094 508.137 513.989 507.683 513.182 506.776C512.375 505.869 511.972 504.603 511.972 502.976C511.972 501.959 512.163 501.064 512.546 500.289C512.934 499.514 513.487 498.917 514.207 498.498C514.932 498.074 515.773 497.862 516.73 497.862C517.705 497.862 518.578 498.045 519.348 498.409L519.068 499.038C518.338 498.674 517.573 498.491 516.771 498.491ZM527.152 508H521.69V498.006H527.152V498.648H522.388V502.429H526.886V503.071H522.388V507.357H527.152V508Z" fill="black"/>
<path d="M234.571 201.916C234.571 202.808 234.301 203.566 233.76 204.191C233.22 204.816 232.461 205.246 231.485 205.48V205.539C232.637 205.682 233.51 206.034 234.102 206.594C234.694 207.147 234.991 207.896 234.991 208.84C234.991 210.214 234.493 211.285 233.496 212.053C232.5 212.814 231.078 213.195 229.229 213.195C227.679 213.195 226.306 212.938 225.108 212.424V209.855C225.661 210.135 226.27 210.363 226.934 210.539C227.598 210.715 228.256 210.803 228.907 210.803C229.903 210.803 230.638 210.633 231.114 210.295C231.589 209.956 231.827 209.413 231.827 208.664C231.827 207.993 231.553 207.518 231.006 207.238C230.459 206.958 229.587 206.818 228.389 206.818H227.305V204.504H228.409C229.515 204.504 230.323 204.361 230.83 204.074C231.345 203.781 231.602 203.283 231.602 202.58C231.602 201.499 230.925 200.959 229.571 200.959C229.102 200.959 228.623 201.037 228.135 201.193C227.653 201.35 227.116 201.62 226.524 202.004L225.127 199.924C226.429 198.986 227.982 198.518 229.786 198.518C231.263 198.518 232.429 198.817 233.282 199.416C234.141 200.015 234.571 200.848 234.571 201.916ZM247.253 213H237.273V210.9L240.857 207.277C241.918 206.19 242.611 205.438 242.937 205.021C243.262 204.598 243.497 204.208 243.64 203.85C243.783 203.492 243.855 203.12 243.855 202.736C243.855 202.163 243.695 201.737 243.376 201.457C243.064 201.177 242.644 201.037 242.116 201.037C241.563 201.037 241.026 201.164 240.505 201.418C239.984 201.672 239.441 202.033 238.874 202.502L237.234 200.559C237.937 199.96 238.519 199.536 238.982 199.289C239.444 199.042 239.948 198.853 240.495 198.723C241.042 198.586 241.654 198.518 242.331 198.518C243.223 198.518 244.011 198.68 244.695 199.006C245.378 199.331 245.909 199.787 246.286 200.373C246.664 200.959 246.853 201.63 246.853 202.385C246.853 203.042 246.736 203.661 246.501 204.24C246.273 204.813 245.915 205.402 245.427 206.008C244.945 206.613 244.092 207.476 242.868 208.596L241.032 210.324V210.461H247.253V213ZM253.08 210.9C252.742 212.215 252.169 213.775 251.361 215.578H249.213C249.636 213.846 249.965 212.212 250.199 210.676H252.934L253.08 210.9ZM266.202 210.041H264.483V213H261.534V210.041H255.44V207.941L261.7 198.723H264.483V207.697H266.202V210.041ZM261.534 207.697V205.275C261.534 204.872 261.55 204.286 261.583 203.518C261.615 202.749 261.641 202.303 261.661 202.18H261.583C261.342 202.714 261.052 203.234 260.714 203.742L258.096 207.697H261.534ZM273.22 203.879C274.601 203.879 275.698 204.266 276.511 205.041C277.332 205.816 277.742 206.877 277.742 208.225C277.742 209.82 277.25 211.047 276.267 211.906C275.284 212.766 273.878 213.195 272.048 213.195C270.46 213.195 269.177 212.938 268.201 212.424V209.816C268.715 210.09 269.314 210.314 269.998 210.49C270.681 210.66 271.329 210.744 271.941 210.744C273.783 210.744 274.705 209.989 274.705 208.479C274.705 207.04 273.751 206.32 271.843 206.32C271.498 206.32 271.117 206.356 270.701 206.428C270.284 206.493 269.946 206.564 269.685 206.643L268.484 205.998L269.021 198.723H276.765V201.281H271.668L271.404 204.084L271.746 204.016C272.143 203.924 272.634 203.879 273.22 203.879ZM290.053 205.861C290.053 208.355 289.643 210.201 288.823 211.398C288.009 212.596 286.752 213.195 285.053 213.195C283.406 213.195 282.162 212.577 281.323 211.34C280.489 210.103 280.073 208.277 280.073 205.861C280.073 203.342 280.48 201.486 281.293 200.295C282.107 199.097 283.36 198.498 285.053 198.498C286.7 198.498 287.944 199.123 288.784 200.373C289.63 201.623 290.053 203.452 290.053 205.861ZM283.071 205.861C283.071 207.613 283.22 208.869 283.52 209.631C283.826 210.386 284.337 210.764 285.053 210.764C285.756 210.764 286.264 210.38 286.577 209.611C286.889 208.843 287.045 207.593 287.045 205.861C287.045 204.11 286.886 202.854 286.567 202.092C286.254 201.324 285.75 200.939 285.053 200.939C284.343 200.939 283.836 201.324 283.53 202.092C283.224 202.854 283.071 204.11 283.071 205.861ZM295.958 210.9C295.62 212.215 295.047 213.775 294.239 215.578H292.091C292.514 213.846 292.843 212.212 293.077 210.676H295.812L295.958 210.9ZM300.193 213L305.555 201.281H298.514V198.742H308.758V200.637L303.357 213H300.193ZM320.805 205.861C320.805 208.355 320.395 210.201 319.575 211.398C318.761 212.596 317.505 213.195 315.805 213.195C314.158 213.195 312.915 212.577 312.075 211.34C311.242 210.103 310.825 208.277 310.825 205.861C310.825 203.342 311.232 201.486 312.046 200.295C312.86 199.097 314.113 198.498 315.805 198.498C317.453 198.498 318.696 199.123 319.536 200.373C320.382 201.623 320.805 203.452 320.805 205.861ZM313.823 205.861C313.823 207.613 313.973 208.869 314.272 209.631C314.578 210.386 315.089 210.764 315.805 210.764C316.509 210.764 317.016 210.38 317.329 209.611C317.641 208.843 317.798 207.593 317.798 205.861C317.798 204.11 317.638 202.854 317.319 202.092C317.007 201.324 316.502 200.939 315.805 200.939C315.096 200.939 314.588 201.324 314.282 202.092C313.976 202.854 313.823 204.11 313.823 205.861ZM332.931 205.861C332.931 208.355 332.521 210.201 331.701 211.398C330.887 212.596 329.63 213.195 327.931 213.195C326.284 213.195 325.041 212.577 324.201 211.34C323.367 210.103 322.951 208.277 322.951 205.861C322.951 203.342 323.358 201.486 324.171 200.295C324.985 199.097 326.239 198.498 327.931 198.498C329.578 198.498 330.822 199.123 331.662 200.373C332.508 201.623 332.931 203.452 332.931 205.861ZM325.949 205.861C325.949 207.613 326.099 208.869 326.398 209.631C326.704 210.386 327.215 210.764 327.931 210.764C328.634 210.764 329.142 210.38 329.455 209.611C329.767 208.843 329.923 207.593 329.923 205.861C329.923 204.11 329.764 202.854 329.445 202.092C329.132 201.324 328.628 200.939 327.931 200.939C327.222 200.939 326.714 201.324 326.408 202.092C326.102 202.854 325.949 204.11 325.949 205.861ZM264.804 240V225.723H267.831V240H264.804ZM278.189 228.037C277.05 228.037 276.168 228.467 275.543 229.326C274.918 230.179 274.605 231.37 274.605 232.9C274.605 236.084 275.8 237.676 278.189 237.676C279.192 237.676 280.406 237.425 281.832 236.924V239.463C280.66 239.951 279.352 240.195 277.906 240.195C275.829 240.195 274.241 239.567 273.141 238.311C272.04 237.048 271.49 235.238 271.49 232.881C271.49 231.396 271.76 230.098 272.301 228.984C272.841 227.865 273.616 227.008 274.625 226.416C275.641 225.817 276.829 225.518 278.189 225.518C279.576 225.518 280.969 225.853 282.369 226.523L281.393 228.984C280.859 228.73 280.322 228.509 279.781 228.32C279.241 228.132 278.71 228.037 278.189 228.037ZM293.802 240H285.579V225.723H293.802V228.203H288.606V231.338H293.44V233.818H288.606V237.5H293.802V240Z" fill="#2BD2F7"/>
<defs>
<linearGradient id="paint0_linear" x1="278.5" y1="40" x2="278.5" y2="365" gradientUnits="userSpaceOnUse">
<stop stop-color="#C5FEF2"/>
<stop offset="1" stop-color="#0B41FF"/>
</linearGradient>
<linearGradient id="paint1_linear" x1="395.096" y1="-7.74011" x2="395.096" y2="401.723" gradientUnits="userSpaceOnUse">
<stop stop-color="#FC6972"/>
<stop offset="1" stop-color="#E32573"/>
</linearGradient>
<linearGradient id="paint2_linear" x1="50" y1="479" x2="30" y2="479" gradientUnits="userSpaceOnUse">
<stop stop-color="#E01E73"/>
<stop offset="1" stop-color="#FF7272"/>
</linearGradient>
<linearGradient id="paint3_linear" x1="50" y1="508" x2="30" y2="508" gradientUnits="userSpaceOnUse">
<stop stop-color="#0A40FF"/>
<stop offset="1" stop-color="#C7FFF1"/>
</linearGradient>
</defs>
</svg>
