<svg width="30" height="30" viewBox="0 0 30 30" fill="none" xmlns="http://www.w3.org/2000/svg">
<g clip-path="url(#clip0)">
<path d="M4.475 26.495H22.2987L21.4475 23.7387L23.4837 25.4862L25.35 27.1587L28.75 30V3.09374C28.665 1.42124 27.225 -7.62939e-06 25.44 -7.62939e-06L4.48125 0.00374237C2.6975 0.00374237 1.25 1.42749 1.25 3.09999V23.4C1.25 25.1637 2.695 26.495 4.475 26.495V26.495ZM17.66 7.10374L17.6187 7.11874L17.6337 7.10374H17.66ZM8.12125 8.68999C10.4125 7.02249 12.5362 7.10249 12.5362 7.10249L12.7075 7.27124C9.90375 7.93999 8.6325 9.19249 8.6325 9.19249C8.6325 9.19249 8.9725 9.02624 9.56625 8.77249C13.3425 7.28749 17.4662 7.39499 21.2837 9.27499C21.2837 9.27499 20.01 8.10374 17.3787 7.35374L17.6112 7.12499C17.975 7.12624 19.9 7.19374 21.96 8.69999C21.96 8.69999 24.265 12.6375 24.265 17.475C24.1887 17.3825 22.835 19.5575 19.3512 19.6325C19.3512 19.6325 18.7612 18.965 18.3412 18.3825C20.3787 17.7975 21.1412 16.6275 21.1412 16.6275C20.4725 17.0487 19.8625 17.2987 19.3675 17.5487C18.6062 17.8837 17.8437 18.0487 17.0825 18.2175C13.4775 18.8025 11.4537 17.8237 9.54125 17.0475L8.8875 16.715C8.8875 16.715 9.64875 17.885 11.605 18.47C11.0912 19.0562 10.5825 19.7225 10.5825 19.7225C7.1 19.64 5.83 17.465 5.83 17.465C5.83 12.62 8.12125 8.68999 8.12125 8.68999V8.68999Z" fill="black"/>
<path d="M17.885 15.9638C18.7738 15.9638 19.4975 15.2138 19.4975 14.2888C19.4975 13.37 18.7775 12.62 17.885 12.62V12.6238C17 12.6238 16.275 13.3713 16.2725 14.2963C16.2725 15.2138 16.9963 15.9638 17.885 15.9638Z" fill="black"/>
<path d="M12.1125 15.9638C13.0013 15.9638 13.725 15.2138 13.725 14.2888C13.725 13.37 13.0063 12.62 12.1175 12.62L12.1125 12.6238C11.2238 12.6238 10.5 13.3713 10.5 14.2963C10.5 15.2138 11.2238 15.9638 12.1125 15.9638V15.9638Z" fill="black"/>
</g>
<defs>
<clipPath id="clip0">
<rect width="30" height="30" fill="white"/>
</clipPath>
</defs>
</svg>
