<svg width="80" height="80" viewBox="0 0 80 80" fill="none" xmlns="http://www.w3.org/2000/svg">
<circle cx="40" cy="40" r="40" fill="url(#paint0_linear)"/>
<path d="M50.9759 46.606C50.0959 45.7253 49.0677 45.0065 47.9384 44.4825C49.531 43.1923 50.547 41.2235 50.547 39.0157C50.547 35.1204 47.2985 31.9247 43.4032 31.9845C39.5677 32.0442 36.4774 35.1696 36.4774 39.0157C36.4774 41.2235 37.497 43.1923 39.086 44.4825C37.9565 45.0061 36.9282 45.7249 36.0485 46.606C34.129 48.529 33.0392 51.0673 32.9688 53.7743C32.9679 53.8118 32.9745 53.8492 32.9882 53.8841C33.0019 53.919 33.0225 53.9509 33.0487 53.9777C33.0749 54.0046 33.1062 54.026 33.1408 54.0405C33.1754 54.0551 33.2126 54.0626 33.2501 54.0626H35.2188C35.37 54.0626 35.4966 53.9431 35.5001 53.7919C35.5669 51.7528 36.3931 49.8438 37.845 48.3954C38.588 47.6485 39.4718 47.0563 40.4451 46.6532C41.4185 46.2501 42.4622 46.044 43.5157 46.047C45.6567 46.047 47.6712 46.8802 49.1864 48.3954C50.6349 49.8438 51.461 51.7528 51.5313 53.7919C51.5349 53.9431 51.6614 54.0626 51.8126 54.0626H53.7813C53.8189 54.0626 53.856 54.0551 53.8906 54.0405C53.9252 54.026 53.9565 54.0046 53.9827 53.9777C54.009 53.9509 54.0295 53.919 54.0432 53.8841C54.0569 53.8492 54.0635 53.8118 54.0626 53.7743C53.9923 51.0673 52.9024 48.529 50.9759 46.606ZM43.5157 43.5157C42.3134 43.5157 41.1813 43.0481 40.3341 42.1974C39.9089 41.7755 39.573 41.2723 39.3465 40.7178C39.12 40.1634 39.0075 39.5689 39.0157 38.97C39.0263 37.8169 39.4868 36.7024 40.2919 35.8763C41.1356 35.0114 42.2642 34.5298 43.47 34.5157C44.6618 34.5052 45.8185 34.9692 46.6692 35.8024C47.5411 36.6567 48.0192 37.7993 48.0192 39.0157C48.0192 40.2181 47.5517 41.3466 46.7009 42.1974C46.2835 42.6168 45.787 42.9492 45.2403 43.1755C44.6936 43.4018 44.1074 43.5174 43.5157 43.5157ZM34.7091 39.9438C34.6774 39.638 34.6599 39.3286 34.6599 39.0157C34.6599 38.4567 34.7126 37.9118 34.811 37.381C34.8356 37.2544 34.7688 37.1243 34.6528 37.0716C34.1747 36.8571 33.7352 36.5618 33.3556 36.1892C32.9082 35.7554 32.5561 35.2331 32.3218 34.6556C32.0876 34.0781 31.9763 33.4581 31.995 32.8352C32.0267 31.7067 32.4802 30.6345 33.2712 29.8259C34.1395 28.9364 35.3067 28.4513 36.5477 28.4653C37.6692 28.4759 38.752 28.9083 39.5712 29.6747C39.8489 29.9349 40.088 30.2231 40.2884 30.5325C40.3587 30.6415 40.4958 30.6872 40.6153 30.645C41.2341 30.4306 41.888 30.2794 42.5595 30.2091C42.7563 30.188 42.8688 29.977 42.7809 29.8013C41.6384 27.5407 39.304 25.9798 36.604 25.9376C32.7052 25.8778 29.4567 29.0735 29.4567 32.9653C29.4567 35.1731 30.4727 37.1419 32.0653 38.4321C30.9474 38.9489 29.9173 39.6626 29.0243 40.5556C27.0977 42.4786 26.0079 45.0169 25.9376 47.7274C25.9366 47.765 25.9432 47.8023 25.9569 47.8372C25.9707 47.8722 25.9912 47.904 26.0174 47.9309C26.0436 47.9577 26.075 47.9791 26.1096 47.9937C26.1441 48.0082 26.1813 48.0157 26.2188 48.0157H28.1911C28.3423 48.0157 28.4688 47.8962 28.4724 47.745C28.5392 45.7059 29.3653 43.797 30.8173 42.3485C31.8509 41.3149 33.1165 40.5977 34.4981 40.2497C34.6352 40.2145 34.7267 40.0845 34.7091 39.9438Z" fill="white"/>
<defs>
<linearGradient id="paint0_linear" x1="4.14414e-07" y1="20.566" x2="94.2996" y2="60.6142" gradientUnits="userSpaceOnUse">
<stop stop-color="#5AC9E5"/>
<stop offset="1" stop-color="#194ECA"/>
</linearGradient>
</defs>
</svg>
