<svg width="182" height="184" viewBox="0 0 182 184" fill="none" xmlns="http://www.w3.org/2000/svg">
<g opacity="0.4">
<path d="M20.3341 116.19C21.151 113.963 22.2066 111.898 23.5011 109.996L25.8889 111.621C24.7563 113.285 23.7006 115.35 23.0456 117.339L20.3341 116.19ZM29.8493 106.314L27.785 104.214C29.3182 102.474 31.0903 100.897 32.9393 99.7201L34.6799 102.296C33.0697 103.636 31.4595 104.975 29.8493 106.314ZM40.3039 99.1655L38.9639 96.5142C41.0516 95.4997 43.3782 94.6477 45.3812 94.2713L46.1588 97.2357C44.3177 97.3743 42.3917 98.151 40.3039 99.1655ZM52.5683 96.0311L52.4301 93.154C54.9106 93.1025 57.2293 93.2889 59.3863 93.713L58.8852 96.503C56.967 96.2413 54.6483 96.055 52.5683 96.0311ZM97.6613 121.15L99.2794 118.773C101.19 120.073 103.262 121.135 104.933 122.272L103.554 124.813C101.721 123.913 99.8104 122.613 97.6613 121.15ZM92.1692 117.413C90.2589 116.113 88.5104 114.575 87.0007 113.2L88.8576 110.985C90.6061 112.523 92.2776 113.66 94.0261 115.198L92.1692 117.413ZM65.2711 98.4134L66.4116 95.7106C68.4067 96.3725 70.4788 97.4347 72.6279 98.8971L71.2486 101.437C68.9377 100.213 67.1044 99.313 65.2711 98.4134ZM81.8322 108.987C80.0837 107.45 78.4122 106.312 76.5019 105.012L78.12 102.634C80.0303 103.934 81.7788 105.472 83.4503 106.61L81.8322 108.987ZM110.094 127.524L110.996 124.658C112.513 124.995 113.869 125.57 115.386 125.907C116.026 125.994 116.665 126.081 117.305 126.168L117.042 129.121C116.403 129.034 115.764 128.946 115.124 128.859C113.368 128.36 111.611 127.86 110.094 127.524ZM124.006 128.642L123.467 125.84C125.47 125.463 127.635 124.849 129.561 124.072L130.901 126.724C128.575 127.576 126.248 128.428 124.006 128.642ZM136.61 122.955L134.708 120.617C135.755 119.59 136.641 118.802 137.45 117.613C137.774 117.137 138.259 116.424 138.583 115.948L141.133 117.336C140.647 118.049 140.401 118.925 140.077 119.4C139.106 120.827 138.058 121.853 136.61 122.955ZM140.148 110.055C140.402 108.141 140.017 106.14 139.555 103.738L142.36 103.211C142.898 106.013 143.122 108.252 142.867 110.166L140.148 110.055ZM137.923 97.4092C137.299 95.2454 136.676 93.0815 136.453 90.8424L139.257 90.3154C139.642 92.3168 140.265 94.4806 140.889 96.6445L137.923 97.4092ZM136.107 83.6495C136.284 81.3351 137.101 79.1078 137.918 76.8806L140.63 78.03C139.736 79.857 139.32 82.0089 139.065 83.923L136.107 83.6495ZM144.189 72.7989L141.963 70.9362C143.497 69.1965 145.269 67.6193 147.279 66.2045L148.781 68.6181C146.932 69.795 145.322 71.1345 144.189 72.7989ZM154.32 66.1255L153.381 63.3989C155.546 62.7847 157.549 62.4083 159.867 62.5946L159.929 65.0715C158.088 65.2102 156.246 65.3488 154.32 66.1255Z" fill="#2BD2F7"/>
<path d="M36.5612 115.591L35.9334 112.943L21.8899 116.027L19.7637 101.765L16.913 102.179L19.6695 119.496L36.5612 115.591Z" fill="#2BD2F7"/>
</g>
</svg>
