<svg width="106" height="100" viewBox="0 0 106 100" fill="none" xmlns="http://www.w3.org/2000/svg">
<g opacity="0.4">
<path d="M0.50649 63.5668L2.0407 65.6123L5.80328 62.6634L4.26908 60.6178L0.50649 63.5668ZM8.78901 57.1902L10.3232 59.2357C11.9392 58.0512 13.4539 57.0937 14.8432 55.8081L13.309 53.7625C12.021 54.8211 10.405 56.0056 8.78901 57.1902ZM18.1569 50.209L19.6911 52.2545C21.3071 51.07 22.8218 50.1125 24.3365 49.1551L23.1303 46.9836C21.5144 48.1681 19.6716 49.2515 18.1569 50.209ZM28.0025 43.9853L29.2086 46.1567C30.7233 45.1992 32.4648 44.3429 34.2062 43.4866L33 41.3152C31.2586 42.1715 29.7439 43.129 28.0025 43.9853ZM38.3257 38.5192L39.4305 40.9176C41.172 40.0613 42.8121 39.432 44.7803 38.6769L43.9022 36.3795C41.934 37.1347 40.1925 37.991 38.3257 38.5192ZM49.3774 34.4669L49.9275 36.8901C51.7944 36.362 53.6613 35.8338 55.4269 35.5327L54.8768 33.1096C53.0099 33.6377 51.2443 33.9388 49.3774 34.4669ZM60.9551 32.2827L61.1771 34.8317C63.1695 34.6318 64.8338 34.5577 66.7248 34.5848L66.7295 32.1369C64.8384 32.1098 62.9474 32.0827 60.9551 32.2827ZM72.6294 32.3193L72.2967 34.893C74.0864 35.1471 76.2042 35.2753 77.8927 35.7565L78.4521 33.2839C76.5369 32.7016 74.7472 32.4475 72.6294 32.3193ZM84.1736 34.4755L83.3874 36.8469C84.9746 37.5551 86.4363 37.935 87.7967 38.542L88.477 38.8455L89.4899 36.5753L88.8097 36.2718C87.4492 35.6648 85.7607 35.1837 84.1736 34.4755ZM93.4894 41.6263C94.9753 42.5615 96.5866 43.8248 97.9712 44.987L99.6643 43.0203C98.053 41.7569 96.6684 40.5947 95.0571 39.3314L93.4894 41.6263Z" fill="#2BD2F7"/>
<path d="M85.8383 47.1957L85.6162 44.6467L97.9224 43.8763L96.0546 31.6099L98.703 31.1583L100.692 46.2007L85.8383 47.1957Z" fill="#2BD2F7"/>
</g>
</svg>
