<svg width="246" height="117" viewBox="0 0 246 117" fill="none" xmlns="http://www.w3.org/2000/svg">
<g opacity="0.4">
<mask id="mask0" mask-type="alpha" maskUnits="userSpaceOnUse" x="0" y="1" width="237" height="116">
<path d="M0 73.2822L226.036 1.70516L236.95 45.7951L13.6839 116.495L0 73.2822Z" fill="#C4C4C4"/>
</mask>
<g mask="url(#mask0)">
<path d="M228.742 104.912L227.157 102.585C228.793 101.501 230.347 100.16 231.819 98.5626L233.836 100.47C232.107 102.149 230.378 103.828 228.742 104.912ZM237.74 95.839L235.547 94.2702C236.763 92.7537 237.897 90.9801 239.031 89.2065L241.399 90.4369C240.347 92.4676 239.212 94.2412 237.74 95.839ZM244.125 84.7645L241.582 83.8726C242.378 81.9232 242.917 80.0552 243.456 78.1871L246.175 78.7406C245.636 80.6086 244.921 82.8151 244.125 84.7645ZM247.547 72.3652L244.91 72.0688C245.111 70.025 245.311 67.9812 245.255 66.0188L248.068 65.9767C247.867 68.0205 247.667 70.0643 247.547 72.3652ZM247.398 59.3993L244.667 59.6986C244.423 58.9272 244.435 58.0745 244.272 57.5603C243.865 56.2748 243.797 55.165 243.389 53.8794L245.958 53.066C246.365 54.3516 246.772 55.6371 246.923 57.004C247.167 57.7753 247.154 58.628 247.398 59.3993ZM241.085 48.3857C240.258 46.6673 239.35 44.6918 238.266 43.0547L240.59 41.4699C241.755 43.3641 242.921 45.2583 243.747 46.9767L241.085 48.3857ZM169.247 65.1931C167.706 65.6811 165.745 65.7363 163.96 65.453L164.511 62.7324C166.378 63.2727 168.258 62.9604 169.718 62.2153L171.046 64.6237C170.275 64.8677 169.761 65.0304 169.247 65.1931ZM48.215 100.691C46.1599 101.341 44.1049 101.992 41.9685 102.386L41.4112 99.7332C43.2908 99.4209 45.3458 98.7702 47.4008 98.1195L48.215 100.691ZM54.2986 98.4812L53.2275 95.9915C55.0257 95.4221 56.9993 94.5142 58.9729 93.6063L60.0439 96.0961C58.0703 97.004 56.0967 97.9118 54.2986 98.4812ZM35.7347 103.228C33.5982 103.622 31.3804 103.758 29.4194 103.813L29.3759 100.998C31.3369 100.943 33.5547 100.807 35.4343 100.494L35.7347 103.228ZM65.7078 93.4539L64.3799 91.0455C66.3535 90.1376 67.9888 89.054 69.9624 88.1461L71.2903 90.5545C69.5736 91.3811 67.6 92.2889 65.7078 93.4539ZM174.799 58.626L171.999 57.8154C172.362 56.2858 172.387 54.5805 171.818 52.7807L171.736 52.5236L174.305 51.7102L174.468 52.2244C175.119 54.2813 175.257 56.5008 174.799 58.626ZM234.42 38.049C233.079 36.4933 231.739 34.9375 230.223 33.7202L232.127 31.7026C233.725 33.177 235.322 34.6514 236.663 36.2071L234.42 38.049ZM157.626 61.5179C157.545 61.2608 157.545 61.2608 157.206 61.085C156.705 60.3951 156.461 59.6237 156.135 58.5953C155.728 57.3097 155.66 56.2 155.509 54.8331L158.322 54.791C158.391 55.9008 158.46 57.0105 158.704 57.7819C158.948 58.5532 159.111 59.0674 159.612 59.7574L159.694 60.0145L157.626 61.5179ZM76.71 87.141L75.3821 84.7326C77.0174 83.649 78.9096 82.484 80.5449 81.4004L82.1296 83.7275C80.2375 84.8924 78.6022 85.976 76.71 87.141ZM23.1168 103.546C21.0744 103.344 18.7751 103.224 16.6513 102.765L17.203 100.044C19.3268 100.503 21.1123 100.786 23.1547 100.988L23.1168 103.546ZM87.211 80.1381L85.6262 77.8111C87.5998 76.9032 89.1537 75.5625 90.789 74.4789L92.3738 76.8059C90.7385 77.8895 89.1032 78.9732 87.211 80.1381ZM97.6306 72.8782L96.0458 70.5511C97.6811 69.4675 99.4919 68.0454 101.127 66.9618L102.712 69.2888C100.82 70.4538 99.2659 71.7945 97.6306 72.8782ZM225.593 29.8113C223.82 28.6753 222.047 27.5394 220.356 26.6606L221.584 24.2914C223.614 25.346 225.387 26.4819 227.16 27.6179L225.593 29.8113ZM168.566 47.8694C167.727 47.0037 166.712 46.4764 165.697 45.9491C165.021 45.5976 164.344 45.246 163.749 45.1516L164.639 42.6067C165.572 42.8769 166.249 43.2284 167.182 43.4986C168.536 44.2016 169.632 44.9861 170.471 45.8518L168.566 47.8694ZM107.793 65.6995L106.209 63.3725C107.844 62.2888 109.736 61.1239 111.29 59.7831L112.875 62.1102C111.321 63.4509 109.429 64.6159 107.793 65.6995ZM159.344 49.0925L156.801 48.2005C157.34 46.3325 158.217 44.6402 159.27 42.6095L159.445 42.2711L161.895 43.7586L161.719 44.097C160.842 45.7893 159.965 47.4815 159.344 49.0925ZM118.119 59.0351L116.791 56.6267C118.683 55.4617 120.319 54.3781 122.292 53.4703L123.62 55.8787C121.646 56.7865 120.011 57.8701 118.119 59.0351ZM158.054 44.126C156.35 44.0999 154.132 44.2364 151.996 44.63L151.438 41.9776C153.832 41.5026 155.793 41.4474 158.011 41.3109L158.054 44.126ZM128.864 52.8036L127.536 50.3952C129.51 49.4873 131.484 48.5795 133.2 47.7529L134.271 50.2427C132.555 51.0692 130.838 51.8957 128.864 52.8036ZM214.849 24.4439C212.901 23.6464 211.034 23.106 208.991 22.9041L209.543 20.1834C211.667 20.6424 213.791 21.1014 215.739 21.8989L214.849 24.4439ZM140.355 48.0334L139.541 45.4623C141.596 44.8115 143.651 44.1608 145.706 43.51L146.52 46.0811C144.127 46.5561 142.072 47.2068 140.355 48.0334ZM165.46 38.952L163.267 37.3831C164.74 35.7853 166.212 34.1875 167.685 32.5896L169.445 34.5782C168.148 35.8376 166.594 37.1783 165.46 38.952ZM202.783 22.0412C200.741 21.8392 198.78 21.8944 196.643 22.2881L196.343 19.5543C198.561 19.4177 200.778 19.2812 202.821 19.4832L202.783 22.0412ZM174.364 30.4747L172.779 28.1476C174.671 26.9827 176.306 25.899 178.199 24.7341L179.526 27.1425C177.634 28.3074 175.999 29.3911 174.364 30.4747ZM191.004 23.2249C188.868 23.6186 187.07 24.188 185.015 24.8387L183.944 22.349C185.999 21.6982 188.054 21.0475 190.109 20.3967L191.004 23.2249Z" fill="#2BD2F7"/>
</g>
</g>
<g opacity="0.4">
<path d="M234.534 22.9969L231.826 23.7676L234.78 36.9081L221.506 38.673L221.675 41.4426L238.029 38.9889L234.534 22.9969Z" fill="#2BD2F7"/>
</g>
</svg>
