<svg width="275" height="268" viewBox="0 0 275 268" fill="none" xmlns="http://www.w3.org/2000/svg">
<g opacity="0.4">
<path d="M170.053 9.00363L171.27 11.4469C169.56 12.2986 167.971 13.3946 166.626 14.9793L164.798 13.1453C166.021 11.3163 167.854 10.0986 170.053 9.00363ZM176.404 7.0609C178.723 6.82053 180.92 6.94618 183.116 7.68214L182.258 10.2441C180.183 9.7525 178.231 9.50518 176.521 9.74654L176.404 7.0609ZM160.761 18.5096L163.2 19.7343C162.221 21.4416 161.607 23.2716 160.871 25.4676L158.309 24.6089C158.679 22.2903 159.537 20.3386 160.761 18.5096ZM56.7981 70.5847C58.7527 69.6114 60.7073 68.638 62.5393 68.0307L63.5117 70.5956C61.4354 71.3246 59.725 72.1763 57.7704 73.1497L56.7981 70.5847ZM50.9342 73.5047L52.1508 75.948C50.1962 76.9214 48.6076 78.0174 46.6529 78.9907L45.1919 76.6691C47.3909 75.5741 48.9795 74.4781 50.9342 73.5047ZM68.6465 65.5993C70.7228 64.8703 72.7991 64.1412 74.7528 63.7782L75.4808 66.4648C73.4045 67.1939 71.5726 67.8012 69.4962 68.5302L68.6465 65.5993ZM39.9373 80.2005L41.3984 82.5221C39.5654 83.7398 37.9767 84.8358 36.2655 86.2978L34.5601 84.0978C36.6374 82.7585 38.4704 81.5408 39.9373 80.2005ZM80.859 61.9572C83.057 61.4725 85.0107 61.1095 87.2086 60.6248L87.6923 63.4331C85.7387 63.7961 83.5407 64.2808 81.5871 64.6438L80.859 61.9572ZM29.9149 88.2405L31.8645 90.3188C30.3976 91.6591 28.6863 93.1211 27.2193 94.4615L25.2696 92.3832C26.7366 91.0429 28.4479 89.5809 29.9149 88.2405ZM189.459 10.6221C191.288 11.8457 192.994 13.4353 194.579 14.7806L192.501 16.7303C191.16 15.2633 189.576 13.918 187.868 12.9387L189.459 10.6221ZM93.5572 59.9027C95.6325 59.784 97.9522 59.5437 100.027 59.425L100.145 62.1106C98.0699 62.2293 95.9946 62.348 94.0409 62.711L93.5572 59.9027ZM20.8677 97.0145L22.9401 98.7268C21.5948 100.311 20.2495 101.896 18.9042 103.481L16.8318 101.769C17.9328 100.306 19.2781 98.7209 20.8677 97.0145ZM156.59 30.9536L159.275 31.4462C159.028 33.3988 158.78 35.3515 158.655 37.5485L155.847 37.4218C156.217 35.1032 156.343 32.9062 156.59 30.9536ZM106.253 59.0689C107.474 59.0709 108.695 59.0729 109.915 59.0748C110.892 59.1985 111.746 59.0778 112.478 59.3231L112.352 62.1304C111.375 62.0068 110.765 62.0058 109.789 61.8821C108.568 61.8801 107.347 61.8782 106.127 61.8762L106.253 59.0689ZM12.6733 106.889L14.9899 108.479C13.7663 110.308 12.6653 111.771 11.4417 113.6L9.12503 112.01C10.226 110.547 11.4496 108.718 12.6733 106.889ZM119.069 59.7001C121.266 59.8257 123.219 60.073 125.538 60.443L125.045 63.1276C123.092 62.8803 120.895 62.7547 118.943 62.5074L119.069 59.7001ZM198.232 20.2795C199.205 22.2341 199.934 24.3104 200.175 26.6301L197.366 27.1138C197.369 25.2828 196.762 23.4508 195.789 21.4962L198.232 20.2795ZM155.715 43.8911L158.4 43.7734C158.519 45.8487 158.393 48.0457 158.512 50.121L155.826 50.2387C155.952 48.0417 155.833 45.9664 155.715 43.8911ZM131.762 61.3075C133.714 61.5549 135.911 61.6805 137.985 62.1721L137.859 64.9794C135.662 64.8538 133.709 64.6065 131.391 64.2365L131.762 61.3075ZM197.601 33.0954L200.164 33.3437C200.038 35.5407 199.302 37.7366 198.566 39.9326L196.004 39.074C197.106 37.0007 197.354 35.048 197.601 33.0954ZM156.183 56.4646L158.868 56.3469C158.987 58.4222 159.106 60.4976 159.469 62.4512C160.689 62.4532 161.788 62.2109 162.887 61.9685L163.371 64.7768C161.417 65.1398 159.098 65.3802 156.901 65.2545L156.783 62.5689C156.542 60.8596 156.423 58.7843 156.183 56.4646ZM144.332 62.6707C145.308 62.7944 145.919 62.7954 146.895 62.919C148.116 62.921 149.336 62.923 150.679 63.1693L150.552 65.9766C149.331 65.9746 148.111 65.9726 146.768 65.7263C145.792 65.6027 144.937 65.7233 144.205 65.478L144.332 62.6707ZM193.798 44.4413L196.115 46.0319C194.891 47.8609 193.668 49.6899 192.322 51.2746L190.25 49.5623C191.474 47.7333 192.575 46.2703 193.798 44.4413ZM169.236 61.2464C171.434 60.7617 173.266 60.1544 175.098 59.5471L176.07 62.112C173.994 62.841 171.917 63.57 169.964 63.9331L169.236 61.2464ZM185.605 53.705L187.31 55.9049C185.966 56.8793 184.622 57.8536 183.033 58.9496C182.544 59.193 182.056 59.4363 181.811 59.558L180.595 57.1147C181.083 56.8713 181.328 56.7497 181.816 56.5063C183.161 55.532 184.505 54.5577 185.605 53.705ZM157.627 69.1618L160.435 68.6781C160.798 70.6318 161.038 72.9514 161.401 74.9051L158.593 75.3888C158.23 73.4351 157.867 71.4815 157.627 69.1618ZM159.681 81.86L162.489 81.3763C162.852 83.33 163.337 85.5279 163.7 87.4816L161.014 88.2096C160.529 86.0116 160.044 83.8137 159.681 81.86ZM162.469 94.1932L165.155 93.4652C165.64 95.6631 166.247 97.4951 166.976 99.5714L164.29 100.299C163.682 98.4675 162.953 96.3912 162.469 94.1932ZM166.232 106.65L168.797 105.678C169.526 107.754 170.134 109.586 170.863 111.662L168.298 112.635C167.569 110.558 166.84 108.482 166.232 106.65ZM170.607 118.498L173.172 117.525C173.901 119.601 174.753 121.312 175.482 123.388L172.917 124.36C172.31 122.528 171.336 120.574 170.607 118.498ZM175.593 130.346L178.036 129.129C178.645 130.351 179.375 131.817 179.983 133.039L180.835 134.749L178.391 135.966L177.54 134.255C176.81 132.789 176.201 131.568 175.593 130.346ZM183.877 140.247C184.851 142.201 185.947 143.79 186.92 145.745L184.598 147.206C183.381 145.373 182.407 143.418 181.556 141.708L183.877 140.247ZM190.207 151.121C191.425 152.954 192.521 154.543 193.738 156.376L191.417 157.837C190.199 156.004 189.103 154.415 187.885 152.582L190.207 151.121ZM197.27 161.63C198.487 163.463 199.828 164.93 201.045 166.763L198.845 168.468C197.628 166.635 196.287 165.168 195.07 163.335L197.27 161.63ZM204.944 171.53C206.406 173.241 207.746 174.708 208.842 176.297L206.764 178.246C205.302 176.535 203.961 175.068 202.499 173.357L204.944 171.53ZM213.351 181.065C214.691 182.532 216.153 184.243 217.738 185.588L215.66 187.538C214.319 186.071 212.613 184.481 211.273 183.014L213.351 181.065ZM222.003 189.868C223.588 191.213 224.928 192.68 226.634 194.269L224.922 196.342C223.338 194.996 221.631 193.407 220.291 191.94L222.003 189.868Z" fill="#2BD2F7"/>
<path d="M226.656 180.842L223.971 180.96L225.169 194.389L211.62 194.733L211.493 197.541L228.094 197.202L226.656 180.842Z" fill="#2BD2F7"/>
</g>
</svg>
