<svg width="24" height="14" viewBox="0 0 24 14" fill="none" xmlns="http://www.w3.org/2000/svg">
<path d="M13.0376 6.81535C13.0376 10.3063 10.2277 13.1305 6.7689 13.1305C3.31009 13.1305 0.5 10.3063 0.5 6.81535C0.5 3.32436 3.30989 0.5 6.7689 0.5C10.2279 0.5 13.0376 3.32434 13.0376 6.81535Z" fill="#868686" stroke="#868686"/>
<mask id="path-2-inside-1" fill="white">
<path d="M20.963 6.8153C20.963 10.3582 19.4477 13.2314 17.5785 13.2314C15.7093 13.2314 14.1941 10.3582 14.1941 6.8153C14.1941 3.2724 15.7091 0.39917 17.5783 0.39917C19.4475 0.39917 20.9627 3.27148 20.9627 6.8153"/>
</mask>
<path d="M20.963 6.8153C20.963 10.3582 19.4477 13.2314 17.5785 13.2314C15.7093 13.2314 14.1941 10.3582 14.1941 6.8153C14.1941 3.2724 15.7091 0.39917 17.5783 0.39917C19.4475 0.39917 20.9627 3.27148 20.9627 6.8153" fill="#868686"/>
<path d="M19.963 6.8153C19.963 8.45746 19.6096 9.89487 19.0872 10.8854C18.5406 11.9216 17.9582 12.2314 17.5785 12.2314V14.2314C19.068 14.2314 20.1778 13.1046 20.8562 11.8185C21.5587 10.4867 21.963 8.71603 21.963 6.8153H19.963ZM17.5785 12.2314C17.1988 12.2314 16.6164 11.9216 16.0699 10.8854C15.5474 9.89487 15.1941 8.45746 15.1941 6.8153H13.1941C13.1941 8.71603 13.5984 10.4867 14.3008 11.8185C14.9792 13.1046 16.089 14.2314 17.5785 14.2314V12.2314ZM15.1941 6.8153C15.1941 5.17311 15.5473 3.73569 16.0698 2.74515C16.6163 1.70892 17.1986 1.39917 17.5783 1.39917V-0.60083C16.0888 -0.60083 14.979 0.526031 14.3007 1.81215C13.5983 3.14395 13.1941 4.91458 13.1941 6.8153H15.1941ZM17.5783 1.39917C17.9581 1.39917 18.5405 1.70889 19.087 2.74487C19.6094 3.73525 19.9627 5.17264 19.9627 6.8153H21.9627C21.9627 4.91414 21.5584 3.14346 20.8559 1.81173C20.1775 0.525601 19.0677 -0.60083 17.5783 -0.60083V1.39917Z" fill="#868686" mask="url(#path-2-inside-1)"/>
<path d="M23.5 6.81498C23.5 8.37828 23.3684 9.77966 23.1617 10.7776C23.0576 11.2807 22.9396 11.6549 22.8239 11.8912C22.8191 11.9011 22.8143 11.9106 22.8096 11.9197C22.805 11.9106 22.8002 11.9011 22.7954 11.8913C22.6797 11.655 22.5618 11.2809 22.4577 10.7779C22.2511 9.78003 22.1195 8.37864 22.1195 6.81498C22.1195 5.25133 22.2511 3.84994 22.4577 2.85208C22.5619 2.34904 22.6799 1.97492 22.7955 1.73868C22.8003 1.72885 22.805 1.71943 22.8097 1.71042C22.8143 1.71943 22.819 1.72885 22.8238 1.73869C22.9395 1.97491 23.0575 2.34901 23.1617 2.85203C23.3683 3.84985 23.5 5.25122 23.5 6.81498Z" fill="#868686" stroke="#868686"/>
</svg>
