<svg width="24" height="20" viewBox="0 0 24 20" fill="none" xmlns="http://www.w3.org/2000/svg">
<path d="M0.512 2.48316V2.48276C0.512 1.37395 1.37518 0.5 2.4 0.5H21.6C22.628 0.5 23.5 1.37727 23.5 2.48276V17.3793C23.5 18.4848 22.628 19.3621 21.6 19.3621H2.4C1.37205 19.3621 0.500108 18.4849 0.5 17.3795C0.5 17.3794 0.5 17.3794 0.5 17.3793L0.512 2.48316ZM21.8715 5.3854L22.1 5.23765V4.96552V2.48276V1.56408L21.3285 2.06288L12 8.09425L2.67148 2.06288L1.9 1.56408V2.48276V4.96552V5.23765L2.12852 5.3854L11.7285 11.5923L12 11.7678L12.2715 11.5923L21.8715 5.3854Z" fill="#868686" stroke="#868686"/>
</svg>
