<svg width="24" height="20" viewBox="0 0 24 20" fill="none" xmlns="http://www.w3.org/2000/svg">
<path d="M2.22108 7.2322C1.96879 7.1716 1.7215 7.09152 1.48153 6.99263L2.22108 7.2322ZM2.22108 7.2322C2.43996 7.435 2.67589 7.62008 2.92651 7.78515L3.20154 7.36758L3.22091 6.86796C2.96602 6.85807 2.71333 6.82675 2.46553 6.77475C1.56526 5.89493 1.00949 4.67691 1.00949 3.33161C1.00725 2.65288 1.15091 1.98347 1.42863 1.36667L2.22108 7.2322ZM1.50949 3.32995C1.50774 2.79957 1.60559 2.27534 1.79621 1.78307C4.29142 4.50084 7.84447 6.25193 11.794 6.45532L12.4412 6.48865L12.3093 5.85421C12.2399 5.52035 12.1986 5.18 12.1986 4.84545C12.1986 2.45767 14.1608 0.500012 16.6163 0.500013L16.6174 0.500011C17.2235 0.498692 17.8232 0.62032 18.379 0.857101C18.9349 1.09387 19.4347 1.4406 19.8476 1.87525L20.0355 2.07312L20.3036 2.02207C20.9495 1.89909 21.5807 1.71508 22.1886 1.47325C21.8461 1.92285 21.4149 2.30663 20.9152 2.59897L21.2205 3.52775C21.6536 3.48174 22.0805 3.40594 22.4978 3.30501C22.1101 3.69679 21.6894 4.05746 21.2416 4.38019L21.0161 4.54272L21.0351 4.82003C21.0482 5.01028 21.0484 5.20333 21.0484 5.41634C21.0484 11.5984 16.2722 18.7 7.5539 18.7C5.58944 18.7 3.72885 18.2906 2.04921 17.5524C4.12822 17.3852 6.03749 16.6172 7.59969 15.4122L8.72242 14.5463L7.30483 14.5164C5.64352 14.4815 4.21582 13.5627 3.48586 12.2284C3.532 12.2296 3.57855 12.2302 3.62553 12.2302L3.6269 12.2302C4.10518 12.2289 4.58143 12.1683 5.04447 12.0499L5.01825 11.0751C3.23267 10.7194 1.84742 9.3179 1.54115 7.55095C2.06692 7.73827 2.62031 7.84542 3.18216 7.86721L4.97467 7.93672L3.47656 6.95002C2.28537 6.16545 1.50949 4.83578 1.5095 3.33161L1.50949 3.32995Z" fill="#868686" stroke="#868686"/>
</svg>
