<svg width="15" height="14" viewBox="0 0 15 14" fill="none" xmlns="http://www.w3.org/2000/svg">
<path d="M14.6371 2.86902C14.4044 2.30759 14.0688 1.79882 13.6491 1.3712C13.2292 0.94231 12.734 0.601475 12.1906 0.367231C11.6272 0.123371 11.0228 -0.0014504 10.4127 1.27149e-05C9.55665 1.27149e-05 8.72148 0.244222 7.99571 0.705507C7.82208 0.815853 7.65713 0.937054 7.50086 1.06911C7.34459 0.937054 7.17964 0.815853 7.00601 0.705507C6.28023 0.244222 5.44507 1.27149e-05 4.58907 1.27149e-05C3.97268 1.27149e-05 3.37539 0.123022 2.81109 0.367231C2.26588 0.602396 1.77451 0.940671 1.35259 1.3712C0.932393 1.79834 0.596731 2.30723 0.364625 2.86902C0.123278 3.45332 0 4.07379 0 4.71235C0 5.31473 0.118069 5.94244 0.352471 6.58101C0.548674 7.11465 0.829956 7.66819 1.18937 8.22716C1.75888 9.11174 2.54196 10.0343 3.51429 10.9695C5.12559 12.5198 6.72126 13.5907 6.78897 13.6341L7.20048 13.9091C7.38279 14.0303 7.61719 14.0303 7.7995 13.9091L8.21101 13.6341C8.27873 13.5889 9.87266 12.5198 11.4857 10.9695C12.458 10.0343 13.2411 9.11174 13.8106 8.22716C14.17 7.66819 14.453 7.11465 14.6475 6.58101C14.8819 5.94244 15 5.31473 15 4.71235C15.0017 4.07379 14.8784 3.45332 14.6371 2.86902Z" fill="url(#paint0_linear)"/>
<defs>
<linearGradient id="paint0_linear" x1="7.77025e-08" y1="3.59906" x2="17.2903" y2="11.4666" gradientUnits="userSpaceOnUse">
<stop stop-color="#5AC9E5"/>
<stop offset="1" stop-color="#194ECA"/>
</linearGradient>
</defs>
</svg>
