<svg width="596" height="509" viewBox="0 0 596 509" fill="none" xmlns="http://www.w3.org/2000/svg">
<path fill-rule="evenodd" clip-rule="evenodd" d="M552.987 274.698C562.444 357.493 537.012 452.896 465.6 495.602C399.136 535.349 323.364 475.828 248.304 456.907C177.034 438.941 84.9973 455.144 49.4411 390.694C13.1061 324.832 64.8496 249.655 96.2517 181.293C128.765 110.511 151.866 19.2488 227.791 2.42954C303.494 -14.3406 361.973 59.4346 421.47 109.249C478.278 156.811 544.569 200.998 552.987 274.698Z" fill="url(#paint0_linear)"/>
<mask id="mask0" mask-type="alpha" maskUnits="userSpaceOnUse" x="37" y="0" width="518" height="509">
<path fill-rule="evenodd" clip-rule="evenodd" d="M552.987 274.698C562.444 357.493 537.012 452.896 465.6 495.602C399.136 535.349 323.364 475.828 248.304 456.907C177.034 438.941 84.9974 455.144 49.4412 390.694C13.1062 324.832 64.8497 249.655 96.2517 181.293C128.765 110.511 151.866 19.2488 227.791 2.42954C303.494 -14.3406 361.973 59.4346 421.47 109.249C478.278 156.811 544.569 200.998 552.987 274.698Z" fill="url(#paint1_linear)"/>
</mask>
<g mask="url(#mask0)">
<path d="M315.288 215.592C310.603 213.492 305.756 211.553 301.071 210.099C262.942 197.823 216.736 195.561 179.092 210.746C146.619 223.992 129.816 255.815 128.039 289.576L124 368.73H169.237V290.222H169.722C170.53 302.822 172.145 311.707 172.145 311.707L169.237 368.73L318.358 365.499L317.55 315.422C317.55 315.422 319.327 309.122 320.943 299.43L369.411 333.192C371.188 332.545 371.673 302.499 371.673 298.945C371.511 286.83 370.38 274.715 366.018 263.407C357.294 241.276 336.291 225.284 315.288 215.592Z" fill="#606060" stroke="#252423" stroke-miterlimit="10" stroke-linecap="round" stroke-linejoin="round"/>
<path d="M296.547 279.561L303.333 322.692C305.433 336.099 316.258 346.599 329.667 348.215L305.11 279.399H296.547V279.561Z" fill="#4A4A4A"/>
<path d="M309.149 240.953L343.077 276.976L346.146 271.807L309.149 240.953Z" fill="#4A4A4A"/>
<path d="M275.383 208.969C275.383 228.515 260.681 244.346 242.747 244.346C224.652 244.346 210.112 228.515 210.112 208.969C210.112 206.546 210.274 204.284 210.758 202.023C212.212 193.946 273.282 193.623 274.736 201.699C275.06 204.123 275.383 206.546 275.383 208.969Z" fill="#4A4A4A"/>
<path d="M280.391 76.3459C280.229 70.692 275.867 66.0074 270.051 65.5228C267.143 65.3613 264.396 66.169 262.296 67.9459C259.711 63.4228 255.188 60.0305 249.694 59.2228C240.647 57.769 232.084 63.5844 229.822 72.1459C214.313 73.5997 202.034 86.5228 201.872 102.515L201.549 132.884C201.388 150.007 215.12 163.9 232.084 164.061L256.157 164.223C273.121 164.384 287.015 150.815 287.177 133.692L287.5 103.161C287.5 101.869 287.338 100.577 287.177 99.1228C288.308 97.0228 288.954 94.7612 289.115 92.3382C289.923 85.7151 286.207 79.4151 280.391 76.3459Z" fill="#252423" stroke="#252423" stroke-miterlimit="10" stroke-linecap="round" stroke-linejoin="round"/>
<path d="M283.138 129.169H280.229L280.391 115.6C280.391 110.915 279.422 106.392 277.645 102.354C276.352 102.354 274.898 102.192 273.444 102.354C256.803 103.969 226.268 107.2 223.683 97.8306C223.683 97.8306 219.806 130.138 206.881 129.169C206.719 129.169 206.396 129.169 205.911 129.169C201.065 129.007 196.541 131.431 194.118 135.469C193.471 136.6 192.987 137.73 192.987 138.861V141.607C192.987 147.423 197.672 152.269 203.488 152.43H207.689V159.7C207.527 171.169 212.859 181.346 221.26 187.969V210.1C221.26 222.053 230.469 232.23 242.263 232.876C255.026 233.523 265.527 223.346 265.527 210.746V188.292C272.959 182.638 278.129 174.077 279.26 164.384C279.745 162.123 280.068 159.861 280.229 157.438V153.4H283.138C288.954 153.4 293.801 148.715 293.962 142.9V140.154C293.801 134.177 289.115 129.331 283.138 129.169Z" fill="#FFFBD9" stroke="#252423" stroke-miterlimit="10" stroke-linecap="round" stroke-linejoin="round"/>
<path d="M200.095 145C199.934 145 199.611 144.838 199.449 144.677C199.126 144.354 199.126 143.869 199.611 143.546L201.872 141.607L198.318 137.569C197.995 137.246 197.995 136.761 198.48 136.438C198.803 136.115 199.287 136.115 199.611 136.6L204.134 141.93L200.58 145C200.418 145 200.257 145 200.095 145Z" fill="#252423"/>
<path d="M286.369 145C286.207 145 286.046 145 285.884 144.838L282.33 141.607L287.015 136.438C287.338 136.115 287.823 136.115 288.146 136.438C288.469 136.761 288.469 137.246 288.146 137.569L284.592 141.607L286.853 143.707C287.177 144.03 287.177 144.515 286.853 144.838C286.853 144.838 286.53 145 286.369 145Z" fill="#252423"/>
<path d="M207.527 159.861C207.365 173.592 215.12 185.546 226.43 191.523C228.045 199.277 234.831 205.092 243.07 205.092C251.31 205.253 258.257 199.438 260.034 191.684C270.213 186.515 277.644 176.338 279.099 164.546C275.706 178.277 263.266 188.454 248.402 188.292L239.193 188.13C221.906 188.13 208.012 173.915 208.173 156.63V152.592H207.527V159.861Z" fill="black" fill-opacity="0.1"/>
<path d="M234.501 146.205C234.068 143.498 230.602 142.74 228.22 142.74C227.137 142.74 226.054 142.956 224.971 143.389C222.913 143.931 220.964 145.014 219.556 146.313C218.581 147.18 219.015 148.588 219.881 149.237C222.588 151.078 225.946 151.728 229.086 151.078C231.685 150.645 235.043 149.237 234.501 146.205Z" fill="#FFA7AB" fill-opacity="0.6"/>
<path d="M271.647 142.306C269.698 140.574 267.64 140.79 265.691 141.657C264.608 141.548 263.525 141.548 262.55 142.09C261.142 142.848 260.168 144.581 260.492 146.205C261.251 149.454 266.774 150.212 269.481 149.562C272.73 148.804 274.355 144.797 271.647 142.306Z" fill="#FFA7AB" fill-opacity="0.6"/>
<path opacity="0.57" d="M247.615 180.202C247.472 180.202 247.187 180.06 247.044 179.917C244.757 177.487 241.757 178.916 241.614 178.916C241.328 179.059 240.899 178.916 240.613 178.488C240.471 178.059 240.613 177.773 241.042 177.487C242.471 176.916 245.758 176.344 248.187 178.916C248.473 179.202 248.473 179.631 248.187 179.917C247.901 180.202 247.758 180.202 247.615 180.202Z" fill="#252423"/>
<path d="M226.038 127.755C227.038 128.041 228.182 127.612 229.325 127.469C230.468 127.184 231.611 126.898 232.611 126.755C233.612 126.612 234.755 126.469 235.898 126.326C237.041 126.04 238.184 125.897 239.042 125.326C239.899 124.754 240.042 123.754 238.756 122.611C237.613 121.468 234.898 120.61 231.611 121.182C228.182 121.896 226.038 123.611 225.324 125.04C224.609 126.469 225.181 127.469 226.038 127.755Z" fill="#252423"/>
<path d="M269.193 128.612C268.192 128.898 267.049 128.47 265.906 128.327C264.763 128.041 263.62 127.755 262.619 127.612C261.619 127.469 260.476 127.326 259.333 127.184C258.19 127.041 257.047 126.898 256.189 126.326C255.332 125.755 255.189 124.754 256.475 123.611C257.618 122.468 260.333 121.611 263.62 122.182C266.906 122.754 269.05 124.611 269.764 126.04C270.622 127.469 270.05 128.47 269.193 128.612Z" fill="#252423"/>
<path d="M258.804 135.678C258.947 135.678 259.09 135.678 259.09 135.821C261.662 137.25 263.663 135.964 263.806 135.964C264.092 135.821 264.52 135.821 264.806 136.107C265.092 136.393 264.949 136.822 264.663 137.107C264.52 137.25 261.948 138.822 258.519 137.107C258.233 136.964 258.09 136.536 258.233 136.107C258.376 135.821 258.661 135.678 258.804 135.678Z" fill="#252423"/>
<path d="M231.511 135.393C231.654 135.393 231.797 135.393 231.797 135.535C234.369 136.964 236.37 135.678 236.513 135.678C236.799 135.535 237.227 135.535 237.513 135.821C237.799 136.107 237.656 136.536 237.37 136.821C237.227 136.964 234.655 138.536 231.226 136.821C230.94 136.679 230.797 136.25 230.94 135.821C230.94 135.535 231.226 135.393 231.511 135.393Z" fill="#252423"/>
<path d="M247.33 156.006H243.043C242.614 156.006 242.328 155.72 242.328 155.292C242.328 154.863 242.614 154.577 243.043 154.577H247.33C250.045 154.577 252.331 152.291 252.331 149.576V148.576C252.331 147.29 251.188 146.146 249.902 146.146H245.615V133.714C245.615 133.286 245.901 133 246.329 133C246.758 133 247.044 133.286 247.044 133.714V144.717H249.902C252.045 144.717 253.76 146.432 253.76 148.576V149.576C253.76 153.148 250.902 156.006 247.33 156.006Z" fill="#252423"/>
<path d="M246.102 167.787C245.959 167.787 245.959 167.787 245.816 167.787C240.672 167.644 237.1 163.786 236.957 163.643C236.671 163.358 236.671 162.929 236.957 162.643C237.243 162.357 237.671 162.357 237.957 162.643C237.957 162.643 241.244 166.215 245.673 166.358C248.674 166.501 251.675 165.072 254.533 162.214C254.819 161.929 255.247 161.929 255.533 162.214C255.819 162.5 255.819 162.929 255.533 163.215C252.675 166.215 249.532 167.787 246.102 167.787Z" fill="#252423"/>
<path d="M277 288.5L313.305 333.813C319.751 344.02 330.812 350.838 342.93 351.088C347.637 351.273 352.317 350.437 356.46 348.592C372.591 341.891 372.988 323.536 366.149 307.973C357.74 289.027 344.052 285.394 326.758 274.649C312.525 265.716 293.971 257.661 279.89 248.673C278.648 248.092 277 288.5 277 288.5Z" fill="#606060" stroke="#252423" stroke-miterlimit="10" stroke-linecap="round" stroke-linejoin="round"/>
<path d="M222.673 256.785L228.546 255.661L224.241 256.365C221.69 256.783 219.464 255.183 218.887 252.658C218.391 249.629 220.34 246.528 223.369 246.032C226.372 245.377 230.039 244.777 233.996 244.948C236.976 243.15 245.224 238.527 251.306 238.678C258.849 238.753 265.6 245.996 265.6 245.996L279.564 248.294L277.398 289.079L238.318 283.362C234.97 283.909 231.842 281.802 231.294 278.455C231.138 277.498 231.804 276.571 232.761 276.414L234.355 276.153L230.05 276.858C227.021 277.353 224.079 275.379 223.583 272.351L223.479 271.713C223.113 269.481 224.554 267.281 226.786 266.916L232.66 265.791L224.554 267.281C221.844 267.725 219.272 266.017 218.829 263.307L218.699 262.51C218.122 259.986 219.989 257.388 222.673 256.785Z" fill="#FFFBD9" stroke="#252423" stroke-miterlimit="10" stroke-linecap="round" stroke-linejoin="round"/>
<path opacity="0.57" d="M230.668 256.623C231.306 256.518 231.547 255.988 231.442 255.35C231.338 254.713 230.781 254.313 230.143 254.417L222.357 255.855C221.719 255.959 221.319 256.516 221.424 257.154C221.528 257.791 222.084 258.191 222.722 258.087L230.668 256.623Z" fill="black" fill-opacity="0.1"/>
<path opacity="0.57" d="M224.789 268.716L234.41 266.486C235.048 266.382 235.289 265.852 235.185 265.214C235.08 264.576 234.39 264.362 233.912 264.44L224.29 266.669C223.653 266.774 223.412 267.304 223.516 267.942C223.754 268.394 224.311 268.794 224.789 268.716Z" fill="black" fill-opacity="0.1"/>
<path opacity="0.57" d="M238.924 276.06C239.562 275.956 239.802 275.425 239.698 274.788C239.594 274.15 239.037 273.75 238.399 273.854L231.091 275.214C230.453 275.318 230.053 275.875 230.158 276.512C230.262 277.15 230.819 277.55 231.456 277.446L238.924 276.06Z" fill="black" fill-opacity="0.1"/>
<path d="M255.373 246.524L233.704 245.159C233.704 245.159 253.312 242.933 255.373 246.524Z" fill="black" fill-opacity="0.1"/>
<path d="M238.583 219.893L247.236 245.373C247.171 245.374 247.1 245.374 247.024 245.373C246.5 245.369 245.79 245.335 245.068 245.29C244.348 245.245 243.626 245.19 243.084 245.146C242.853 245.127 242.655 245.111 242.504 245.098L234.424 221.389C234.113 220.253 234.705 219.086 235.844 218.617C237.022 218.299 238.135 218.791 238.583 219.893Z" fill="#FFAE7F" stroke="#252423"/>
<path d="M215.122 209.519L215.122 209.519L215.12 209.515C212.13 200.948 216.643 191.639 225.227 188.806C233.829 185.967 243.141 190.489 245.946 198.909L245.947 198.913L256.317 229.284C256.639 230.458 256.002 231.585 255.051 231.865L255.041 231.868L255.03 231.872L230.224 240.35L230.224 240.35L230.216 240.354C228.013 241.151 225.46 239.964 224.626 237.589C224.626 237.588 224.626 237.587 224.625 237.586L215.122 209.519Z" fill="#FF9FA4" stroke="#252423"/>
<path d="M10.151 362.598V341.396H594.925V362.598H10.151Z" fill="#F49560" stroke="#252423"/>
<rect x="24.5" y="363.5" width="557" height="158" fill="#FFA06B" stroke="#252423"/>
<path opacity="0.3" d="M582.19 363.975H24.1674V379.345H582.19V363.975Z" fill="#FB6F85"/>
</g>
<path d="M522.81 357.735C524.828 357.735 526.742 357.121 528.163 356.145C529.574 355.176 530.568 353.796 530.568 352.252V51.487C530.568 49.8053 529.584 48.4206 528.155 47.4785C526.727 46.5373 524.813 46.0035 522.81 46.0035C520.792 46.0035 518.878 46.618 517.457 47.5937C516.045 48.5628 515.052 49.9429 515.052 51.487V351.958C515.052 353.632 516.026 355.087 517.449 356.103C518.874 357.12 520.792 357.735 522.81 357.735Z" fill="url(#paint2_linear)" stroke="#252423"/>
<path d="M10 34.5H579.463C584.71 34.5 588.963 38.7533 588.963 44V91.8775C588.963 97.1242 584.71 101.378 579.463 101.378H10C4.75331 101.378 0.5 97.1242 0.5 91.8775V44C0.5 38.7533 4.75329 34.5 10 34.5Z" fill="#80D5E3" stroke="#252423"/>
<path d="M66.8283 360.5C68.8225 360.5 70.7259 360.023 72.1478 359.205C73.5579 358.393 74.5865 357.182 74.5865 355.699V77.6802C74.5865 76.1969 73.5579 74.9866 72.1478 74.1749C70.7259 73.3564 68.8225 72.8794 66.8283 72.8794C64.8342 72.8794 62.9307 73.3564 61.5089 74.1749C60.0988 74.9866 59.0702 76.1969 59.0702 77.6802V355.392C59.0702 356.864 60.085 358.15 61.4908 359.04C62.911 359.939 64.8196 360.5 66.8283 360.5Z" fill="url(#paint3_linear)" stroke="#252423"/>
<path d="M374.613 96.4754C374.613 107.883 362.654 117.454 347.426 117.454C332.197 117.454 320.239 107.883 320.239 96.4754V66.6527H374.613V96.4754Z" fill="white" stroke="#252423"/>
<path d="M269.224 96.4754C269.224 107.883 257.266 117.454 242.037 117.454C226.808 117.454 214.85 107.883 214.85 96.4754V66.6527H269.224V96.4754Z" fill="white" stroke="#252423"/>
<path d="M162.049 66.6527V96.4754C162.049 107.883 150.09 117.454 134.862 117.454C119.633 117.454 107.675 107.883 107.675 96.4754V66.6527H162.049Z" fill="white" stroke="#252423"/>
<path d="M588.963 96.4754C588.963 107.883 577.005 117.454 561.776 117.454C546.547 117.454 534.589 107.883 534.589 96.4754V66.6527H588.963V96.4754Z" fill="white" stroke="#252423"/>
<path d="M481.787 66.6527V96.4754C481.787 107.883 469.829 117.454 454.6 117.454C439.372 117.454 427.414 107.883 427.414 96.4754V66.6527H481.787Z" fill="white" stroke="#252423"/>
<path d="M322.811 96.4754C322.811 102.18 319.739 107.414 314.674 111.238C309.608 115.062 302.571 117.454 294.731 117.454C286.89 117.454 279.854 115.062 274.788 111.238C269.722 107.414 266.651 102.18 266.651 96.4754V66.6527H322.811V96.4754Z" fill="url(#paint4_linear)" stroke="#252423"/>
<path d="M428.2 96.4754C428.2 107.883 416.242 117.454 401.013 117.454C385.784 117.454 373.826 107.883 373.826 96.4754V66.6527H428.2V96.4754Z" fill="url(#paint5_linear)" stroke="#252423"/>
<path d="M535.375 96.4754C535.375 107.883 523.417 117.454 508.188 117.454C492.959 117.454 481.001 107.883 481.001 96.4754V66.6527H535.375V96.4754Z" fill="url(#paint6_linear)" stroke="#252423"/>
<path d="M215.636 96.4754C215.636 107.883 203.678 117.454 188.449 117.454C173.221 117.454 161.262 107.883 161.262 96.4754V66.6527H215.636V96.4754Z" fill="url(#paint7_linear)" stroke="#252423"/>
<path d="M108.461 96.4754C108.461 107.883 96.5028 117.454 81.2741 117.454C66.0454 117.454 54.0872 107.883 54.0872 96.4754V66.6527H108.461V96.4754Z" fill="url(#paint8_linear)" stroke="#252423"/>
<path d="M54.8738 66.6527V96.4754C54.8738 107.883 42.9156 117.454 27.6869 117.454C12.4582 117.454 0.5 107.883 0.5 96.4754V66.6527H54.8738Z" fill="white" stroke="#252423"/>
<path opacity="0.3" d="M591.549 65.5775H0.224243V77.1051H591.549V65.5775Z" fill="#13BFDB"/>
<path d="M10.151 362.598V341.396H594.925V362.598H10.151Z" fill="#F49560" stroke="#252423"/>
<defs>
<linearGradient id="paint0_linear" x1="421.748" y1="-1.58388e-06" x2="170.004" y2="603.115" gradientUnits="userSpaceOnUse">
<stop stop-color="#5AC9E5"/>
<stop offset="1" stop-color="#194ECA"/>
</linearGradient>
<linearGradient id="paint1_linear" x1="421.748" y1="-3.18281e-06" x2="170.004" y2="603.115" gradientUnits="userSpaceOnUse">
<stop stop-color="#5AC9E5"/>
<stop offset="1" stop-color="#194ECA"/>
</linearGradient>
<linearGradient id="paint2_linear" x1="519.826" y1="347.134" x2="585.394" y2="333.666" gradientUnits="userSpaceOnUse">
<stop stop-color="white"/>
<stop offset="0.4871" stop-color="#DEDCDC"/>
<stop offset="0.8135" stop-color="#D3D0D4"/>
<stop offset="1" stop-color="white"/>
</linearGradient>
<linearGradient id="paint3_linear" x1="63.8449" y1="350.682" x2="128.951" y2="336.185" gradientUnits="userSpaceOnUse">
<stop stop-color="white"/>
<stop offset="0.4871" stop-color="#DEDCDC"/>
<stop offset="0.8135" stop-color="#D3D0D4"/>
<stop offset="1" stop-color="white"/>
</linearGradient>
<linearGradient id="paint4_linear" x1="294.731" y1="66.1527" x2="294.731" y2="117.954" gradientUnits="userSpaceOnUse">
<stop stop-color="#02B1D8"/>
<stop offset="1" stop-color="#80D5E3"/>
</linearGradient>
<linearGradient id="paint5_linear" x1="401.013" y1="66.1527" x2="401.013" y2="117.954" gradientUnits="userSpaceOnUse">
<stop stop-color="#02B1D8"/>
<stop offset="1" stop-color="#80D5E3"/>
</linearGradient>
<linearGradient id="paint6_linear" x1="508.188" y1="66.1527" x2="508.188" y2="117.954" gradientUnits="userSpaceOnUse">
<stop stop-color="#02B1D8"/>
<stop offset="1" stop-color="#80D5E3"/>
</linearGradient>
<linearGradient id="paint7_linear" x1="188.449" y1="66.1527" x2="188.449" y2="117.954" gradientUnits="userSpaceOnUse">
<stop stop-color="#02B1D8"/>
<stop offset="1" stop-color="#80D5E3"/>
</linearGradient>
<linearGradient id="paint8_linear" x1="81.2741" y1="66.1527" x2="81.2741" y2="117.954" gradientUnits="userSpaceOnUse">
<stop stop-color="#02B1D8"/>
<stop offset="1" stop-color="#80D5E3"/>
</linearGradient>
</defs>
</svg>
