<svg width="40" height="40" viewBox="0 0 40 40" fill="none" xmlns="http://www.w3.org/2000/svg">
<circle cx="20" cy="20" r="19.5" fill="white" stroke="#F6F9FA"/>
<g clip-path="url(#clip0)">
<path d="M18.1733 13.4614C17.9133 13.4242 17.9009 13.4118 18.0247 13.3994C18.26 13.3623 18.8049 13.4118 19.1888 13.4985C20.0805 13.709 20.8854 14.2539 21.7399 15.2075L21.9628 15.4676L22.2848 15.418C23.6594 15.1951 25.0712 15.3685 26.2476 15.9134C26.5696 16.062 27.0774 16.3592 27.1393 16.4335C27.1641 16.4583 27.2012 16.6193 27.226 16.7803C27.3127 17.3623 27.2755 17.7957 27.0897 18.1301C26.9907 18.3159 26.9907 18.3654 27.0526 18.5264C27.1021 18.6502 27.2507 18.7369 27.387 18.7369C27.6842 18.7369 27.9938 18.2663 28.1424 17.61L28.2043 17.3499L28.3158 17.4738C28.9473 18.1796 29.4427 19.158 29.517 19.8515L29.5418 20.0372L29.4303 19.8762C29.2445 19.5914 29.0712 19.4056 28.8359 19.2447C28.4148 18.9598 27.969 18.8731 26.7925 18.8112C25.7275 18.7493 25.1207 18.6626 24.5263 18.4645C23.5108 18.1301 22.9907 17.6967 21.7894 16.0991C21.2569 15.3933 20.9226 15.0094 20.5882 14.6874C19.8575 13.9815 19.1269 13.61 18.1733 13.4614Z" fill="#FF007A"/>
<path d="M27.3994 15.0341C27.4241 14.5635 27.486 14.2539 27.6223 13.9691C27.6718 13.8576 27.7213 13.7585 27.7337 13.7585C27.7461 13.7585 27.7213 13.8452 27.6842 13.9443C27.5851 14.2167 27.5727 14.6007 27.6347 15.0341C27.7213 15.5914 27.7585 15.6657 28.3529 16.2725C28.6254 16.5573 28.9473 16.9164 29.0712 17.065L29.2817 17.3375L29.0712 17.1394C28.8111 16.8917 28.2167 16.4211 28.0805 16.3592C27.9938 16.3096 27.9814 16.3096 27.9195 16.3716C27.8699 16.4211 27.8576 16.4954 27.8576 16.8545C27.8452 17.4118 27.7709 17.7585 27.5851 18.1177C27.486 18.3034 27.4737 18.2663 27.5603 18.0558C27.6223 17.8948 27.6347 17.8205 27.6347 17.288C27.6347 16.2106 27.5108 15.9505 26.7554 15.5171C26.5696 15.4056 26.2477 15.2446 26.0619 15.1579C25.8638 15.0712 25.7151 14.9969 25.7275 14.9969C25.7523 14.9722 26.4829 15.1827 26.7678 15.3065C27.2012 15.4799 27.2755 15.4923 27.3251 15.4799C27.3622 15.4428 27.387 15.3437 27.3994 15.0341Z" fill="#FF007A"/>
<path d="M18.6811 16.8791C18.161 16.1609 17.8266 15.0463 17.9009 14.2166L17.9257 13.9565L18.0495 13.9813C18.2724 14.0185 18.6563 14.1671 18.8421 14.2785C19.3375 14.5757 19.5604 14.9844 19.7709 15.9999C19.8328 16.2971 19.9195 16.6438 19.9567 16.7553C20.0186 16.9411 20.2539 17.3745 20.452 17.6469C20.5882 17.8451 20.5016 17.9442 20.192 17.9194C19.7214 17.8699 19.0898 17.4364 18.6811 16.8791Z" fill="#FF007A"/>
<path d="M26.7678 22.2662C24.3158 21.2754 23.4489 20.421 23.4489 18.972C23.4489 18.7615 23.4613 18.5881 23.4613 18.5881C23.4737 18.5881 23.5604 18.6624 23.6718 18.7491C24.1672 19.1454 24.7245 19.3188 26.2724 19.5417C27.1765 19.6779 27.6966 19.777 28.1672 19.938C29.6656 20.4333 30.5944 21.4488 30.8173 22.8234C30.8793 23.2197 30.8421 23.9751 30.743 24.3714C30.6563 24.681 30.4087 25.2507 30.3467 25.2631C30.3344 25.2631 30.3096 25.2011 30.3096 25.1021C30.2848 24.5819 30.0248 24.0866 29.5913 23.7027C29.0712 23.2569 28.4025 22.9225 26.7678 22.2662Z" fill="#FF007A"/>
<path d="M25.0341 22.6749C25.0093 22.4891 24.9474 22.2538 24.9102 22.1548L24.8483 21.969L24.9598 22.1052C25.1208 22.291 25.2446 22.5139 25.356 22.8235C25.4427 23.0588 25.4427 23.1331 25.4427 23.517C25.4427 23.8885 25.4303 23.9752 25.356 24.1857C25.2322 24.5201 25.0836 24.7554 24.8359 25.0154C24.3901 25.4736 23.8081 25.7213 22.9783 25.8328C22.8297 25.8452 22.4087 25.8823 22.0372 25.9071C21.1084 25.9566 20.4892 26.0557 19.9319 26.2538C19.8576 26.2786 19.7833 26.3034 19.7709 26.291C19.7461 26.2662 20.13 26.0433 20.4396 25.8947C20.8731 25.6842 21.3189 25.5727 22.2972 25.3993C22.7802 25.325 23.2756 25.226 23.3994 25.1764C24.6254 24.7925 25.2322 23.839 25.0341 22.6749Z" fill="#FF007A"/>
<path d="M26.161 24.6688C25.8391 23.963 25.7648 23.2942 25.9381 22.6627C25.9629 22.6007 25.9877 22.5388 26.0124 22.5388C26.0372 22.5388 26.1115 22.576 26.1858 22.6255C26.3344 22.7246 26.644 22.898 27.4366 23.3314C28.4397 23.8763 29.0093 24.2973 29.4056 24.7803C29.7524 25.2014 29.9629 25.6843 30.062 26.2788C30.1239 26.6131 30.0867 27.4181 30.0001 27.7524C29.7276 28.8051 29.1084 29.6472 28.2044 30.1301C28.0682 30.2044 27.9567 30.254 27.9443 30.254C27.9319 30.254 27.9815 30.1301 28.0558 29.9815C28.353 29.35 28.3901 28.7431 28.1672 28.062C28.031 27.641 27.7462 27.1332 27.1765 26.2788C26.4954 25.288 26.3344 25.028 26.161 24.6688Z" fill="#FF007A"/>
<path d="M16.935 28.4582C17.8514 27.6904 18.9783 27.1455 20.0186 26.9722C20.4644 26.8979 21.2074 26.9226 21.6161 27.0341C22.2725 27.2075 22.8669 27.579 23.1765 28.0372C23.4737 28.483 23.6099 28.8669 23.7461 29.7214C23.7957 30.0557 23.8576 30.4025 23.87 30.4768C23.969 30.9226 24.1672 31.2694 24.4149 31.4551C24.7988 31.74 25.4675 31.7523 26.1238 31.5047C26.2353 31.4675 26.3344 31.4304 26.3344 31.4427C26.3591 31.4675 26.0248 31.6904 25.8019 31.8019C25.4923 31.9629 25.2446 32.0124 24.9102 32.0124C24.3158 32.0124 23.8081 31.7028 23.3994 31.0836C23.3127 30.9598 23.1393 30.6006 22.9907 30.2663C22.5573 29.2632 22.3344 28.966 21.8266 28.6316C21.3808 28.3468 20.8112 28.2849 20.3777 28.4954C19.8081 28.7678 19.6594 29.4985 20.0557 29.9443C20.2167 30.1301 20.5139 30.2787 20.7616 30.3158C21.2198 30.3777 21.6161 30.0186 21.6161 29.5604C21.6161 29.2632 21.5046 29.0898 21.2074 28.9536C20.8112 28.7802 20.3777 28.9784 20.3901 29.3623C20.3901 29.5232 20.4644 29.6223 20.6254 29.6966C20.7245 29.7462 20.7245 29.7462 20.6502 29.7338C20.291 29.6595 20.2043 29.2136 20.4892 28.9288C20.8359 28.5821 21.5666 28.7307 21.8142 29.2136C21.9133 29.4118 21.9257 29.8081 21.839 30.0558C21.6285 30.6006 21.0341 30.8855 20.4272 30.7245C20.0186 30.613 19.8452 30.5016 19.3498 29.9938C18.483 29.1022 18.1486 28.9288 16.9102 28.7431L16.6749 28.7059L16.935 28.4582Z" fill="#FF007A"/>
<path fill-rule="evenodd" clip-rule="evenodd" d="M10.4212 8.53251C13.3066 12.0372 17.7524 17.4861 17.9754 17.7833C18.1611 18.031 18.0868 18.2663 17.7772 18.4396C17.6038 18.5387 17.2447 18.6378 17.0713 18.6378C16.8732 18.6378 16.6379 18.5387 16.4769 18.3777C16.3654 18.2663 15.8825 17.5604 14.7927 15.8638C13.963 14.5635 13.2571 13.4861 13.2447 13.4737C13.1952 13.4489 13.1952 13.4489 14.706 16.1486C15.6596 17.8452 15.9692 18.452 15.9692 18.5263C15.9692 18.6873 15.9196 18.774 15.7215 18.9969C15.3871 19.3684 15.2385 19.7895 15.1271 20.6687C15.0032 21.6471 14.6689 22.3406 13.7153 23.517C13.158 24.2105 13.0713 24.3344 12.9351 24.6192C12.7617 24.9659 12.7122 25.1641 12.6874 25.6099C12.6627 26.0805 12.7122 26.3777 12.8484 26.8235C12.9723 27.2198 13.1085 27.4799 13.4428 27.9876C13.7277 28.4334 13.9011 28.7678 13.9011 28.8916C13.9011 28.9907 13.9258 28.9907 14.3716 28.8916C15.4367 28.644 16.3159 28.2229 16.7989 27.7028C17.0961 27.3808 17.1704 27.2074 17.1704 26.7616C17.1704 26.4768 17.158 26.4149 17.0837 26.2415C16.9599 25.969 16.7246 25.7461 16.2168 25.3994C15.5481 24.9412 15.2633 24.5697 15.189 24.0743C15.1271 23.6533 15.2014 23.3684 15.5729 22.5882C15.9568 21.7833 16.0559 21.4489 16.1178 20.6316C16.1549 20.1115 16.2168 19.9009 16.3654 19.7399C16.5264 19.5666 16.6627 19.5046 17.0466 19.4551C17.6781 19.3684 18.0868 19.2074 18.4088 18.8978C18.6936 18.6378 18.8175 18.3777 18.8298 17.9938L18.8422 17.709L18.6812 17.5356C18.0992 16.8669 10.0373 8 10.0001 8C9.98774 8 10.1859 8.23529 10.4212 8.53251ZM14.223 26.1424C14.3593 25.9071 14.285 25.6099 14.062 25.4613C13.8515 25.3251 13.5295 25.387 13.5295 25.5728C13.5295 25.6223 13.5543 25.6718 13.6286 25.6966C13.7401 25.7585 13.7524 25.8204 13.6658 25.9567C13.5791 26.0929 13.5791 26.2167 13.6905 26.3034C13.8639 26.4396 14.0992 26.3653 14.223 26.1424Z" fill="#FF007A"/>
<path fill-rule="evenodd" clip-rule="evenodd" d="M19.2383 19.6284C18.9411 19.7151 18.6563 20.0371 18.5696 20.3591C18.5201 20.5572 18.5449 20.9163 18.6315 21.0278C18.7678 21.2012 18.8916 21.2507 19.2383 21.2507C19.9195 21.2507 20.5015 20.9535 20.5634 20.5944C20.6253 20.2971 20.3653 19.8885 20.0061 19.7027C19.8204 19.6036 19.4365 19.5665 19.2383 19.6284ZM20.0309 20.2476C20.13 20.099 20.0928 19.938 19.9071 19.8266C19.5727 19.616 19.065 19.7894 19.065 20.1114C19.065 20.2724 19.325 20.4458 19.5727 20.4458C19.7337 20.4458 19.9566 20.3467 20.0309 20.2476Z" fill="#FF007A"/>
</g>
<defs>
<clipPath id="clip0">
<rect width="20.8421" height="24" fill="white" transform="translate(10 8)"/>
</clipPath>
</defs>
</svg>
