<svg width="40" height="40" viewBox="0 0 40 40" fill="none" xmlns="http://www.w3.org/2000/svg">
<circle cx="20" cy="20" r="19.5" fill="white" stroke="#F6F9FA"/>
<path fill-rule="evenodd" clip-rule="evenodd" d="M12.3037 11.7896C11.9359 9.81983 13.4473 8 15.4512 8C17.2195 8 18.653 9.43352 18.653 11.2019V15.1493C19.0954 15.118 19.5448 15.102 20 15.102C20.4373 15.102 20.8693 15.1168 21.2948 15.1457V11.2019C21.2948 9.43352 22.7283 8 24.4966 8C26.5005 8 28.0119 9.81983 27.6441 11.7896L26.7776 16.4296C29.7514 17.7279 32 19.9828 32 22.8163V24.5306C32 26.8607 30.4585 28.8116 28.3034 30.1286C26.1315 31.4558 23.1934 32.2448 20 32.2448C16.8066 32.2448 13.8685 31.4558 11.6966 30.1286C9.54153 28.8116 8 26.8607 8 24.5306V22.8163C8 19.9978 10.2255 17.7515 13.1742 16.4507L12.3037 11.7896ZM25.6672 17.0392L26.6812 11.6098C26.9365 10.2427 25.8875 8.9796 24.4966 8.9796C23.2693 8.9796 22.2744 9.97453 22.2744 11.2019V16.2252C21.9528 16.184 21.6261 16.1513 21.2948 16.1276C20.8701 16.0972 20.4381 16.0816 20 16.0816C19.544 16.0816 19.0945 16.0985 18.653 16.1314C18.3218 16.1561 17.995 16.1898 17.6735 16.232V11.2019C17.6735 9.97453 16.6785 8.9796 15.4512 8.9796C14.0604 8.9796 13.0114 10.2426 13.2667 11.6098L14.284 17.0572C11.1038 18.2385 8.97959 20.3759 8.97959 22.8163V24.5306C8.97959 28.2501 13.9136 31.2653 20 31.2653C26.0864 31.2653 31.0204 28.2501 31.0204 24.5306V22.8163C31.0204 20.3633 28.8744 18.2167 25.6672 17.0392Z" fill="#633001"/>
<path d="M31.0201 24.531C31.0201 28.2505 26.0861 31.2657 19.9997 31.2657C13.9133 31.2657 8.97931 28.2505 8.97931 24.531V22.8167H31.0201V24.531Z" fill="#FEDC90"/>
<path fill-rule="evenodd" clip-rule="evenodd" d="M13.2664 11.6095C13.0111 10.2423 14.0601 8.97925 15.4509 8.97925C16.6782 8.97925 17.6732 9.97419 17.6732 11.2015V16.2316C18.4232 16.1331 19.2016 16.0813 19.9997 16.0813C20.7794 16.0813 21.5402 16.1308 22.2741 16.2249V11.2015C22.2741 9.97419 23.2691 8.97925 24.4964 8.97925C25.8872 8.97925 26.9362 10.2423 26.6809 11.6095L25.6669 17.0388C28.8741 18.2164 31.0201 20.3631 31.0201 22.816C31.0201 26.5355 26.0861 29.5507 19.9997 29.5507C13.9133 29.5507 8.97931 26.5355 8.97931 22.816C8.97931 20.3755 11.1035 18.2381 14.2837 17.0569L13.2664 11.6095Z" fill="#D1884F"/>
<path d="M16.9389 22.3264C16.9389 23.3409 16.3907 24.1632 15.7144 24.1632C15.0381 24.1632 14.4899 23.3409 14.4899 22.3264C14.4899 21.3121 15.0381 20.4897 15.7144 20.4897C16.3907 20.4897 16.9389 21.3121 16.9389 22.3264Z" fill="#633001"/>
<path d="M25.388 22.3264C25.388 23.3409 24.8397 24.1632 24.1635 24.1632C23.4872 24.1632 22.939 23.3409 22.939 22.3264C22.939 21.3121 23.4872 20.4897 24.1635 20.4897C24.8397 20.4897 25.388 21.3121 25.388 22.3264Z" fill="#633001"/>
</svg>
