<svg width="40" height="40" viewBox="0 0 40 40" fill="none" xmlns="http://www.w3.org/2000/svg">
<circle cx="20" cy="20" r="19.5" fill="white" stroke="#F6F9FA"/>
<path d="M15.3358 18.0883L20.0007 13.4234L24.6656 18.0883L27.3773 15.3766L20.0007 8L12.6241 15.3766L15.3358 18.0883Z" fill="#F3BA2F"/>
<path d="M10.7086 17.2956L8 20.0042L10.7086 22.7127L13.4171 20.0042L10.7086 17.2956Z" fill="#F3BA2F"/>
<path d="M15.3358 21.9192L20.0007 26.5841L24.6656 21.9192L27.3773 24.6309L20.0007 32.0075L12.6241 24.6309L15.3358 21.9192Z" fill="#F3BA2F"/>
<path d="M29.2914 17.2961L26.5828 20.0046L29.2914 22.7132L32 20.0046L29.2914 17.2961Z" fill="#F3BA2F"/>
<path d="M22.7502 20.0038L20.0006 17.2542L17.9715 19.2832L17.725 19.5108L17.2509 20.0038L20.0006 22.7534L22.7502 20.0038Z" fill="#F3BA2F"/>
</svg>
