<svg width="40" height="40" viewBox="0 0 40 40" fill="none" xmlns="http://www.w3.org/2000/svg">
<circle cx="20" cy="20" r="19.5" fill="white" stroke="#F6F9FA"/>
<g clip-path="url(#clip0)">
<path d="M27.1224 15.83C27.0633 15.8901 26.9929 15.9378 26.9152 15.9704C26.8376 16.003 26.7542 16.0199 26.67 16.02H10.6411C10.0745 16.02 9.78747 15.3291 10.1836 14.9188L12.8128 12.195C12.872 12.1335 12.943 12.0845 13.0215 12.051C13.1001 12.0175 13.1846 12.0001 13.27 12H29.3589C29.9289 12 30.2144 12.6981 29.8113 13.1064L27.1224 15.83ZM27.1224 27.9955C27.0018 28.1143 26.8392 28.1808 26.67 28.1806H10.6411C10.0745 28.1806 9.78747 27.507 10.1836 27.1069L12.8128 24.4511C12.8727 24.3908 12.944 24.343 13.0225 24.3104C13.101 24.2778 13.1852 24.261 13.2703 24.2611H29.3589C29.9289 24.2611 30.2144 24.9417 29.8113 25.3398L27.1224 27.9955ZM27.1224 18.3155C27.0017 18.1968 26.8392 18.1304 26.67 18.1306H10.6411C10.0745 18.1306 9.78747 18.8042 10.1836 19.2043L12.8128 21.86C12.8727 21.9203 12.9439 21.9681 13.0224 22.0007C13.1008 22.0333 13.185 22.0501 13.27 22.05H29.3589C29.9289 22.05 30.2144 21.3694 29.8113 20.9714L27.1224 18.3155Z" fill="url(#paint0_linear)"/>
</g>
<defs>
<linearGradient id="paint0_linear" x1="11.4603" y1="28.6192" x2="28.5101" y2="11.5694" gradientUnits="userSpaceOnUse">
<stop stop-color="#CF41E8"/>
<stop offset="1" stop-color="#10F2B0"/>
</linearGradient>
<clipPath id="clip0">
<rect width="20" height="16.1809" fill="white" transform="translate(10 12)"/>
</clipPath>
</defs>
</svg>
