<svg width="40" height="40" viewBox="0 0 40 40" fill="none" xmlns="http://www.w3.org/2000/svg">
<circle cx="20" cy="20" r="19.5" fill="white" stroke="#F6F9FA"/>
<path fill-rule="evenodd" clip-rule="evenodd" d="M20.9598 16.6281L24.9397 14.3065V18.9497L20.9598 16.6281ZM24.9397 26.5779L19.6332 29.6734L14.3266 26.5779V21.1608L19.6332 24.2563L24.9397 21.1608V26.5779ZM14.3266 14.3065L18.3065 16.6281L14.3266 18.9497V14.3065ZM20.2965 17.7337L24.2764 20.0553L20.2965 22.3769V17.7337ZM18.9698 22.3769L14.99 20.0553L18.9698 17.7337V22.3769ZM24.2764 13.201L19.6332 15.8543L14.99 13.201L19.6332 10.4372L24.2764 13.201ZM13 12.7588V27.2412L19.6332 31L26.2663 27.2412V12.7588L19.6332 9L13 12.7588Z" fill="#13B5EC"/>
</svg>
