<svg width="40" height="40" viewBox="0 0 40 40" fill="none" xmlns="http://www.w3.org/2000/svg">
<circle cx="20" cy="20" r="19.5" fill="white" stroke="#F6F9FA"/>
<path d="M20.5766 10C16.3992 10.0168 13.0168 13.3992 13 17.5766C13 18.4132 13.135 19.2442 13.3995 20.0377C13.5969 20.5778 14.1826 20.8687 14.7323 20.7017C15.2637 20.4979 15.5458 19.917 15.3764 19.3737C15.1518 18.7552 15.052 18.0992 15.0815 17.4424C15.1726 14.4251 17.692 12.0528 20.7092 12.1439C23.7265 12.2349 26.0988 14.7544 26.0078 17.7716C25.9223 20.5962 23.6977 22.8903 20.8762 23.0621C20.8762 23.0621 19.8127 23.1268 19.2837 23.1915C19.0888 23.2195 18.8954 23.2579 18.7044 23.3066C18.6773 23.3346 18.6333 23.3346 18.6053 23.3074L18.6045 23.3066C18.5854 23.2818 18.5854 23.2467 18.6045 23.2219L18.7692 22.3238L19.768 17.8315C19.8878 17.2706 19.5306 16.7184 18.9697 16.5986C18.4088 16.4787 17.8566 16.8359 17.7368 17.3968C17.7368 17.3968 15.3612 28.3926 15.3612 28.4924C15.2254 29.027 15.5482 29.5704 16.0827 29.7062C16.0883 29.7078 16.0947 29.7094 16.1003 29.7102H16.1555C16.6892 29.8484 17.2342 29.5272 17.3716 28.9934C17.374 28.9847 17.3764 28.9759 17.378 28.9663C17.3764 28.9495 17.3764 28.9327 17.378 28.9167C17.4076 28.7873 17.7072 27.3242 17.7072 27.3242C17.9341 26.2199 18.8243 25.3737 19.9382 25.2027C20.1675 25.1676 21.1311 25.1029 21.1311 25.1029C25.2926 24.6882 28.3298 20.9782 27.9143 16.8167C27.5355 13.0212 24.3913 10.0991 20.5766 10Z" fill="#E5087D"/>
<path d="M21.036 27.4696C20.3529 27.3274 19.6848 27.7661 19.5426 28.4485C19.541 28.4549 19.5402 28.4613 19.5386 28.4677C19.3908 29.1461 19.8207 29.8165 20.4999 29.9643C20.5007 29.9643 20.5015 29.9643 20.5023 29.9651H20.5374C21.2022 30.1257 21.871 29.7166 22.0309 29.0526C22.0325 29.0478 22.0333 29.0422 22.0349 29.0374V28.9679C22.1523 28.2823 21.7144 27.6247 21.036 27.4696Z" fill="#E5087D"/>
</svg>
