<svg width="20" height="17" viewBox="0 0 20 17" fill="none" xmlns="http://www.w3.org/2000/svg">
<line x1="9.83325" y1="8.94434" x2="15.2333" y2="8.94434" stroke="#868686" stroke-linecap="round"/>
<line x1="9.83325" y1="12.0554" x2="17.3666" y2="12.0554" stroke="#868686" stroke-linecap="round"/>
<line x1="9.83325" y1="15.1665" x2="19.4999" y2="15.1665" stroke="#868686" stroke-linecap="round"/>
<path d="M4.35355 0.646447C4.15829 0.451184 3.84171 0.451184 3.64645 0.646447L0.464466 3.82843C0.269204 4.02369 0.269204 4.34027 0.464466 4.53553C0.659728 4.7308 0.976311 4.7308 1.17157 4.53553L4 1.70711L6.82843 4.53553C7.02369 4.7308 7.34027 4.7308 7.53553 4.53553C7.7308 4.34027 7.7308 4.02369 7.53553 3.82843L4.35355 0.646447ZM4.5 17L4.5 1L3.5 1L3.5 17L4.5 17Z" fill="#868686"/>
</svg>
