<svg width="46" height="46" viewBox="0 0 46 46" fill="none" xmlns="http://www.w3.org/2000/svg">
<rect x="0.5" y="0.5" width="45" height="45" rx="5.5" fill="white" stroke="#F6F9FA"/>
<path d="M35.5706 20.1235C35.5706 20.0706 35.5176 20.0176 35.5176 19.9647C35.2529 19.2235 34.8824 18.8 34.8824 18.8C34.1412 17.7412 32.8706 17.0529 31.0176 17.0529C29.2176 17.0529 27.9471 17.7941 27.2059 18.8C27.2059 18.8 26.8353 19.2235 26.5706 19.9647C26.5706 20.0176 26.5176 20.0706 26.5176 20.0706C26.3059 19.3824 25.9353 18.8 25.4059 18.3235C24.6118 17.4765 23.5 17 22.2294 17C20.2176 17 18.5235 18.3235 17.8882 20.1765V17.4765H15.8235V22.8235C15.8235 24.0412 15.1882 24.6765 13.9706 24.6765H13.8647C12.6471 24.6765 12.0118 24.0412 12.0118 22.8235V17.4235H10V22.8765C10 25.1529 11.4294 26.4765 13.9176 26.4765H14.0235C16.3529 26.4765 17.7294 25.3118 17.8882 23.3C18.4706 25.1529 20.2176 26.4765 22.2294 26.4765C23.4471 26.4765 24.6118 25.9471 25.4588 25.1C25.9353 24.6235 26.3588 23.9882 26.5706 23.3V27.2176L28.4235 29.7059V25.5235C29.1647 25.9471 30.0647 26.4765 31.1235 26.4765C32.9235 26.4765 34.1941 25.7353 34.9882 24.6765C34.9882 24.6765 35.0941 24.5706 35.2 24.3059C35.3059 24.0941 35.4647 23.7765 35.6235 23.3529C35.7824 22.9294 35.8882 22.3471 35.8882 21.7647V21.7118C35.8353 21.1294 35.7294 20.5471 35.5706 20.1235ZM25.0353 21.9765C25.0353 23.4588 23.8176 24.6765 22.3353 24.6765H22.0706C20.5882 24.6765 19.3706 23.4588 19.3706 21.9765V21.5529C19.3706 20.0706 20.5882 18.8529 22.0706 18.8529H22.3353C23.8176 18.8529 25.0353 20.0706 25.0353 21.5529V21.9765ZM31.0176 24.4647C29.3765 24.4647 28.3706 23.3529 28.3706 21.7118C28.3706 20.0176 29.4294 18.9588 31.0176 18.9588C32.6059 18.9588 33.6647 20.0706 33.6647 21.7118C33.6647 23.3529 32.6059 24.4647 31.0176 24.4647Z" fill="#2BD2F7"/>
</svg>
