<svg width="150" height="30" viewBox="0 0 150 30" fill="none" xmlns="http://www.w3.org/2000/svg">
<path d="M65.795 3.67974L65.3997 2.5542H64.8287V4.28579H65.224V3.03039L65.6632 4.28579H65.9267L66.3659 3.03039V4.28579H66.7612V2.5542H66.2342L65.795 3.67974Z" fill="#2BD2F7"/>
<path d="M63.2476 2.85723H63.7307V4.28579H64.126V2.85723H64.6091V2.5542H63.2476V2.85723Z" fill="#2BD2F7"/>
<path d="M56.0004 1.86146C52.0035 1.86146 49.7196 4.02596 48.8411 6.66664V4.06925L45.6787 0V6.70993C44.8003 4.06925 42.5164 1.90475 38.5195 1.90475C34.4347 1.90475 32.1508 4.15583 31.3163 6.92638C30.4818 4.15583 28.1539 1.86146 24.0692 1.86146C18.8425 1.86146 16.5146 5.58439 16.5146 9.30732C16.5146 10.6926 16.8221 12.0779 17.5248 13.2467C17.0417 13.5064 16.4707 13.6363 15.724 13.6363C13.7036 13.6363 12.7373 12.6839 12.7373 10.7792V7.61902L16.3389 3.29003H12.7373V0L9.4432 3.98267V10.9091C9.4432 10.9956 9.4432 11.0822 9.4432 11.1688C9.4432 11.1255 9.4432 11.0822 9.4432 11.0822C9.48712 12.9004 8.25731 13.7229 6.32475 13.7229C4.30434 13.7229 3.33806 12.7705 3.33806 10.8658L3.29414 3.29003H0L0.0439219 11.0389C0.0439219 14.5887 2.37178 16.7099 6.32475 16.7099C8.30123 16.7099 10.0581 16.1038 11.1122 15.1082C12.2103 16.1038 13.7475 16.6233 15.724 16.6233C17.3491 16.6233 18.6668 16.2337 19.7209 15.5844C20.8629 16.3203 22.3123 16.7532 24.1131 16.7532C27.8465 16.7532 30.1304 14.8484 31.0967 12.4242V17.8787L34.1712 21.9047V15.2813C35.3132 15.974 36.7626 16.7532 38.5195 16.7532C42.4725 16.7532 44.8003 14.5887 45.6787 11.948V16.7532H48.8411V11.9047C49.7196 14.5454 52.0035 16.7099 56.0004 16.7099C57.8012 16.7099 59.2506 16.277 60.3926 15.5411V16.7099H63.511L63.555 9.8268C63.555 9.65364 63.555 9.43719 63.555 9.26403C63.555 5.62768 61.2271 1.86146 56.0004 1.86146ZM24.0692 13.6796C21.4778 13.6796 19.8527 11.948 19.8527 9.30732C19.8527 6.66664 21.5217 4.93505 24.0692 4.93505C26.6167 4.93505 28.2857 6.66664 28.2857 9.30732C28.2857 11.948 26.6606 13.6796 24.0692 13.6796ZM38.5195 13.6796C35.9281 13.6796 34.303 11.948 34.303 9.30732C34.303 6.66664 35.972 4.93505 38.5195 4.93505C41.067 4.93505 42.736 6.66664 42.736 9.30732C42.736 11.948 41.067 13.6796 38.5195 13.6796ZM56.0004 13.6796C53.409 13.6796 51.7839 11.948 51.7839 9.30732C51.7839 6.66664 53.4529 4.93505 56.0004 4.93505C58.5479 4.93505 60.2169 6.66664 60.2169 9.30732C60.2169 11.948 58.5479 13.6796 56.0004 13.6796Z" fill="#2BD2F7"/>
<path d="M89.1175 2.98706C85.3841 2.98706 82.3975 5.67103 82.3975 9.82686C82.3975 14.026 85.3841 16.7532 89.1175 16.7532C91.665 16.7532 93.8611 15.4978 95.003 13.3766L93.7732 12.9437C92.8069 14.5022 91.094 15.4545 89.1175 15.4545C86.2626 15.4545 83.9347 13.4632 83.7151 10.3896H95.6618C95.7058 10.1732 95.7058 10 95.7058 9.78357C95.7058 5.67103 92.9387 2.98706 89.1175 2.98706ZM83.7151 9.26409C83.9786 6.2338 86.2626 4.28576 89.1175 4.28576C92.0163 4.28576 94.0807 6.19051 94.3442 9.26409H83.7151Z" fill="#2BD2F7"/>
<path d="M117.755 2.98706C114.021 2.98706 111.034 5.67103 111.034 9.82686C111.034 14.026 114.021 16.7532 117.755 16.7532C120.302 16.7532 122.498 15.4978 123.64 13.3766L122.41 12.9437C121.444 14.5022 119.731 15.4545 117.755 15.4545C114.9 15.4545 112.572 13.4632 112.352 10.3896H124.299C124.343 10.1732 124.343 10 124.343 9.78357C124.343 5.67103 121.576 2.98706 117.755 2.98706ZM112.352 9.2208C112.616 6.19051 114.9 4.24247 117.755 4.24247C120.653 4.24247 122.718 6.14722 122.981 9.2208H112.352Z" fill="#2BD2F7"/>
<path d="M132.556 9.26409L130.624 8.8312C129.526 8.57146 128.032 7.9654 128.296 6.10393C128.472 4.9784 129.745 4.19918 131.239 4.19918C132.688 4.19918 133.83 4.9784 134.094 6.27709H135.367C135.104 4.1126 133.391 2.98706 131.239 2.98706C129.13 2.98706 127.242 4.15589 126.978 5.97406C126.671 8.91778 128.647 9.74028 130.272 10.0866L132.205 10.5195C133.874 10.9091 134.489 11.8615 134.489 12.9004C134.489 14.4156 133.215 15.4545 131.151 15.4545C128.779 15.4545 127.944 14.1126 127.549 13.0736H126.363C126.671 15.4545 128.867 16.71 131.063 16.71C133.83 16.71 135.763 15.1948 135.763 12.9437C135.85 11.2987 134.972 9.87015 132.556 9.26409Z" fill="#2BD2F7"/>
<path d="M146.787 9.26409L144.854 8.8312C143.756 8.57146 142.263 7.9654 142.526 6.10393C142.702 4.9784 143.976 4.19918 145.469 4.19918C146.919 4.19918 148.061 4.9784 148.324 6.27709H149.598C149.334 4.1126 147.621 2.98706 145.469 2.98706C143.361 2.98706 141.472 4.15589 141.209 5.97406C140.901 8.91778 142.878 9.74028 144.503 10.0866L146.435 10.5195C148.104 10.9091 148.719 11.8615 148.719 12.9004C148.719 14.4156 147.446 15.4545 145.381 15.4545C143.01 15.4545 142.175 14.1126 141.78 13.0736H140.594C140.901 15.4545 143.097 16.71 145.293 16.71C148.061 16.71 149.993 15.1948 149.993 12.9437C150.081 11.2987 149.246 9.87015 146.787 9.26409Z" fill="#2BD2F7"/>
<path d="M79.2789 6.14715C78.1809 4.24239 75.9848 3.03027 73.613 3.03027C69.7918 3.03027 66.7173 5.97399 66.7173 9.91337C66.7173 13.8527 69.7918 16.7532 73.613 16.7532C75.9848 16.7532 78.2687 15.4978 79.2789 13.5497V14.5021C79.2789 17.7055 78.4884 19.6103 77.1268 20.6493L78.137 21.6449C79.6742 20.3895 80.5966 18.1384 80.5966 14.5021V3.29001H79.2789V6.14715ZM73.613 15.4545C70.5385 15.4545 68.0349 13.0735 68.0349 9.91337C68.0349 6.7532 70.5385 4.32897 73.613 4.32897C76.7315 4.32897 79.2789 6.62333 79.2789 9.91337C79.2789 13.2034 76.5997 15.4545 73.613 15.4545Z" fill="#2BD2F7"/>
<path d="M138.969 2.98706H137.607V16.7965H138.969V2.98706Z" fill="#2BD2F7"/>
<path d="M106.774 3.93951C105.852 3.29017 104.754 2.94385 103.48 2.94385C103.436 2.94385 103.436 2.94385 103.392 2.94385C103.348 2.94385 103.348 2.94385 103.304 2.94385C102.03 2.94385 100.888 3.29017 100.01 3.93951C99.9661 3.93951 99.9661 3.9828 99.9222 4.02609C99.7904 4.11267 99.6586 4.24254 99.5269 4.32912C99.439 4.37241 99.3951 4.45899 99.3512 4.50228C99.2633 4.58886 99.1755 4.67544 99.0877 4.76202C98.9998 4.8486 98.9559 4.93518 98.912 5.02176C98.8241 5.10834 98.7802 5.23821 98.6924 5.32479C98.6484 5.41137 98.5606 5.54124 98.5167 5.62782C98.4728 5.67111 98.4728 5.7144 98.4288 5.80098V5.84427C98.3849 5.97414 98.2971 6.06072 98.2531 6.19059C97.9457 6.96981 97.7261 7.92218 97.77 8.96114V16.7533H99.1316V8.96114C99.1316 6.62349 100.23 5.02176 101.987 4.50228C102.47 4.37241 102.997 4.28583 103.48 4.28583C104.007 4.28583 104.49 4.37241 104.973 4.50228C106.686 5.06505 107.828 6.66678 107.828 8.96114V16.7533H109.19V8.96114C109.19 7.92218 109.014 6.96981 108.707 6.19059C108.136 5.19492 107.521 4.45899 106.774 3.93951Z" fill="#2BD2F7"/>
<path d="M36.2795 25.7146V26.2341H34.3469V27.5761H35.8842V28.1388H34.3469V29.957H33.8198V25.7579L36.2795 25.7146Z" fill="#2BD2F7"/>
<path d="M43.834 25.6711C45.0638 25.6711 45.9862 26.6235 45.9862 27.8356C45.9862 29.0045 45.0199 30.0001 43.834 30.0001C42.6042 30.0001 41.6818 29.0478 41.6818 27.8356C41.6818 26.6668 42.6481 25.6711 43.834 25.6711ZM43.834 29.4374C44.7124 29.4374 45.4152 28.7447 45.4152 27.8356C45.4152 26.9266 44.7124 26.2339 43.834 26.2339C42.9556 26.2339 42.2528 26.9698 42.2528 27.8356C42.2528 28.7447 42.9556 29.4374 43.834 29.4374Z" fill="#2BD2F7"/>
<path d="M54.3753 28.4852V25.7146H54.9463V28.4852C54.9463 29.3942 54.2436 30.0003 53.3651 30.0003C52.5306 30.0003 51.7839 29.3942 51.7839 28.4852V25.7146H52.3549V28.4852C52.3549 29.0479 52.7941 29.4375 53.3212 29.4375C53.8483 29.4375 54.3753 29.0912 54.3753 28.4852Z" fill="#2BD2F7"/>
<path d="M63.5549 29.9567L61.6224 26.7965V29.9567H61.0514V25.7576H61.6224L63.5549 28.9177V25.7576H64.1259V29.9567H63.5549Z" fill="#2BD2F7"/>
<path d="M70.2311 29.9567V25.7576H71.9001C73.1299 25.7576 73.8327 26.6667 73.8327 27.8788C73.8327 29.0476 73.1299 29.9567 71.9001 29.9567H70.2311ZM71.8562 29.3939C72.7346 29.3939 73.2178 28.7013 73.2178 27.8355C73.2178 26.9697 72.7785 26.2338 71.8562 26.2338H70.7581V29.3939H71.8562Z" fill="#2BD2F7"/>
<path d="M80.1135 28.8744L79.7182 29.9567H79.0594L80.6845 25.7576H81.2994L82.9245 29.9567H82.3096L81.9143 28.8744H80.1135ZM81.6947 28.355L80.9919 26.4935L80.2892 28.355H81.6947Z" fill="#2BD2F7"/>
<path d="M91.0061 25.7146V26.2341H89.7324V29.9137H89.1614V26.2341H87.8876V25.7146C87.8876 25.7146 91.0061 25.7146 91.0061 25.7146Z" fill="#2BD2F7"/>
<path d="M97.2869 25.7146V29.9137H96.7159V25.7146C96.7159 25.7146 97.2869 25.7146 97.2869 25.7146Z" fill="#2BD2F7"/>
<path d="M105.281 25.6711C106.511 25.6711 107.433 26.6235 107.433 27.8356C107.433 29.0045 106.467 30.0001 105.281 30.0001C104.051 30.0001 103.129 29.0478 103.129 27.8356C103.129 26.6668 104.051 25.6711 105.281 25.6711ZM105.281 29.4374C106.159 29.4374 106.862 28.7447 106.862 27.8356C106.862 26.9266 106.159 26.2339 105.281 26.2339C104.402 26.2339 103.7 26.9698 103.7 27.8356C103.7 28.7447 104.402 29.4374 105.281 29.4374Z" fill="#2BD2F7"/>
<path d="M115.822 29.9567L113.889 26.7965V29.9567H113.318V25.7576H113.889L115.822 28.9177V25.7576H116.393V29.9567H115.822Z" fill="#2BD2F7"/>
</svg>
