<svg width="143" height="62" viewBox="0 0 143 62" fill="none" xmlns="http://www.w3.org/2000/svg">
<path d="M24.5191 58.986C24.5191 60.5177 23.2746 61.7622 21.743 61.7622C20.2113 61.7622 18.9668 60.5177 18.9668 58.986V39.7762C18.9668 38.2445 20.2113 37 21.743 37C23.2746 37 24.5191 38.2445 24.5191 39.7762V58.986Z" fill="#88B6D0"/>
<path opacity="0.25" d="M22.2214 37.0319C22.0619 37 21.9343 37 21.7747 37C20.243 37 18.9985 38.2445 18.9985 39.7762V58.986C18.9985 59.1775 19.0304 59.3689 19.0624 59.5285C21.9662 56.7523 23.9127 51.7105 23.9127 45.9029C23.9127 42.6162 23.2745 39.5847 22.2214 37.0319Z" fill="black" fill-opacity="0.2"/>
<g filter="url(#filter0_d)">
<path d="M33.5177 21.7429C33.5177 15.2652 28.2525 10 21.7748 10C15.3924 10 10.1871 15.1114 10.0353 21.4578C10.0308 21.647 10.0146 21.8368 10.0055 22.0258C10 22.1417 10 22.2564 10 22.3811V45.2606C10 48.3239 12.489 50.8129 15.5523 50.8129H27.9653C31.0287 50.8129 33.5177 48.3239 33.5177 45.2606V22.3811C33.5177 22.2854 33.5177 22.1896 33.5177 22.062C33.5177 21.9663 33.5177 21.8386 33.5177 21.7429Z" fill="#F6F9FA"/>
</g>
<mask id="mask0" mask-type="alpha" maskUnits="userSpaceOnUse" x="10" y="10" width="24" height="41">
<path d="M33.5177 21.7429C33.5177 15.2652 28.2525 10 21.7748 10C15.3924 10 10.1871 15.1114 10.0353 21.4578C10.0308 21.647 10.0146 21.8368 10.0055 22.0258C10 22.1417 10 22.2564 10 22.3811V45.2606C10 48.3239 12.489 50.8129 15.5523 50.8129H27.9653C31.0287 50.8129 33.5177 48.3239 33.5177 45.2606V22.3811C33.5177 22.2854 33.5177 22.1896 33.5177 22.062C33.5177 21.9663 33.5177 21.8386 33.5177 21.7429Z" fill="#F6F9FA"/>
</mask>
<g mask="url(#mask0)">
<g filter="url(#filter1_d)">
<path d="M21.7748 10C15.3924 10 10.1871 15.1114 10.0353 21.4578C10.0308 21.647 10.0146 21.8368 10.0055 22.0258C10 22.1417 10 22.2564 10 22.3811V41.0008C10 42.9036 11.3482 44.5994 13.2508 44.5726C21.5043 44.4561 29.6752 37.7913 33.2991 27.7911C33.4478 27.3807 33.5177 26.9449 33.5177 26.5084V22.3811C33.5177 22.2854 33.5177 22.1896 33.5177 22.062C33.5177 21.9343 33.5177 21.8386 33.5177 21.711C33.5177 15.2332 28.2525 10 21.7748 10Z" fill="#F6F9FA"/>
</g>
<g filter="url(#filter2_d)">
<path d="M21.7748 10C15.3924 10 10.1871 15.1114 10.0353 21.4578C10.0308 21.647 10.0146 21.8368 10.0055 22.0258C10 22.1417 10 22.2564 10 22.3811V33.9016C10 35.9094 11.503 37.6597 13.5015 37.4666C21.8191 36.6631 29.8287 29.3308 32.8795 18.8072C32.9433 18.488 32.9617 18.1643 32.8553 17.8567C31.2739 13.2827 26.8974 10 21.7748 10Z" fill="#F6F9FA"/>
</g>
<g filter="url(#filter3_d)">
<path d="M27 22C27 26.9706 19.6421 31.5 15.5 31.5C12 31.5 12 26.9706 12 22C12 17.0294 15.3579 13 19.5 13C23.6421 13 27 17.0294 27 22Z" fill="#F6F9FA"/>
</g>
<g filter="url(#filter4_d)">
<path d="M20.0885 20.4514C19.8652 22.5893 18.5249 24.1848 17.1209 24.0253C15.6849 23.8657 14.7276 22.0469 14.951 19.9089C15.1744 17.7709 16.5146 16.1754 17.9186 16.335C19.3227 16.4626 20.3119 18.3134 20.0885 20.4514Z" fill="#F6F9FA"/>
</g>
<g filter="url(#filter5_d)">
<path d="M33.5176 21.7429C33.5176 15.2652 28.2524 10 21.7747 10C21.4503 10 21.4222 10.4464 21.7311 10.5453C26.4548 12.0586 29.8798 16.5075 29.8798 21.7429C29.8798 21.8705 29.8798 21.9663 29.8798 22.0939C29.8798 22.1896 29.8798 22.2854 29.8798 22.413V45.2925C29.8798 48.3558 27.3908 50.8448 24.3275 50.8448H27.9652C31.0286 50.8448 33.5176 48.3558 33.5176 45.2925V22.3811C33.5176 22.2854 33.5176 22.1896 33.5176 22.062C33.5176 21.9663 33.5176 21.8386 33.5176 21.7429Z" fill="#F6F9FA"/>
</g>
</g>
<path d="M47.1308 30.712V37H43.7468V20.056H49.9148C51.9148 20.056 53.4188 20.536 54.4268 21.496C55.4508 22.456 55.9628 23.76 55.9628 25.408C55.9628 27.024 55.4348 28.312 54.3788 29.272C53.3388 30.232 51.8508 30.712 49.9148 30.712H47.1308ZM49.5548 28C51.5388 28 52.5308 27.136 52.5308 25.408C52.5308 24.56 52.2988 23.912 51.8348 23.464C51.3708 23.016 50.6108 22.792 49.5548 22.792H47.1308V28H49.5548Z" fill="#252423"/>
<path d="M64.3049 23.536C65.6009 23.536 66.7609 23.808 67.7849 24.352C68.8249 24.896 69.6409 25.688 70.2329 26.728C70.8249 27.752 71.1209 28.96 71.1209 30.352C71.1209 31.744 70.8249 32.952 70.2329 33.976C69.6409 35 68.8249 35.792 67.7849 36.352C66.7609 36.896 65.6009 37.168 64.3049 37.168C63.0089 37.168 61.8409 36.896 60.8009 36.352C59.7769 35.792 58.9689 35 58.3769 33.976C57.7849 32.952 57.4889 31.744 57.4889 30.352C57.4889 28.96 57.7849 27.752 58.3769 26.728C58.9689 25.688 59.7769 24.896 60.8009 24.352C61.8409 23.808 63.0089 23.536 64.3049 23.536ZM64.3049 26.464C63.3609 26.464 62.5609 26.8 61.9049 27.472C61.2489 28.128 60.9209 29.088 60.9209 30.352C60.9209 31.616 61.2489 32.584 61.9049 33.256C62.5609 33.912 63.3609 34.24 64.3049 34.24C65.2489 34.24 66.0489 33.912 66.7049 33.256C67.3609 32.584 67.6889 31.616 67.6889 30.352C67.6889 29.088 67.3609 28.128 66.7049 27.472C66.0489 26.8 65.2489 26.464 64.3049 26.464Z" fill="#252423"/>
<path d="M81.4565 23.536C82.5765 23.536 83.5845 23.808 84.4805 24.352C85.3765 24.896 86.0725 25.688 86.5685 26.728C87.0805 27.752 87.3365 28.96 87.3365 30.352C87.3365 31.744 87.0805 32.96 86.5685 34C86.0725 35.024 85.3765 35.808 84.4805 36.352C83.5845 36.896 82.5765 37.168 81.4565 37.168C80.3365 37.168 79.3764 36.904 78.5765 36.376C77.7924 35.832 77.2325 35.112 76.8965 34.216V43.336H73.5125V23.704H76.8965V26.464C77.2325 25.568 77.7924 24.856 78.5765 24.328C79.3764 23.8 80.3365 23.536 81.4565 23.536ZM80.4005 26.488C79.3764 26.488 78.5285 26.84 77.8565 27.544C77.2005 28.232 76.8725 29.168 76.8725 30.352C76.8725 31.52 77.2005 32.456 77.8565 33.16C78.5285 33.848 79.3764 34.192 80.4005 34.192C81.4565 34.192 82.3045 33.856 82.9445 33.184C83.5845 32.496 83.9045 31.552 83.9045 30.352C83.9045 29.152 83.5845 28.208 82.9445 27.52C82.3045 26.832 81.4565 26.488 80.4005 26.488Z" fill="#252423"/>
<path d="M94.3152 23.536C95.9312 23.536 97.2272 23.944 98.2032 24.76C99.1792 25.576 99.7872 26.664 100.027 28.024H96.8592C96.7312 27.384 96.4432 26.872 95.9952 26.488C95.5472 26.104 94.9632 25.912 94.2432 25.912C93.6672 25.912 93.2192 26.048 92.8992 26.32C92.5792 26.592 92.4192 26.96 92.4192 27.424C92.4192 27.792 92.5472 28.088 92.8032 28.312C93.0592 28.536 93.3792 28.712 93.7632 28.84C94.1472 28.968 94.6992 29.12 95.4192 29.296C96.4272 29.52 97.2432 29.76 97.8672 30.016C98.5072 30.256 99.0512 30.648 99.4992 31.192C99.9632 31.72 100.195 32.44 100.195 33.352C100.195 34.488 99.7472 35.408 98.8512 36.112C97.9712 36.816 96.7792 37.168 95.2752 37.168C93.5472 37.168 92.1632 36.784 91.1232 36.016C90.0832 35.232 89.4512 34.12 89.2272 32.68H92.4672C92.5472 33.336 92.8352 33.856 93.3312 34.24C93.8272 34.608 94.4752 34.792 95.2752 34.792C95.8512 34.792 96.2912 34.656 96.5952 34.384C96.8992 34.096 97.0512 33.728 97.0512 33.28C97.0512 32.896 96.9152 32.584 96.6432 32.344C96.3872 32.104 96.0592 31.92 95.6592 31.792C95.2752 31.664 94.7232 31.512 94.0032 31.336C93.0112 31.112 92.2032 30.888 91.5792 30.664C90.9712 30.424 90.4432 30.048 89.9952 29.536C89.5632 29.024 89.3472 28.32 89.3472 27.424C89.3472 26.272 89.7872 25.336 90.6672 24.616C91.5472 23.896 92.7632 23.536 94.3152 23.536Z" fill="#252423"/>
<path d="M102.332 19.888C102.332 19.344 102.524 18.904 102.908 18.568C103.292 18.216 103.796 18.04 104.42 18.04C105.044 18.04 105.548 18.216 105.932 18.568C106.316 18.904 106.508 19.344 106.508 19.888C106.508 20.416 106.316 20.856 105.932 21.208C105.548 21.544 105.044 21.712 104.42 21.712C103.796 21.712 103.292 21.544 102.908 21.208C102.524 20.856 102.332 20.416 102.332 19.888ZM106.1 23.704V37H102.716V23.704H106.1Z" fill="#252423"/>
<path d="M115.137 23.536C116.849 23.536 118.273 24 119.409 24.928C120.561 25.856 121.281 27.12 121.569 28.72H117.993C117.849 28.016 117.521 27.464 117.009 27.064C116.497 26.648 115.849 26.44 115.065 26.44C114.169 26.44 113.417 26.776 112.809 27.448C112.217 28.104 111.921 29.072 111.921 30.352C111.921 31.632 112.217 32.608 112.809 33.28C113.417 33.936 114.169 34.264 115.065 34.264C115.849 34.264 116.497 34.064 117.009 33.664C117.521 33.248 117.849 32.688 117.993 31.984H121.569C121.281 33.584 120.561 34.848 119.409 35.776C118.273 36.704 116.849 37.168 115.137 37.168C113.841 37.168 112.689 36.896 111.681 36.352C110.673 35.792 109.889 35 109.329 33.976C108.769 32.952 108.489 31.744 108.489 30.352C108.489 28.96 108.769 27.752 109.329 26.728C109.889 25.688 110.673 24.896 111.681 24.352C112.689 23.808 113.841 23.536 115.137 23.536Z" fill="#252423"/>
<path d="M127.357 19.24V37H123.973V19.24H127.357Z" fill="#252423"/>
<path d="M142.923 29.848C142.923 30.184 142.883 30.568 142.803 31H133.059C133.107 32.184 133.427 33.056 134.019 33.616C134.611 34.176 135.347 34.456 136.227 34.456C137.011 34.456 137.659 34.264 138.171 33.88C138.699 33.496 139.035 32.976 139.179 32.32H142.755C142.579 33.248 142.203 34.08 141.627 34.816C141.051 35.552 140.307 36.128 139.395 36.544C138.499 36.96 137.499 37.168 136.395 37.168C135.099 37.168 133.947 36.896 132.939 36.352C131.931 35.792 131.147 35 130.587 33.976C130.027 32.952 129.747 31.744 129.747 30.352C129.747 28.96 130.027 27.752 130.587 26.728C131.147 25.688 131.931 24.896 132.939 24.352C133.947 23.808 135.099 23.536 136.395 23.536C137.707 23.536 138.851 23.808 139.827 24.352C140.819 24.896 141.579 25.648 142.107 26.608C142.651 27.552 142.923 28.632 142.923 29.848ZM139.515 29.512C139.563 28.424 139.275 27.6 138.651 27.04C138.043 26.48 137.291 26.2 136.395 26.2C135.483 26.2 134.715 26.48 134.091 27.04C133.467 27.6 133.123 28.424 133.059 29.512H139.515Z" fill="#252423"/>
<path d="M58.4304 46.1361C57.6517 46.1255 57.1077 46.2588 56.7984 46.5361C56.4997 46.8135 56.3504 47.2935 56.3504 47.9761V48.2161H58.4304V49.4961H56.3504V57.0001H54.8944V49.4961H53.6304V48.2161H54.8944V47.8641C54.8944 45.7628 56.073 44.7601 58.4304 44.8561V46.1361Z" fill="#252423"/>
<path d="M62.8751 45.6401C62.8751 45.3735 62.9658 45.1601 63.1471 45.0001C63.3285 44.8295 63.5685 44.7441 63.8671 44.7441C64.1658 44.7441 64.4058 44.8295 64.5871 45.0001C64.7685 45.1601 64.8591 45.3735 64.8591 45.6401C64.8591 45.9068 64.7685 46.1255 64.5871 46.2961C64.4058 46.4561 64.1658 46.5361 63.8671 46.5361C63.5685 46.5361 63.3285 46.4561 63.1471 46.2961C62.9658 46.1255 62.8751 45.9068 62.8751 45.6401ZM64.5871 48.2161V57.0001H63.1311V48.2161H64.5871Z" fill="#252423"/>
<path d="M74.672 48.0721C75.696 48.0721 76.5227 48.4028 77.152 49.0641C77.7813 49.7148 78.096 50.6588 78.096 51.8961V57.0001H76.64V52.0241C76.64 51.1495 76.416 50.4775 75.968 50.0081C75.52 49.5388 74.912 49.3041 74.144 49.3041C73.344 49.3041 72.704 49.5655 72.224 50.0881C71.744 50.6001 71.504 51.3521 71.504 52.3441V57.0001H70.048V48.2161H71.504V50.2961C71.728 49.5815 72.1227 49.0321 72.688 48.6481C73.264 48.2641 73.9253 48.0721 74.672 48.0721Z" fill="#252423"/>
<path d="M87.0492 48.1041C87.9026 48.1041 88.6226 48.3175 89.2092 48.7441C89.8066 49.1708 90.2226 49.7415 90.4572 50.4561V48.2161H91.9132V57.0001H90.4572V54.7601C90.2226 55.4748 89.8066 56.0455 89.2092 56.4721C88.6226 56.8988 87.9026 57.1121 87.0492 57.1121C86.2706 57.1121 85.5772 56.9308 84.9692 56.5681C84.3612 56.2055 83.8812 55.6881 83.5292 55.0161C83.1879 54.3335 83.0172 53.5335 83.0172 52.6161C83.0172 51.6988 83.1879 50.8988 83.5292 50.2161C83.8812 49.5335 84.3612 49.0108 84.9692 48.6481C85.5772 48.2855 86.2706 48.1041 87.0492 48.1041ZM87.4652 49.4001C86.5692 49.4001 85.8492 49.6881 85.3052 50.2641C84.7719 50.8295 84.5052 51.6135 84.5052 52.6161C84.5052 53.6188 84.7719 54.4081 85.3052 54.9841C85.8492 55.5495 86.5692 55.8321 87.4652 55.8321C88.0412 55.8321 88.5532 55.6988 89.0012 55.4321C89.4599 55.1655 89.8172 54.7921 90.0732 54.3121C90.3292 53.8215 90.4572 53.2561 90.4572 52.6161C90.4572 51.9761 90.3292 51.4108 90.0732 50.9201C89.8172 50.4295 89.4599 50.0561 89.0012 49.8001C88.5532 49.5335 88.0412 49.4001 87.4652 49.4001Z" fill="#252423"/>
<path d="M101.974 48.0721C102.998 48.0721 103.825 48.4028 104.454 49.0641C105.084 49.7148 105.398 50.6588 105.398 51.8961V57.0001H103.942V52.0241C103.942 51.1495 103.718 50.4775 103.27 50.0081C102.822 49.5388 102.214 49.3041 101.446 49.3041C100.646 49.3041 100.006 49.5655 99.5265 50.0881C99.0465 50.6001 98.8065 51.3521 98.8065 52.3441V57.0001H97.3505V48.2161H98.8065V50.2961C99.0305 49.5815 99.4252 49.0321 99.9905 48.6481C100.566 48.2641 101.228 48.0721 101.974 48.0721Z" fill="#252423"/>
<path d="M114.64 48.1041C115.76 48.1041 116.688 48.4028 117.424 49.0001C118.16 49.5975 118.613 50.3975 118.784 51.4001H117.248C117.141 50.7708 116.848 50.2801 116.368 49.9281C115.898 49.5655 115.312 49.3841 114.608 49.3841C114.096 49.3841 113.626 49.5015 113.2 49.7361C112.784 49.9708 112.448 50.3335 112.192 50.8241C111.936 51.3041 111.808 51.9015 111.808 52.6161C111.808 53.3308 111.936 53.9335 112.192 54.4241C112.448 54.9041 112.784 55.2615 113.2 55.4961C113.626 55.7308 114.096 55.8481 114.608 55.8481C115.312 55.8481 115.898 55.6668 116.368 55.3041C116.848 54.9415 117.141 54.4455 117.248 53.8161H118.784C118.613 54.8295 118.16 55.6348 117.424 56.2321C116.688 56.8188 115.76 57.1121 114.64 57.1121C113.797 57.1121 113.05 56.9308 112.4 56.5681C111.749 56.2055 111.237 55.6881 110.864 55.0161C110.501 54.3335 110.32 53.5335 110.32 52.6161C110.32 51.6988 110.501 50.8988 110.864 50.2161C111.237 49.5335 111.749 49.0108 112.4 48.6481C113.05 48.2855 113.797 48.1041 114.64 48.1041Z" fill="#252423"/>
<path d="M131.889 52.1201C131.889 52.4295 131.868 52.6961 131.825 52.9201H124.801C124.833 53.9228 125.116 54.6748 125.649 55.1761C126.193 55.6775 126.855 55.9281 127.633 55.9281C128.337 55.9281 128.924 55.7521 129.393 55.4001C129.873 55.0375 130.167 54.5575 130.273 53.9601H131.825C131.719 54.5681 131.479 55.1121 131.105 55.5921C130.743 56.0721 130.268 56.4455 129.681 56.7121C129.095 56.9788 128.433 57.1121 127.697 57.1121C126.855 57.1121 126.108 56.9308 125.457 56.5681C124.807 56.2055 124.295 55.6881 123.921 55.0161C123.559 54.3335 123.377 53.5335 123.377 52.6161C123.377 51.6988 123.559 50.8988 123.921 50.2161C124.295 49.5335 124.807 49.0108 125.457 48.6481C126.108 48.2855 126.855 48.1041 127.697 48.1041C128.551 48.1041 129.292 48.2855 129.921 48.6481C130.561 49.0108 131.047 49.4961 131.377 50.1041C131.719 50.7121 131.889 51.3841 131.889 52.1201ZM130.417 52.2161C130.449 51.5655 130.343 51.0215 130.097 50.5841C129.852 50.1468 129.516 49.8215 129.089 49.6081C128.663 49.3948 128.199 49.2881 127.697 49.2881C126.897 49.2881 126.225 49.5388 125.681 50.0401C125.137 50.5308 124.844 51.2561 124.801 52.2161H130.417Z" fill="#252423"/>
<defs>
<filter id="filter0_d" x="0" y="0" width="43.5177" height="60.8129" filterUnits="userSpaceOnUse" color-interpolation-filters="sRGB">
<feFlood flood-opacity="0" result="BackgroundImageFix"/>
<feColorMatrix in="SourceAlpha" type="matrix" values="0 0 0 0 0 0 0 0 0 0 0 0 0 0 0 0 0 0 127 0"/>
<feOffset/>
<feGaussianBlur stdDeviation="5"/>
<feColorMatrix type="matrix" values="0 0 0 0 0.076875 0 0 0 0 0.573338 0 0 0 0 0.683333 0 0 0 0.4 0"/>
<feBlend mode="normal" in2="BackgroundImageFix" result="effect1_dropShadow"/>
<feBlend mode="normal" in="SourceGraphic" in2="effect1_dropShadow" result="shape"/>
</filter>
<filter id="filter1_d" x="0" y="0" width="43.5177" height="54.5729" filterUnits="userSpaceOnUse" color-interpolation-filters="sRGB">
<feFlood flood-opacity="0" result="BackgroundImageFix"/>
<feColorMatrix in="SourceAlpha" type="matrix" values="0 0 0 0 0 0 0 0 0 0 0 0 0 0 0 0 0 0 127 0"/>
<feOffset/>
<feGaussianBlur stdDeviation="5"/>
<feColorMatrix type="matrix" values="0 0 0 0 0 0 0 0 0 0.52 0 0 0 0 1 0 0 0 0.85 0"/>
<feBlend mode="normal" in2="BackgroundImageFix" result="effect1_dropShadow"/>
<feBlend mode="normal" in="SourceGraphic" in2="effect1_dropShadow" result="shape"/>
</filter>
<filter id="filter2_d" x="0" y="0" width="42.9312" height="47.4812" filterUnits="userSpaceOnUse" color-interpolation-filters="sRGB">
<feFlood flood-opacity="0" result="BackgroundImageFix"/>
<feColorMatrix in="SourceAlpha" type="matrix" values="0 0 0 0 0 0 0 0 0 0 0 0 0 0 0 0 0 0 127 0"/>
<feOffset/>
<feGaussianBlur stdDeviation="5"/>
<feColorMatrix type="matrix" values="0 0 0 0 0.168627 0 0 0 0 0.823529 0 0 0 0 0.968627 0 0 0 0.85 0"/>
<feBlend mode="normal" in2="BackgroundImageFix" result="effect1_dropShadow"/>
<feBlend mode="normal" in="SourceGraphic" in2="effect1_dropShadow" result="shape"/>
</filter>
<filter id="filter3_d" x="2" y="3" width="35" height="38.5" filterUnits="userSpaceOnUse" color-interpolation-filters="sRGB">
<feFlood flood-opacity="0" result="BackgroundImageFix"/>
<feColorMatrix in="SourceAlpha" type="matrix" values="0 0 0 0 0 0 0 0 0 0 0 0 0 0 0 0 0 0 127 0"/>
<feOffset/>
<feGaussianBlur stdDeviation="5"/>
<feColorMatrix type="matrix" values="0 0 0 0 0.168627 0 0 0 0 0.823529 0 0 0 0 0.968627 0 0 0 0.4 0"/>
<feBlend mode="normal" in2="BackgroundImageFix" result="effect1_dropShadow"/>
<feBlend mode="normal" in="SourceGraphic" in2="effect1_dropShadow" result="shape"/>
</filter>
<filter id="filter4_d" x="4.9187" y="6.32397" width="25.2013" height="27.7123" filterUnits="userSpaceOnUse" color-interpolation-filters="sRGB">
<feFlood flood-opacity="0" result="BackgroundImageFix"/>
<feColorMatrix in="SourceAlpha" type="matrix" values="0 0 0 0 0 0 0 0 0 0 0 0 0 0 0 0 0 0 127 0"/>
<feOffset/>
<feGaussianBlur stdDeviation="5"/>
<feColorMatrix type="matrix" values="0 0 0 0 0.168627 0 0 0 0 0.823529 0 0 0 0 0.968627 0 0 0 0.4 0"/>
<feBlend mode="normal" in2="BackgroundImageFix" result="effect1_dropShadow"/>
<feBlend mode="normal" in="SourceGraphic" in2="effect1_dropShadow" result="shape"/>
</filter>
<filter id="filter5_d" x="11.5146" y="0" width="32.0029" height="60.8448" filterUnits="userSpaceOnUse" color-interpolation-filters="sRGB">
<feFlood flood-opacity="0" result="BackgroundImageFix"/>
<feColorMatrix in="SourceAlpha" type="matrix" values="0 0 0 0 0 0 0 0 0 0 0 0 0 0 0 0 0 0 127 0"/>
<feOffset/>
<feGaussianBlur stdDeviation="5"/>
<feColorMatrix type="matrix" values="0 0 0 0 0.168627 0 0 0 0 0.823529 0 0 0 0 0.968627 0 0 0 0.4 0"/>
<feBlend mode="normal" in2="BackgroundImageFix" result="effect1_dropShadow"/>
<feBlend mode="normal" in="SourceGraphic" in2="effect1_dropShadow" result="shape"/>
</filter>
</defs>
</svg>
