<svg width="123" height="55" viewBox="0 0 123 55" fill="none" xmlns="http://www.w3.org/2000/svg">
<path d="M22.3418 51.6401C22.3418 52.9421 21.2839 54 19.9819 54C18.6799 54 17.6221 52.9421 17.6221 51.6401V35.311C17.6221 34.009 18.6799 32.9511 19.9819 32.9511C21.2839 32.9511 22.3418 34.009 22.3418 35.311V51.6401Z" fill="#88B6D0"/>
<path opacity="0.25" d="M20.3888 32.9782C20.2532 32.9511 20.1447 32.9511 20.009 32.9511C18.707 32.9511 17.6492 34.009 17.6492 35.311V51.6401C17.6492 51.8029 17.6763 51.9656 17.7034 52.1012C20.1718 49.7414 21.8264 45.4557 21.8264 40.5189C21.8264 37.7251 21.2839 35.1482 20.3888 32.9782Z" fill="black" fill-opacity="0.2"/>
<g filter="url(#filter0_d)">
<path d="M29.991 19.9819C29.991 14.4756 25.5154 10 20.0091 10C14.598 10 10.1824 14.322 10.0311 19.697C10.0258 19.8862 10.0096 20.0759 10.003 20.265C10 20.3493 10 20.4338 10 20.5244V39.9729C10 42.5769 12.1157 44.6927 14.7197 44.6927H25.2713C27.8753 44.6927 29.991 42.5769 29.991 39.9729V20.5244C29.991 20.4431 29.991 20.3617 29.991 20.2532C29.991 20.1718 29.991 20.0633 29.991 19.9819Z" fill="#F6F9FA"/>
</g>
<mask id="mask0" mask-type="alpha" maskUnits="userSpaceOnUse" x="10" y="10" width="20" height="35">
<path d="M29.991 19.9819C29.991 14.4756 25.5154 10 20.0091 10C14.598 10 10.1824 14.322 10.0311 19.697C10.0258 19.8862 10.0096 20.0759 10.003 20.265C10 20.3493 10 20.4338 10 20.5244V39.9729C10 42.5769 12.1157 44.6927 14.7197 44.6927H25.2713C27.8753 44.6927 29.991 42.5769 29.991 39.9729V20.5244C29.991 20.4431 29.991 20.3617 29.991 20.2532C29.991 20.1718 29.991 20.0633 29.991 19.9819Z" fill="#F6F9FA"/>
</mask>
<g mask="url(#mask0)">
<g filter="url(#filter1_d)">
<path d="M20.0091 10C14.598 10 10.1824 14.322 10.0311 19.697C10.0258 19.8862 10.0096 20.0759 10.003 20.265C10 20.3493 10 20.4338 10 20.5244V35.8615C10 37.7644 11.3531 39.4689 13.2534 39.3722C20.075 39.025 26.7466 33.4675 29.7714 25.2159C29.9216 24.8061 29.991 24.3705 29.991 23.934V20.5244C29.991 20.4431 29.991 20.3617 29.991 20.2532C29.991 20.1447 29.991 20.0633 29.991 19.9548C29.991 14.4485 25.5154 10 20.0091 10Z" fill="#F6F9FA"/>
</g>
<g filter="url(#filter2_d)">
<path d="M20.0091 10C14.598 10 10.1824 14.322 10.0311 19.697C10.0258 19.8862 10.0096 20.0759 10.003 20.265C10 20.3493 10 20.4338 10 20.5244V29.7911C10 31.799 11.5092 33.5565 13.4989 33.2872C20.3799 32.3558 26.9192 26.2114 29.4485 17.4865C29.5028 17.2152 29.5184 16.94 29.428 16.6785C28.0837 12.7904 24.3635 10 20.0091 10Z" fill="#F6F9FA"/>
</g>
<g filter="url(#filter3_d)">
<path d="M24.4508 20.2005C24.4508 24.4257 18.1963 28.2759 14.6753 28.2759C11.7002 28.2759 11.7002 24.4257 11.7002 20.2005C11.7002 15.9753 14.5545 12.5501 18.0755 12.5501C21.5965 12.5501 24.4508 15.9753 24.4508 20.2005Z" fill="#F6F9FA"/>
</g>
<g filter="url(#filter4_d)">
<path d="M18.5757 18.8841C18.3858 20.7015 17.2466 22.0577 16.0531 21.9221C14.8325 21.7865 14.0187 20.2404 14.2086 18.423C14.3985 16.6056 15.5377 15.2494 16.7312 15.385C17.9247 15.4935 18.7656 17.0668 18.5757 18.8841Z" fill="#F6F9FA"/>
</g>
<g filter="url(#filter5_d)">
<path d="M29.9909 19.9819C29.9909 14.4756 25.5154 10 20.009 10C19.7333 10 19.7094 10.3794 19.972 10.4636C23.9873 11.7499 26.8987 15.5316 26.8987 19.9819C26.8987 20.0904 26.8987 20.1718 26.8987 20.2803C26.8987 20.3617 26.8987 20.4431 26.8987 20.5516V40.0001C26.8987 42.604 24.783 44.7198 22.179 44.7198H25.2712C27.8752 44.7198 29.9909 42.604 29.9909 40.0001V20.5244C29.9909 20.4431 29.9909 20.3617 29.9909 20.2532C29.9909 20.1718 29.9909 20.0633 29.9909 19.9819Z" fill="#F6F9FA"/>
</g>
</g>
<path d="M41.5628 27.6061V32.9511H38.6863V18.548H43.9293C45.6294 18.548 46.9079 18.9561 47.7647 19.7721C48.6352 20.5881 49.0704 21.6966 49.0704 23.0975C49.0704 24.4711 48.6216 25.566 47.7239 26.382C46.8399 27.1981 45.575 27.6061 43.9293 27.6061H41.5628ZM43.6233 25.3008C45.3098 25.3008 46.153 24.5663 46.153 23.0975C46.153 22.3766 45.9558 21.8258 45.5614 21.445C45.167 21.0642 44.521 20.8737 43.6233 20.8737H41.5628V25.3008H43.6233Z" fill="white"/>
<path d="M56.1615 21.5062C57.2631 21.5062 58.2492 21.7374 59.1196 22.1998C60.0037 22.6622 60.6973 23.3355 61.2005 24.2195C61.7038 25.09 61.9554 26.1168 61.9554 27.3001C61.9554 28.4833 61.7038 29.5102 61.2005 30.3806C60.6973 31.2511 60.0037 31.9243 59.1196 32.4003C58.2492 32.8627 57.2631 33.0939 56.1615 33.0939C55.0598 33.0939 54.067 32.8627 53.1829 32.4003C52.3125 31.9243 51.6257 31.2511 51.1224 30.3806C50.6192 29.5102 50.3676 28.4833 50.3676 27.3001C50.3676 26.1168 50.6192 25.09 51.1224 24.2195C51.6257 23.3355 52.3125 22.6622 53.1829 22.1998C54.067 21.7374 55.0598 21.5062 56.1615 21.5062ZM56.1615 23.9951C55.3591 23.9951 54.679 24.2807 54.1214 24.8519C53.5638 25.4096 53.2849 26.2256 53.2849 27.3001C53.2849 28.3745 53.5638 29.1974 54.1214 29.7686C54.679 30.3262 55.3591 30.605 56.1615 30.605C56.9639 30.605 57.644 30.3262 58.2016 29.7686C58.7592 29.1974 59.038 28.3745 59.038 27.3001C59.038 26.2256 58.7592 25.4096 58.2016 24.8519C57.644 24.2807 56.9639 23.9951 56.1615 23.9951Z" fill="white"/>
<path d="M70.741 21.5062C71.6931 21.5062 72.5499 21.7374 73.3116 22.1998C74.0732 22.6622 74.6648 23.3355 75.0864 24.2195C75.5217 25.09 75.7393 26.1168 75.7393 27.3001C75.7393 28.4833 75.5217 29.517 75.0864 30.401C74.6648 31.2715 74.0732 31.9379 73.3116 32.4003C72.5499 32.8627 71.6931 33.0939 70.741 33.0939C69.789 33.0939 68.9729 32.8695 68.2929 32.4207C67.6265 31.9583 67.1505 31.3463 66.8648 30.5846V38.337H63.9883V21.649H66.8648V23.9951C67.1505 23.2335 67.6265 22.6282 68.2929 22.1794C68.9729 21.7306 69.789 21.5062 70.741 21.5062ZM69.8434 24.0155C68.9729 24.0155 68.2521 24.3147 67.6809 24.9131C67.1233 25.498 66.8444 26.2936 66.8444 27.3001C66.8444 28.2929 67.1233 29.0886 67.6809 29.687C68.2521 30.2718 68.9729 30.5642 69.8434 30.5642C70.741 30.5642 71.4619 30.2786 72.0059 29.7074C72.5499 29.1226 72.8219 28.3201 72.8219 27.3001C72.8219 26.28 72.5499 25.4776 72.0059 24.8927C71.4619 24.3079 70.741 24.0155 69.8434 24.0155Z" fill="white"/>
<path d="M81.6715 21.5062C83.0452 21.5062 84.1468 21.853 84.9765 22.5466C85.8061 23.2403 86.3229 24.1651 86.5269 25.3212H83.834C83.7252 24.7771 83.4804 24.3419 83.0996 24.0155C82.7188 23.6891 82.2223 23.5259 81.6103 23.5259C81.1207 23.5259 80.7399 23.6415 80.4678 23.8727C80.1958 24.1039 80.0598 24.4167 80.0598 24.8111C80.0598 25.124 80.1686 25.3756 80.3862 25.566C80.6039 25.7564 80.8759 25.906 81.2023 26.0148C81.5287 26.1236 81.9979 26.2528 82.61 26.4024C83.4668 26.5928 84.1604 26.7968 84.6909 27.0144C85.2349 27.2185 85.6973 27.5517 86.0781 28.0141C86.4725 28.4629 86.6698 29.0749 86.6698 29.8502C86.6698 30.8158 86.2889 31.5979 85.5273 32.1963C84.7793 32.7947 83.766 33.0939 82.4875 33.0939C81.0187 33.0939 79.8422 32.7675 78.9582 32.1147C78.0741 31.4483 77.5369 30.503 77.3465 29.279H80.1006C80.1686 29.8366 80.4134 30.2786 80.8351 30.605C81.2567 30.9178 81.8075 31.0742 82.4875 31.0742C82.9772 31.0742 83.3512 30.9586 83.6096 30.7274C83.868 30.4826 83.9972 30.1698 83.9972 29.789C83.9972 29.4626 83.8816 29.1974 83.6504 28.9933C83.4328 28.7893 83.154 28.6329 82.814 28.5241C82.4875 28.4153 82.0183 28.2861 81.4063 28.1365C80.563 27.9461 79.8762 27.7557 79.3458 27.5653C78.829 27.3613 78.3801 27.0416 77.9993 26.6064C77.6321 26.1712 77.4485 25.5728 77.4485 24.8111C77.4485 23.8319 77.8225 23.0363 78.5706 22.4242C79.3186 21.8122 80.3522 21.5062 81.6715 21.5062Z" fill="white"/>
<path d="M88.4858 18.4052C88.4858 17.9428 88.649 17.5688 88.9754 17.2832C89.3018 16.984 89.7302 16.8344 90.2606 16.8344C90.7911 16.8344 91.2195 16.984 91.5459 17.2832C91.8723 17.5688 92.0355 17.9428 92.0355 18.4052C92.0355 18.854 91.8723 19.2281 91.5459 19.5273C91.2195 19.8129 90.7911 19.9557 90.2606 19.9557C89.7302 19.9557 89.3018 19.8129 88.9754 19.5273C88.649 19.2281 88.4858 18.854 88.4858 18.4052ZM91.6887 21.649V32.9511H88.8122V21.649H91.6887Z" fill="white"/>
<path d="M99.3708 21.5062C100.826 21.5062 102.037 21.9006 103.002 22.6894C103.981 23.4783 104.593 24.5527 104.838 25.9128H101.799C101.676 25.3144 101.397 24.8451 100.962 24.5051C100.527 24.1515 99.976 23.9747 99.3096 23.9747C98.548 23.9747 97.9087 24.2603 97.3919 24.8315C96.8887 25.3892 96.6371 26.212 96.6371 27.3001C96.6371 28.3881 96.8887 29.2178 97.3919 29.789C97.9087 30.3466 98.548 30.6254 99.3096 30.6254C99.976 30.6254 100.527 30.4554 100.962 30.1154C101.397 29.7618 101.676 29.2858 101.799 28.6873H104.838C104.593 30.0474 103.981 31.1218 103.002 31.9107C102.037 32.6995 100.826 33.0939 99.3708 33.0939C98.2692 33.0939 97.2899 32.8627 96.4331 32.4003C95.5762 31.9243 94.9098 31.2511 94.4338 30.3806C93.9577 29.5102 93.7197 28.4833 93.7197 27.3001C93.7197 26.1168 93.9577 25.09 94.4338 24.2195C94.9098 23.3355 95.5762 22.6622 96.4331 22.1998C97.2899 21.7374 98.2692 21.5062 99.3708 21.5062Z" fill="white"/>
<path d="M109.759 17.8544V32.9511H106.882V17.8544H109.759Z" fill="white"/>
<path d="M122.99 26.8716C122.99 27.1573 122.956 27.4837 122.888 27.8509H114.605C114.646 28.8573 114.918 29.5986 115.421 30.0746C115.924 30.5506 116.55 30.7886 117.298 30.7886C117.964 30.7886 118.515 30.6254 118.951 30.299C119.399 29.9726 119.685 29.5306 119.807 28.9729H122.847C122.697 29.7618 122.378 30.469 121.888 31.0946C121.399 31.7203 120.766 32.2099 119.991 32.5635C119.229 32.9171 118.379 33.0939 117.441 33.0939C116.339 33.0939 115.36 32.8627 114.503 32.4003C113.646 31.9243 112.98 31.2511 112.504 30.3806C112.028 29.5102 111.79 28.4833 111.79 27.3001C111.79 26.1168 112.028 25.09 112.504 24.2195C112.98 23.3355 113.646 22.6622 114.503 22.1998C115.36 21.7374 116.339 21.5062 117.441 21.5062C118.556 21.5062 119.529 21.7374 120.358 22.1998C121.201 22.6622 121.847 23.3015 122.296 24.1175C122.759 24.9199 122.99 25.838 122.99 26.8716ZM120.093 26.586C120.134 25.6612 119.889 24.9607 119.359 24.4847C118.842 24.0087 118.202 23.7707 117.441 23.7707C116.666 23.7707 116.013 24.0087 115.482 24.4847C114.952 24.9607 114.66 25.6612 114.605 26.586H120.093Z" fill="white"/>
<path d="M51.1678 40.7171C50.5059 40.7081 50.0435 40.8214 49.7806 41.0571C49.5267 41.2929 49.3998 41.7009 49.3998 42.2812V42.4852H51.1678V43.5733H49.3998V49.952H48.1621V43.5733H47.0876V42.4852H48.1621V42.186C48.1621 40.3998 49.164 39.5475 51.1678 39.6291V40.7171Z" fill="white"/>
<path d="M54.9461 40.2955C54.9461 40.0688 55.0231 39.8875 55.1773 39.7515C55.3314 39.6064 55.5354 39.5339 55.7893 39.5339C56.0432 39.5339 56.2472 39.6064 56.4013 39.7515C56.5555 39.8875 56.6326 40.0688 56.6326 40.2955C56.6326 40.5222 56.5555 40.7081 56.4013 40.8531C56.2472 40.9891 56.0432 41.0571 55.7893 41.0571C55.5354 41.0571 55.3314 40.9891 55.1773 40.8531C55.0231 40.7081 54.9461 40.5222 54.9461 40.2955ZM56.4013 42.4852V49.952H55.1637V42.4852H56.4013Z" fill="white"/>
<path d="M64.9739 42.3628C65.8443 42.3628 66.547 42.6439 67.082 43.2061C67.617 43.7591 67.8844 44.5616 67.8844 45.6134V49.952H66.6468V45.7222C66.6468 44.9787 66.4564 44.4074 66.0756 44.0085C65.6947 43.6095 65.1779 43.4101 64.5251 43.4101C63.845 43.4101 63.301 43.6322 62.893 44.0765C62.485 44.5117 62.281 45.1509 62.281 45.9942V49.952H61.0433V42.4852H62.281V44.2533C62.4714 43.6458 62.8069 43.1789 63.2874 42.8524C63.777 42.526 64.3392 42.3628 64.9739 42.3628Z" fill="white"/>
<path d="M75.4951 42.39C76.2204 42.39 76.8325 42.5714 77.3312 42.934C77.8389 43.2967 78.1925 43.7818 78.392 44.3893V42.4852H79.6297V49.952H78.392V48.0479C78.1925 48.6554 77.8389 49.1405 77.3312 49.5032C76.8325 49.8658 76.2204 50.0472 75.4951 50.0472C74.8332 50.0472 74.2438 49.893 73.727 49.5848C73.2102 49.2765 72.8021 48.8367 72.5029 48.2655C72.2128 47.6852 72.0677 47.0052 72.0677 46.2254C72.0677 45.4456 72.2128 44.7656 72.5029 44.1853C72.8021 43.605 73.2102 43.1607 73.727 42.8524C74.2438 42.5442 74.8332 42.39 75.4951 42.39ZM75.8487 43.4917C75.0871 43.4917 74.475 43.7365 74.0126 44.2261C73.5593 44.7067 73.3326 45.3731 73.3326 46.2254C73.3326 47.0777 73.5593 47.7487 74.0126 48.2383C74.475 48.7189 75.0871 48.9591 75.8487 48.9591C76.3383 48.9591 76.7735 48.8458 77.1544 48.6191C77.5442 48.3924 77.848 48.0751 78.0656 47.6671C78.2832 47.25 78.392 46.7694 78.392 46.2254C78.392 45.6814 78.2832 45.2008 78.0656 44.7837C77.848 44.3666 77.5442 44.0493 77.1544 43.8317C76.7735 43.605 76.3383 43.4917 75.8487 43.4917Z" fill="white"/>
<path d="M88.1822 42.3628C89.0526 42.3628 89.7553 42.6439 90.2903 43.2061C90.8252 43.7591 91.0927 44.5616 91.0927 45.6134V49.952H89.855V45.7222C89.855 44.9787 89.6646 44.4074 89.2838 44.0085C88.903 43.6095 88.3862 43.4101 87.7333 43.4101C87.0533 43.4101 86.5093 43.6322 86.1013 44.0765C85.6932 44.5117 85.4892 45.1509 85.4892 45.9942V49.952H84.2516V42.4852H85.4892V44.2533C85.6796 43.6458 86.0151 43.1789 86.4957 42.8524C86.9853 42.526 87.5475 42.3628 88.1822 42.3628Z" fill="white"/>
<path d="M98.9482 42.39C99.9002 42.39 100.689 42.6439 101.315 43.1517C101.94 43.6594 102.326 44.3394 102.471 45.1918H101.165C101.074 44.6568 100.825 44.2397 100.417 43.9405C100.018 43.6322 99.5194 43.4781 98.921 43.4781C98.4857 43.4781 98.0868 43.5778 97.7241 43.7773C97.3705 43.9768 97.0849 44.285 96.8672 44.7021C96.6496 45.1101 96.5408 45.6179 96.5408 46.2254C96.5408 46.8329 96.6496 47.3452 96.8672 47.7623C97.0849 48.1703 97.3705 48.474 97.7241 48.6735C98.0868 48.873 98.4857 48.9727 98.921 48.9727C99.5194 48.9727 100.018 48.8186 100.417 48.5103C100.825 48.202 101.074 47.7804 101.165 47.2455H102.471C102.326 48.1068 101.94 48.7914 101.315 49.2992C100.689 49.7978 99.9002 50.0472 98.9482 50.0472C98.2318 50.0472 97.5972 49.893 97.0441 49.5848C96.491 49.2765 96.0557 48.8367 95.7384 48.2655C95.4301 47.6852 95.276 47.0052 95.276 46.2254C95.276 45.4456 95.4301 44.7656 95.7384 44.1853C96.0557 43.605 96.491 43.1607 97.0441 42.8524C97.5972 42.5442 98.2318 42.39 98.9482 42.39Z" fill="white"/>
<path d="M113.611 45.8038C113.611 46.0667 113.593 46.2934 113.557 46.4838H107.586C107.613 47.3361 107.853 47.9754 108.307 48.4015C108.769 48.8277 109.331 49.0407 109.993 49.0407C110.592 49.0407 111.09 48.8911 111.489 48.5919C111.897 48.2836 112.147 47.8756 112.237 47.3679H113.557C113.466 47.8847 113.262 48.3471 112.945 48.7551C112.636 49.1631 112.233 49.4805 111.734 49.7072C111.235 49.9339 110.673 50.0472 110.048 50.0472C109.331 50.0472 108.697 49.893 108.143 49.5848C107.59 49.2765 107.155 48.8367 106.838 48.2655C106.53 47.6852 106.375 47.0052 106.375 46.2254C106.375 45.4456 106.53 44.7656 106.838 44.1853C107.155 43.605 107.59 43.1607 108.143 42.8524C108.697 42.5442 109.331 42.39 110.048 42.39C110.773 42.39 111.403 42.5442 111.938 42.8524C112.482 43.1607 112.895 43.5733 113.176 44.0901C113.466 44.6069 113.611 45.1782 113.611 45.8038ZM112.36 45.8854C112.387 45.3323 112.296 44.8699 112.088 44.4981C111.879 44.1264 111.594 43.8498 111.231 43.6685C110.868 43.4871 110.474 43.3965 110.048 43.3965C109.368 43.3965 108.796 43.6095 108.334 44.0357C107.871 44.4528 107.622 45.0693 107.586 45.8854H112.36Z" fill="white"/>
<defs>
<filter id="filter0_d" x="0" y="0" width="39.991" height="54.6927" filterUnits="userSpaceOnUse" color-interpolation-filters="sRGB">
<feFlood flood-opacity="0" result="BackgroundImageFix"/>
<feColorMatrix in="SourceAlpha" type="matrix" values="0 0 0 0 0 0 0 0 0 0 0 0 0 0 0 0 0 0 127 0"/>
<feOffset/>
<feGaussianBlur stdDeviation="5"/>
<feColorMatrix type="matrix" values="0 0 0 0 0.076875 0 0 0 0 0.573338 0 0 0 0 0.683333 0 0 0 0.4 0"/>
<feBlend mode="normal" in2="BackgroundImageFix" result="effect1_dropShadow"/>
<feBlend mode="normal" in="SourceGraphic" in2="effect1_dropShadow" result="shape"/>
</filter>
<filter id="filter1_d" x="0" y="0" width="39.991" height="49.3761" filterUnits="userSpaceOnUse" color-interpolation-filters="sRGB">
<feFlood flood-opacity="0" result="BackgroundImageFix"/>
<feColorMatrix in="SourceAlpha" type="matrix" values="0 0 0 0 0 0 0 0 0 0 0 0 0 0 0 0 0 0 127 0"/>
<feOffset/>
<feGaussianBlur stdDeviation="5"/>
<feColorMatrix type="matrix" values="0 0 0 0 0 0 0 0 0 0.52 0 0 0 0 1 0 0 0 0.85 0"/>
<feBlend mode="normal" in2="BackgroundImageFix" result="effect1_dropShadow"/>
<feBlend mode="normal" in="SourceGraphic" in2="effect1_dropShadow" result="shape"/>
</filter>
<filter id="filter2_d" x="0" y="0" width="39.4925" height="43.3146" filterUnits="userSpaceOnUse" color-interpolation-filters="sRGB">
<feFlood flood-opacity="0" result="BackgroundImageFix"/>
<feColorMatrix in="SourceAlpha" type="matrix" values="0 0 0 0 0 0 0 0 0 0 0 0 0 0 0 0 0 0 127 0"/>
<feOffset/>
<feGaussianBlur stdDeviation="5"/>
<feColorMatrix type="matrix" values="0 0 0 0 0.168627 0 0 0 0 0.823529 0 0 0 0 0.968627 0 0 0 0.85 0"/>
<feBlend mode="normal" in2="BackgroundImageFix" result="effect1_dropShadow"/>
<feBlend mode="normal" in="SourceGraphic" in2="effect1_dropShadow" result="shape"/>
</filter>
<filter id="filter3_d" x="1.7002" y="2.55011" width="32.7506" height="35.7258" filterUnits="userSpaceOnUse" color-interpolation-filters="sRGB">
<feFlood flood-opacity="0" result="BackgroundImageFix"/>
<feColorMatrix in="SourceAlpha" type="matrix" values="0 0 0 0 0 0 0 0 0 0 0 0 0 0 0 0 0 0 127 0"/>
<feOffset/>
<feGaussianBlur stdDeviation="5"/>
<feColorMatrix type="matrix" values="0 0 0 0 0.168627 0 0 0 0 0.823529 0 0 0 0 0.968627 0 0 0 0.4 0"/>
<feBlend mode="normal" in2="BackgroundImageFix" result="effect1_dropShadow"/>
<feBlend mode="normal" in="SourceGraphic" in2="effect1_dropShadow" result="shape"/>
</filter>
<filter id="filter4_d" x="4.18115" y="5.37567" width="24.4214" height="26.5558" filterUnits="userSpaceOnUse" color-interpolation-filters="sRGB">
<feFlood flood-opacity="0" result="BackgroundImageFix"/>
<feColorMatrix in="SourceAlpha" type="matrix" values="0 0 0 0 0 0 0 0 0 0 0 0 0 0 0 0 0 0 127 0"/>
<feOffset/>
<feGaussianBlur stdDeviation="5"/>
<feColorMatrix type="matrix" values="0 0 0 0 0.168627 0 0 0 0 0.823529 0 0 0 0 0.968627 0 0 0 0.4 0"/>
<feBlend mode="normal" in2="BackgroundImageFix" result="effect1_dropShadow"/>
<feBlend mode="normal" in="SourceGraphic" in2="effect1_dropShadow" result="shape"/>
</filter>
<filter id="filter5_d" x="9.78809" y="0" width="30.203" height="54.7198" filterUnits="userSpaceOnUse" color-interpolation-filters="sRGB">
<feFlood flood-opacity="0" result="BackgroundImageFix"/>
<feColorMatrix in="SourceAlpha" type="matrix" values="0 0 0 0 0 0 0 0 0 0 0 0 0 0 0 0 0 0 127 0"/>
<feOffset/>
<feGaussianBlur stdDeviation="5"/>
<feColorMatrix type="matrix" values="0 0 0 0 0.168627 0 0 0 0 0.823529 0 0 0 0 0.968627 0 0 0 0.4 0"/>
<feBlend mode="normal" in2="BackgroundImageFix" result="effect1_dropShadow"/>
<feBlend mode="normal" in="SourceGraphic" in2="effect1_dropShadow" result="shape"/>
</filter>
</defs>
</svg>
