<svg width="16" height="16" viewBox="0 0 16 16" fill="none" xmlns="http://www.w3.org/2000/svg">
<g clip-path="url(#clip0)">
<path d="M15.6107 9.11272C15.447 9.0718 15.2833 9.11272 15.1401 9.21502C14.6081 9.66513 13.9943 10.0334 13.3192 10.2789C12.6849 10.5244 11.9893 10.6472 11.2528 10.6472C9.59554 10.6472 8.08153 9.97202 6.99717 8.88766C5.91282 7.80331 5.23765 6.2893 5.23765 4.63207C5.23765 3.93645 5.36041 3.26128 5.565 2.64749C5.79006 1.99279 6.11741 1.39946 6.54706 0.88797C6.7312 0.662915 6.69028 0.335562 6.46523 0.151425C6.32201 0.0491276 6.15833 0.00820847 5.99465 0.0491276C4.25559 0.519698 2.74158 1.56314 1.65723 2.95439C0.613787 4.32518 0 6.02332 0 7.86468C0 10.0948 0.900221 12.1203 2.37331 13.5934C3.8464 15.0665 5.85144 15.9667 8.10199 15.9667C9.98427 15.9667 11.7233 15.312 13.1146 14.2276C14.5263 13.1228 15.5493 11.5474 15.9789 9.74697C16.0608 9.46053 15.8971 9.1741 15.6107 9.11272Z" fill="white"/>
</g>
<defs>
<clipPath id="clip0">
<rect width="16" height="16" fill="white"/>
</clipPath>
</defs>
</svg>
