<svg width="16" height="16" viewBox="0 0 16 16" fill="none" xmlns="http://www.w3.org/2000/svg">
<g clip-path="url(#clip0)">
<path d="M15.6218 9.1337C15.4582 9.09267 15.2946 9.1337 15.1515 9.2363C14.6199 9.68772 14.0065 10.0571 13.3317 10.3033C12.6978 10.5495 12.0026 10.6726 11.2665 10.6726C9.61027 10.6726 8.09716 9.9955 7.01345 8.908C5.92974 7.82049 5.25498 6.30209 5.25498 4.64005C5.25498 3.94241 5.37766 3.26528 5.58213 2.64971C5.80705 1.9931 6.13421 1.39805 6.56361 0.88508C6.74763 0.659371 6.70674 0.331068 6.48182 0.146397C6.33869 0.043802 6.17511 0.00276412 6.01153 0.043802C4.2735 0.515738 2.7604 1.56221 1.67668 2.9575C0.633869 4.33227 0 6.03534 0 7.90257C0 10.1391 0.899685 12.1705 2.3719 13.6479C3.84411 15.1252 5.8684 16.0281 8.09716 16.0281C9.97832 16.0281 11.7163 15.3715 13.1068 14.284C14.5176 13.1759 15.54 11.596 15.9694 9.79031C16.0716 9.48253 15.9081 9.19526 15.6218 9.1337ZM12.4933 13.4222C11.3074 14.366 9.79429 14.9406 8.13806 14.9406C6.19556 14.9406 4.43708 14.1403 3.16934 12.8682C1.90161 11.596 1.10416 9.83135 1.10416 7.88205C1.10416 6.26105 1.63579 4.78368 2.55592 3.59358C3.18979 2.77282 3.98724 2.0957 4.90737 1.62376C4.80513 1.84947 4.7029 2.07518 4.62111 2.32141C4.35529 3.06009 4.23261 3.83981 4.23261 4.66057C4.23261 6.60987 5.03006 8.39502 6.29779 9.6672C7.56553 10.9394 9.34445 11.7396 11.287 11.7396C12.1457 11.7396 12.9636 11.596 13.7202 11.3087C13.986 11.2061 14.2518 11.1035 14.4972 10.9804C14.0065 11.9243 13.3317 12.7656 12.4933 13.4222Z" fill="white"/>
</g>
<defs>
<clipPath id="clip0">
<rect width="16" height="16" fill="white"/>
</clipPath>
</defs>
</svg>
