<svg width="178" height="146" viewBox="0 0 178 146" fill="none" xmlns="http://www.w3.org/2000/svg">
<path fill-rule="evenodd" clip-rule="evenodd" d="M100.868 -36.7795C125.055 -35.6727 149.727 -60.4927 170.75 -48.4956C191.501 -36.6538 187.361 -5.5898 195.1 16.995C203.01 40.0796 223.638 61.7709 216.536 85.1161C209.425 108.488 183.481 120.89 160.75 129.901C141.729 137.441 121.251 129.141 100.868 130.968C77.3767 133.074 52.168 154.588 32.634 141.385C13.2428 128.278 23.3386 97.2804 17.5141 74.6291C12.2179 54.0326 -1.31298 36.0924 0.103252 14.8746C1.80258 -10.5846 3.44686 -43.4613 26.1739 -55.1116C49.5563 -67.0978 74.614 -37.9809 100.868 -36.7795Z" fill="url(#paint0_linear)"/>
<defs>
<linearGradient id="paint0_linear" x1="1.81408e-06" y1="-5.64814" x2="251.36" y2="108.628" gradientUnits="userSpaceOnUse">
<stop stop-color="#5AC9E5"/>
<stop offset="1" stop-color="#194ECA"/>
</linearGradient>
</defs>
</svg>
