<svg width="122" height="72" viewBox="0 0 122 72" fill="none" xmlns="http://www.w3.org/2000/svg">
<path fill-rule="evenodd" clip-rule="evenodd" d="M4.86836 21.2205C29.0554 22.3273 53.7273 -2.49274 74.7504 9.50442C95.5014 21.3462 91.3606 52.4102 99.0999 74.995C107.01 98.0796 127.638 119.771 120.536 143.116C113.425 166.488 87.4806 178.89 64.7498 187.901C45.7286 195.441 25.2509 187.141 4.86836 188.968C-18.6233 191.074 -43.832 212.588 -63.366 199.385C-82.7572 186.278 -72.6614 155.28 -78.4859 132.629C-83.7821 112.033 -97.313 94.0924 -95.8967 72.8746C-94.1974 47.4154 -92.5531 14.5387 -69.8261 2.88843C-46.4437 -9.09781 -21.386 20.0191 4.86836 21.2205Z" fill="url(#paint0_linear)"/>
<defs>
<linearGradient id="paint0_linear" x1="-96" y1="52.3519" x2="155.36" y2="166.628" gradientUnits="userSpaceOnUse">
<stop stop-color="#5AC9E5"/>
<stop offset="1" stop-color="#194ECA"/>
</linearGradient>
</defs>
</svg>
