<svg width="60" height="60" viewBox="0 0 60 60" fill="none" xmlns="http://www.w3.org/2000/svg">
<circle cx="30" cy="30" r="30" fill="#F6F9FA"/>
<path d="M53.0447 20.7592H52.6416V19.5287L52.1897 20.7592H51.8966L51.4447 19.5287H51.4203V20.7592H51.0103V19.0234H51.5948L52.0362 20.165L52.4759 19.0234H53.0499L53.0447 20.7592ZM50.7852 19.3575H50.2862V20.7592H49.8501V19.3575H49.3511V19.0217H50.7852V19.3575Z" fill="#52C1E7"/>
<path d="M39.7429 18.9563C33.6573 18.9563 30.187 22.198 28.9448 26.138C27.7025 22.198 24.234 18.9563 18.1449 18.9563C10.3198 18.9563 6.81818 24.3149 6.81818 29.6264C6.81818 34.938 10.3198 40.2949 18.1449 40.2949C23.742 40.2949 27.125 37.5552 28.6011 34.0516V41.7739L33.3118 47.9349V38.6917C34.9938 39.6989 37.1293 40.2949 39.7499 40.2949C47.5767 40.2949 51.0784 34.9363 51.0784 29.6264C51.0784 24.3165 47.5697 18.9563 39.7429 18.9563ZM18.1449 35.8982C14.2943 35.8982 11.8151 33.4372 11.8151 29.6264C11.8151 25.8157 14.3031 23.3529 18.1537 23.3529C22.0043 23.3529 24.4643 25.8157 24.4643 29.6264C24.4643 33.4372 21.9781 35.8982 18.1449 35.8982ZM39.7429 35.8982C35.8923 35.8982 33.4043 33.4355 33.4043 29.6264C33.4043 25.8173 35.8923 23.3529 39.7429 23.3529C43.5935 23.3529 46.0536 25.8157 46.0536 29.6264C46.0536 33.4372 43.5691 35.8982 39.7429 35.8982Z" fill="#52C1E7"/>
</svg>
