<svg width="520" height="600" viewBox="0 0 520 600" fill="none" xmlns="http://www.w3.org/2000/svg">
<rect width="520" height="600" rx="16" fill="white" fill-opacity="0.6"/>
<mask id="mask0" mask-type="alpha" maskUnits="userSpaceOnUse" x="65" y="75" width="390" height="390">
<path fill-rule="evenodd" clip-rule="evenodd" d="M260 465C367.696 465 455 377.696 455 270C455 162.304 367.696 75 260 75C152.304 75 65 162.304 65 270C65 377.696 152.304 465 260 465ZM260.87 343.125C301.736 343.125 334.865 309.996 334.865 269.129C334.865 228.263 301.736 195.134 260.87 195.134C220.003 195.134 186.874 228.263 186.874 269.129C186.874 309.996 220.003 343.125 260.87 343.125Z" fill="#C4C4C4"/>
</mask>
<g mask="url(#mask0)">
<path d="M260.001 75.4812C367.221 75.4812 454.001 162.262 454.001 269.481C454.001 376.701 367.221 463.481 260.001 463.481C152.955 463.481 66.001 376.701 66.001 269.654L260.001 269.481V75.4812Z" fill="url(#paint0_linear)" stroke="white" stroke-linejoin="round"/>
<path d="M65.999 269.481C65.999 241.073 72.2347 213.013 84.3597 187.204L259.999 269.481H65.999Z" fill="url(#paint1_linear)" stroke="white" stroke-linejoin="round"/>
<path d="M84.3594 187.03C89.5558 175.945 95.7915 165.552 102.893 155.679L259.999 269.48L84.3594 187.03Z" fill="url(#paint2_linear)" stroke="white" stroke-linejoin="round"/>
<path d="M103.069 155.506C127.146 122.422 160.923 97.8252 199.896 85.1805L260.002 269.481L103.069 155.506Z" fill="url(#paint3_linear)" stroke="white" stroke-linejoin="round"/>
<path d="M200.068 85.0073C219.295 78.7715 239.561 75.4805 259.827 75.4805L260.174 269.48L200.068 85.0073Z" fill="url(#paint4_linear)" stroke="white" stroke-linejoin="round"/>
</g>
<path d="M71.5752 544V534.006H72.7373V542.947H77.1465V544H71.5752ZM85.1855 536.918C85.1855 537.93 84.8392 538.709 84.1465 539.256C83.4583 539.798 82.4717 540.069 81.1865 540.069H80.0107V544H78.8486V534.006H81.4395C83.9368 534.006 85.1855 534.977 85.1855 536.918ZM80.0107 539.071H81.0566C82.0866 539.071 82.8317 538.905 83.292 538.572C83.7523 538.24 83.9824 537.706 83.9824 536.973C83.9824 536.312 83.766 535.82 83.333 535.496C82.9001 535.173 82.2256 535.011 81.3096 535.011H80.0107V539.071ZM94.168 536.371C94.5007 536.371 94.7992 536.398 95.0635 536.453L94.9062 537.506C94.5964 537.438 94.3229 537.403 94.0859 537.403C93.4798 537.403 92.9603 537.649 92.5273 538.142C92.099 538.634 91.8848 539.247 91.8848 539.98V544H90.75V536.508H91.6865L91.8164 537.896H91.8711C92.1491 537.408 92.484 537.032 92.876 536.768C93.2679 536.503 93.6986 536.371 94.168 536.371ZM99.6299 544.137C98.5225 544.137 97.6475 543.799 97.0049 543.125C96.3669 542.451 96.0479 541.514 96.0479 540.315C96.0479 539.108 96.3441 538.148 96.9365 537.438C97.5335 536.727 98.3333 536.371 99.3359 536.371C100.275 536.371 101.018 536.681 101.564 537.301C102.111 537.916 102.385 538.729 102.385 539.741V540.459H97.2236C97.2464 541.339 97.4674 542.006 97.8867 542.462C98.3105 542.918 98.9053 543.146 99.6709 543.146C100.478 543.146 101.275 542.977 102.063 542.64V543.651C101.662 543.825 101.282 543.948 100.922 544.021C100.566 544.098 100.136 544.137 99.6299 544.137ZM99.3223 537.321C98.7207 537.321 98.2399 537.517 97.8799 537.909C97.5244 538.301 97.3148 538.843 97.251 539.536H101.168C101.168 538.821 101.008 538.274 100.689 537.896C100.37 537.513 99.9147 537.321 99.3223 537.321ZM110.444 544L109.07 539.604C108.984 539.336 108.822 538.725 108.585 537.772H108.53C108.348 538.57 108.188 539.185 108.052 539.618L106.637 544H105.324L103.28 536.508H104.47C104.953 538.39 105.32 539.823 105.57 540.808C105.826 541.792 105.971 542.455 106.008 542.797H106.062C106.113 542.537 106.192 542.202 106.302 541.792C106.416 541.377 106.514 541.049 106.596 540.808L107.97 536.508H109.2L110.54 540.808C110.795 541.591 110.968 542.25 111.06 542.783H111.114C111.132 542.619 111.18 542.366 111.258 542.024C111.34 541.683 111.816 539.844 112.687 536.508H113.862L111.791 544H110.444ZM119.83 544L119.604 542.934H119.55C119.176 543.403 118.802 543.722 118.429 543.891C118.06 544.055 117.597 544.137 117.041 544.137C116.298 544.137 115.715 543.945 115.291 543.562C114.872 543.18 114.662 542.635 114.662 541.929C114.662 540.416 115.872 539.623 118.292 539.55L119.563 539.509V539.044C119.563 538.456 119.436 538.023 119.181 537.745C118.93 537.463 118.527 537.321 117.971 537.321C117.346 537.321 116.64 537.513 115.852 537.896L115.503 537.027C115.872 536.827 116.275 536.67 116.713 536.556C117.155 536.442 117.597 536.385 118.039 536.385C118.932 536.385 119.593 536.583 120.021 536.979C120.454 537.376 120.671 538.012 120.671 538.887V544H119.83ZM117.267 543.2C117.973 543.2 118.527 543.007 118.928 542.619C119.333 542.232 119.536 541.689 119.536 540.992V540.315L118.401 540.363C117.499 540.395 116.847 540.536 116.446 540.787C116.05 541.033 115.852 541.418 115.852 541.942C115.852 542.353 115.975 542.665 116.221 542.879C116.471 543.093 116.82 543.2 117.267 543.2ZM126.434 536.371C126.766 536.371 127.065 536.398 127.329 536.453L127.172 537.506C126.862 537.438 126.589 537.403 126.352 537.403C125.745 537.403 125.226 537.649 124.793 538.142C124.365 538.634 124.15 539.247 124.15 539.98V544H123.016V536.508H123.952L124.082 537.896H124.137C124.415 537.408 124.75 537.032 125.142 536.768C125.534 536.503 125.964 536.371 126.434 536.371ZM133.83 542.995H133.769C133.244 543.756 132.461 544.137 131.417 544.137C130.437 544.137 129.674 543.802 129.127 543.132C128.585 542.462 128.313 541.509 128.313 540.274C128.313 539.039 128.587 538.08 129.134 537.396C129.681 536.713 130.442 536.371 131.417 536.371C132.433 536.371 133.213 536.74 133.755 537.479H133.844L133.796 536.938L133.769 536.412V533.363H134.903V544H133.98L133.83 542.995ZM131.561 543.187C132.335 543.187 132.896 542.977 133.242 542.558C133.593 542.134 133.769 541.452 133.769 540.514V540.274C133.769 539.213 133.591 538.456 133.235 538.005C132.884 537.549 132.322 537.321 131.547 537.321C130.882 537.321 130.371 537.581 130.016 538.101C129.665 538.616 129.489 539.345 129.489 540.288C129.489 541.245 129.665 541.967 130.016 542.455C130.367 542.943 130.882 543.187 131.561 543.187ZM142.149 541.956C142.149 542.653 141.89 543.191 141.37 543.569C140.851 543.948 140.121 544.137 139.183 544.137C138.189 544.137 137.414 543.979 136.858 543.665V542.612C137.218 542.795 137.604 542.938 138.014 543.043C138.428 543.148 138.827 543.2 139.21 543.2C139.802 543.2 140.258 543.107 140.577 542.92C140.896 542.729 141.056 542.439 141.056 542.052C141.056 541.76 140.928 541.512 140.673 541.307C140.422 541.097 139.93 540.851 139.196 540.568C138.499 540.309 138.002 540.083 137.706 539.892C137.414 539.696 137.196 539.475 137.05 539.229C136.909 538.982 136.838 538.688 136.838 538.347C136.838 537.736 137.086 537.255 137.583 536.904C138.08 536.549 138.761 536.371 139.627 536.371C140.434 536.371 141.222 536.535 141.992 536.863L141.589 537.786C140.837 537.476 140.156 537.321 139.545 537.321C139.007 537.321 138.602 537.406 138.328 537.574C138.055 537.743 137.918 537.975 137.918 538.271C137.918 538.472 137.968 538.643 138.068 538.784C138.173 538.925 138.34 539.06 138.567 539.188C138.795 539.315 139.233 539.5 139.88 539.741C140.769 540.065 141.368 540.391 141.678 540.719C141.992 541.047 142.149 541.459 142.149 541.956ZM74.8975 563L79.04 554.052H73.5918V553.006H80.2432V553.915L76.1553 563H74.8975ZM84.7686 556.896C85.8213 556.896 86.6484 557.158 87.25 557.682C87.8561 558.201 88.1592 558.914 88.1592 559.821C88.1592 560.856 87.8288 561.667 87.168 562.255C86.5117 562.843 85.6048 563.137 84.4473 563.137C83.3216 563.137 82.4626 562.957 81.8701 562.597V561.503C82.1891 561.708 82.5856 561.87 83.0596 561.988C83.5335 562.102 84.0007 562.159 84.4609 562.159C85.263 562.159 85.8851 561.97 86.3271 561.592C86.7738 561.214 86.9971 560.667 86.9971 559.951C86.9971 558.557 86.1426 557.859 84.4336 557.859C84.0007 557.859 83.4219 557.925 82.6973 558.058L82.1094 557.682L82.4854 553.006H87.4551V554.052H83.4561L83.2031 557.053C83.7272 556.948 84.249 556.896 84.7686 556.896ZM93.1836 559.767V558.728H96.54V559.767H93.1836ZM102.706 563L106.849 554.052H101.4V553.006H108.052V553.915L103.964 563H102.706ZM112.577 556.896C113.63 556.896 114.457 557.158 115.059 557.682C115.665 558.201 115.968 558.914 115.968 559.821C115.968 560.856 115.637 561.667 114.977 562.255C114.32 562.843 113.413 563.137 112.256 563.137C111.13 563.137 110.271 562.957 109.679 562.597V561.503C109.998 561.708 110.394 561.87 110.868 561.988C111.342 562.102 111.809 562.159 112.27 562.159C113.072 562.159 113.694 561.97 114.136 561.592C114.582 561.214 114.806 560.667 114.806 559.951C114.806 558.557 113.951 557.859 112.242 557.859C111.809 557.859 111.23 557.925 110.506 558.058L109.918 557.682L110.294 553.006H115.264V554.052H111.265L111.012 557.053C111.536 556.948 112.058 556.896 112.577 556.896ZM117.82 562.275C117.82 561.97 117.889 561.74 118.025 561.585C118.167 561.425 118.367 561.346 118.627 561.346C118.891 561.346 119.096 561.425 119.242 561.585C119.393 561.74 119.468 561.97 119.468 562.275C119.468 562.572 119.393 562.799 119.242 562.959C119.092 563.118 118.887 563.198 118.627 563.198C118.395 563.198 118.201 563.128 118.046 562.986C117.896 562.84 117.82 562.604 117.82 562.275ZM127.821 557.989C127.821 559.716 127.548 561.006 127.001 561.858C126.459 562.711 125.627 563.137 124.506 563.137C123.43 563.137 122.612 562.701 122.052 561.831C121.491 560.956 121.211 559.675 121.211 557.989C121.211 556.248 121.482 554.956 122.024 554.113C122.567 553.27 123.394 552.849 124.506 552.849C125.59 552.849 126.413 553.288 126.974 554.168C127.539 555.048 127.821 556.321 127.821 557.989ZM122.359 557.989C122.359 559.443 122.53 560.503 122.872 561.168C123.214 561.829 123.758 562.159 124.506 562.159C125.262 562.159 125.809 561.824 126.146 561.154C126.488 560.48 126.659 559.425 126.659 557.989C126.659 556.554 126.488 555.503 126.146 554.838C125.809 554.168 125.262 553.833 124.506 553.833C123.758 553.833 123.214 554.163 122.872 554.824C122.53 555.48 122.359 556.535 122.359 557.989ZM130.18 555.986C130.18 556.761 130.264 557.342 130.433 557.729C130.601 558.117 130.875 558.311 131.253 558.311C132 558.311 132.374 557.536 132.374 555.986C132.374 554.446 132 553.676 131.253 553.676C130.875 553.676 130.601 553.867 130.433 554.25C130.264 554.633 130.18 555.212 130.18 555.986ZM133.311 555.986C133.311 557.025 133.135 557.812 132.784 558.345C132.438 558.873 131.927 559.138 131.253 559.138C130.615 559.138 130.118 558.867 129.763 558.324C129.412 557.782 129.236 557.003 129.236 555.986C129.236 554.952 129.405 554.173 129.742 553.648C130.084 553.124 130.588 552.862 131.253 552.862C131.914 552.862 132.422 553.133 132.777 553.676C133.133 554.218 133.311 554.988 133.311 555.986ZM136.195 559.992C136.195 560.771 136.28 561.355 136.448 561.742C136.617 562.125 136.893 562.316 137.275 562.316C137.658 562.316 137.941 562.127 138.123 561.749C138.305 561.366 138.396 560.781 138.396 559.992C138.396 559.213 138.305 558.636 138.123 558.263C137.941 557.884 137.658 557.695 137.275 557.695C136.893 557.695 136.617 557.884 136.448 558.263C136.28 558.636 136.195 559.213 136.195 559.992ZM139.333 559.992C139.333 561.027 139.158 561.811 138.807 562.344C138.46 562.872 137.95 563.137 137.275 563.137C136.628 563.137 136.129 562.866 135.778 562.323C135.432 561.781 135.259 561.004 135.259 559.992C135.259 558.958 135.427 558.178 135.765 557.654C136.106 557.13 136.61 556.868 137.275 556.868C137.923 556.868 138.426 557.137 138.786 557.675C139.151 558.208 139.333 558.98 139.333 559.992ZM137.569 553.006L132.025 563H131.021L136.564 553.006H137.569Z" fill="#252423"/>
<path d="M49 539C49 543.418 52.5817 547 57 547C61.4183 547 65 543.418 65 539C65 534.582 61.4183 531 57 531C52.5817 531 49 534.582 49 539Z" fill="url(#paint5_linear)"/>
<path d="M181.814 544L180.57 540.821H176.564L175.334 544H174.158L178.109 533.965H179.087L183.018 544H181.814ZM180.208 539.775L179.046 536.679C178.896 536.287 178.741 535.806 178.581 535.236C178.481 535.674 178.337 536.155 178.15 536.679L176.975 539.775H180.208ZM185.355 544H184.221V536.508H185.355V544ZM184.125 534.478C184.125 534.218 184.189 534.029 184.316 533.91C184.444 533.787 184.604 533.726 184.795 533.726C184.977 533.726 185.134 533.787 185.267 533.91C185.399 534.033 185.465 534.222 185.465 534.478C185.465 534.733 185.399 534.924 185.267 535.052C185.134 535.175 184.977 535.236 184.795 535.236C184.604 535.236 184.444 535.175 184.316 535.052C184.189 534.924 184.125 534.733 184.125 534.478ZM191.18 536.371C191.512 536.371 191.811 536.398 192.075 536.453L191.918 537.506C191.608 537.438 191.335 537.403 191.098 537.403C190.492 537.403 189.972 537.649 189.539 538.142C189.111 538.634 188.896 539.247 188.896 539.98V544H187.762V536.508H188.698L188.828 537.896H188.883C189.161 537.408 189.496 537.032 189.888 536.768C190.28 536.503 190.71 536.371 191.18 536.371ZM198.576 542.995H198.515C197.991 543.756 197.207 544.137 196.163 544.137C195.183 544.137 194.42 543.802 193.873 543.132C193.331 542.462 193.06 541.509 193.06 540.274C193.06 539.039 193.333 538.08 193.88 537.396C194.427 536.713 195.188 536.371 196.163 536.371C197.179 536.371 197.959 536.74 198.501 537.479H198.59L198.542 536.938L198.515 536.412V533.363H199.649V544H198.727L198.576 542.995ZM196.307 543.187C197.081 543.187 197.642 542.977 197.988 542.558C198.339 542.134 198.515 541.452 198.515 540.514V540.274C198.515 539.213 198.337 538.456 197.981 538.005C197.631 537.549 197.068 537.321 196.293 537.321C195.628 537.321 195.117 537.581 194.762 538.101C194.411 538.616 194.235 539.345 194.235 540.288C194.235 541.245 194.411 541.967 194.762 542.455C195.113 542.943 195.628 543.187 196.307 543.187ZM205.48 536.371C205.813 536.371 206.112 536.398 206.376 536.453L206.219 537.506C205.909 537.438 205.635 537.403 205.398 537.403C204.792 537.403 204.273 537.649 203.84 538.142C203.411 538.634 203.197 539.247 203.197 539.98V544H202.062V536.508H202.999L203.129 537.896H203.184C203.462 537.408 203.797 537.032 204.188 536.768C204.58 536.503 205.011 536.371 205.48 536.371ZM214.244 540.247C214.244 541.468 213.937 542.423 213.321 543.111C212.706 543.795 211.856 544.137 210.771 544.137C210.102 544.137 209.507 543.979 208.987 543.665C208.468 543.351 208.067 542.899 207.784 542.312C207.502 541.724 207.36 541.035 207.36 540.247C207.36 539.026 207.666 538.076 208.276 537.396C208.887 536.713 209.735 536.371 210.819 536.371C211.868 536.371 212.699 536.72 213.314 537.417C213.934 538.114 214.244 539.058 214.244 540.247ZM208.536 540.247C208.536 541.204 208.728 541.933 209.11 542.435C209.493 542.936 210.056 543.187 210.799 543.187C211.542 543.187 212.104 542.938 212.487 542.441C212.875 541.94 213.068 541.209 213.068 540.247C213.068 539.295 212.875 538.572 212.487 538.08C212.104 537.583 211.537 537.335 210.785 537.335C210.042 537.335 209.482 537.579 209.104 538.066C208.725 538.554 208.536 539.281 208.536 540.247ZM219.727 544.137C219.239 544.137 218.792 544.048 218.387 543.87C217.986 543.688 217.648 543.41 217.375 543.036H217.293C217.348 543.474 217.375 543.888 217.375 544.28V547.363H216.24V536.508H217.163L217.32 537.533H217.375C217.667 537.123 218.006 536.827 218.394 536.645C218.781 536.462 219.225 536.371 219.727 536.371C220.72 536.371 221.486 536.711 222.023 537.39C222.566 538.069 222.837 539.021 222.837 540.247C222.837 541.478 222.561 542.435 222.01 543.118C221.463 543.797 220.702 544.137 219.727 544.137ZM219.562 537.335C218.797 537.335 218.243 537.547 217.901 537.971C217.56 538.395 217.384 539.069 217.375 539.994V540.247C217.375 541.3 217.55 542.054 217.901 542.51C218.252 542.961 218.815 543.187 219.59 543.187C220.237 543.187 220.743 542.924 221.107 542.4C221.477 541.876 221.661 541.154 221.661 540.233C221.661 539.299 221.477 538.584 221.107 538.087C220.743 537.586 220.228 537.335 219.562 537.335ZM175.3 563L179.442 554.052H173.994V553.006H180.646V553.915L176.558 563H175.3ZM185.574 559.767V558.728H188.931V559.767H185.574ZM195.097 563L199.239 554.052H193.791V553.006H200.442V553.915L196.354 563H195.097ZM202.199 562.275C202.199 561.97 202.268 561.74 202.404 561.585C202.546 561.425 202.746 561.346 203.006 561.346C203.27 561.346 203.475 561.425 203.621 561.585C203.771 561.74 203.847 561.97 203.847 562.275C203.847 562.572 203.771 562.799 203.621 562.959C203.471 563.118 203.266 563.198 203.006 563.198C202.773 563.198 202.58 563.128 202.425 562.986C202.274 562.84 202.199 562.604 202.199 562.275ZM212.2 557.989C212.2 559.716 211.927 561.006 211.38 561.858C210.838 562.711 210.006 563.137 208.885 563.137C207.809 563.137 206.991 562.701 206.431 561.831C205.87 560.956 205.59 559.675 205.59 557.989C205.59 556.248 205.861 554.956 206.403 554.113C206.946 553.27 207.773 552.849 208.885 552.849C209.969 552.849 210.792 553.288 211.353 554.168C211.918 555.048 212.2 556.321 212.2 557.989ZM206.738 557.989C206.738 559.443 206.909 560.503 207.251 561.168C207.593 561.829 208.137 562.159 208.885 562.159C209.641 562.159 210.188 561.824 210.525 561.154C210.867 560.48 211.038 559.425 211.038 557.989C211.038 556.554 210.867 555.503 210.525 554.838C210.188 554.168 209.641 553.833 208.885 553.833C208.137 553.833 207.593 554.163 207.251 554.824C206.909 555.48 206.738 556.535 206.738 557.989ZM214.559 555.986C214.559 556.761 214.643 557.342 214.812 557.729C214.98 558.117 215.254 558.311 215.632 558.311C216.379 558.311 216.753 557.536 216.753 555.986C216.753 554.446 216.379 553.676 215.632 553.676C215.254 553.676 214.98 553.867 214.812 554.25C214.643 554.633 214.559 555.212 214.559 555.986ZM217.689 555.986C217.689 557.025 217.514 557.812 217.163 558.345C216.817 558.873 216.306 559.138 215.632 559.138C214.994 559.138 214.497 558.867 214.142 558.324C213.791 557.782 213.615 557.003 213.615 555.986C213.615 554.952 213.784 554.173 214.121 553.648C214.463 553.124 214.966 552.862 215.632 552.862C216.293 552.862 216.801 553.133 217.156 553.676C217.512 554.218 217.689 554.988 217.689 555.986ZM220.574 559.992C220.574 560.771 220.659 561.355 220.827 561.742C220.996 562.125 221.271 562.316 221.654 562.316C222.037 562.316 222.32 562.127 222.502 561.749C222.684 561.366 222.775 560.781 222.775 559.992C222.775 559.213 222.684 558.636 222.502 558.263C222.32 557.884 222.037 557.695 221.654 557.695C221.271 557.695 220.996 557.884 220.827 558.263C220.659 558.636 220.574 559.213 220.574 559.992ZM223.712 559.992C223.712 561.027 223.536 561.811 223.186 562.344C222.839 562.872 222.329 563.137 221.654 563.137C221.007 563.137 220.508 562.866 220.157 562.323C219.811 561.781 219.638 561.004 219.638 559.992C219.638 558.958 219.806 558.178 220.144 557.654C220.485 557.13 220.989 556.868 221.654 556.868C222.301 556.868 222.805 557.137 223.165 557.675C223.53 558.208 223.712 558.98 223.712 559.992ZM221.948 553.006L216.404 563H215.399L220.943 553.006H221.948Z" fill="#252423"/>
<path d="M152.891 539C152.891 543.418 156.472 547 160.891 547C165.309 547 168.891 543.418 168.891 539C168.891 534.582 165.309 531 160.891 531C156.472 531 152.891 534.582 152.891 539Z" fill="url(#paint6_linear)"/>
<path d="M262.285 544V534.006H263.447V544H262.285ZM267.357 544H266.195V534.006H271.767V535.038H267.357V538.695H271.5V539.728H267.357V544ZM282.103 538.989C282.103 540.589 281.697 541.847 280.886 542.763C280.079 543.679 278.956 544.137 277.516 544.137C276.044 544.137 274.907 543.688 274.104 542.79C273.307 541.888 272.908 540.616 272.908 538.976C272.908 537.349 273.309 536.089 274.111 535.195C274.913 534.298 276.053 533.849 277.529 533.849C278.965 533.849 280.086 534.304 280.893 535.216C281.699 536.127 282.103 537.385 282.103 538.989ZM274.139 538.989C274.139 540.343 274.426 541.37 275 542.072C275.579 542.77 276.417 543.118 277.516 543.118C278.623 543.118 279.459 542.77 280.024 542.072C280.59 541.375 280.872 540.347 280.872 538.989C280.872 537.645 280.59 536.626 280.024 535.934C279.464 535.236 278.632 534.888 277.529 534.888C276.422 534.888 275.579 535.239 275 535.94C274.426 536.638 274.139 537.654 274.139 538.989ZM253.275 555.357C253.275 555.995 253.095 556.517 252.735 556.923C252.38 557.328 251.874 557.6 251.218 557.736V557.791C252.02 557.891 252.615 558.146 253.002 558.557C253.389 558.967 253.583 559.505 253.583 560.17C253.583 561.122 253.253 561.856 252.592 562.371C251.931 562.882 250.992 563.137 249.775 563.137C249.247 563.137 248.761 563.096 248.319 563.014C247.882 562.936 247.456 562.797 247.041 562.597V561.517C247.474 561.731 247.934 561.895 248.422 562.009C248.914 562.118 249.379 562.173 249.816 562.173C251.544 562.173 252.407 561.496 252.407 560.143C252.407 558.93 251.455 558.324 249.55 558.324H248.565V557.347H249.563C250.343 557.347 250.96 557.176 251.416 556.834C251.872 556.488 252.1 556.009 252.1 555.398C252.1 554.911 251.931 554.528 251.594 554.25C251.261 553.972 250.808 553.833 250.233 553.833C249.796 553.833 249.383 553.892 248.996 554.011C248.609 554.129 248.167 554.348 247.67 554.667L247.096 553.901C247.506 553.578 247.978 553.325 248.511 553.143C249.049 552.956 249.614 552.862 250.206 552.862C251.177 552.862 251.931 553.086 252.469 553.532C253.007 553.974 253.275 554.583 253.275 555.357ZM258.621 559.767V558.728H261.978V559.767H258.621ZM273.072 555.357C273.072 555.995 272.892 556.517 272.532 556.923C272.177 557.328 271.671 557.6 271.015 557.736V557.791C271.817 557.891 272.411 558.146 272.799 558.557C273.186 558.967 273.38 559.505 273.38 560.17C273.38 561.122 273.049 561.856 272.389 562.371C271.728 562.882 270.789 563.137 269.572 563.137C269.044 563.137 268.558 563.096 268.116 563.014C267.679 562.936 267.253 562.797 266.838 562.597V561.517C267.271 561.731 267.731 561.895 268.219 562.009C268.711 562.118 269.176 562.173 269.613 562.173C271.34 562.173 272.204 561.496 272.204 560.143C272.204 558.93 271.252 558.324 269.347 558.324H268.362V557.347H269.36C270.14 557.347 270.757 557.176 271.213 556.834C271.669 556.488 271.896 556.009 271.896 555.398C271.896 554.911 271.728 554.528 271.391 554.25C271.058 553.972 270.604 553.833 270.03 553.833C269.593 553.833 269.18 553.892 268.793 554.011C268.406 554.129 267.964 554.348 267.467 554.667L266.893 553.901C267.303 553.578 267.774 553.325 268.308 553.143C268.845 552.956 269.41 552.862 270.003 552.862C270.974 552.862 271.728 553.086 272.266 553.532C272.803 553.974 273.072 554.583 273.072 555.357ZM275.246 562.275C275.246 561.97 275.314 561.74 275.451 561.585C275.592 561.425 275.793 561.346 276.053 561.346C276.317 561.346 276.522 561.425 276.668 561.585C276.818 561.74 276.894 561.97 276.894 562.275C276.894 562.572 276.818 562.799 276.668 562.959C276.518 563.118 276.312 563.198 276.053 563.198C275.82 563.198 275.627 563.128 275.472 562.986C275.321 562.84 275.246 562.604 275.246 562.275ZM285.247 557.989C285.247 559.716 284.974 561.006 284.427 561.858C283.884 562.711 283.053 563.137 281.932 563.137C280.856 563.137 280.038 562.701 279.478 561.831C278.917 560.956 278.637 559.675 278.637 557.989C278.637 556.248 278.908 554.956 279.45 554.113C279.993 553.27 280.82 552.849 281.932 552.849C283.016 552.849 283.839 553.288 284.399 554.168C284.965 555.048 285.247 556.321 285.247 557.989ZM279.785 557.989C279.785 559.443 279.956 560.503 280.298 561.168C280.64 561.829 281.184 562.159 281.932 562.159C282.688 562.159 283.235 561.824 283.572 561.154C283.914 560.48 284.085 559.425 284.085 557.989C284.085 556.554 283.914 555.503 283.572 554.838C283.235 554.168 282.688 553.833 281.932 553.833C281.184 553.833 280.64 554.163 280.298 554.824C279.956 555.48 279.785 556.535 279.785 557.989ZM287.605 555.986C287.605 556.761 287.69 557.342 287.858 557.729C288.027 558.117 288.3 558.311 288.679 558.311C289.426 558.311 289.8 557.536 289.8 555.986C289.8 554.446 289.426 553.676 288.679 553.676C288.3 553.676 288.027 553.867 287.858 554.25C287.69 554.633 287.605 555.212 287.605 555.986ZM290.736 555.986C290.736 557.025 290.561 557.812 290.21 558.345C289.864 558.873 289.353 559.138 288.679 559.138C288.041 559.138 287.544 558.867 287.188 558.324C286.838 557.782 286.662 557.003 286.662 555.986C286.662 554.952 286.831 554.173 287.168 553.648C287.51 553.124 288.013 552.862 288.679 552.862C289.34 552.862 289.848 553.133 290.203 553.676C290.559 554.218 290.736 554.988 290.736 555.986ZM293.621 559.992C293.621 560.771 293.705 561.355 293.874 561.742C294.043 562.125 294.318 562.316 294.701 562.316C295.084 562.316 295.367 562.127 295.549 561.749C295.731 561.366 295.822 560.781 295.822 559.992C295.822 559.213 295.731 558.636 295.549 558.263C295.367 557.884 295.084 557.695 294.701 557.695C294.318 557.695 294.043 557.884 293.874 558.263C293.705 558.636 293.621 559.213 293.621 559.992ZM296.759 559.992C296.759 561.027 296.583 561.811 296.232 562.344C295.886 562.872 295.376 563.137 294.701 563.137C294.054 563.137 293.555 562.866 293.204 562.323C292.858 561.781 292.685 561.004 292.685 559.992C292.685 558.958 292.853 558.178 293.19 557.654C293.532 557.13 294.036 556.868 294.701 556.868C295.348 556.868 295.852 557.137 296.212 557.675C296.576 558.208 296.759 558.98 296.759 559.992ZM294.995 553.006L289.451 563H288.446L293.99 553.006H294.995Z" fill="#252423"/>
<path d="M237.938 539C237.938 543.418 241.519 547 245.938 547C250.356 547 253.938 543.418 253.938 539C253.938 534.582 250.356 531 245.938 531C241.519 531 237.938 534.582 237.938 539Z" fill="url(#paint7_linear)"/>
<path d="M325.951 544H324.789V535.038H321.624V534.006H329.116V535.038H325.951V544ZM333.621 544.137C332.514 544.137 331.639 543.799 330.996 543.125C330.358 542.451 330.039 541.514 330.039 540.315C330.039 539.108 330.335 538.148 330.928 537.438C331.525 536.727 332.325 536.371 333.327 536.371C334.266 536.371 335.009 536.681 335.556 537.301C336.103 537.916 336.376 538.729 336.376 539.741V540.459H331.215C331.238 541.339 331.459 542.006 331.878 542.462C332.302 542.918 332.896 543.146 333.662 543.146C334.469 543.146 335.266 542.977 336.055 542.64V543.651C335.654 543.825 335.273 543.948 334.913 544.021C334.558 544.098 334.127 544.137 333.621 544.137ZM333.313 537.321C332.712 537.321 332.231 537.517 331.871 537.909C331.516 538.301 331.306 538.843 331.242 539.536H335.159C335.159 538.821 335 538.274 334.681 537.896C334.362 537.513 333.906 537.321 333.313 537.321ZM342.925 544L342.699 542.934H342.645C342.271 543.403 341.897 543.722 341.523 543.891C341.154 544.055 340.692 544.137 340.136 544.137C339.393 544.137 338.81 543.945 338.386 543.562C337.966 543.18 337.757 542.635 337.757 541.929C337.757 540.416 338.967 539.623 341.387 539.55L342.658 539.509V539.044C342.658 538.456 342.531 538.023 342.275 537.745C342.025 537.463 341.621 537.321 341.065 537.321C340.441 537.321 339.735 537.513 338.946 537.896L338.598 537.027C338.967 536.827 339.37 536.67 339.808 536.556C340.25 536.442 340.692 536.385 341.134 536.385C342.027 536.385 342.688 536.583 343.116 536.979C343.549 537.376 343.766 538.012 343.766 538.887V544H342.925ZM340.361 543.2C341.068 543.2 341.621 543.007 342.022 542.619C342.428 542.232 342.631 541.689 342.631 540.992V540.315L341.496 540.363C340.594 540.395 339.942 540.536 339.541 540.787C339.145 541.033 338.946 541.418 338.946 541.942C338.946 542.353 339.069 542.665 339.315 542.879C339.566 543.093 339.915 543.2 340.361 543.2ZM355.66 544V539.126C355.66 538.529 355.533 538.082 355.277 537.786C355.022 537.485 354.626 537.335 354.088 537.335C353.382 537.335 352.86 537.538 352.522 537.943C352.185 538.349 352.017 538.973 352.017 539.816V544H350.882V539.126C350.882 538.529 350.754 538.082 350.499 537.786C350.244 537.485 349.845 537.335 349.303 537.335C348.592 537.335 348.07 537.549 347.737 537.978C347.409 538.401 347.245 539.099 347.245 540.069V544H346.11V536.508H347.033L347.218 537.533H347.272C347.487 537.169 347.787 536.884 348.175 536.679C348.567 536.474 349.004 536.371 349.487 536.371C350.659 536.371 351.424 536.795 351.784 537.643H351.839C352.062 537.251 352.386 536.941 352.81 536.713C353.233 536.485 353.716 536.371 354.259 536.371C355.106 536.371 355.74 536.59 356.159 537.027C356.583 537.46 356.795 538.155 356.795 539.112V544H355.66ZM311.056 563H309.948V555.877C309.948 555.285 309.966 554.724 310.003 554.195C309.907 554.291 309.8 554.391 309.682 554.496C309.563 554.601 309.021 555.045 308.055 555.829L307.453 555.05L310.099 553.006H311.056V563ZM321.487 557.989C321.487 559.716 321.214 561.006 320.667 561.858C320.125 562.711 319.293 563.137 318.172 563.137C317.096 563.137 316.278 562.701 315.718 561.831C315.157 560.956 314.877 559.675 314.877 557.989C314.877 556.248 315.148 554.956 315.69 554.113C316.233 553.27 317.06 552.849 318.172 552.849C319.257 552.849 320.079 553.288 320.64 554.168C321.205 555.048 321.487 556.321 321.487 557.989ZM316.025 557.989C316.025 559.443 316.196 560.503 316.538 561.168C316.88 561.829 317.424 562.159 318.172 562.159C318.928 562.159 319.475 561.824 319.812 561.154C320.154 560.48 320.325 559.425 320.325 557.989C320.325 556.554 320.154 555.503 319.812 554.838C319.475 554.168 318.928 553.833 318.172 553.833C317.424 553.833 316.88 554.163 316.538 554.824C316.196 555.48 316.025 556.535 316.025 557.989ZM326.402 559.767V558.728H329.759V559.767H326.402ZM338.864 563H337.757V555.877C337.757 555.285 337.775 554.724 337.812 554.195C337.716 554.291 337.609 554.391 337.49 554.496C337.372 554.601 336.829 555.045 335.863 555.829L335.262 555.05L337.907 553.006H338.864V563ZM349.296 557.989C349.296 559.716 349.022 561.006 348.476 561.858C347.933 562.711 347.102 563.137 345.98 563.137C344.905 563.137 344.087 562.701 343.526 561.831C342.966 560.956 342.686 559.675 342.686 557.989C342.686 556.248 342.957 554.956 343.499 554.113C344.041 553.27 344.868 552.849 345.98 552.849C347.065 552.849 347.888 553.288 348.448 554.168C349.013 555.048 349.296 556.321 349.296 557.989ZM343.834 557.989C343.834 559.443 344.005 560.503 344.347 561.168C344.688 561.829 345.233 562.159 345.98 562.159C346.737 562.159 347.284 561.824 347.621 561.154C347.963 560.48 348.134 559.425 348.134 557.989C348.134 556.554 347.963 555.503 347.621 554.838C347.284 554.168 346.737 553.833 345.98 553.833C345.233 553.833 344.688 554.163 344.347 554.824C344.005 555.48 343.834 556.535 343.834 557.989ZM351.039 562.275C351.039 561.97 351.107 561.74 351.244 561.585C351.385 561.425 351.586 561.346 351.846 561.346C352.11 561.346 352.315 561.425 352.461 561.585C352.611 561.74 352.687 561.97 352.687 562.275C352.687 562.572 352.611 562.799 352.461 562.959C352.311 563.118 352.105 563.198 351.846 563.198C351.613 563.198 351.42 563.128 351.265 562.986C351.114 562.84 351.039 562.604 351.039 562.275ZM361.04 557.989C361.04 559.716 360.767 561.006 360.22 561.858C359.677 562.711 358.846 563.137 357.725 563.137C356.649 563.137 355.831 562.701 355.271 561.831C354.71 560.956 354.43 559.675 354.43 557.989C354.43 556.248 354.701 554.956 355.243 554.113C355.785 553.27 356.613 552.849 357.725 552.849C358.809 552.849 359.632 553.288 360.192 554.168C360.757 555.048 361.04 556.321 361.04 557.989ZM355.578 557.989C355.578 559.443 355.749 560.503 356.091 561.168C356.433 561.829 356.977 562.159 357.725 562.159C358.481 562.159 359.028 561.824 359.365 561.154C359.707 560.48 359.878 559.425 359.878 557.989C359.878 556.554 359.707 555.503 359.365 554.838C359.028 554.168 358.481 553.833 357.725 553.833C356.977 553.833 356.433 554.163 356.091 554.824C355.749 555.48 355.578 556.535 355.578 557.989ZM363.398 555.986C363.398 556.761 363.483 557.342 363.651 557.729C363.82 558.117 364.093 558.311 364.472 558.311C365.219 558.311 365.593 557.536 365.593 555.986C365.593 554.446 365.219 553.676 364.472 553.676C364.093 553.676 363.82 553.867 363.651 554.25C363.483 554.633 363.398 555.212 363.398 555.986ZM366.529 555.986C366.529 557.025 366.354 557.812 366.003 558.345C365.657 558.873 365.146 559.138 364.472 559.138C363.834 559.138 363.337 558.867 362.981 558.324C362.631 557.782 362.455 557.003 362.455 555.986C362.455 554.952 362.624 554.173 362.961 553.648C363.303 553.124 363.806 552.862 364.472 552.862C365.132 552.862 365.641 553.133 365.996 553.676C366.352 554.218 366.529 554.988 366.529 555.986ZM369.414 559.992C369.414 560.771 369.498 561.355 369.667 561.742C369.836 562.125 370.111 562.316 370.494 562.316C370.877 562.316 371.16 562.127 371.342 561.749C371.524 561.366 371.615 560.781 371.615 559.992C371.615 559.213 371.524 558.636 371.342 558.263C371.16 557.884 370.877 557.695 370.494 557.695C370.111 557.695 369.836 557.884 369.667 558.263C369.498 558.636 369.414 559.213 369.414 559.992ZM372.552 559.992C372.552 561.027 372.376 561.811 372.025 562.344C371.679 562.872 371.169 563.137 370.494 563.137C369.847 563.137 369.348 562.866 368.997 562.323C368.651 561.781 368.478 561.004 368.478 559.992C368.478 558.958 368.646 558.178 368.983 557.654C369.325 557.13 369.829 556.868 370.494 556.868C371.141 556.868 371.645 557.137 372.005 557.675C372.369 558.208 372.552 558.98 372.552 559.992ZM370.788 553.006L365.244 563H364.239L369.783 553.006H370.788Z" fill="#252423"/>
<path d="M300.719 539C300.719 543.418 304.3 547 308.719 547C313.137 547 316.719 543.418 316.719 539C316.719 534.582 313.137 531 308.719 531C304.3 531 300.719 534.582 300.719 539Z" fill="url(#paint8_linear)"/>
<path d="M404.412 538.907C404.412 540.557 403.963 541.819 403.065 542.694C402.172 543.565 400.885 544 399.203 544H396.435V534.006H399.497C401.051 534.006 402.259 534.437 403.12 535.298C403.981 536.159 404.412 537.362 404.412 538.907ZM403.182 538.948C403.182 537.645 402.854 536.663 402.197 536.002C401.546 535.341 400.575 535.011 399.285 535.011H397.597V542.995H399.012C400.397 542.995 401.438 542.656 402.136 541.977C402.833 541.293 403.182 540.284 403.182 538.948ZM412.93 544L411.686 540.821H407.68L406.449 544H405.273L409.225 533.965H410.202L414.133 544H412.93ZM411.323 539.775L410.161 536.679C410.011 536.287 409.856 535.806 409.696 535.236C409.596 535.674 409.452 536.155 409.266 536.679L408.09 539.775H411.323ZM424.182 538.989C424.182 540.589 423.776 541.847 422.965 542.763C422.158 543.679 421.035 544.137 419.595 544.137C418.123 544.137 416.986 543.688 416.184 542.79C415.386 541.888 414.987 540.616 414.987 538.976C414.987 537.349 415.388 536.089 416.19 535.195C416.993 534.298 418.132 533.849 419.608 533.849C421.044 533.849 422.165 534.304 422.972 535.216C423.778 536.127 424.182 537.385 424.182 538.989ZM416.218 538.989C416.218 540.343 416.505 541.37 417.079 542.072C417.658 542.77 418.496 543.118 419.595 543.118C420.702 543.118 421.538 542.77 422.104 542.072C422.669 541.375 422.951 540.347 422.951 538.989C422.951 537.645 422.669 536.626 422.104 535.934C421.543 535.236 420.711 534.888 419.608 534.888C418.501 534.888 417.658 535.239 417.079 535.94C416.505 536.638 416.218 537.654 416.218 538.989ZM430.04 534.006L426.314 544H425.18L428.905 534.006H430.04ZM437.519 536.508V537.226L436.131 537.39C436.258 537.549 436.372 537.759 436.473 538.019C436.573 538.274 436.623 538.563 436.623 538.887C436.623 539.62 436.372 540.206 435.871 540.644C435.37 541.081 434.682 541.3 433.807 541.3C433.583 541.3 433.374 541.282 433.178 541.245C432.695 541.5 432.453 541.822 432.453 542.209C432.453 542.414 432.537 542.567 432.706 542.667C432.875 542.763 433.164 542.811 433.574 542.811H434.9C435.712 542.811 436.334 542.981 436.767 543.323C437.204 543.665 437.423 544.162 437.423 544.813C437.423 545.643 437.09 546.274 436.425 546.707C435.759 547.145 434.789 547.363 433.513 547.363C432.533 547.363 431.776 547.181 431.243 546.816C430.715 546.452 430.45 545.937 430.45 545.271C430.45 544.816 430.596 544.422 430.888 544.089C431.179 543.756 431.59 543.531 432.118 543.412C431.927 543.326 431.765 543.191 431.633 543.009C431.505 542.826 431.441 542.615 431.441 542.373C431.441 542.1 431.514 541.86 431.66 541.655C431.806 541.45 432.036 541.252 432.351 541.061C431.963 540.901 431.646 540.63 431.4 540.247C431.159 539.864 431.038 539.427 431.038 538.935C431.038 538.114 431.284 537.483 431.776 537.041C432.269 536.594 432.966 536.371 433.868 536.371C434.26 536.371 434.613 536.417 434.928 536.508H437.519ZM431.544 545.258C431.544 545.663 431.715 545.971 432.057 546.181C432.398 546.39 432.888 546.495 433.526 546.495C434.479 546.495 435.183 546.352 435.639 546.064C436.099 545.782 436.329 545.397 436.329 544.909C436.329 544.504 436.204 544.221 435.953 544.062C435.702 543.907 435.231 543.829 434.538 543.829H433.178C432.663 543.829 432.262 543.952 431.975 544.198C431.688 544.444 431.544 544.798 431.544 545.258ZM432.159 538.907C432.159 539.431 432.307 539.828 432.604 540.097C432.9 540.366 433.312 540.5 433.841 540.5C434.948 540.5 435.502 539.962 435.502 538.887C435.502 537.761 434.941 537.198 433.82 537.198C433.287 537.198 432.877 537.342 432.59 537.629C432.303 537.916 432.159 538.342 432.159 538.907ZM442.475 536.371C442.807 536.371 443.106 536.398 443.37 536.453L443.213 537.506C442.903 537.438 442.63 537.403 442.393 537.403C441.786 537.403 441.267 537.649 440.834 538.142C440.406 538.634 440.191 539.247 440.191 539.98V544H439.057V536.508H439.993L440.123 537.896H440.178C440.456 537.408 440.791 537.032 441.183 536.768C441.575 536.503 442.005 536.371 442.475 536.371ZM449.379 544L449.153 542.934H449.099C448.725 543.403 448.351 543.722 447.978 543.891C447.608 544.055 447.146 544.137 446.59 544.137C445.847 544.137 445.264 543.945 444.84 543.562C444.421 543.18 444.211 542.635 444.211 541.929C444.211 540.416 445.421 539.623 447.841 539.55L449.112 539.509V539.044C449.112 538.456 448.985 538.023 448.729 537.745C448.479 537.463 448.076 537.321 447.52 537.321C446.895 537.321 446.189 537.513 445.4 537.896L445.052 537.027C445.421 536.827 445.824 536.67 446.262 536.556C446.704 536.442 447.146 536.385 447.588 536.385C448.481 536.385 449.142 536.583 449.57 536.979C450.003 537.376 450.22 538.012 450.22 538.887V544H449.379ZM446.815 543.2C447.522 543.2 448.076 543.007 448.477 542.619C448.882 542.232 449.085 541.689 449.085 540.992V540.315L447.95 540.363C447.048 540.395 446.396 540.536 445.995 540.787C445.599 541.033 445.4 541.418 445.4 541.942C445.4 542.353 445.523 542.665 445.77 542.879C446.02 543.093 446.369 543.2 446.815 543.2ZM457.691 544V539.153C457.691 538.543 457.552 538.087 457.274 537.786C456.996 537.485 456.561 537.335 455.969 537.335C455.185 537.335 454.611 537.547 454.246 537.971C453.882 538.395 453.699 539.094 453.699 540.069V544H452.564V536.508H453.487L453.672 537.533H453.727C453.959 537.164 454.285 536.879 454.704 536.679C455.123 536.474 455.59 536.371 456.105 536.371C457.008 536.371 457.687 536.59 458.143 537.027C458.598 537.46 458.826 538.155 458.826 539.112V544H457.691ZM463.584 543.2C463.785 543.2 463.978 543.187 464.165 543.159C464.352 543.127 464.5 543.095 464.609 543.063V543.932C464.486 543.991 464.304 544.039 464.062 544.075C463.826 544.116 463.611 544.137 463.42 544.137C461.971 544.137 461.246 543.373 461.246 541.847V537.39H460.173V536.843L461.246 536.371L461.725 534.771H462.381V536.508H464.555V537.39H462.381V541.799C462.381 542.25 462.488 542.596 462.702 542.838C462.916 543.079 463.21 543.2 463.584 543.2ZM470.946 541.956C470.946 542.653 470.687 543.191 470.167 543.569C469.647 543.948 468.918 544.137 467.979 544.137C466.986 544.137 466.211 543.979 465.655 543.665V542.612C466.015 542.795 466.4 542.938 466.811 543.043C467.225 543.148 467.624 543.2 468.007 543.2C468.599 543.2 469.055 543.107 469.374 542.92C469.693 542.729 469.853 542.439 469.853 542.052C469.853 541.76 469.725 541.512 469.47 541.307C469.219 541.097 468.727 540.851 467.993 540.568C467.296 540.309 466.799 540.083 466.503 539.892C466.211 539.696 465.993 539.475 465.847 539.229C465.705 538.982 465.635 538.688 465.635 538.347C465.635 537.736 465.883 537.255 466.38 536.904C466.877 536.549 467.558 536.371 468.424 536.371C469.23 536.371 470.019 536.535 470.789 536.863L470.386 537.786C469.634 537.476 468.952 537.321 468.342 537.321C467.804 537.321 467.398 537.406 467.125 537.574C466.852 537.743 466.715 537.975 466.715 538.271C466.715 538.472 466.765 538.643 466.865 538.784C466.97 538.925 467.136 539.06 467.364 539.188C467.592 539.315 468.03 539.5 468.677 539.741C469.565 540.065 470.165 540.391 470.475 540.719C470.789 541.047 470.946 541.459 470.946 541.956ZM411.597 556.896C412.649 556.896 413.477 557.158 414.078 557.682C414.684 558.201 414.987 558.914 414.987 559.821C414.987 560.856 414.657 561.667 413.996 562.255C413.34 562.843 412.433 563.137 411.275 563.137C410.15 563.137 409.291 562.957 408.698 562.597V561.503C409.017 561.708 409.414 561.87 409.888 561.988C410.362 562.102 410.829 562.159 411.289 562.159C412.091 562.159 412.713 561.97 413.155 561.592C413.602 561.214 413.825 560.667 413.825 559.951C413.825 558.557 412.971 557.859 411.262 557.859C410.829 557.859 410.25 557.925 409.525 558.058L408.938 557.682L409.313 553.006H414.283V554.052H410.284L410.031 557.053C410.555 556.948 411.077 556.896 411.597 556.896ZM420.012 559.767V558.728H423.368V559.767H420.012ZM431.394 556.896C432.446 556.896 433.273 557.158 433.875 557.682C434.481 558.201 434.784 558.914 434.784 559.821C434.784 560.856 434.454 561.667 433.793 562.255C433.137 562.843 432.23 563.137 431.072 563.137C429.947 563.137 429.088 562.957 428.495 562.597V561.503C428.814 561.708 429.211 561.87 429.685 561.988C430.159 562.102 430.626 562.159 431.086 562.159C431.888 562.159 432.51 561.97 432.952 561.592C433.399 561.214 433.622 560.667 433.622 559.951C433.622 558.557 432.768 557.859 431.059 557.859C430.626 557.859 430.047 557.925 429.322 558.058L428.734 557.682L429.11 553.006H434.08V554.052H430.081L429.828 557.053C430.352 556.948 430.874 556.896 431.394 556.896ZM436.637 562.275C436.637 561.97 436.705 561.74 436.842 561.585C436.983 561.425 437.184 561.346 437.443 561.346C437.708 561.346 437.913 561.425 438.059 561.585C438.209 561.74 438.284 561.97 438.284 562.275C438.284 562.572 438.209 562.799 438.059 562.959C437.908 563.118 437.703 563.198 437.443 563.198C437.211 563.198 437.017 563.128 436.862 562.986C436.712 562.84 436.637 562.604 436.637 562.275ZM446.638 557.989C446.638 559.716 446.364 561.006 445.817 561.858C445.275 562.711 444.443 563.137 443.322 563.137C442.247 563.137 441.429 562.701 440.868 561.831C440.308 560.956 440.027 559.675 440.027 557.989C440.027 556.248 440.299 554.956 440.841 554.113C441.383 553.27 442.21 552.849 443.322 552.849C444.407 552.849 445.229 553.288 445.79 554.168C446.355 555.048 446.638 556.321 446.638 557.989ZM441.176 557.989C441.176 559.443 441.347 560.503 441.688 561.168C442.03 561.829 442.575 562.159 443.322 562.159C444.079 562.159 444.626 561.824 444.963 561.154C445.305 560.48 445.476 559.425 445.476 557.989C445.476 556.554 445.305 555.503 444.963 554.838C444.626 554.168 444.079 553.833 443.322 553.833C442.575 553.833 442.03 554.163 441.688 554.824C441.347 555.48 441.176 556.535 441.176 557.989ZM448.996 555.986C448.996 556.761 449.08 557.342 449.249 557.729C449.418 558.117 449.691 558.311 450.069 558.311C450.817 558.311 451.19 557.536 451.19 555.986C451.19 554.446 450.817 553.676 450.069 553.676C449.691 553.676 449.418 553.867 449.249 554.25C449.08 554.633 448.996 555.212 448.996 555.986ZM452.127 555.986C452.127 557.025 451.951 557.812 451.601 558.345C451.254 558.873 450.744 559.138 450.069 559.138C449.431 559.138 448.935 558.867 448.579 558.324C448.228 557.782 448.053 557.003 448.053 555.986C448.053 554.952 448.221 554.173 448.559 553.648C448.9 553.124 449.404 552.862 450.069 552.862C450.73 552.862 451.238 553.133 451.594 553.676C451.949 554.218 452.127 554.988 452.127 555.986ZM455.012 559.992C455.012 560.771 455.096 561.355 455.265 561.742C455.433 562.125 455.709 562.316 456.092 562.316C456.475 562.316 456.757 562.127 456.939 561.749C457.122 561.366 457.213 560.781 457.213 559.992C457.213 559.213 457.122 558.636 456.939 558.263C456.757 557.884 456.475 557.695 456.092 557.695C455.709 557.695 455.433 557.884 455.265 558.263C455.096 558.636 455.012 559.213 455.012 559.992ZM458.149 559.992C458.149 561.027 457.974 561.811 457.623 562.344C457.277 562.872 456.766 563.137 456.092 563.137C455.445 563.137 454.946 562.866 454.595 562.323C454.248 561.781 454.075 561.004 454.075 559.992C454.075 558.958 454.244 558.178 454.581 557.654C454.923 557.13 455.426 556.868 456.092 556.868C456.739 556.868 457.243 557.137 457.603 557.675C457.967 558.208 458.149 558.98 458.149 559.992ZM456.386 553.006L450.842 563H449.837L455.381 553.006H456.386Z" fill="#252423"/>
<path d="M373.828 539C373.828 543.418 377.41 547 381.828 547C386.246 547 389.828 543.418 389.828 539C389.828 534.582 386.246 531 381.828 531C377.41 531 373.828 534.582 373.828 539Z" fill="url(#paint9_linear)"/>
<defs>
<linearGradient id="paint0_linear" x1="260.001" y1="75.4812" x2="260.001" y2="463.481" gradientUnits="userSpaceOnUse">
<stop stop-color="#5A79E5"/>
<stop offset="1" stop-color="#D25AE5" stop-opacity="0.21"/>
</linearGradient>
<linearGradient id="paint1_linear" x1="162.999" y1="187.204" x2="162.999" y2="269.481" gradientUnits="userSpaceOnUse">
<stop stop-color="#FFF500"/>
<stop offset="0.0001" stop-color="#8FFFBC"/>
<stop offset="1" stop-color="#BAFF62"/>
</linearGradient>
<linearGradient id="paint2_linear" x1="172.179" y1="155.679" x2="172.179" y2="269.48" gradientUnits="userSpaceOnUse">
<stop stop-color="#FF9B85"/>
<stop offset="1" stop-color="#FFB774"/>
</linearGradient>
<linearGradient id="paint3_linear" x1="181.535" y1="85.1805" x2="181.535" y2="269.481" gradientUnits="userSpaceOnUse">
<stop stop-color="#FFA3F6"/>
<stop offset="1" stop-color="#D2AEFF"/>
</linearGradient>
<linearGradient id="paint4_linear" x1="230.121" y1="75.4805" x2="230.121" y2="269.48" gradientUnits="userSpaceOnUse">
<stop stop-color="#6FFFF6" stop-opacity="0.88"/>
<stop offset="1" stop-color="#7471FB"/>
</linearGradient>
<linearGradient id="paint5_linear" x1="57" y1="531" x2="57" y2="547" gradientUnits="userSpaceOnUse">
<stop stop-color="#5A79E5"/>
<stop offset="1" stop-color="#D25AE5" stop-opacity="0.21"/>
</linearGradient>
<linearGradient id="paint6_linear" x1="160.891" y1="531" x2="160.891" y2="547" gradientUnits="userSpaceOnUse">
<stop stop-color="#FFF500"/>
<stop offset="0.0001" stop-color="#8FFFBC"/>
<stop offset="1" stop-color="#BAFF62"/>
</linearGradient>
<linearGradient id="paint7_linear" x1="245.938" y1="531" x2="245.938" y2="547" gradientUnits="userSpaceOnUse">
<stop stop-color="#FF9B85"/>
<stop offset="1" stop-color="#FFB774"/>
</linearGradient>
<linearGradient id="paint8_linear" x1="308.719" y1="531" x2="308.719" y2="547" gradientUnits="userSpaceOnUse">
<stop stop-color="#FFA3F6"/>
<stop offset="1" stop-color="#D2AEFF"/>
</linearGradient>
<linearGradient id="paint9_linear" x1="381.828" y1="531" x2="381.828" y2="547" gradientUnits="userSpaceOnUse">
<stop stop-color="#6FFFF6" stop-opacity="0.88"/>
<stop offset="1" stop-color="#7471FB"/>
</linearGradient>
</defs>
</svg>
