<svg width="518" height="509" viewBox="0 0 518 509" fill="none" xmlns="http://www.w3.org/2000/svg">
<path fill-rule="evenodd" clip-rule="evenodd" d="M1.89582 274.698C-7.56124 357.493 17.8712 452.896 89.2828 495.602C155.747 535.349 231.519 475.828 306.58 456.907C377.849 438.941 469.886 455.144 505.442 390.694C541.777 324.832 490.033 249.655 458.631 181.293C426.118 110.511 403.017 19.2488 327.092 2.42954C251.389 -14.3406 192.911 59.4346 133.413 109.249C76.6048 156.811 10.3141 200.998 1.89582 274.698Z" fill="url(#paint0_linear)"/>
<mask id="mask0" mask-type="alpha" maskUnits="userSpaceOnUse" x="0" y="0" width="518" height="509">
<path fill-rule="evenodd" clip-rule="evenodd" d="M1.89582 274.698C-7.56124 357.493 17.8712 452.896 89.2828 495.602C155.747 535.349 231.519 475.828 306.58 456.907C377.849 438.941 469.886 455.144 505.442 390.694C541.777 324.832 490.033 249.655 458.631 181.293C426.118 110.511 403.017 19.2488 327.092 2.42954C251.389 -14.3406 192.911 59.4346 133.413 109.249C76.6048 156.811 10.3141 200.998 1.89582 274.698Z" fill="url(#paint1_linear)"/>
</mask>
<g mask="url(#mask0)">
<path d="M602.867 510.989C588.835 495.847 557.05 463.919 542.169 457.34C523.568 449.116 499.493 435.562 482.646 428.165C476.224 425.346 475.182 398.83 461.933 390.672C456.189 386.756 440.78 373.211 421.044 357.39C396.373 337.614 406.776 307.939 387.286 288.449C358.284 259.447 311.214 266.043 277.457 266.043C252.651 266.043 231.338 266.043 214.697 266.043C189.093 266.043 177.612 261.764 161.446 245.659C151.459 235.709 146.295 223.848 106.769 205.721C90.6087 198.309 49.2395 224.739 24.0405 205.721C12.0527 196.673 33.9374 180.935 17.2291 163.444L-46.9933 66.5228" stroke="#80D5E3" stroke-width="5"/>
<path d="M489.695 510.989C487.671 498.197 477.594 472.377 453.472 471.437C429.349 470.497 461.031 442.895 438.635 424.429C416.814 397.727 390.139 425.34 362.563 399.705C334.987 374.071 362.368 338.754 308.837 319.829C261.767 303.188 212.795 319.829 173.808 306.041C134.821 292.253 135.084 250.556 91.5547 238.051C70.0259 231.867 -4.36315 242.846 -23.0294 223.788L-53.8463 124.871" stroke="#80D5E3" stroke-width="5"/>
<path d="M371.823 512.164C365.297 511.381 349.189 506.329 336.971 492.388C324.753 478.447 306.165 454.729 298.398 444.613C286.324 430.189 258.69 401.106 244.749 400.166C230.808 399.226 178.242 367.924 153.702 352.391L87.3257 316.168C75.5777 307.618 49.5362 290.048 39.3546 288.169C29.173 286.289 -24.0193 236.086 -49.3428 211.219" stroke="#80D5E3" stroke-width="5"/>
<path d="M-48.1681 281.315C-28.7186 294.956 11.3551 324.548 16.0543 333.79C21.9283 345.342 65.0044 367.467 91.829 370.992C118.654 374.516 169.953 412.11 177.002 418.963C182.641 424.445 248.665 484.164 280.972 513.338" stroke="#80D5E3" stroke-width="5"/>
<path d="M193.449 510.989C174 509.879 133.926 504.606 129.227 492.388C123.353 477.116 128.248 457.536 111.801 448.137C95.3535 438.739 55.8018 404.865 49.9278 403.69C44.0538 402.516 -37.5948 385.089 -56.1958 345.342" stroke="#80D5E3" stroke-width="5"/>
<path d="M70.8783 512.164C70.552 504.397 66.6099 487.689 53.4521 482.99C37.0049 477.116 20.7535 473.591 -2.54669 456.165C-21.1869 442.224 -44.5132 415.373 -53.8463 403.691" stroke="#80D5E3" stroke-width="5"/>
<path d="M231.826 -2.20322C242.726 9.41425 264.525 34.7638 264.525 43.2224C264.525 53.7956 233.001 133.095 321.698 124.871C410.396 116.647 399.823 72.5924 459.346 135.444C506.964 185.726 549.153 202.995 564.295 205.345L633.216 271.917" stroke="#80D5E3" stroke-width="5"/>
<path d="M627.342 369.817C600.452 363.225 545.067 345.616 538.645 327.916C530.617 305.79 528.072 275.441 509.471 268.393C494.59 262.754 474.553 246.594 466.395 239.218C462.87 231.06 452.101 213.804 437.22 210.044C418.619 205.345 349.893 191.443 332.271 210.044C314.649 228.645 206.139 197.638 193.777 174.341C171.243 131.872 20.2369 160.077 30.6968 43.5912" stroke="#80D5E3" stroke-width="5"/>
<path d="M628.517 444.613C622.708 436.846 605.491 420.138 583.091 415.438C555.092 409.564 494.59 381.565 474.618 351.216C454.646 320.867 433.71 252.179 391.566 241.379C349.421 230.58 259.865 243.684 225.157 233.297C190.449 222.91 145.281 193.143 112.475 177.669C87.2757 165.782 -21.603 162.93 -5.91303 113.483" stroke="#80D5E3" stroke-width="5"/>
<path d="M404.522 -30.2025C409.221 -21.6526 423.514 -0.832519 443.094 14.0483C462.674 28.9291 490.935 49.0965 502.618 57.3201C510.776 62.672 527.798 76.1952 530.617 87.4733C533.437 98.7514 557.376 113.188 568.994 118.997L600.518 131.92L635.566 170.297L663.565 213.569" stroke="#80D5E3" stroke-width="5"/>
</g>
<path d="M140.496 286.505L156.866 127.302C157.218 123.881 160.442 121.287 163.9 121.643L269.251 132.475C272.709 132.831 275.338 136.027 274.986 139.447L258.616 298.65C258.264 302.071 255.04 304.665 251.582 304.309L146.497 293.504C142.773 293.121 140.117 290.189 140.496 286.505Z" fill="white" stroke="#2BD2F7" stroke-width="1.0108" stroke-miterlimit="10" stroke-linecap="round" stroke-linejoin="round"/>
<path d="M170.797 309.761L170.797 118.847C170.797 114.745 174.306 111.274 178.453 111.274L304.788 111.274C308.936 111.274 312.445 114.745 312.445 118.847L312.445 309.761C312.445 313.864 308.936 317.335 304.788 317.335L178.772 317.335C174.306 317.335 170.797 314.179 170.797 309.761Z" fill="white" stroke="#2BD2F7" stroke-width="1.0108" stroke-miterlimit="10" stroke-linecap="round" stroke-linejoin="round"/>
<path d="M295.503 301.53L295.503 126.425L186.346 126.425L186.346 301.53L295.503 301.53Z" fill="white" stroke="#2BD2F7" stroke-width="1.0108" stroke-miterlimit="10" stroke-linecap="round" stroke-linejoin="round"/>
<path d="M209.087 149.166L209.087 137.795L197.717 137.795L197.717 149.166L209.087 149.166Z" fill="white" stroke="#2BD2F7" stroke-width="1.0108" stroke-miterlimit="10" stroke-linecap="round" stroke-linejoin="round"/>
<path d="M209.087 169.632L209.087 158.262L197.717 158.262L197.717 169.632L209.087 169.632Z" fill="white" stroke="#2BD2F7" stroke-width="1.0108" stroke-miterlimit="10" stroke-linecap="round" stroke-linejoin="round"/>
<path d="M209.087 190.099L209.087 178.729L197.717 178.729L197.717 190.099L209.087 190.099Z" fill="white" stroke="#2BD2F7" stroke-width="1.0108" stroke-miterlimit="10" stroke-linecap="round" stroke-linejoin="round"/>
<path d="M209.087 210.566L209.087 199.195L197.717 199.195L197.717 210.566L209.087 210.566Z" fill="white" stroke="#2BD2F7" stroke-width="1.0108" stroke-miterlimit="10" stroke-linecap="round" stroke-linejoin="round"/>
<path d="M209.087 231.033L209.087 219.662L197.717 219.662L197.717 231.033L209.087 231.033Z" fill="white" stroke="#2BD2F7" stroke-width="1.0108" stroke-miterlimit="10" stroke-linecap="round" stroke-linejoin="round"/>
<path d="M284.132 149.166L284.132 137.795L213.635 137.795L213.635 149.166L284.132 149.166Z" fill="white" stroke="#2BD2F7" stroke-width="1.0108" stroke-miterlimit="10" stroke-linecap="round" stroke-linejoin="round"/>
<path d="M284.132 169.632L284.132 158.262L213.635 158.262L213.635 169.632L284.132 169.632Z" fill="white" stroke="#2BD2F7" stroke-width="1.0108" stroke-miterlimit="10" stroke-linecap="round" stroke-linejoin="round"/>
<path d="M284.132 190.099L284.132 178.729L213.635 178.729L213.635 190.099L284.132 190.099Z" fill="white" stroke="#2BD2F7" stroke-width="1.0108" stroke-miterlimit="10" stroke-linecap="round" stroke-linejoin="round"/>
<path d="M284.132 210.566L284.132 199.195L213.635 199.195L213.635 210.566L284.132 210.566Z" fill="white" stroke="#2BD2F7" stroke-width="1.0108" stroke-miterlimit="10" stroke-linecap="round" stroke-linejoin="round"/>
<path d="M284.132 231.033L284.132 219.662L213.635 219.662L213.635 231.033L284.132 231.033Z" fill="white" stroke="#2BD2F7" stroke-width="1.0108" stroke-miterlimit="10" stroke-linecap="round" stroke-linejoin="round"/>
<circle cx="198.5" cy="143.5" r="5" fill="#2BD2F7" stroke="#252423"/>
<circle cx="198.5" cy="163.5" r="5" fill="#2BD2F7" stroke="#252423"/>
<circle cx="198.5" cy="184.5" r="5" fill="#2BD2F7" stroke="#252423"/>
<circle cx="198.5" cy="204.5" r="5" fill="#2BD2F7" stroke="#252423"/>
<circle cx="198.5" cy="225.5" r="5" fill="#2BD2F7" stroke="#252423"/>
<path d="M415.95 279.631C414.552 279.456 413.329 279.107 412.106 278.757C416.125 271.767 417.174 261.806 414.203 254.815C411.057 247.476 403.018 243.281 395.329 246.427C393.057 247.301 393.931 250.971 396.377 250.272C404.766 247.476 410.358 255.514 410.358 263.204C410.358 269.845 406.164 274.738 404.94 280.855C404.591 282.777 406.339 284.35 408.086 283.476C410.183 285.223 413.154 286.272 415.776 286.097C420.144 285.748 419.97 279.981 415.95 279.631Z" fill="#252423"/>
<path d="M315.372 398.603C314.499 395.807 314.149 393.011 313.799 390.215C313.625 388.991 313.625 387.943 313.625 386.72C313.1 382.351 315.372 379.904 320.615 379.38C322.188 380.428 324.11 377.982 322.712 376.584C316.246 370.642 309.955 377.632 309.081 384.448C307.858 393.71 311.003 404.021 316.246 412.06C314.499 412.584 312.751 413.283 311.178 414.157C308.382 415.73 310.304 420.099 313.275 419.225C314.673 418.875 316.071 418.176 317.469 417.477C318.168 417.128 318.867 416.778 319.567 416.429C321.314 417.302 323.761 415.205 322.537 413.283C319.741 408.564 316.945 404.021 315.372 398.603Z" fill="#252423"/>
<path d="M368.073 413.983C366.325 413.633 364.578 413.633 362.83 413.458C362.655 413.458 362.481 413.458 362.306 413.458C365.801 407.866 365.801 398.604 365.277 393.011C364.228 383.4 360.034 375.186 353.218 368.545C351.82 367.147 349.548 369.244 350.947 370.817C357.063 377.458 360.558 386.196 360.908 395.283C361.083 399.128 360.558 402.973 359.51 406.643C358.636 409.439 357.413 411.711 357.063 414.507C356.539 415.206 356.364 416.254 357.063 416.953C357.238 417.303 357.762 417.652 358.286 417.478C359.51 417.827 360.908 418.002 362.131 418.177C363.879 418.351 365.801 418.701 367.549 418.526C369.995 418.177 370.694 414.682 368.073 413.983Z" fill="#252423"/>
<path d="M318.925 84.7701C318.925 76.3455 325.77 69.5 334.195 69.5C342.619 69.5 349.465 76.3455 349.465 84.7701L349.465 193.891C349.465 202.316 342.619 209.161 334.195 209.161C325.77 209.161 318.925 202.316 318.925 193.891L318.925 84.7701Z" fill="#C49A6C" stroke="#252423"/>
<path opacity="0.25" d="M331.475 209.48C332.382 209.661 333.107 209.661 334.013 209.661C342.714 209.661 349.783 202.592 349.783 193.891L349.783 84.7701C349.783 83.6825 349.602 82.5949 349.42 81.6886C332.925 97.4586 321.868 126.098 321.868 159.089C321.868 177.759 325.494 194.979 331.475 209.48Z" fill="#C49A6C"/>
<path d="M372.487 366.051L372.485 366.071L372.485 366.092C372.485 375.647 365.418 383.356 356.671 383.356L289.241 383.356C280.494 383.356 273.427 375.647 273.427 366.092L273.427 366.071L273.425 366.051L257.113 169.943C257.123 160.398 264.187 152.7 272.927 152.7L372.985 152.7C381.725 152.7 388.789 160.398 388.799 169.943L372.487 366.051Z" fill="#D1AB4C" stroke="#252423"/>
<path d="M391.701 366.053L391.699 366.074L391.699 366.094C391.699 375.649 384.632 383.358 375.885 383.358L308.455 383.358C299.708 383.358 292.641 375.649 292.641 366.094L292.641 366.074L292.639 366.053L276.327 169.946C276.337 160.401 283.401 152.702 292.141 152.702L392.199 152.702C400.939 152.702 408.003 160.401 408.013 169.946L391.701 366.053Z" fill="#FFE239" stroke="#252423"/>
<path opacity="0.27" d="M395.462 180.296C336.732 180.296 288.878 246.639 288.878 328.57L291.779 362.648C292.504 366.998 293.41 371.167 294.316 375.336C297.216 380.593 302.292 384.037 308.274 384.037L375.704 384.037C384.767 384.037 392.018 376.061 392.018 366.273L407.425 181.202C403.437 180.477 399.45 180.296 395.462 180.296Z" fill="white"/>
<path opacity="0.5" d="M399.087 219.993C340.539 219.993 293.229 285.61 292.685 366.817C293.229 369.717 293.773 372.436 294.498 375.336C297.398 380.593 302.473 384.037 308.455 384.037L375.885 384.037C384.949 384.037 392.199 376.061 392.199 366.273L404.344 220.355C402.531 219.993 400.719 219.993 399.087 219.993Z" fill="#FFE239"/>
<path opacity="0.24" d="M311.708 356.983C329.021 356.671 332.68 344.895 330.905 312.786C329.13 280.678 329.438 160.461 311.77 157.895C294.102 155.329 283.243 170.917 286.958 198.037C290.854 225.134 289.292 357.378 311.708 356.983Z" fill="white"/>
<path d="M391.701 366.053L391.699 366.074L391.699 366.094C391.699 375.649 384.632 383.358 375.885 383.358L308.455 383.358C299.708 383.358 292.641 375.649 292.641 366.094L292.641 366.074L292.639 366.053L276.327 169.946C276.337 160.4 283.401 152.702 292.141 152.702L392.199 152.702C400.939 152.702 408.003 160.4 408.013 169.946L391.701 366.053Z" stroke="#252423"/>
<path d="M272.332 253.452C266.04 245.413 253.982 249.083 250.312 257.821C246.118 268.132 252.584 278.618 261.147 284.385C260.972 284.559 260.798 284.909 260.623 285.084C259.574 286.482 258.526 287.88 258.176 289.802C258.001 291.899 260.623 292.948 262.021 292.074C263.419 291.375 264.293 289.627 265.167 288.229C265.691 287.53 266.215 286.656 266.565 285.783C267.788 284.734 268.137 282.637 266.39 281.414C260.623 277.394 254.332 272.676 254.157 264.812C253.982 256.773 262.72 249.433 269.885 255.724C271.458 257.297 273.555 255.025 272.332 253.452Z" fill="#252423"/>
<path d="M324.769 243.903C324.07 239.534 318.477 238.311 314.633 238.311C312.885 238.311 311.137 238.661 309.39 239.36C306.069 240.234 302.924 241.981 300.652 244.078C299.079 245.476 299.778 247.748 301.176 248.797C305.545 251.768 310.963 252.816 316.031 251.768C320.225 251.069 325.642 248.797 324.769 243.903Z" fill="#FFA7AB" fill-opacity="0.6"/>
<path d="M384.711 237.612C381.565 234.816 378.244 235.165 375.099 236.564C373.351 236.389 371.604 236.389 370.031 237.263C367.759 238.486 366.186 241.282 366.71 243.903C367.934 249.146 376.846 250.369 381.215 249.321C386.458 248.098 389.08 241.632 384.711 237.612Z" fill="#FFA7AB" fill-opacity="0.6"/>
<path d="M327.04 230.972C326.691 230.098 325.992 229.748 325.118 229.923C323.545 230.098 323.37 230.972 322.322 232.02C321.098 233.244 319.7 234.292 317.953 234.991C314.807 236.214 311.487 236.04 308.166 235.166C306.419 234.642 305.72 236.914 307.118 237.787C310.788 240.583 315.506 240.583 319.7 239.185C322.496 238.137 328.264 234.816 327.04 230.972Z" fill="#252423"/>
<path d="M378.594 233.244C375.973 232.37 373.002 233.768 370.031 232.894C366.885 232.02 364.089 230.448 362.167 227.826C360.943 226.253 358.497 228.176 359.545 229.923C361.642 233.593 364.788 236.215 368.808 237.438C372.303 238.487 377.371 239.011 379.643 235.865C380.516 234.991 379.643 233.593 378.594 233.244Z" fill="#252423"/>
<path d="M352.205 244.777C351.332 244.253 350.283 244.603 349.759 245.476C348.885 246.7 349.235 247.923 348.71 249.321C348.186 250.719 346.963 251.768 345.565 251.943C342.244 252.292 341.545 248.972 339.448 247.399C338.749 246.875 338.05 247.399 337.526 247.923C336.128 250.02 337.875 252.816 339.448 254.389C341.37 256.137 344.167 257.011 346.788 256.486C349.235 255.962 351.506 254.214 352.73 251.943C354.128 249.671 354.652 246.35 352.205 244.777Z" fill="#252423"/>
<path d="M259.564 393.576H91.6606C88.0528 393.576 85 390.489 85 386.842V275.734C85 272.086 88.0528 269 91.6606 269H259.564C263.172 269 266.225 272.086 266.225 275.734V386.561C266.225 390.489 263.449 393.576 259.564 393.576Z" fill="black" fill-opacity="0.1"/>
<path d="M252.564 400.576H84.6606C81.0528 400.576 78 397.489 78 393.842V282.734C78 279.086 81.0528 276 84.6606 276H252.564C256.172 276 259.225 279.086 259.225 282.734V393.561C259.225 397.489 256.449 400.576 252.564 400.576Z" fill="white" stroke="#2BD2F7" stroke-width="1.0108" stroke-miterlimit="10" stroke-linecap="round" stroke-linejoin="round"/>
<path d="M245.626 290.309H91.5989V386.547H245.626V290.309Z" fill="white" stroke="#2BD2F7" stroke-width="1.0108" stroke-miterlimit="10" stroke-linecap="round" stroke-linejoin="round"/>
<path d="M203.997 419.374H133.228L142.664 400.576H194.839L203.997 419.374Z" fill="white" stroke="#2BD2F7" stroke-width="1.0108" stroke-miterlimit="10" stroke-linecap="round" stroke-linejoin="round"/>
<path d="M213.71 429.194H123.514C123.514 423.863 127.955 419.374 133.228 419.374H203.997C209.27 419.374 213.71 423.863 213.71 429.194Z" fill="white" stroke="#2BD2F7" stroke-width="1.0108" stroke-miterlimit="10" stroke-linecap="round" stroke-linejoin="round"/>
<path d="M163.112 300.597L135.612 318.597V350.097L165.112 366.597L193.112 350.097V318.597L163.112 300.597Z" fill="#FFE239"/>
<path d="M163.201 301.252L193.451 318.928L166.253 336.604L135.448 318.928L163.201 301.252Z" stroke="#2BD2F7" stroke-miterlimit="10" stroke-linecap="round" stroke-linejoin="round"/>
<path d="M193.451 318.928V350.353L165.698 366.907L166.253 336.604" stroke="#2BD2F7" stroke-miterlimit="10" stroke-linecap="round" stroke-linejoin="round"/>
<path d="M135.448 318.928L136.281 350.914L165.698 366.907" stroke="#2BD2F7" stroke-miterlimit="10" stroke-linecap="round" stroke-linejoin="round"/>
<path d="M103.81 357.367C103.81 357.367 130.452 350.352 126.29 380.093" stroke="#2BD2F7" stroke-miterlimit="10" stroke-linecap="round" stroke-linejoin="round"/>
<path d="M103.532 364.942C103.532 364.942 122.127 360.453 119.074 380.655" stroke="#2BD2F7" stroke-miterlimit="10" stroke-linecap="round" stroke-linejoin="round"/>
<path d="M101.867 372.798C101.867 372.798 113.523 370.273 111.026 382.057" stroke="#2BD2F7" stroke-miterlimit="10" stroke-linecap="round" stroke-linejoin="round"/>
<path d="M103.81 321.734C103.81 321.734 130.452 328.748 126.29 299.007" stroke="#2BD2F7" stroke-miterlimit="10" stroke-linecap="round" stroke-linejoin="round"/>
<path d="M103.532 314.158C103.532 314.158 122.127 318.647 119.074 298.446" stroke="#2BD2F7" stroke-miterlimit="10" stroke-linecap="round" stroke-linejoin="round"/>
<path d="M101.867 306.583C101.867 306.583 113.523 309.108 111.026 297.324" stroke="#2BD2F7" stroke-miterlimit="10" stroke-linecap="round" stroke-linejoin="round"/>
<path d="M233.692 357.367C233.692 357.367 207.05 350.352 211.213 380.093" stroke="#2BD2F7" stroke-miterlimit="10" stroke-linecap="round" stroke-linejoin="round"/>
<path d="M233.97 364.942C233.97 364.942 215.376 360.453 218.428 380.655" stroke="#2BD2F7" stroke-miterlimit="10" stroke-linecap="round" stroke-linejoin="round"/>
<path d="M235.358 372.798C235.358 372.798 223.701 370.273 226.199 382.057" stroke="#2BD2F7" stroke-miterlimit="10" stroke-linecap="round" stroke-linejoin="round"/>
<path d="M233.692 321.734C233.692 321.734 207.05 328.748 211.213 299.007" stroke="#2BD2F7" stroke-miterlimit="10" stroke-linecap="round" stroke-linejoin="round"/>
<path d="M233.97 314.158C233.97 314.158 215.376 318.647 218.428 298.446" stroke="#2BD2F7" stroke-miterlimit="10" stroke-linecap="round" stroke-linejoin="round"/>
<path d="M235.358 306.583C235.358 306.583 223.701 309.108 226.199 297.324" stroke="#2BD2F7" stroke-miterlimit="10" stroke-linecap="round" stroke-linejoin="round"/>
<defs>
<linearGradient id="paint0_linear" x1="133.135" y1="-1.58388e-06" x2="384.879" y2="603.115" gradientUnits="userSpaceOnUse">
<stop stop-color="#5AC9E5"/>
<stop offset="1" stop-color="#194ECA"/>
</linearGradient>
<linearGradient id="paint1_linear" x1="133.135" y1="-3.18281e-06" x2="384.879" y2="603.115" gradientUnits="userSpaceOnUse">
<stop stop-color="#5AC9E5"/>
<stop offset="1" stop-color="#194ECA"/>
</linearGradient>
</defs>
</svg>
