<svg width="32" height="32" viewBox="0 0 32 32" fill="none" xmlns="http://www.w3.org/2000/svg">
<path d="M20 8C20 9.06087 19.5786 10.0783 18.8284 10.8284C18.0783 11.5786 17.0609 12 16 12C14.9391 12 13.9217 11.5786 13.1716 10.8284C12.4214 10.0783 12 9.06087 12 8C12 6.93913 12.4214 5.92172 13.1716 5.17157C13.9217 4.42143 14.9391 4 16 4C17.0609 4 18.0783 4.42143 18.8284 5.17157C19.5786 5.92172 20 6.93913 20 8ZM7 12C7.79565 12 8.55871 11.6839 9.12132 11.1213C9.68393 10.5587 10 9.79565 10 9C10 8.20435 9.68393 7.44129 9.12132 6.87868C8.55871 6.31607 7.79565 6 7 6C6.20435 6 5.44129 6.31607 4.87868 6.87868C4.31607 7.44129 4 8.20435 4 9C4 9.79565 4.31607 10.5587 4.87868 11.1213C5.44129 11.6839 6.20435 12 7 12ZM25 12C25.7956 12 26.5587 11.6839 27.1213 11.1213C27.6839 10.5587 28 9.79565 28 9C28 8.20435 27.6839 7.44129 27.1213 6.87868C26.5587 6.31607 25.7956 6 25 6C24.2044 6 23.4413 6.31607 22.8787 6.87868C22.3161 7.44129 22 8.20435 22 9C22 9.79565 22.3161 10.5587 22.8787 11.1213C23.4413 11.6839 24.2044 12 25 12ZM10.222 15.025C10.3854 14.7155 10.6302 14.4565 10.9299 14.2759C11.2297 14.0953 11.573 13.9999 11.923 14H20.077C20.587 14 21.0761 14.2026 21.4368 14.5632C21.7974 14.9239 22 15.413 22 15.923V22C21.9947 23.4702 21.4501 24.8874 20.4693 25.9828C19.4886 27.0781 18.14 27.7755 16.6792 27.9426C15.2185 28.1096 13.7473 27.7348 12.5445 26.8893C11.3418 26.0437 10.4911 24.7861 10.154 23.355C10.0515 22.9106 9.99984 22.456 10 22V15.923C10 15.599 10.08 15.293 10.222 15.025ZM8.5 15.923C8.5 15.603 8.544 15.293 8.626 15H4C3.73478 15 3.48043 15.1054 3.29289 15.2929C3.10536 15.4804 3 15.7348 3 16V21C2.99985 21.6953 3.18095 22.3787 3.52543 22.9826C3.86992 23.5866 4.36589 24.0904 4.96444 24.4442C5.56298 24.798 6.24342 24.9897 6.93865 25.0004C7.63388 25.0111 8.31988 24.8403 8.929 24.505C8.64431 23.7005 8.49922 22.8533 8.5 22V15.923ZM23.5 22C23.5007 22.8533 23.3557 23.7005 23.071 24.505C23.6801 24.8403 24.3661 25.0111 25.0613 25.0004C25.7566 24.9897 26.437 24.798 27.0356 24.4442C27.6341 24.0904 28.1301 23.5866 28.4746 22.9826C28.8191 22.3787 29.0002 21.6953 29 21V16C29 15.7348 28.8946 15.4804 28.7071 15.2929C28.5196 15.1054 28.2652 15 28 15H23.374C23.456 15.294 23.5 15.603 23.5 15.923V22Z" fill="#2BD2F7"/>
</svg>
