<svg width="130" height="135" viewBox="0 0 130 135" fill="none" xmlns="http://www.w3.org/2000/svg">
<g filter="url(#filter0_d)">
<path fill-rule="evenodd" clip-rule="evenodd" d="M115 39C115 36.7909 113.209 35 111 35H39C36.7909 35 35 36.7909 35 39V47.4148C20.8114 49.7952 10 62.135 10 77C10 91.865 20.8114 104.205 35 106.585V113.546C35 119.863 40.3285 125 46.8812 125H103.119C109.671 125 115 119.863 115 113.546V39ZM35 96.3699V57.6301C26.3739 59.8503 20 67.6808 20 77C20 86.3192 26.3739 94.1497 35 96.3699Z" fill="#E43226"/>
</g>
<mask id="mask0" mask-type="alpha" maskUnits="userSpaceOnUse" x="35" y="35" width="80" height="90">
<path d="M35 39C35 36.7909 36.7909 35 39 35H111C113.209 35 115 36.7909 115 39V113C115 119.627 109.627 125 103 125H47C40.3726 125 35 119.627 35 113V39Z" fill="#C73E35"/>
</mask>
<g mask="url(#mask0)">
<g filter="url(#filter1_d)">
<path d="M76.5645 -16C50.3976 -16 29.1289 5.47231 29.1289 31.8898C29 32.8007 29 33.5815 29 34.4925L29 120.501C29 122.401 30.3364 124.053 32.2157 124.334C69.26 129.856 108.114 100.571 123.79 54.6345C123.929 54.225 124 53.7921 124 53.3595V34.4925C124 34.1021 124 33.7117 124 33.1911C124 32.6706 124 32.2802 124 31.7596C124 5.34217 102.731 -16 76.5645 -16Z" fill="#C73E35"/>
</g>
<g filter="url(#filter2_d)">
<path d="M67.5728 -16C41.9515 -16 21.1262 5.41234 21.1262 31.756C21 32.6644 21 33.443 21 34.3514L21 91.9777C21 93.98 22.4806 95.689 24.4774 95.8376C60.8857 98.5471 98.1627 67.1042 111.495 19.817C111.561 19.48 111.66 19.143 111.759 18.806C111.936 18.1962 111.91 17.55 111.721 16.9436C105.756 -2.17363 88.1925 -16 67.5728 -16Z" fill="#E43226"/>
</g>
</g>
<path d="M93.4004 69.3747C91.5196 68.0418 89.5087 66.6202 87.5403 65.2121C87.4978 65.1799 87.4527 65.1449 87.3997 65.1127C87.1821 64.9488 86.9327 64.7714 86.6277 64.672L86.6064 64.6612C81.3431 63.3713 75.995 62.0519 70.8192 60.7728C66.1236 59.6172 61.436 58.459 56.7404 57.3035C56.621 57.2713 56.5017 57.2363 56.3717 57.2041C55.9472 57.0832 55.4591 56.9515 54.9365 57.016C54.7852 57.0375 54.6526 57.0939 54.5332 57.1692L54.4032 57.2793C54.1963 57.4809 54.0875 57.7335 54.0318 57.8759L54 57.9646V58.4725L54.0212 58.5504C56.9898 66.9723 60.0353 75.5204 62.9694 83.7918C65.2296 90.1579 67.58 96.7551 69.8721 103.231C70.0127 103.672 70.416 103.957 70.9147 104.003H71.0235C71.4904 104.003 71.9042 103.771 72.1112 103.398L80.7224 90.6765C82.8208 87.5808 84.9192 84.477 87.0176 81.3813C87.8772 80.1156 88.7367 78.8365 89.5936 77.5708C91.0076 75.4774 92.464 73.3195 93.9098 71.2154L93.9867 71.1052V70.9736C94.0212 70.5866 94.0318 69.7939 93.4004 69.3747ZM83.3116 74.0102C81.2901 75.0797 79.2235 76.1788 77.1463 77.2698C78.3534 75.9584 79.571 74.6363 80.7781 73.3276C82.2902 71.6749 83.866 69.9685 85.41 68.2944L85.4418 68.2621C85.5718 68.0848 85.7363 67.9209 85.9087 67.7435C86.0281 67.6226 86.1581 67.5016 86.2775 67.3592C87.0813 67.9209 87.8984 68.4932 88.681 69.0549C89.246 69.4633 89.8217 69.8691 90.4107 70.2776C88.0204 71.511 85.6275 72.7767 83.3116 74.0102ZM78.1146 73.4835C76.56 75.1899 74.9497 76.942 73.3527 78.6699C70.2541 74.8593 67.0893 70.9924 64.0252 67.2598C62.6324 65.5641 61.2291 63.8577 59.839 62.1594L59.8284 62.1486C59.5127 61.7859 59.2076 61.3881 58.9052 61.0146C58.7088 60.762 58.5019 60.5202 58.295 60.2649C59.5551 60.5954 60.8285 60.9044 62.078 61.2C63.1763 61.4634 64.317 61.7402 65.4365 62.025C71.7424 63.5783 78.0589 65.1315 84.3648 66.6847C82.269 68.9554 80.16 71.2584 78.1146 73.4835ZM72.647 94.9465C72.7664 93.791 72.8964 92.6006 73.0052 91.4343C73.1033 90.4991 73.2015 89.5398 73.2996 88.6261C73.4509 87.1616 73.6153 85.6406 73.7453 84.1545L73.7772 83.8912C73.8859 82.9453 73.9947 81.9644 74.061 80.9836C74.1804 80.9164 74.3104 80.8519 74.4536 80.7955C74.6155 80.7175 74.7799 80.653 74.9418 80.5536C77.454 79.2207 79.9637 77.8879 82.4865 76.5657C84.9988 75.2436 87.5747 73.8785 90.1295 72.5241C87.8029 75.9369 85.4657 79.3847 83.2028 82.7437C81.2556 85.6191 79.2553 88.5804 77.2657 91.4988C76.4831 92.6651 75.6687 93.8555 74.8967 95.0003C74.0265 96.2767 73.1352 97.5881 72.265 98.8995C72.3738 97.58 72.5038 96.2472 72.647 94.9465ZM57.4912 62.8661C57.3506 62.4684 57.1967 62.0626 57.0667 61.6757C60.0034 65.2659 62.9587 68.8775 65.8398 72.3817C67.328 74.1983 68.8189 76.0041 70.3072 77.8341C70.6017 78.1754 70.8935 78.5382 71.1773 78.8902C71.5461 79.3417 71.9175 79.8146 72.3181 80.2661C72.1881 81.4001 72.0793 82.5449 71.9599 83.6466C71.883 84.4179 71.8087 85.1891 71.7212 85.9711V85.9819C71.6893 86.4763 71.623 86.9735 71.57 87.4572C71.493 88.129 71.3206 89.65 71.3206 89.65L71.31 89.7279C71.1137 91.9529 70.8749 94.1995 70.6468 96.3788C70.5486 97.2818 70.4611 98.2062 70.3629 99.1333C70.3099 98.9693 70.2435 98.8027 70.1878 98.6496C70.026 98.2089 69.8615 97.7466 69.7103 97.2952L68.5457 94.0248C64.8609 83.6359 61.176 73.2631 57.4912 62.8661Z" fill="white"/>
<g filter="url(#filter3_d)">
<path d="M67.898 18.2018C71.1077 13.2648 76.6726 10 83 10C89.7454 10 95.6242 13.7104 98.7068 19.2016C99.4512 19.0691 100.218 19 101 19C107.5 19 112.885 23.7698 113.847 30H115C117.761 30 120 32.2386 120 35C120 37.7614 117.761 40 115 40H35C32.2386 40 30 37.7614 30 35C30 32.2386 32.2386 30 35 30H36.5392C38.2897 23.6576 44.1009 19 51 19C52.3389 19 53.6368 19.1754 54.872 19.5045C56.5179 17.3729 59.0986 16 62 16C64.2562 16 66.3184 16.8302 67.898 18.2018Z" fill="white"/>
</g>
<defs>
<filter id="filter0_d" x="0" y="25" width="125" height="110" filterUnits="userSpaceOnUse" color-interpolation-filters="sRGB">
<feFlood flood-opacity="0" result="BackgroundImageFix"/>
<feColorMatrix in="SourceAlpha" type="matrix" values="0 0 0 0 0 0 0 0 0 0 0 0 0 0 0 0 0 0 127 0"/>
<feOffset/>
<feGaussianBlur stdDeviation="5"/>
<feColorMatrix type="matrix" values="0 0 0 0 0 0 0 0 0 0 0 0 0 0 0 0 0 0 0.2 0"/>
<feBlend mode="normal" in2="BackgroundImageFix" result="effect1_dropShadow"/>
<feBlend mode="normal" in="SourceGraphic" in2="effect1_dropShadow" result="shape"/>
</filter>
<filter id="filter1_d" x="19" y="-26" width="115" height="161" filterUnits="userSpaceOnUse" color-interpolation-filters="sRGB">
<feFlood flood-opacity="0" result="BackgroundImageFix"/>
<feColorMatrix in="SourceAlpha" type="matrix" values="0 0 0 0 0 0 0 0 0 0 0 0 0 0 0 0 0 0 127 0"/>
<feOffset/>
<feGaussianBlur stdDeviation="5"/>
<feColorMatrix type="matrix" values="0 0 0 0 0 0 0 0 0 0 0 0 0 0 0 0 0 0 0.2 0"/>
<feBlend mode="normal" in2="BackgroundImageFix" result="effect1_dropShadow"/>
<feBlend mode="normal" in="SourceGraphic" in2="effect1_dropShadow" result="shape"/>
</filter>
<filter id="filter2_d" x="11" y="-26" width="110.879" height="132" filterUnits="userSpaceOnUse" color-interpolation-filters="sRGB">
<feFlood flood-opacity="0" result="BackgroundImageFix"/>
<feColorMatrix in="SourceAlpha" type="matrix" values="0 0 0 0 0 0 0 0 0 0 0 0 0 0 0 0 0 0 127 0"/>
<feOffset/>
<feGaussianBlur stdDeviation="5"/>
<feColorMatrix type="matrix" values="0 0 0 0 0 0 0 0 0 0 0 0 0 0 0 0 0 0 0.2 0"/>
<feBlend mode="normal" in2="BackgroundImageFix" result="effect1_dropShadow"/>
<feBlend mode="normal" in="SourceGraphic" in2="effect1_dropShadow" result="shape"/>
</filter>
<filter id="filter3_d" x="20" y="0" width="110" height="50" filterUnits="userSpaceOnUse" color-interpolation-filters="sRGB">
<feFlood flood-opacity="0" result="BackgroundImageFix"/>
<feColorMatrix in="SourceAlpha" type="matrix" values="0 0 0 0 0 0 0 0 0 0 0 0 0 0 0 0 0 0 127 0"/>
<feOffset/>
<feGaussianBlur stdDeviation="5"/>
<feColorMatrix type="matrix" values="0 0 0 0 0.166667 0 0 0 0 0.0974226 0 0 0 0 0.0486111 0 0 0 0.2 0"/>
<feBlend mode="normal" in2="BackgroundImageFix" result="effect1_dropShadow"/>
<feBlend mode="normal" in="SourceGraphic" in2="effect1_dropShadow" result="shape"/>
</filter>
</defs>
</svg>
