<svg width="32" height="32" viewBox="0 0 32 32" fill="none" xmlns="http://www.w3.org/2000/svg">
<rect x="0.5" y="0.5" width="31" height="31" rx="15.5" fill="white" stroke="#F6F9FA"/>
<path d="M17.6263 14.0369V12.0411H22.1101V9H9.90042V12.0411H14.3848V14.0353C10.7403 14.2057 8 14.9404 8 15.8206C8 16.7007 10.7416 17.4354 14.3848 17.6069V24H17.6273V17.6064C21.2652 17.4354 24 16.7013 24 15.8219C24 14.9426 21.2652 14.2084 17.6273 14.0375L17.6263 14.0369ZM17.6273 17.0648V17.0632C17.5358 17.0691 17.0658 17.0979 16.0192 17.0979C15.1825 17.0979 14.5939 17.0737 14.3864 17.0627V17.0654C11.1666 16.9202 8.76317 16.3495 8.76317 15.6665C8.76317 14.9836 11.1668 14.4137 14.3864 14.2682V16.4968C14.5973 16.5115 15.2004 16.5478 16.033 16.5478C17.0329 16.5478 17.5356 16.5054 17.6278 16.4968V14.2682C20.8413 14.414 23.2392 14.9852 23.2392 15.6657C23.2392 16.3462 20.8403 16.9178 17.6278 17.0635" fill="#53AE94"/>
</svg>
