<svg width="14" height="14" viewBox="0 0 14 14" fill="none" xmlns="http://www.w3.org/2000/svg">
<path d="M11.375 11.75H3.75C2.92157 11.75 2.25 11.0784 2.25 10.25V3.75C2.25 2.92157 2.92157 2.25 3.75 2.25H11.375C11.5821 2.25 11.75 2.41789 11.75 2.625C11.75 2.83211 11.5821 3 11.375 3H7.83333C6.45262 3 5.33333 4.11929 5.33333 5.5V8.5C5.33333 9.88071 6.45262 11 7.83333 11H11.375C11.5821 11 11.75 11.1679 11.75 11.375C11.75 11.5821 11.5821 11.75 11.375 11.75ZM10.8333 8.83333H9C8.17157 8.83333 7.5 8.16176 7.5 7.33333V6.66667C7.5 5.83824 8.17157 5.16667 9 5.16667H10.8333C11.6618 5.16667 12.3333 5.83824 12.3333 6.66667V7.33333C12.3333 8.16176 11.6618 8.83333 10.8333 8.83333ZM7.95833 7C7.95833 7.76031 8.57302 8.375 9.33333 8.375C10.0936 8.375 10.7083 7.76031 10.7083 7C10.7083 6.23969 10.0936 5.625 9.33333 5.625C8.57302 5.625 7.95833 6.23969 7.95833 7Z" fill="url(#paint0_linear)" stroke="url(#paint1_linear)"/>
<defs>
<linearGradient id="paint0_linear" x1="1.75" y1="4.44929" x2="14.5904" y2="10.2054" gradientUnits="userSpaceOnUse">
<stop stop-color="#5AC9E5"/>
<stop offset="1" stop-color="#194ECA"/>
</linearGradient>
<linearGradient id="paint1_linear" x1="1.75" y1="4.44929" x2="14.5904" y2="10.2054" gradientUnits="userSpaceOnUse">
<stop stop-color="#5AC9E5"/>
<stop offset="1" stop-color="#194ECA"/>
</linearGradient>
</defs>
</svg>
