<svg width="135" height="178" viewBox="0 0 135 178" fill="none" xmlns="http://www.w3.org/2000/svg">
<path fill-rule="evenodd" clip-rule="evenodd" d="M32.9128 18.4949C53.9932 19.4596 75.4962 -2.17257 93.8192 8.28367C111.905 18.6045 108.296 45.6786 115.041 65.3626C121.936 85.4822 139.914 104.387 133.724 124.734C127.527 145.104 104.914 155.913 85.103 163.767C68.5249 170.339 50.6774 163.105 32.9128 164.697C12.4384 166.532 -9.53247 185.283 -26.5575 173.776C-43.4581 162.352 -34.659 135.336 -39.7355 115.594C-44.3514 97.6431 -56.1443 82.0072 -54.91 63.5145C-53.4289 41.3254 -51.9959 12.6714 -32.1879 2.51744C-11.8088 -7.92928 10.0305 17.4478 32.9128 18.4949Z" fill="url(#paint0_linear)"/>
<defs>
<linearGradient id="paint0_linear" x1="-55" y1="45.6278" x2="164.075" y2="145.226" gradientUnits="userSpaceOnUse">
<stop stop-color="#5AC9E5"/>
<stop offset="1" stop-color="#194ECA"/>
</linearGradient>
</defs>
</svg>
