<svg width="200" height="200" viewBox="0 0 200 200" fill="none" xmlns="http://www.w3.org/2000/svg">
<mask id="mask0" mask-type="alpha" maskUnits="userSpaceOnUse" x="0" y="0" width="200" height="200">
<path fill-rule="evenodd" clip-rule="evenodd" d="M100 200C155.228 200 200 155.228 200 100C200 44.7715 155.228 0 100 0C44.7715 0 0 44.7715 0 100C0 155.228 44.7715 200 100 200ZM100 162.025C134.256 162.025 162.025 134.256 162.025 100C162.025 65.7444 134.256 37.9747 100 37.9747C65.7444 37.9747 37.9747 65.7444 37.9747 100C37.9747 134.256 65.7444 162.025 100 162.025Z" fill="#C4C4C4"/>
</mask>
<g mask="url(#mask0)">
<path d="M201.183 100.292C201.183 82.6428 196.57 65.3003 187.802 49.9834C179.034 34.6664 166.416 21.9069 151.197 12.9697C135.978 4.03249 118.688 -0.772118 101.04 -0.967832C83.392 -1.16355 65.9994 3.25643 50.5862 11.8539L99.9169 100.292H201.183Z" fill="url(#paint0_linear)" stroke="white"/>
<path d="M50.5862 11.8541C37.0274 19.4172 25.3892 29.9966 16.571 42.7748C7.75278 55.5529 1.99074 70.1875 -0.269792 85.5475C-2.53032 100.908 -1.22881 116.582 3.53415 131.359C8.2971 146.135 16.3939 159.619 27.1989 170.768L99.9169 100.292L50.5862 11.8541Z" fill="url(#paint1_linear)" stroke="white"/>
<path d="M27.1989 170.768C41.2317 185.247 59.2675 195.207 78.996 199.373C98.7246 203.539 119.248 201.72 137.936 194.15C156.625 186.579 172.628 173.603 183.895 156.881C195.163 140.16 201.183 120.455 201.183 100.292H99.9169L27.1989 170.768Z" fill="url(#paint2_linear)" stroke="white"/>
</g>
<defs>
<linearGradient id="paint0_linear" x1="125.884" y1="-0.97406" x2="125.884" y2="100.292" gradientUnits="userSpaceOnUse">
<stop stop-color="#482BF7"/>
<stop offset="1" stop-color="#98ECFA"/>
</linearGradient>
<linearGradient id="paint1_linear" x1="49.284" y1="11.8541" x2="49.284" y2="170.768" gradientUnits="userSpaceOnUse">
<stop stop-color="#2B7DF7"/>
<stop offset="1" stop-color="#98ECFA"/>
</linearGradient>
<linearGradient id="paint2_linear" x1="114.191" y1="100.292" x2="114.191" y2="201.558" gradientUnits="userSpaceOnUse">
<stop stop-color="#2BD2F7"/>
<stop offset="1" stop-color="#98ECFA"/>
</linearGradient>
</defs>
</svg>
