<svg width="32" height="32" viewBox="0 0 32 32" fill="none" xmlns="http://www.w3.org/2000/svg">
<path d="M26 24C27.1046 24 28 24.8954 28 26V26C28 27.1046 27.1046 28 26 28H6C4.89543 28 4 27.1046 4 26V6C4 4.89543 4.89543 4 6 4H26C27.1046 4 28 4.89543 28 6V6C28 7.10457 27.1046 8 26 8H15.3333C14.2288 8 13.3333 8.89543 13.3333 10V22C13.3333 23.1046 14.2288 24 15.3333 24H26ZM16 19.3333C16 20.4379 16.8954 21.3333 18 21.3333H27.3333C28.4379 21.3333 29.3333 20.4379 29.3333 19.3333V12.6667C29.3333 11.5621 28.4379 10.6667 27.3333 10.6667H18C16.8954 10.6667 16 11.5621 16 12.6667V19.3333ZM21.3333 18C20.2267 18 19.3333 17.1067 19.3333 16C19.3333 14.8933 20.2267 14 21.3333 14C22.44 14 23.3333 14.8933 23.3333 16C23.3333 17.1067 22.44 18 21.3333 18Z" fill="url(#paint0_linear)"/>
<defs>
<linearGradient id="paint0_linear" x1="4" y1="10.1698" x2="33.3494" y2="23.3267" gradientUnits="userSpaceOnUse">
<stop stop-color="#5AC9E5"/>
<stop offset="1" stop-color="#194ECA"/>
</linearGradient>
</defs>
</svg>
