<svg width="46" height="46" viewBox="0 0 46 46" fill="none" xmlns="http://www.w3.org/2000/svg">
<rect x="0.5" y="0.5" width="45" height="45" rx="22.5" fill="white" stroke="#F6F9FA"/>
<path d="M13.2991 10L15.9211 11.8398L16.6691 13.2516L18.181 13.8298L19.9999 17.8023L18.7321 21.4518L17.6613 22L18.4172 18.0801L16.5274 15.3767L14.8896 14.7459L14.7636 12.2528L13.2991 10Z" fill="#21B3D3"/>
<path fill-rule="evenodd" clip-rule="evenodd" d="M13.0858 9.77958C13.1965 9.68204 13.3642 9.67312 13.4856 9.75831L16.1077 11.5981C16.1474 11.626 16.1797 11.6624 16.202 11.7045L16.8965 13.0152L18.2982 13.5513C18.3748 13.5806 18.4363 13.6375 18.4694 13.7097L20.2883 17.6822C20.3193 17.75 20.323 17.8263 20.2986 17.8965L19.0309 21.5461C19.0056 21.619 18.9519 21.6798 18.881 21.7161L17.8102 22.2643C17.7036 22.3188 17.5738 22.3103 17.4761 22.2424C17.3784 22.1744 17.3302 22.0591 17.352 21.9457L18.0849 18.1453L16.3197 15.6202L14.772 15.0241C14.6581 14.9802 14.5815 14.8773 14.5755 14.7603L14.4535 12.3448L13.0318 10.158C12.9524 10.0359 12.975 9.87712 13.0858 9.77958ZM14.425 11.1623L15.0311 12.0947C15.0593 12.138 15.0754 12.1874 15.078 12.2383L15.1943 14.5396L16.6453 15.0985C16.704 15.1211 16.7542 15.16 16.7893 15.2103L18.679 17.9136C18.7244 17.9785 18.7415 18.0576 18.7267 18.1343L18.0891 21.4405L18.4731 21.244L19.6635 17.8169L17.9444 14.0624L16.5522 13.53C16.4812 13.5028 16.423 13.4519 16.3885 13.3868L15.6743 12.039L14.425 11.1623Z" fill="#21B3D3"/>
<path d="M17.6614 22L18.4173 18.0801L16.5276 15.3768L14.8898 14.746L12.3622 17.577L10.4961 17.4644L10 19.139L11.2441 22H17.6614Z" fill="#3FDCFF"/>
<path fill-rule="evenodd" clip-rule="evenodd" d="M14.6504 14.5515C14.7382 14.4531 14.8821 14.4194 15.0077 14.4678L16.6455 15.0986C16.7041 15.1212 16.7543 15.1601 16.7894 15.2103L18.6792 17.9137C18.7245 17.9786 18.7416 18.0577 18.7268 18.1344L17.9709 22.0543C17.9435 22.1966 17.8133 22.3 17.6615 22.3H11.2442C11.117 22.3 11.0024 22.227 10.9536 22.1149L9.70954 19.2538C9.68244 19.1915 9.67816 19.1223 9.6974 19.0574L10.1935 17.3828C10.2338 17.2468 10.3681 17.156 10.516 17.1649L12.2249 17.2681L14.6504 14.5515ZM14.9824 15.1051L12.6018 17.7715C12.5375 17.8435 12.4414 17.8823 12.3424 17.8764L10.7298 17.779L10.3325 19.1202L11.4543 21.7H17.3995L18.085 18.1454L16.3198 15.6202L14.9824 15.1051Z" fill="#3FDCFF"/>
<path d="M13.2991 10L12.685 10.413L11.811 12.9512L10.1968 15.0163L10.496 17.4643L12.3621 17.577L14.8897 14.7459L14.7637 12.2528L13.2991 10Z" fill="#67E3FF"/>
<path fill-rule="evenodd" clip-rule="evenodd" d="M13.362 9.70598C13.4469 9.72247 13.5209 9.77163 13.5666 9.84187L15.0312 12.0947C15.0593 12.138 15.0755 12.1874 15.078 12.2383L15.204 14.7314C15.2079 14.8076 15.1811 14.8823 15.1293 14.9404L12.6018 17.7714C12.5375 17.8434 12.4413 17.8823 12.3424 17.8763L10.4762 17.7637C10.3244 17.7545 10.2013 17.6431 10.1837 17.499L9.88444 15.051C9.87514 14.9749 9.8967 14.8983 9.94469 14.8369L11.5282 12.8111L12.3862 10.3194C12.4073 10.2581 12.4485 10.205 12.5038 10.1678L13.118 9.75478C13.1888 9.70715 13.2771 9.6895 13.362 9.70598ZM12.9515 10.6009L12.1099 13.0447C12.0993 13.0755 12.0836 13.1045 12.0633 13.1304L10.5238 15.0999L10.7781 17.1807L12.2249 17.268L14.5696 14.6418L14.4535 12.3448L13.2078 10.4286L12.9515 10.6009Z" fill="#67E3FF"/>
<path d="M32.6263 28.0369V26.0411H37.1101V23H24.9004V26.0411H29.3848V28.0353C25.7403 28.2057 23 28.9404 23 29.8206C23 30.7007 25.7416 31.4354 29.3848 31.6069V38H32.6273V31.6064C36.2652 31.4354 39 30.7013 39 29.8219C39 28.9426 36.2652 28.2084 32.6273 28.0375L32.6263 28.0369ZM32.6273 31.0648V31.0632C32.5358 31.0691 32.0658 31.0979 31.0192 31.0979C30.1825 31.0979 29.5939 31.0737 29.3864 31.0627V31.0654C26.1666 30.9202 23.7632 30.3495 23.7632 29.6665C23.7632 28.9836 26.1668 28.4137 29.3864 28.2682V30.4968C29.5973 30.5115 30.2004 30.5478 31.033 30.5478C32.0329 30.5478 32.5356 30.5054 32.6278 30.4968V28.2682C35.8413 28.414 38.2392 28.9852 38.2392 29.6657C38.2392 30.3462 35.8403 30.9178 32.6278 31.0635" fill="#53AE94"/>
</svg>
