<svg width="46" height="46" viewBox="0 0 46 46" fill="none" xmlns="http://www.w3.org/2000/svg">
<rect x="0.5" y="0.5" width="45" height="45" rx="22.5" fill="white" stroke="#F6F9FA"/>
<path d="M17.6263 15.0369V13.0411H22.1101V10H9.90042V13.0411H14.3848V15.0353C10.7403 15.2057 8 15.9404 8 16.8206C8 17.7007 10.7416 18.4354 14.3848 18.6069V25H17.6273V18.6064C21.2652 18.4354 24 17.7013 24 16.8219C24 15.9426 21.2652 15.2084 17.6273 15.0375L17.6263 15.0369ZM17.6273 18.0648V18.0632C17.5358 18.0691 17.0658 18.0979 16.0192 18.0979C15.1825 18.0979 14.5939 18.0737 14.3864 18.0627V18.0654C11.1666 17.9202 8.76317 17.3495 8.76317 16.6665C8.76317 15.9836 11.1668 15.4137 14.3864 15.2682V17.4968C14.5973 17.5115 15.2004 17.5478 16.033 17.5478C17.0329 17.5478 17.5356 17.5054 17.6278 17.4968V15.2682C20.8413 15.414 23.2392 15.9852 23.2392 16.6657C23.2392 17.3462 20.8403 17.9178 17.6278 18.0635" fill="#53AE94"/>
<path d="M30.0001 20L31.9822 22.0238L26.9911 26.9999L25.009 25.0237L30.0001 20Z" fill="#F0B90B" stroke="#F0B90B"/>
<path d="M33.009 22.9998L34.9911 25.0235L26.9911 32.9996L25.009 31.0234L33.009 22.9998Z" fill="#F0B90B" stroke="#F0B90B"/>
<path d="M23.9821 25.9998L25.9642 28.0235L23.9821 29.9997L22 28.0235L23.9821 25.9998Z" fill="#F0B90B" stroke="#F0B90B"/>
<path d="M36.0178 25.9998L37.9999 28.0235L29.9999 35.9996L28.0178 34.0234L36.0178 25.9998Z" fill="#F0B90B" stroke="#F0B90B"/>
</svg>
