<svg width="46" height="46" viewBox="0 0 46 46" fill="none" xmlns="http://www.w3.org/2000/svg">
<rect x="0.5" y="0.5" width="45" height="45" rx="22.5" fill="white" stroke="#F6F9FA"/>
<path d="M17.6263 14.0369V12.0411H22.1101V9H9.90042V12.0411H14.3848V14.0353C10.7403 14.2057 8 14.9404 8 15.8206C8 16.7007 10.7416 17.4354 14.3848 17.6069V24H17.6273V17.6064C21.2652 17.4354 24 16.7013 24 15.8219C24 14.9426 21.2652 14.2084 17.6273 14.0375L17.6263 14.0369ZM17.6273 17.0648V17.0632C17.5358 17.0691 17.0658 17.0979 16.0192 17.0979C15.1825 17.0979 14.5939 17.0737 14.3864 17.0627V17.0654C11.1666 16.9202 8.76317 16.3495 8.76317 15.6665C8.76317 14.9836 11.1668 14.4137 14.3864 14.2682V16.4968C14.5973 16.5115 15.2004 16.5478 16.033 16.5478C17.0329 16.5478 17.5356 16.5054 17.6278 16.4968V14.2682C20.8413 14.414 23.2392 14.9852 23.2392 15.6657C23.2392 16.3462 20.8403 16.9178 17.6278 17.0635" fill="#53AE94"/>
<path d="M29 36C33.4334 36 37 32.4334 37 28C37 23.5666 33.4334 20 29 20C24.5666 20 21 23.5666 21 28C21 32.4334 24.5666 36 29 36Z" fill="#2775CA"/>
<path d="M31.2 29.2664C31.2 28.0998 30.5 27.6998 29.1 27.5331C28.1 27.3998 27.9 27.1331 27.9 26.6664C27.9 26.1997 28.2334 25.8998 28.9 25.8998C29.5 25.8998 29.8334 26.0998 30 26.5998C30.0334 26.6998 30.1334 26.7664 30.2334 26.7664H30.7666C30.9 26.7664 31 26.6664 31 26.5331V26.4998C30.8666 25.7664 30.2666 25.1998 29.5 25.1331V24.3331C29.5 24.1998 29.4 24.0998 29.2334 24.0664H28.7334C28.6 24.0664 28.5 24.1664 28.4667 24.3331V25.0998C27.4667 25.2331 26.8334 25.8998 26.8334 26.7331C26.8334 27.8331 27.5 28.2664 28.9 28.4331C29.8334 28.5998 30.1334 28.7998 30.1334 29.3331C30.1334 29.8665 29.6666 30.2332 29.0334 30.2332C28.1667 30.2332 27.8667 29.8664 27.7667 29.3664C27.7334 29.2331 27.6334 29.1664 27.5334 29.1664H26.9667C26.8334 29.1664 26.7334 29.2664 26.7334 29.3998V29.4331C26.8667 30.2664 27.4 30.8664 28.5 31.0332V31.8332C28.5 31.9664 28.6 32.0664 28.7667 32.0998H29.2666C29.4 32.0998 29.5 31.9998 29.5334 31.8332V31.0332C30.5333 30.8664 31.2 30.1664 31.2 29.2664Z" fill="white"/>
<path d="M27.3002 32.7668C24.7002 31.8335 23.3668 28.9335 24.3335 26.3668C24.8335 24.9668 25.9335 23.9001 27.3002 23.4001C27.4335 23.3335 27.5002 23.2335 27.5002 23.0668V22.6001C27.5002 22.4668 27.4335 22.3668 27.3002 22.3335C27.2668 22.3335 27.2002 22.3335 27.1668 22.3668C24.0002 23.3668 22.2668 26.7335 23.2668 29.9001C23.8668 31.7668 25.3002 33.2001 27.1668 33.8001C27.3002 33.8668 27.4335 33.8001 27.4668 33.6668C27.5002 33.6335 27.5002 33.6001 27.5002 33.5335V33.0668C27.5002 32.9668 27.4002 32.8335 27.3002 32.7668ZM30.8335 22.3668C30.7002 22.3001 30.5668 22.3668 30.5335 22.5001C30.5002 22.5335 30.5002 22.5668 30.5002 22.6335V23.1001C30.5002 23.2335 30.6002 23.3668 30.7002 23.4335C33.3002 24.3668 34.6335 27.2668 33.6668 29.8335C33.1668 31.2335 32.0668 32.3001 30.7002 32.8001C30.5668 32.8668 30.5002 32.9668 30.5002 33.1335V33.6001C30.5002 33.7335 30.5668 33.8335 30.7002 33.8668C30.7335 33.8668 30.8002 33.8668 30.8335 33.8335C34.0002 32.8335 35.7335 29.4668 34.7335 26.3001C34.1335 24.4001 32.6668 22.9668 30.8335 22.3668Z" fill="white"/>
</svg>
