<svg width="18" height="22" viewBox="0 0 18 22" fill="none" xmlns="http://www.w3.org/2000/svg">
<path fill-rule="evenodd" clip-rule="evenodd" d="M6.27726 0.101894C6.07671 -0.0468544 5.79967 -0.0312781 5.61677 0.13903C5.43387 0.309338 5.39651 0.586503 5.52771 0.799828L7.876 4.61802L8.07763 8.83557C8.08739 9.03973 8.21406 9.21952 8.40206 9.29606L10.9586 10.3369L13.8744 14.7459L12.6639 21.3814C12.6277 21.5795 12.7074 21.7808 12.8688 21.8994C13.0301 22.0181 13.2447 22.0329 13.4206 21.9377L15.1895 20.9806C15.3067 20.9172 15.3952 20.811 15.437 20.6838L17.5311 14.3115C17.5714 14.1889 17.5653 14.0556 17.514 13.9372L14.5095 7.00112C14.4549 6.87509 14.3534 6.77576 14.2267 6.72457L11.9114 5.78853L10.7642 3.49992C10.7275 3.42656 10.6741 3.36295 10.6084 3.31424L6.27726 0.101894Z" fill="#21B3D3"/>
<path fill-rule="evenodd" clip-rule="evenodd" d="M8.79119 8.32464C8.58377 8.24019 8.34601 8.29905 8.20099 8.47075L4.19464 13.2141L1.37184 13.034C1.12751 13.0184 0.905536 13.1768 0.838978 13.4143L0.0195718 16.3382C-0.0122009 16.4516 -0.00513247 16.5725 0.0396352 16.6813L2.09465 21.6768C2.17513 21.8724 2.36454 22 2.57463 22H13.1749C13.4256 22 13.6406 21.8195 13.6859 21.5709L14.9345 14.7266C14.959 14.5928 14.9307 14.4546 14.8558 14.3413L11.7343 9.62115C11.6763 9.53348 11.5935 9.46547 11.4965 9.42601L8.79119 8.32464Z" fill="#3FDCFF"/>
<path fill-rule="evenodd" clip-rule="evenodd" d="M6.41096 0.247796C6.33553 0.125155 6.21326 0.0393137 6.07299 0.0105295C5.93273 -0.0182545 5.7869 0.0125684 5.66991 0.0957245L4.65541 0.816864C4.56413 0.881746 4.49602 0.97455 4.46117 1.08152L3.04389 5.4321L0.428211 8.96932C0.34894 9.07652 0.313335 9.21022 0.328691 9.34303L0.822936 13.6174C0.852025 13.869 1.05549 14.0635 1.30623 14.0795L4.38876 14.2762C4.55223 14.2866 4.71101 14.2187 4.8172 14.093L8.99227 9.14994C9.0779 9.04857 9.12201 8.91813 9.11565 8.78515L8.90755 4.43209C8.9033 4.34322 8.87667 4.2569 8.83016 4.18128L6.41096 0.247796Z" fill="#67E3FF"/>
</svg>
