<svg width="24" height="25" viewBox="0 0 24 25" fill="none" xmlns="http://www.w3.org/2000/svg">
<path fill-rule="evenodd" clip-rule="evenodd" d="M4.30374 3.78963C3.93589 1.81983 5.44734 0 7.45119 0C9.21953 0 10.653 1.43352 10.653 3.20186V7.14926C11.0954 7.11804 11.5448 7.10204 12 7.10204C12.4373 7.10204 12.8693 7.11681 13.2948 7.14565V3.20186C13.2948 1.43352 14.7283 0 16.4966 0C18.5005 0 20.0119 1.81983 19.6441 3.78963L18.7776 8.42959C21.7514 9.72791 24 11.9828 24 14.8163V16.5306C24 18.8607 22.4585 20.8116 20.3034 22.1286C18.1315 23.4558 15.1934 24.2448 12 24.2448C8.80658 24.2448 5.86845 23.4558 3.69658 22.1286C1.54153 20.8116 0 18.8607 0 16.5306V14.8163C0 11.9978 2.22551 9.75154 5.17417 8.45067L4.30374 3.78963ZM17.6672 9.03919L18.6812 3.6098C18.9365 2.24266 17.8875 0.979595 16.4966 0.979595C15.2693 0.979595 14.2744 1.97453 14.2744 3.20186V8.22521C13.9528 8.18398 13.6261 8.1513 13.2948 8.12762C12.8701 8.09724 12.4381 8.08163 12 8.08163C11.544 8.08163 11.0945 8.09855 10.653 8.13142C10.3218 8.1561 9.99502 8.18975 9.67346 8.23197V3.20186C9.67346 1.97453 8.67851 0.979595 7.45119 0.979595C6.0604 0.979595 5.01137 2.24265 5.26669 3.6098L6.28397 9.0572C3.1038 10.2385 0.97959 12.3759 0.97959 14.8163V16.5306C0.97959 20.2501 5.91359 23.2653 12 23.2653C18.0864 23.2653 23.0204 20.2501 23.0204 16.5306V14.8163C23.0204 12.3633 20.8744 10.2167 17.6672 9.03919Z" fill="#633001"/>
<path d="M23.0201 16.531C23.0201 20.2505 18.0861 23.2657 11.9997 23.2657C5.91331 23.2657 0.979309 20.2505 0.979309 16.531V14.8167H23.0201V16.531Z" fill="#FEDC90"/>
<path fill-rule="evenodd" clip-rule="evenodd" d="M5.2664 3.60946C5.0111 2.24231 6.06012 0.979248 7.45091 0.979248C8.67824 0.979248 9.67318 1.97419 9.67318 3.20152V8.23164C10.4232 8.13313 11.2016 8.08128 11.9997 8.08128C12.7794 8.08128 13.5402 8.13076 14.2741 8.22486V3.20152C14.2741 1.97419 15.2691 0.979248 16.4964 0.979248C17.8872 0.979248 18.9362 2.24231 18.6809 3.60946L17.6669 9.03884C20.8741 10.2164 23.0201 12.3631 23.0201 14.816C23.0201 18.5355 18.0861 21.5507 11.9997 21.5507C5.91331 21.5507 0.979309 18.5355 0.979309 14.816C0.979309 12.3755 3.10351 10.2381 6.28368 9.05686L5.2664 3.60946Z" fill="#D1884F"/>
<path d="M8.93891 14.3264C8.93891 15.3409 8.39068 16.1632 7.71441 16.1632C7.03814 16.1632 6.48993 15.3409 6.48993 14.3264C6.48993 13.3121 7.03814 12.4897 7.71441 12.4897C8.39068 12.4897 8.93891 13.3121 8.93891 14.3264Z" fill="#633001"/>
<path d="M17.388 14.3264C17.388 15.3409 16.8397 16.1632 16.1635 16.1632C15.4872 16.1632 14.939 15.3409 14.939 14.3264C14.939 13.3121 15.4872 12.4897 16.1635 12.4897C16.8397 12.4897 17.388 13.3121 17.388 14.3264Z" fill="#633001"/>
</svg>
