<svg width="38" height="42" viewBox="0 0 38 42" fill="none" xmlns="http://www.w3.org/2000/svg">
<path d="M22.8624 14.1034V8.51496H33.5115V0H4.51349V8.51496H15.1639V14.0989C6.50822 14.576 0 16.6332 0 19.0976C0 21.562 6.51135 23.6192 15.1639 24.0993V42H22.8649V24.0978C31.5049 23.6192 38 21.5635 38 19.1014C38 16.6392 31.5049 14.5835 22.8649 14.1049L22.8624 14.1034ZM22.8649 22.5816V22.5771C22.6476 22.5936 21.5313 22.674 19.0457 22.674C17.0585 22.674 15.6604 22.6064 15.1677 22.5756V22.5831C7.52061 22.1766 1.81253 20.5785 1.81253 18.6663C1.81253 16.7542 7.52124 15.1583 15.1677 14.7511V20.991C15.6686 21.0323 17.1011 21.1337 19.0783 21.1337C21.453 21.1337 22.647 21.015 22.8661 20.991V14.7511C30.4982 15.1591 36.1931 16.7587 36.1931 18.6641C36.1931 20.5695 30.4957 22.1698 22.8661 22.5778" fill="#53AE94"/>
</svg>
