<svg width="21" height="24" viewBox="0 0 21 24" fill="none" xmlns="http://www.w3.org/2000/svg">
<g clip-path="url(#clip0)">
<path d="M8.17334 5.46136C7.91328 5.42421 7.90089 5.41183 8.02473 5.39944C8.26003 5.36229 8.80492 5.41183 9.18882 5.49851C10.0805 5.70904 10.8854 6.25393 11.7399 7.2075L11.9628 7.46756L12.2848 7.41802C13.6594 7.19511 15.0712 7.36849 16.2476 7.91338C16.5696 8.06199 17.0774 8.3592 17.1393 8.4335C17.1641 8.45827 17.2012 8.61926 17.226 8.78025C17.3127 9.3623 17.2755 9.79573 17.0897 10.1301C16.9907 10.3159 16.9907 10.3654 17.0526 10.5264C17.1021 10.6502 17.2507 10.7369 17.387 10.7369C17.6842 10.7369 17.9938 10.2663 18.1424 9.60997L18.2043 9.34991L18.3158 9.47375C18.9473 10.1796 19.4427 11.158 19.517 11.8515L19.5418 12.0372L19.4303 11.8762C19.2445 11.5914 19.0712 11.4056 18.8359 11.2447C18.4148 10.9598 17.969 10.8731 16.7925 10.8112C15.7275 10.7493 15.1207 10.6626 14.5263 10.4645C13.5108 10.1301 12.9907 9.69666 11.7894 8.09914C11.2569 7.39325 10.9226 7.00935 10.5882 6.68737C9.85755 5.98149 9.1269 5.60997 8.17334 5.46136Z" fill="#FF007A"/>
<path d="M17.3994 7.03409C17.4241 6.5635 17.486 6.2539 17.6223 5.96907C17.6718 5.85762 17.7213 5.75854 17.7337 5.75854C17.7461 5.75854 17.7213 5.84523 17.6842 5.9443C17.5851 6.21675 17.5727 6.60065 17.6347 7.03409C17.7213 7.59136 17.7585 7.66567 18.3529 8.27248C18.6254 8.55731 18.9473 8.91644 19.0712 9.06505L19.2817 9.3375L19.0712 9.13935C18.8111 8.89168 18.2167 8.42109 18.0805 8.35917C17.9938 8.30963 17.9814 8.30963 17.9195 8.37155C17.8699 8.42109 17.8576 8.49539 17.8576 8.85452C17.8452 9.4118 17.7709 9.75855 17.5851 10.1177C17.486 10.3034 17.4737 10.2663 17.5603 10.0558C17.6223 9.89477 17.6347 9.82047 17.6347 9.28796C17.6347 8.21056 17.5108 7.9505 16.7554 7.51706C16.5696 7.40561 16.2477 7.24461 16.0619 7.15793C15.8638 7.07124 15.7151 6.99694 15.7275 6.99694C15.7523 6.97217 16.4829 7.18269 16.7678 7.30653C17.2012 7.47991 17.2755 7.49229 17.3251 7.47991C17.3622 7.44276 17.387 7.34369 17.3994 7.03409Z" fill="#FF007A"/>
<path d="M8.68112 8.87914C8.16099 8.16088 7.82663 7.04633 7.90093 6.21661L7.9257 5.95654L8.04954 5.98131C8.27245 6.01846 8.65635 6.16707 8.84211 6.27852C9.33746 6.57574 9.56037 6.98441 9.7709 7.99989C9.83282 8.2971 9.91951 8.64385 9.95666 8.7553C10.0186 8.94106 10.2539 9.3745 10.452 9.64695C10.5882 9.84509 10.5016 9.94416 10.192 9.91939C9.72136 9.86986 9.08979 9.43642 8.68112 8.87914Z" fill="#FF007A"/>
<path d="M16.7678 14.2662C14.3158 13.2754 13.4489 12.421 13.4489 10.972C13.4489 10.7615 13.4613 10.5881 13.4613 10.5881C13.4737 10.5881 13.5604 10.6624 13.6718 10.7491C14.1672 11.1454 14.7245 11.3188 16.2724 11.5417C17.1765 11.6779 17.6966 11.777 18.1672 11.938C19.6656 12.4333 20.5944 13.4488 20.8173 14.8234C20.8793 15.2197 20.8421 15.9751 20.743 16.3714C20.6563 16.681 20.4087 17.2507 20.3467 17.2631C20.3344 17.2631 20.3096 17.2011 20.3096 17.1021C20.2848 16.5819 20.0248 16.0866 19.5913 15.7027C19.0712 15.2569 18.4025 14.9225 16.7678 14.2662Z" fill="#FF007A"/>
<path d="M15.0341 14.6749C15.0093 14.4891 14.9474 14.2538 14.9102 14.1548L14.8483 13.969L14.9598 14.1052C15.1208 14.291 15.2446 14.5139 15.356 14.8235C15.4427 15.0588 15.4427 15.1331 15.4427 15.517C15.4427 15.8885 15.4303 15.9752 15.356 16.1857C15.2322 16.5201 15.0836 16.7554 14.8359 17.0154C14.3901 17.4736 13.8081 17.7213 12.9783 17.8328C12.8297 17.8452 12.4087 17.8823 12.0372 17.9071C11.1084 17.9566 10.4892 18.0557 9.9319 18.2538C9.8576 18.2786 9.7833 18.3034 9.77092 18.291C9.74615 18.2662 10.13 18.0433 10.4396 17.8947C10.8731 17.6842 11.3189 17.5727 12.2972 17.3993C12.7802 17.325 13.2756 17.226 13.3994 17.1764C14.6254 16.7925 15.2322 15.839 15.0341 14.6749Z" fill="#FF007A"/>
<path d="M16.161 16.6688C15.8391 15.963 15.7648 15.2942 15.9381 14.6627C15.9629 14.6007 15.9877 14.5388 16.0124 14.5388C16.0372 14.5388 16.1115 14.576 16.1858 14.6255C16.3344 14.7246 16.644 14.898 17.4366 15.3314C18.4397 15.8763 19.0093 16.2973 19.4056 16.7803C19.7524 17.2014 19.9629 17.6843 20.062 18.2788C20.1239 18.6131 20.0867 19.4181 20.0001 19.7524C19.7276 20.8051 19.1084 21.6472 18.2044 22.1301C18.0682 22.2044 17.9567 22.254 17.9443 22.254C17.9319 22.254 17.9815 22.1301 18.0558 21.9815C18.353 21.35 18.3901 20.7431 18.1672 20.062C18.031 19.641 17.7462 19.1332 17.1765 18.2788C16.4954 17.288 16.3344 17.028 16.161 16.6688Z" fill="#FF007A"/>
<path d="M6.93499 20.4582C7.8514 19.6904 8.97833 19.1455 10.0186 18.9722C10.4644 18.8979 11.2074 18.9226 11.6161 19.0341C12.2725 19.2075 12.8669 19.579 13.1765 20.0372C13.4737 20.483 13.6099 20.8669 13.7461 21.7214C13.7957 22.0557 13.8576 22.4025 13.87 22.4768C13.969 22.9226 14.1672 23.2694 14.4149 23.4551C14.7988 23.74 15.4675 23.7523 16.1238 23.5047C16.2353 23.4675 16.3344 23.4304 16.3344 23.4427C16.3591 23.4675 16.0248 23.6904 15.8019 23.8019C15.4923 23.9629 15.2446 24.0124 14.9102 24.0124C14.3158 24.0124 13.8081 23.7028 13.3994 23.0836C13.3127 22.9598 13.1393 22.6006 12.9907 22.2663C12.5573 21.2632 12.3344 20.966 11.8266 20.6316C11.3808 20.3468 10.8112 20.2849 10.3777 20.4954C9.80805 20.7678 9.65945 21.4985 10.0557 21.9443C10.2167 22.1301 10.5139 22.2787 10.7616 22.3158C11.2198 22.3777 11.6161 22.0186 11.6161 21.5604C11.6161 21.2632 11.5046 21.0898 11.2074 20.9536C10.8112 20.7802 10.3777 20.9784 10.3901 21.3623C10.3901 21.5232 10.4644 21.6223 10.6254 21.6966C10.7245 21.7462 10.7245 21.7462 10.6502 21.7338C10.291 21.6595 10.2043 21.2136 10.4892 20.9288C10.8359 20.5821 11.5666 20.7307 11.8142 21.2136C11.9133 21.4118 11.9257 21.8081 11.839 22.0558C11.6285 22.6006 11.0341 22.8855 10.4272 22.7245C10.0186 22.613 9.84521 22.5016 9.34985 21.9938C8.48298 21.1022 8.14861 20.9288 6.91022 20.7431L6.67493 20.7059L6.93499 20.4582Z" fill="#FF007A"/>
<path fill-rule="evenodd" clip-rule="evenodd" d="M0.421176 0.532508C3.30663 4.03715 7.75245 9.48607 7.97536 9.78328C8.16112 10.031 8.08681 10.2663 7.77721 10.4396C7.60384 10.5387 7.24471 10.6378 7.07133 10.6378C6.87319 10.6378 6.6379 10.5387 6.4769 10.3777C6.36545 10.2663 5.88248 9.56037 4.79269 7.86378C3.96297 6.56347 3.25709 5.48607 3.24471 5.47368C3.19517 5.44892 3.19517 5.44892 4.70601 8.14861C5.65957 9.8452 5.96916 10.452 5.96916 10.5263C5.96916 10.6873 5.91963 10.774 5.72149 10.9969C5.38712 11.3684 5.23851 11.7895 5.12706 12.6687C5.00322 13.6471 4.66885 14.3406 3.71529 15.517C3.15802 16.2105 3.07133 16.3344 2.93511 16.6192C2.76173 16.9659 2.7122 17.1641 2.68743 17.6099C2.66266 18.0805 2.7122 18.3777 2.84842 18.8235C2.97226 19.2198 3.10848 19.4799 3.44285 19.9876C3.72768 20.4334 3.90105 20.7678 3.90105 20.8916C3.90105 20.9907 3.92582 20.9907 4.37164 20.8916C5.43666 20.644 6.31591 20.2229 6.79889 19.7028C7.0961 19.3808 7.1704 19.2074 7.1704 18.7616C7.1704 18.4768 7.15802 18.4149 7.08372 18.2415C6.95988 17.969 6.72458 17.7461 6.21684 17.3994C5.54811 16.9412 5.26328 16.5697 5.18898 16.0743C5.12706 15.6533 5.20136 15.3684 5.57288 14.5882C5.95678 13.7833 6.05585 13.4489 6.11777 12.6316C6.15492 12.1115 6.21684 11.9009 6.36545 11.7399C6.52644 11.5666 6.66266 11.5046 7.04656 11.4551C7.67814 11.3684 8.08681 11.2074 8.40879 10.8978C8.69362 10.6378 8.81746 10.3777 8.82985 9.99381L8.84223 9.70898L8.68124 9.5356C8.0992 8.86687 0.0372753 0 0.000123596 0C-0.0122603 0 0.185882 0.235294 0.421176 0.532508ZM4.22303 18.1424C4.35926 17.9071 4.28495 17.6099 4.06204 17.4613C3.85152 17.3251 3.52954 17.387 3.52954 17.5728C3.52954 17.6223 3.5543 17.6718 3.62861 17.6966C3.74006 17.7585 3.75245 17.8204 3.66576 17.9567C3.57907 18.0929 3.57907 18.2167 3.69053 18.3034C3.8639 18.4396 4.0992 18.3653 4.22303 18.1424Z" fill="#FF007A"/>
<path fill-rule="evenodd" clip-rule="evenodd" d="M9.23835 11.6284C8.94114 11.7151 8.65631 12.0371 8.56962 12.3591C8.52008 12.5572 8.54485 12.9163 8.63154 13.0278C8.76776 13.2012 8.8916 13.2507 9.23835 13.2507C9.91946 13.2507 10.5015 12.9535 10.5634 12.5944C10.6253 12.2971 10.3653 11.8885 10.0061 11.7027C9.82039 11.6036 9.43649 11.5665 9.23835 11.6284ZM10.0309 12.2476C10.13 12.099 10.0928 11.938 9.90708 11.8266C9.57271 11.616 9.06497 11.7894 9.06497 12.1114C9.06497 12.2724 9.32504 12.4458 9.57271 12.4458C9.7337 12.4458 9.95661 12.3467 10.0309 12.2476Z" fill="#FF007A"/>
</g>
<defs>
<clipPath id="clip0">
<rect width="20.8421" height="24" fill="white"/>
</clipPath>
</defs>
</svg>
