<svg width="46" height="46" viewBox="0 0 46 46" fill="none" xmlns="http://www.w3.org/2000/svg">
<rect x="0.5" y="0.5" width="45" height="45" rx="22.5" fill="white" stroke="#F6F9FA"/>
<path d="M32.6263 25.5369V23.5411H37.1101V20.5H24.9004V23.5411H29.3848V25.5353C25.7403 25.7057 23 26.4404 23 27.3206C23 28.2007 25.7416 28.9354 29.3848 29.1069V35.5H32.6273V29.1064C36.2652 28.9354 39 28.2013 39 27.3219C39 26.4426 36.2652 25.7084 32.6273 25.5375L32.6263 25.5369ZM32.6273 28.5648V28.5632C32.5358 28.5691 32.0658 28.5979 31.0192 28.5979C30.1825 28.5979 29.5939 28.5737 29.3864 28.5627V28.5654C26.1666 28.4202 23.7632 27.8495 23.7632 27.1665C23.7632 26.4836 26.1668 25.9137 29.3864 25.7682V27.9968C29.5973 28.0115 30.2004 28.0478 31.033 28.0478C32.0329 28.0478 32.5356 28.0054 32.6278 27.9968V25.7682C35.8413 25.914 38.2392 26.4852 38.2392 27.1657C38.2392 27.8462 35.8403 28.4178 32.6278 28.5635" fill="#53AE94"/>
<path d="M14.2943 23.806V14.3239H15.3269V23.806H14.2943Z" fill="#006AE3"/>
<path d="M19.5505 17.4831L16.3617 18.3288L15.6505 15.0191L16.5988 14.8049L16.9726 16.3731C16.9726 16.3731 17.8342 14.9599 16.6854 13.4965C16.0084 12.7443 15.687 12.7124 14.928 12.5939C14.2601 12.4981 12.7079 12.7238 12.2452 14.5359C12.0491 15.7029 12.2702 16.5668 13.7746 17.6974L13.6903 18.9556C13.6903 18.9556 12.0104 17.7726 11.5773 16.9429C11.2423 16.2864 10.6679 14.9895 11.705 13.1842C12.2634 12.2816 13.3643 11.4154 15.3041 11.5066C16.2796 11.5476 18.6616 12.7398 18.2923 15.5251C18.2285 16.0471 17.9573 16.7423 17.9573 16.7423L19.2656 16.4506L19.5505 17.4831Z" fill="#006AE3"/>
<path d="M17.7293 24.9024C17.1458 25.7891 16.0221 26.6256 14.0869 26.4843C13.1113 26.4182 10.7636 25.1622 11.2058 22.3883C11.2833 21.8686 11.5728 21.1825 11.5728 21.1825L10.2576 21.4378L10 20.4006L13.2116 19.6393L13.8362 22.9672L12.8811 23.1564L12.5483 21.5768C12.5483 21.5768 11.6503 22.9649 12.758 24.4602C13.4145 25.2306 13.7336 25.2694 14.4926 25.4084C15.1559 25.5224 16.715 25.3355 17.2256 23.5371C17.4512 22.3769 17.2529 21.5061 15.7805 20.3345L15.899 19.0786C15.899 19.0786 17.547 20.3049 17.9573 21.146C18.2718 21.8139 18.812 23.1268 17.7293 24.9024Z" fill="#006AE3"/>
</svg>
