<svg width="46" height="46" viewBox="0 0 46 46" fill="none" xmlns="http://www.w3.org/2000/svg">
<rect x="0.5" y="0.5" width="45" height="45" rx="22.5" fill="white" stroke="#F6F9FA"/>
<path fill-rule="evenodd" clip-rule="evenodd" d="M21.1457 11.8542C20.9414 11.7021 20.6591 11.718 20.4727 11.8922C20.2864 12.0664 20.2483 12.3498 20.382 12.568L22.7746 16.473L22.98 20.7864C22.99 20.9952 23.119 21.1791 23.3106 21.2573L25.9154 22.3218L28.8862 26.831L27.6528 33.6174C27.616 33.8199 27.6971 34.0258 27.8616 34.1471C28.026 34.2685 28.2446 34.2837 28.4239 34.1863L30.2261 33.2074C30.3454 33.1426 30.4357 33.0339 30.4783 32.9038L32.6118 26.3868C32.6529 26.2614 32.6467 26.125 32.5944 26.0039L29.5333 18.9102C29.4776 18.7813 29.3742 18.6798 29.2452 18.6274L26.8862 17.6701L25.7173 15.3295C25.6799 15.2544 25.6255 15.1894 25.5586 15.1396L21.1457 11.8542Z" fill="#21B3D3"/>
<path fill-rule="evenodd" clip-rule="evenodd" d="M23.7071 20.2639C23.4957 20.1775 23.2535 20.2377 23.1057 20.4133L19.0238 25.2644L16.1477 25.0802C15.8988 25.0643 15.6726 25.2263 15.6048 25.4692L14.7699 28.4596C14.7376 28.5755 14.7448 28.6991 14.7904 28.8104L16.8842 33.9195C16.9662 34.1196 17.1592 34.25 17.3732 34.25H28.1735C28.4289 34.25 28.6479 34.0654 28.6941 33.8112L29.9663 26.8114C29.9912 26.6745 29.9625 26.5331 29.8861 26.4173L26.7057 21.5898C26.6466 21.5002 26.5622 21.4306 26.4634 21.3903L23.7071 20.2639Z" fill="#3FDCFF"/>
<path fill-rule="evenodd" clip-rule="evenodd" d="M21.2819 12.0034C21.205 11.878 21.0805 11.7902 20.9375 11.7608C20.7946 11.7313 20.6461 11.7629 20.5269 11.8479L19.4932 12.5854C19.4002 12.6518 19.3308 12.7467 19.2953 12.8561L17.8513 17.3056L15.1863 20.9232C15.1055 21.0328 15.0692 21.1695 15.0849 21.3054L15.5884 25.6769C15.6181 25.9342 15.8254 26.1332 16.0808 26.1495L19.2215 26.3507C19.3881 26.3613 19.5499 26.2919 19.6581 26.1633L23.9119 21.1079C23.9991 21.0042 24.0441 20.8708 24.0376 20.7348L23.8256 16.2828C23.8213 16.1919 23.7941 16.1036 23.7467 16.0263L21.2819 12.0034Z" fill="#67E3FF"/>
</svg>
