<svg width="46" height="46" viewBox="0 0 46 46" fill="none" xmlns="http://www.w3.org/2000/svg">
<rect x="0.5" y="0.5" width="45" height="45" rx="22.5" fill="white" stroke="#F6F9FA"/>
<path fill-rule="evenodd" clip-rule="evenodd" d="M13.7638 10.5695C13.6276 10.4681 13.4394 10.4787 13.3152 10.5948C13.1909 10.7109 13.1656 10.8999 13.2547 11.0453L14.8497 13.6486L14.9867 16.5243C14.9933 16.6635 15.0794 16.786 15.2071 16.8382L16.9436 17.5479L18.9241 20.554L18.1019 25.0783C18.0773 25.2133 18.1314 25.3506 18.2411 25.4314C18.3507 25.5123 18.4964 25.5225 18.6159 25.4575L19.8174 24.8049C19.897 24.7617 19.9571 24.6893 19.9855 24.6026L21.4079 20.2578C21.4353 20.1742 21.4311 20.0833 21.3963 20.0026L19.3555 15.2735C19.3184 15.1876 19.2495 15.1198 19.1634 15.0849L17.5908 14.4467L16.8116 12.8863C16.7866 12.8363 16.7503 12.7929 16.7057 12.7597L13.7638 10.5695Z" fill="#21B3D3"/>
<path fill-rule="evenodd" clip-rule="evenodd" d="M15.4714 16.1759C15.3305 16.1183 15.169 16.1585 15.0705 16.2755L12.3492 19.5096L10.4318 19.3868C10.2659 19.3762 10.1151 19.4842 10.0699 19.6462L9.51329 21.6397C9.49171 21.717 9.49651 21.7994 9.52692 21.8736L10.9228 25.2797C10.9774 25.413 11.1061 25.5 11.2488 25.5H18.449C18.6193 25.5 18.7653 25.3769 18.7961 25.2075L19.6442 20.5409C19.6608 20.4496 19.6416 20.3554 19.5908 20.2782L17.4705 17.0599C17.4311 17.0001 17.3748 16.9538 17.309 16.9268L15.4714 16.1759Z" fill="#3FDCFF"/>
<path fill-rule="evenodd" clip-rule="evenodd" d="M13.8546 10.669C13.8034 10.5853 13.7203 10.5268 13.625 10.5072C13.5297 10.4876 13.4307 10.5086 13.3512 10.5653L12.6621 11.057C12.6001 11.1012 12.5539 11.1645 12.5302 11.2374L11.5675 14.2037L9.79083 16.6154C9.73698 16.6885 9.7128 16.7797 9.72323 16.8702L10.0589 19.7846C10.0787 19.9561 10.2169 20.0888 10.3872 20.0997L12.481 20.2338C12.5921 20.2409 12.6999 20.1946 12.772 20.1089L15.6079 16.7386C15.6661 16.6695 15.6961 16.5805 15.6917 16.4899L15.5504 13.5219C15.5475 13.4613 15.5294 13.4024 15.4978 13.3509L13.8546 10.669Z" fill="#67E3FF"/>
<g opacity="0.45">
<g opacity="0.45">
<path opacity="0.45" d="M26.5 28.1398L31.1051 30.8596V20.5L26.5 28.1398Z" fill="#010101"/>
</g>
</g>
<g opacity="0.8">
<g opacity="0.8">
<path opacity="0.8" d="M31.105 20.5V30.8611L35.7087 28.1412L31.105 20.5Z" fill="#010101"/>
</g>
</g>
<g opacity="0.45">
<g opacity="0.45">
<path opacity="0.45" d="M26.5 29.0125L31.1051 35.5V31.7338L26.5 29.0125Z" fill="#010101"/>
</g>
</g>
<g opacity="0.8">
<g opacity="0.8">
<path opacity="0.8" d="M31.105 31.7338V35.5L35.7115 29.0125L31.105 31.7338Z" fill="#010101"/>
</g>
</g>
</svg>
