<svg width="46" height="46" viewBox="0 0 46 46" fill="none" xmlns="http://www.w3.org/2000/svg">
<rect x="0.5" y="0.5" width="45" height="45" rx="22.5" fill="white" stroke="#F6F9FA"/>
<path fill-rule="evenodd" clip-rule="evenodd" d="M31.7889 25.5477L34.6834 23.8593V27.2362L31.7889 25.5477ZM34.6834 32.7839L30.8241 35.0352L26.9648 32.7839V28.8442L30.3203 30.8016C30.6316 30.9832 31.0166 30.9832 31.328 30.8016L32.7538 29.9698L34.6834 28.8442V32.7839ZM26.9648 23.8593L29.8593 25.5477L26.9648 27.2362V23.8593ZM31.3065 26.3518L34.201 28.0402L31.3065 29.7286V26.3518ZM30.3417 29.7286L27.4472 28.0402L30.3417 26.3518V29.7286ZM34.201 23.0553L30.8241 24.9849L27.4472 23.0553L30.8241 21.0452L34.201 23.0553ZM26.507 22.4464C26.1937 22.6239 26 22.9563 26 23.3164V32.6836C26 33.0437 26.1937 33.3761 26.507 33.5536L30.3311 35.7206C30.6369 35.8939 31.0113 35.8939 31.3171 35.7206L35.1413 33.5536C35.4546 33.3761 35.6482 33.0437 35.6482 32.6836V23.3164C35.6482 22.9563 35.4546 22.6239 35.1413 22.4464L31.3171 20.2794C31.0113 20.1061 30.6369 20.1061 30.3311 20.2794L26.507 22.4464Z" fill="#2E69F6"/>
<path d="M35.5 21.5C35.9167 21.5833 36.75 22.05 36.75 23.25" stroke="#2E69F6"/>
<path d="M26.25 34.25C25.8333 34.1667 25 33.7 25 32.5" stroke="#2E69F6"/>
<path fill-rule="evenodd" clip-rule="evenodd" d="M13.7638 10.5695C13.6276 10.4681 13.4394 10.4787 13.3152 10.5948C13.1909 10.7109 13.1656 10.8999 13.2547 11.0453L14.8497 13.6486L14.9867 16.5243C14.9933 16.6635 15.0794 16.786 15.2071 16.8382L16.9436 17.5479L18.9241 20.554L18.1019 25.0783C18.0773 25.2133 18.1314 25.3506 18.2411 25.4314C18.3507 25.5123 18.4964 25.5225 18.6159 25.4575L19.8174 24.8049C19.897 24.7617 19.9571 24.6893 19.9855 24.6026L21.4079 20.2578C21.4353 20.1742 21.4311 20.0833 21.3963 20.0026L19.3555 15.2735C19.3184 15.1876 19.2495 15.1198 19.1634 15.0849L17.5908 14.4467L16.8116 12.8863C16.7866 12.8363 16.7503 12.7929 16.7057 12.7597L13.7638 10.5695Z" fill="#21B3D3"/>
<path fill-rule="evenodd" clip-rule="evenodd" d="M15.4714 16.1759C15.3305 16.1183 15.169 16.1585 15.0705 16.2755L12.3492 19.5096L10.4318 19.3868C10.2659 19.3762 10.1151 19.4842 10.0699 19.6462L9.51329 21.6397C9.49171 21.717 9.49651 21.7994 9.52692 21.8736L10.9228 25.2797C10.9774 25.413 11.1061 25.5 11.2488 25.5H18.449C18.6193 25.5 18.7653 25.3769 18.7961 25.2075L19.6442 20.5409C19.6608 20.4496 19.6416 20.3554 19.5908 20.2782L17.4705 17.0599C17.4311 17.0001 17.3748 16.9537 17.309 16.9268L15.4714 16.1759Z" fill="#3FDCFF"/>
<path fill-rule="evenodd" clip-rule="evenodd" d="M13.8546 10.669C13.8034 10.5853 13.7203 10.5268 13.625 10.5072C13.5297 10.4876 13.4307 10.5086 13.3512 10.5653L12.6621 11.057C12.6001 11.1012 12.5539 11.1645 12.5302 11.2374L11.5675 14.2037L9.79083 16.6154C9.73698 16.6885 9.7128 16.7797 9.72323 16.8702L10.0589 19.7846C10.0787 19.9561 10.2169 20.0888 10.3872 20.0997L12.481 20.2338C12.5921 20.2409 12.6999 20.1946 12.772 20.1089L15.6079 16.7386C15.6661 16.6695 15.6961 16.5805 15.6917 16.4899L15.5504 13.5219C15.5475 13.4613 15.5294 13.4024 15.4978 13.3509L13.8546 10.669Z" fill="#67E3FF"/>
</svg>
