<svg width="46" height="46" viewBox="0 0 46 46" fill="none" xmlns="http://www.w3.org/2000/svg">
<rect x="0.5" y="0.5" width="45" height="45" rx="22.5" fill="white" stroke="#F6F9FA"/>
<path d="M25.4394 19.3054V16.3116H32.1652V11.75H13.8506V16.3116H20.5772V19.303C15.1105 19.5586 11 20.6606 11 21.9809C11 23.3011 15.1124 24.4031 20.5772 24.6603V34.25H25.441V24.6595C30.8978 24.4031 35 23.3019 35 21.9829C35 20.6639 30.8978 19.5626 25.441 19.3062L25.4394 19.3054ZM25.441 23.8473V23.8449C25.3038 23.8537 24.5987 23.8968 23.0289 23.8968C21.7738 23.8968 20.8908 23.8606 20.5796 23.8441V23.8481C15.7499 23.6303 12.1448 22.7742 12.1448 21.7498C12.1448 20.7254 15.7503 19.8705 20.5796 19.6524V22.9952C20.8959 23.0173 21.8007 23.0716 23.0494 23.0716C24.5493 23.0716 25.3034 23.008 25.4418 22.9952V19.6524C30.262 19.8709 33.8588 20.7279 33.8588 21.7486C33.8588 22.7694 30.2604 23.6267 25.4418 23.8453" fill="#53AE94"/>
</svg>
