<svg width="24" height="24" viewBox="0 0 24 24" fill="none" xmlns="http://www.w3.org/2000/svg">
<g clip-path="url(#clip0)">
<path fill-rule="evenodd" clip-rule="evenodd" d="M12.0002 20.4609C12.0002 20.4609 11.1152 22.337 11.1152 23.1335C11.1152 23.6114 11.5046 24.0008 12.0002 24.0008C12.4958 24.0008 12.8851 23.6114 12.8851 23.1335C12.8674 22.3193 12.0002 20.4609 12.0002 20.4609Z" fill="#ffffff"/>
<path fill-rule="evenodd" clip-rule="evenodd" d="M20.46 12.0002C20.46 12.0002 22.3361 12.8674 23.1325 12.8674C23.6104 12.8674 23.9998 12.4781 23.9998 12.0002C23.9998 11.5223 23.6104 11.1152 23.1325 11.1152C22.3184 11.1152 20.46 12.0002 20.46 12.0002Z" fill="#ffffff"/>
<path fill-rule="evenodd" clip-rule="evenodd" d="M12.0002 3.53982C12.0002 3.53982 11.1152 1.68142 11.1152 0.867257C11.1152 0.389381 11.5046 0 12.0002 0C12.4958 0 12.8851 0.389381 12.8851 0.867257C12.8674 1.68142 12.0002 3.53982 12.0002 3.53982Z" fill="#ffffff"/>
<path fill-rule="evenodd" clip-rule="evenodd" d="M3.53982 12.0002C3.53982 12.0002 1.66372 12.8674 0.867257 12.8674C0.389381 12.8674 0 12.4781 0 12.0002C0 11.5223 0.389381 11.1152 0.867257 11.1152C1.68142 11.1152 3.53982 12.0002 3.53982 12.0002Z" fill="#ffffff"/>
<path fill-rule="evenodd" clip-rule="evenodd" d="M4.05282 7.07971C4.05282 7.07971 2.83158 6.95581 2.4245 6.72572C2.17671 6.58413 2.08822 6.26555 2.24751 6.01776C2.3891 5.76997 2.70768 5.68148 2.95547 5.84077C3.36255 6.05316 4.05282 7.07971 4.05282 7.07971Z" fill="#ffffff"/>
<path fill-rule="evenodd" clip-rule="evenodd" d="M7.34496 3.89461C7.34496 3.89461 6.35381 3.18665 6.12373 2.76187C5.98213 2.51408 6.07063 2.1955 6.31842 2.0539C6.5662 1.91231 6.88479 2.00081 7.02638 2.24859C7.25647 2.67337 7.34496 3.89461 7.34496 3.89461Z" fill="#ffffff"/>
<path fill-rule="evenodd" clip-rule="evenodd" d="M16.3716 4.15965C16.3716 4.15965 16.5132 2.93842 16.7787 2.54903C16.938 2.30125 17.2565 2.23045 17.4866 2.38974C17.7344 2.54903 17.8052 2.86762 17.6459 3.09771C17.3981 3.48709 16.3716 4.15965 16.3716 4.15965Z" fill="#ffffff"/>
<path fill-rule="evenodd" clip-rule="evenodd" d="M19.5044 7.59252C19.5044 7.59252 20.2478 6.61907 20.6725 6.40668C20.9203 6.28278 21.2389 6.37128 21.3805 6.63677C21.5044 6.88455 21.4159 7.20314 21.1504 7.34473C20.7256 7.53942 19.5044 7.59252 19.5044 7.59252Z" fill="#ffffff"/>
<path fill-rule="evenodd" clip-rule="evenodd" d="M19.2036 16.1943C19.2036 16.1943 20.4249 16.3005 20.8319 16.5306C21.0797 16.6722 21.1682 16.9908 21.0266 17.2386C20.885 17.4864 20.5664 17.5749 20.3187 17.4333C19.9116 17.1855 19.2036 16.1943 19.2036 16.1943Z" fill="#ffffff"/>
<path fill-rule="evenodd" clip-rule="evenodd" d="M15.9116 19.3623C15.9116 19.3623 16.9205 20.0526 17.1506 20.4773C17.2922 20.7251 17.2037 21.0437 16.9559 21.1853C16.7081 21.3269 16.3895 21.2384 16.2479 20.9906C16.0178 20.5835 15.9116 19.3623 15.9116 19.3623Z" fill="#ffffff"/>
<path fill-rule="evenodd" clip-rule="evenodd" d="M6.88459 19.0801C6.88459 19.0801 6.74299 20.3013 6.49521 20.7084C6.35361 20.9562 6.03503 21.027 5.78724 20.8854C5.53945 20.7438 5.46866 20.4075 5.61025 20.1774C5.85804 19.7526 6.88459 19.0801 6.88459 19.0801Z" fill="#ffffff"/>
<path fill-rule="evenodd" clip-rule="evenodd" d="M3.75191 15.6455C3.75191 15.6455 3.02624 16.619 2.60146 16.849C2.35367 16.9906 2.03509 16.8844 1.8935 16.6367C1.7519 16.3889 1.8581 16.0703 2.10589 15.9287C2.53067 15.6986 3.75191 15.6455 3.75191 15.6455Z" fill="#ffffff"/>
<path d="M11.9468 17.788V11.9473H16.814" stroke="#ffffff" stroke-linecap="round" stroke-linejoin="round"/>
</g>
<defs>
<clipPath id="clip0">
<rect width="24" height="24" fill="white"/>
</clipPath>
</defs>
</svg>
