<svg width="30" height="30" viewBox="0 0 30 30" fill="none" xmlns="http://www.w3.org/2000/svg">
<rect x="0.5" y="0.5" width="29" height="29" rx="14.5" fill="white" stroke="#F6F9FA"/>
<g clip-path="url(#clip0)">
<path fill-rule="evenodd" clip-rule="evenodd" d="M13.7904 7.73102C13.6571 7.6318 13.473 7.64219 13.3515 7.75579C13.23 7.86938 13.2051 8.05425 13.2923 8.19654L14.8527 10.7433L14.9867 13.5563C14.9932 13.6925 15.0773 13.8124 15.2023 13.8635L16.901 14.5577L18.8385 17.4985L18.0341 21.9244C18.0101 22.0565 18.0631 22.1908 18.1703 22.2699C18.2775 22.349 18.4201 22.3589 18.537 22.2954L19.7124 21.657C19.7902 21.6147 19.8491 21.5439 19.8768 21.459L21.2683 17.2088C21.2951 17.127 21.291 17.0381 21.257 16.9591L19.2605 12.3328C19.2243 12.2487 19.1568 12.1825 19.0726 12.1483L17.5342 11.524L16.7719 9.99749C16.7474 9.94856 16.712 9.90613 16.6683 9.87364L13.7904 7.73102Z" fill="#21B3D3"/>
<path fill-rule="evenodd" clip-rule="evenodd" d="M15.4609 13.2155C15.3231 13.1592 15.1651 13.1985 15.0688 13.313L12.4066 16.4768L10.5309 16.3566C10.3686 16.3462 10.2211 16.4519 10.1769 16.6103L9.63239 18.5606C9.61128 18.6362 9.61597 18.7168 9.64572 18.7894L11.0112 22.1214C11.0647 22.2519 11.1906 22.3369 11.3302 22.3369H18.3738C18.5404 22.3369 18.6833 22.2165 18.7134 22.0507L19.5431 17.4856C19.5593 17.3964 19.5405 17.3042 19.4908 17.2286L17.4166 14.0803C17.3781 14.0218 17.323 13.9765 17.2586 13.9501L15.4609 13.2155Z" fill="#3FDCFF"/>
<path fill-rule="evenodd" clip-rule="evenodd" d="M13.8793 7.82833C13.8292 7.74653 13.7479 7.68928 13.6547 7.67008C13.5615 7.65088 13.4646 7.67144 13.3869 7.7269L12.7128 8.2079C12.6521 8.25118 12.6069 8.31308 12.5837 8.38442L11.642 11.2862L9.9039 13.6456C9.85123 13.7171 9.82757 13.8062 9.83777 13.8948L10.1662 16.7458C10.1855 16.9136 10.3207 17.0434 10.4873 17.054L12.5356 17.1852C12.6442 17.1922 12.7497 17.1469 12.8203 17.063L15.5945 13.766C15.6514 13.6984 15.6808 13.6114 15.6765 13.5227L15.5382 10.6192C15.5354 10.56 15.5177 10.5024 15.4868 10.452L13.8793 7.82833Z" fill="#67E3FF"/>
</g>
<defs>
<clipPath id="clip0">
<rect width="15.6522" height="15.6522" fill="white" transform="translate(7.17383 7.17392)"/>
</clipPath>
</defs>
</svg>
