<svg width="70" height="70" viewBox="0 0 70 70" fill="none" xmlns="http://www.w3.org/2000/svg">
<rect x="0.5" y="0.5" width="69" height="69" rx="33.5" fill="white" stroke="#F6F9FA"/>
<path fill-rule="evenodd" clip-rule="evenodd" d="M31.1777 15.5305C30.8116 15.2579 30.3058 15.2864 29.972 15.5985C29.6381 15.9106 29.5699 16.4184 29.8094 16.8093L34.0961 23.8057L34.4642 31.5339C34.482 31.908 34.7132 32.2375 35.0564 32.3777L39.7234 34.2849L45.046 42.3639L42.8362 54.5228C42.7703 54.8857 42.9157 55.2546 43.2103 55.472C43.5049 55.6893 43.8965 55.7166 44.2177 55.5421L47.4468 53.7882C47.6606 53.6721 47.8223 53.4775 47.8986 53.2444L51.7212 41.568C51.7947 41.3433 51.7836 41.099 51.69 40.882L46.2054 28.1725C46.1058 27.9416 45.9204 27.7596 45.6892 27.6658L41.4627 25.9506L39.3685 21.757C39.3014 21.6225 39.2039 21.506 39.0841 21.4167L31.1777 15.5305Z" fill="#21B3D3"/>
<path fill-rule="evenodd" clip-rule="evenodd" d="M35.7668 30.5977C35.3882 30.443 34.9542 30.5508 34.6894 30.8655L27.3759 39.5571L22.223 39.227C21.777 39.1985 21.3718 39.4888 21.2503 39.924L19.7545 45.2817C19.6965 45.4894 19.7094 45.7109 19.7911 45.9103L23.5425 55.0641C23.6894 55.4225 24.0352 55.6562 24.4187 55.6562H43.7691C44.2268 55.6562 44.6192 55.3255 44.702 54.87L46.9813 42.3287C47.0259 42.0834 46.9744 41.8301 46.8377 41.6226L41.1394 32.9734C41.0335 32.8128 40.8823 32.6882 40.7053 32.6159L35.7668 30.5977Z" fill="#3FDCFF"/>
<path fill-rule="evenodd" clip-rule="evenodd" d="M31.4218 15.7978C31.2841 15.5731 31.0609 15.4158 30.8048 15.363C30.5488 15.3103 30.2826 15.3668 30.069 15.5192L28.2171 16.8406C28.0504 16.9594 27.9261 17.1295 27.8625 17.3255L25.2753 25.2975L20.5004 31.779C20.3557 31.9754 20.2907 32.2204 20.3188 32.4638L21.221 40.2961C21.2741 40.7571 21.6455 41.1136 22.1032 41.1429L27.7303 41.5033C28.0287 41.5224 28.3186 41.398 28.5124 41.1676L36.1339 32.11C36.2902 31.9242 36.3707 31.6852 36.3591 31.4415L35.9792 23.465C35.9715 23.3022 35.9229 23.144 35.838 23.0055L31.4218 15.7978Z" fill="#67E3FF"/>
</svg>
