<svg width="46" height="46" viewBox="0 0 46 46" fill="none" xmlns="http://www.w3.org/2000/svg">
<rect x="0.5" y="0.5" width="45" height="45" rx="22.5" fill="white" stroke="#F6F9FA"/>
<path fill-rule="evenodd" clip-rule="evenodd" d="M13.3636 10.2808L7.76307 21.9511C7.71783 22.0409 7.73592 22.1486 7.80831 22.2114L22.9271 36.5928C23.0175 36.6736 23.1532 36.6736 23.2437 36.5928L38.3715 22.2114C38.4439 22.1396 38.4621 22.0409 38.4168 21.9511L32.8163 10.2808C32.7801 10.2 32.6986 10.1462 32.6081 10.1462H13.5717C13.4812 10.1462 13.3998 10.2 13.3636 10.2808Z" fill="#8C93AF"/>
<path fill-rule="evenodd" clip-rule="evenodd" d="M25.0353 23.145C24.9267 23.154 24.3658 23.1899 23.1172 23.1899C22.1219 23.1899 21.4162 23.1629 21.1719 23.145C17.3266 22.9744 14.4585 22.3101 14.4585 21.5201C14.4585 20.7212 17.3266 20.0569 21.1719 19.8953V22.4897C21.4252 22.5076 22.14 22.5525 23.1353 22.5525C24.3296 22.5525 24.9267 22.4986 25.0353 22.4897V19.8953C28.8715 20.0659 31.7398 20.7302 31.7398 21.5201C31.7398 22.3101 28.8715 22.9744 25.0353 23.145ZM25.0353 19.626V17.3009H30.3915V13.7639H15.8157V17.3009H21.1719V19.626C16.82 19.8235 13.5447 20.6763 13.5447 21.7087C13.5447 22.741 16.82 23.5849 21.1719 23.7913V31.2244H25.0443V23.7824C29.3873 23.5849 32.6535 22.732 32.6535 21.7087C32.6535 20.6853 29.3873 19.8235 25.0353 19.626Z" fill="white"/>
</svg>
