<svg width="80" height="80" viewBox="0 0 80 80" fill="none" xmlns="http://www.w3.org/2000/svg">
<circle cx="40" cy="40" r="39.5" fill="#F6F9FA" stroke="#F6F9FA"/>
<path d="M56.8459 49.6896V46.1968H64.6927V40.875H43.3257V46.1968H51.1734V49.6868C44.7955 49.985 40 51.2708 40 52.811C40 54.3513 44.7978 55.637 51.1734 55.9371V67.125H56.8478V55.9361C63.2142 55.637 68 54.3522 68 52.8133C68 51.2745 63.2142 49.9897 56.8478 49.6906L56.8459 49.6896ZM56.8478 54.9885V54.9857C56.6877 54.996 55.8652 55.0462 54.0337 55.0462C52.5694 55.0462 51.5393 55.004 51.1762 54.9847V54.9894C45.5415 54.7354 41.3356 53.7366 41.3356 52.5415C41.3356 51.3464 45.542 50.3489 51.1762 50.0944V53.9944C51.5453 54.0202 52.6008 54.0836 54.0577 54.0836C55.8075 54.0836 56.6873 54.0094 56.8487 53.9944V50.0944C62.4723 50.3494 66.6686 51.3492 66.6686 52.54C66.6686 53.7309 62.4705 54.7311 56.8487 54.9861" fill="#53AE94"/>
<path fill-rule="evenodd" clip-rule="evenodd" d="M17.3636 15.2808L11.7631 26.951C11.7178 27.0408 11.7359 27.1485 11.8083 27.2114L26.9271 41.5927C27.0175 41.6736 27.1532 41.6736 27.2437 41.5927L42.3715 27.2114C42.4439 27.1396 42.4621 27.0408 42.4168 26.951L36.8163 15.2808C36.7801 15.2 36.6986 15.1461 36.6081 15.1461H17.5717C17.4812 15.1461 17.3998 15.2 17.3636 15.2808Z" fill="#8C93AF"/>
<path fill-rule="evenodd" clip-rule="evenodd" d="M29.0353 28.145C28.9267 28.154 28.3658 28.1899 27.1172 28.1899C26.1219 28.1899 25.4162 28.1629 25.1719 28.145C21.3266 27.9744 18.4585 27.3101 18.4585 26.5201C18.4585 25.7212 21.3266 25.0569 25.1719 24.8953V27.4897C25.4252 27.5076 26.14 27.5525 27.1353 27.5525C28.3296 27.5525 28.9267 27.4986 29.0353 27.4897V24.8953C32.8715 25.0659 35.7398 25.7302 35.7398 26.5201C35.7398 27.3101 32.8715 27.9744 29.0353 28.145ZM29.0353 24.626V22.3009H34.3915V18.7639H19.8157V22.3009H25.1719V24.626C20.82 24.8235 17.5447 25.6763 17.5447 26.7087C17.5447 27.741 20.82 28.5849 25.1719 28.7913V36.2244H29.0443V28.7824C33.3873 28.5849 36.6535 27.732 36.6535 26.7087C36.6535 25.6853 33.3873 24.8235 29.0353 24.626Z" fill="white"/>
</svg>
