<svg width="46" height="46" viewBox="0 0 46 46" fill="none" xmlns="http://www.w3.org/2000/svg">
<circle cx="23" cy="23" r="22.5" fill="white" stroke="#F6F9FA"/>
<path fill-rule="evenodd" clip-rule="evenodd" d="M13.8759 12.5H22.1521C27.1863 12.5 31.0023 15.1975 32.4219 19.1227H35V21.4951H32.9648C33.005 21.8754 33.025 22.2576 33.0248 22.6401V22.6983C33.025 23.1284 32.9996 23.5582 32.9487 23.9853H35V26.3577H32.3728C30.9158 30.2283 27.1294 32.9 22.1521 32.9H13.8759V26.3577H11V23.9853H13.8759V21.4951H11V19.1227H13.8759V12.5ZM16.1896 26.3577V30.772H22.1521C25.8315 30.772 28.5652 29.0041 29.8377 26.3577H16.1896ZM30.5466 23.9853H16.1896V21.4951H30.5503C30.6041 21.8939 30.6309 22.2959 30.6306 22.6983V22.7566C30.631 23.1676 30.6029 23.5781 30.5466 23.9853V23.9853ZM22.1521 14.6247C25.8481 14.6247 28.5903 16.4393 29.8552 19.1228H16.1896V14.6247H22.1521Z" fill="#F4B731"/>
</svg>
