<svg width="46" height="46" viewBox="0 0 46 46" fill="none" xmlns="http://www.w3.org/2000/svg">
<circle cx="23" cy="23" r="22.5" fill="white" stroke="#F6F9FA"/>
<path d="M15.0833 16.1865C15.1829 16.3127 15.2958 16.4322 15.3821 16.565C16.086 17.6209 16.79 18.6834 17.4939 19.746C17.7396 20.1178 18.0584 20.3304 18.5232 20.2706C19.0346 20.2042 19.1143 20.0315 18.8088 19.6131C17.5072 17.8533 16.2189 16.0869 14.9106 14.3337C14.0938 13.238 13.2637 12.1621 12.5 11C12.6129 11.0863 12.7457 11.166 12.8453 11.2723C15.1962 13.8821 17.547 16.4986 19.8979 19.1084C20.3694 19.6331 20.3495 20.2108 19.8514 20.7354C19.433 21.1804 18.8818 21.3198 18.3107 21.4128C17.6201 21.5323 17.381 21.7448 17.3412 22.4222C17.2947 23.3718 17.0025 24.2418 16.604 25.0918C16.0528 26.2938 16.2388 26.9712 17.2947 27.7614C17.5404 27.9474 17.7994 28.1267 18.0252 28.3392C18.5963 28.8837 18.6228 29.7404 18.0783 30.3115C17.2482 31.1815 16.1525 31.4936 15.0434 31.726C14.738 31.1881 14.4325 30.69 14.1602 30.1721C13.4297 28.7841 13.3699 27.456 14.4458 26.1676C15.2095 25.2578 15.9665 24.3215 16.1923 23.0929C16.2521 22.7875 16.2521 22.4687 16.3517 22.1765C16.5044 21.7382 16.6704 21.2866 16.9228 20.9014C17.1287 20.5827 17.1818 20.337 17.0025 20.0116C16.3251 18.7631 15.6677 17.508 15.0036 16.2529L15.0833 16.1865ZM14.6251 27.9009C14.6383 28.1732 14.6383 28.3458 14.6649 28.5185C14.6848 28.6314 14.7114 28.7974 14.7911 28.8372C14.8774 28.8837 15.1098 28.8439 15.1298 28.7907C15.2095 28.5716 15.3223 28.2993 15.2493 28.1067C15.143 27.8145 14.8641 27.7282 14.6251 27.9009Z" fill="#FF007A"/>
<path d="M25.2105 20.4765C26.552 21.4726 28.1391 21.353 29.5935 21.7116C31.1673 22.1034 32.4689 22.8339 32.9736 24.4941C33.299 25.5633 33.1861 26.5993 32.6084 27.5821C32.4889 26.5329 31.8447 25.8821 30.9748 25.4504C30.0384 24.9856 29.0556 24.6137 28.1192 24.1488C27.4485 23.8168 26.7844 23.4515 26.1867 23.0066C25.3898 22.4156 25.1109 21.5523 25.2105 20.4765Z" fill="#FF007A"/>
<path d="M30.3639 19.1614C31.0611 19.945 31.5592 20.8084 31.7319 21.8709C30.9084 20.5892 29.5736 20.7287 28.3517 20.6689C26.4591 20.5759 24.9383 19.8853 23.8492 18.3114C23.4707 17.7602 23.039 17.2422 22.6074 16.7375C21.6976 15.6816 20.987 15.25 19.6854 14.9047L19.7186 14.7652C20.2764 14.9113 20.8941 14.9644 21.3855 15.2367C22.0429 15.6019 22.6539 16.1 23.1984 16.6246C23.5305 16.95 23.816 17.0563 24.261 16.9832C25.6887 16.7641 27.0634 16.9832 28.365 17.6075C29.2748 18.0458 29.4806 18.4841 29.3013 19.4802C29.2814 19.5931 29.2548 19.706 29.2084 19.8056C29.0888 20.0845 28.9361 20.39 29.3279 20.5494C29.6931 20.6955 29.8658 20.3834 29.992 20.131C30.1314 19.8454 30.2244 19.52 30.3639 19.1614Z" fill="#FF007A"/>
<path d="M30.1116 33.0076C30.7756 31.633 30.2643 30.4775 29.5404 29.3552C29.1354 28.7243 28.717 28.1001 28.3318 27.4559C27.8869 26.7055 27.6478 25.9086 27.8404 25.0254C27.8603 24.9324 27.9068 24.8527 27.9666 24.7C28.956 25.3043 29.9455 25.8355 30.862 26.4863C32.137 27.3895 32.5354 28.6977 32.2565 30.1986C32.0241 31.4802 31.3268 32.4365 30.1116 33.0076Z" fill="#FF007A"/>
<path d="M17.8525 31.4404C19.4663 30.0923 21.0933 29.1958 23.1386 29.6009C24.3141 29.8333 25.0844 30.5638 25.3567 31.7525C25.4696 32.2439 25.536 32.7486 25.6356 33.2401C25.8813 34.3889 26.386 34.7342 27.5548 34.5749C27.6544 34.5616 27.7607 34.5749 27.9001 34.5749C27.1962 35.146 26.2266 35.1526 25.6157 34.5284C25.2703 34.1764 25.0313 33.7116 24.7789 33.2799C24.5266 32.8416 24.3473 32.3568 24.075 31.9385C23.5836 31.1947 22.7335 30.8826 22.0363 31.1283C21.5183 31.3076 21.2394 31.7924 21.339 32.3236C21.4253 32.7686 21.9566 33.2334 22.4148 33.1404C22.6804 33.0873 22.9793 32.8748 23.1187 32.6424C23.225 32.4697 23.1984 32.058 23.0656 31.9385C22.873 31.7592 22.5277 31.7392 22.2488 31.6662C22.1691 31.6463 22.0695 31.6928 21.9234 31.7127C22.4613 31.3474 22.9394 31.3806 23.2847 31.7525C23.6035 32.0978 23.6035 32.7486 23.2847 33.1604C22.8664 33.6916 22.0495 33.7846 21.4187 33.3662C21.2991 33.2865 21.1796 33.1936 21.08 33.0807C20.2565 32.1576 19.3002 31.4537 17.8525 31.4404Z" fill="#FF007A"/>
<path d="M19.2007 15.4294C20.1238 15.602 20.748 15.9739 21.0136 16.7974C21.3191 17.747 21.6113 18.6967 21.9433 19.7459C21.6711 19.6729 21.339 19.6396 21.0734 19.4935C19.9843 18.8693 19.5128 17.8267 19.2937 16.6513C19.2206 16.2727 19.2339 15.8809 19.2007 15.4294Z" fill="#FF007A"/>
<path d="M21.7042 28.6114C22.3683 28.0669 23.1586 27.9672 23.9355 27.8145C24.2211 27.7547 24.5133 27.7149 24.8055 27.6551C26.4856 27.2832 27.1895 26.2008 26.8309 24.5273C26.8177 24.4476 26.7845 24.3746 26.7579 24.2749C27.4485 24.7332 27.6278 26.3668 26.9239 27.1172C26.5587 27.509 26.0872 27.9473 25.5957 28.0536C24.3207 28.3325 23.0058 28.4387 21.7042 28.6114Z" fill="#FF007A"/>
<path d="M20.8609 23.3254C20.1769 23.3519 19.9511 23.1793 19.9246 22.7144C19.8847 22.1433 20.3363 21.5788 20.8808 21.5522C21.0734 21.5456 21.3258 21.5456 21.4453 21.6519C21.7043 21.8976 22.0031 22.1831 22.0828 22.5019C22.1758 22.8804 21.784 23.073 21.452 23.1925C21.2129 23.2656 20.9672 23.2988 20.8609 23.3254ZM21.0469 22.5882C21.266 22.3757 21.4121 22.2363 21.5582 22.0902C21.3856 21.964 21.2063 21.7382 21.0336 21.7382C20.8543 21.7382 20.675 21.964 20.4957 22.0835C20.6551 22.2363 20.8144 22.3824 21.0469 22.5882Z" fill="#FF007A"/>
<path d="M30.8553 18.5572C30.6095 18.3779 30.3638 18.1986 30.0251 17.9462C29.9455 18.5505 29.8791 19.0685 29.7994 19.7193C29.6865 18.9822 29.7396 18.3115 29.4673 17.8267C29.2017 17.3486 28.604 17.0564 28.1724 16.6978C28.531 16.804 28.9427 16.9302 29.3677 17.0564C29.4474 16.5517 29.5204 16.0934 29.5869 15.6352L29.7263 15.6153C29.3943 16.8903 30.1513 17.7005 30.9881 18.4775L30.8553 18.5572Z" fill="#FF007A"/>
</svg>
