<svg width="70" height="70" viewBox="0 0 70 70" fill="none" xmlns="http://www.w3.org/2000/svg">
<rect x="0.5" y="0.5" width="69" height="69" rx="33.5" fill="white" stroke="#F6F9FA"/>
<path d="M39.0656 30.8424V25.8526H50.2753V18.25H19.751V25.8526H30.962V30.8383C21.8508 31.2643 15 33.1011 15 35.3014C15 37.5018 21.8541 39.3386 30.962 39.7672V55.75H39.0683V39.7659C48.1631 39.3386 55 37.5031 55 35.3048C55 33.1064 48.1631 31.271 39.0683 30.8437L39.0656 30.8424ZM39.0683 38.4121V38.4081C38.8396 38.4229 37.6645 38.4946 35.0481 38.4946C32.9563 38.4946 31.4847 38.4343 30.966 38.4068V38.4135C22.9164 38.0505 16.9079 36.6237 16.9079 34.9164C16.9079 33.2091 22.9171 31.7842 30.966 31.4206V36.992C31.4932 37.0288 33.0011 37.1194 35.0824 37.1194C37.5821 37.1194 38.8389 37.0134 39.0696 36.992V31.4206C47.1033 31.7849 53.098 33.2131 53.098 34.9144C53.098 36.6156 47.1007 38.0445 39.0696 38.4088" fill="#53AE94"/>
</svg>
