<svg width="70" height="70" viewBox="0 0 70 70" fill="none" xmlns="http://www.w3.org/2000/svg">
<rect x="0.5" y="0.5" width="69" height="69" rx="33.5" fill="white" stroke="#F6F9FA"/>
<path fill-rule="evenodd" clip-rule="evenodd" d="M37.2 28.5628L45.3 24.1307V32.995L37.2 28.5628ZM45.3 47.5578L34.5 53.4673L23.7 47.5578V37.2161L34.5 43.1256L45.3 37.2161V47.5578ZM23.7 24.1307L31.8 28.5628L23.7 32.995V24.1307ZM35.85 30.6734L43.95 35.1055L35.85 39.5377V30.6734ZM33.15 39.5377L25.05 35.1055L33.15 30.6734V39.5377ZM43.95 22.0201L34.5 27.0854L25.05 22.0201L34.5 16.7437L43.95 22.0201ZM21 21.1759V48.8241L34.5 56L48 48.8241V21.1759L34.5 14L21 21.1759Z" fill="#13B5EC"/>
</svg>
