<svg width="200" height="200" viewBox="0 0 200 200" fill="none" xmlns="http://www.w3.org/2000/svg">
<circle cx="100" cy="100" r="100" fill="white"/>
<path d="M83.4644 40L108.471 58.398L115.605 72.5156L130.023 78.2979L147.369 118.023L135.279 154.518L125.066 160L132.275 120.801L114.253 93.7672L98.6333 87.4593L97.4318 62.5282L83.4644 40Z" fill="#21B3D3" stroke="#21B3D3" stroke-width="6" stroke-miterlimit="10" stroke-linejoin="round"/>
<path d="M125.066 160L132.275 120.801L114.253 93.7672L98.6333 87.4593L74.5282 115.77L56.7309 114.643L52 131.389L63.8648 160H125.066Z" fill="#3FDCFF" stroke="#3FDCFF" stroke-width="6" stroke-miterlimit="10" stroke-linejoin="round"/>
<path d="M83.4643 40L77.607 44.1302L69.2716 69.5119L53.8773 90.1627L56.7309 114.643L74.5281 115.77L98.6333 87.4593L97.4318 62.5282L83.4643 40Z" fill="#67E3FF" stroke="#67E3FF" stroke-width="6" stroke-miterlimit="10" stroke-linejoin="round"/>
</svg>
