<svg width="173" height="55" viewBox="0 0 173 55" fill="none" xmlns="http://www.w3.org/2000/svg">
<path d="M57.2641 13.2828L1.21575 27.3689C1.08892 27.4007 1 27.5148 1 27.6455C1 27.8277 1.16835 27.9632 1.34627 27.9242L57.8016 15.5699C58.4549 15.427 58.8573 14.7683 58.6862 14.1218C58.5218 13.5 57.8879 13.1261 57.2641 13.2828Z" fill="#252423" stroke="#252423"/>
<rect width="37" height="37" rx="4" transform="matrix(1 0 0 -1 11 46)" fill="#F6F9FA"/>
<g filter="url(#filter0_d)">
<rect x="12" y="9.99976" width="35" height="35" rx="4" fill="#F6F9FA"/>
</g>
<rect x="21" y="18.9998" width="17" height="17" rx="3" fill="#2BD2F7" stroke="#252423" stroke-width="2"/>
<mask id="mask0" mask-type="alpha" maskUnits="userSpaceOnUse" x="22" y="20" width="15" height="15">
<rect x="22" y="20" width="15" height="15" rx="2" fill="#2BD2F7"/>
</mask>
<g mask="url(#mask0)">
<path d="M32.4481 20.2245C34.7079 20.0243 36.8247 20.2817 38.9987 20.5964C38.827 20.1673 38.684 19.7668 38.5124 19.3378C33.907 18.1936 28.5292 19.2233 24.4672 21.2543C23.5233 21.7406 22.6079 22.2841 21.7498 22.9134C21.1204 23.9718 20.4911 25.0588 19.8618 26.1458C21.3207 24.7155 22.9512 23.4855 24.7533 22.5415C27.1275 21.2829 29.7592 20.482 32.4481 20.2245Z" fill="#74E6FF"/>
<path d="M34.193 26.6319C36.4528 26.1742 38.684 26.0598 40.9152 25.9739C40.8008 25.6021 40.6578 25.2302 40.5434 24.8583C38.4266 24.7725 36.2812 25.0586 34.2502 25.4304C31.1036 26.0025 28.0143 27.0037 25.1538 28.4054C22.1502 29.8642 19.2897 31.7522 16.7725 34.0406C16.7725 34.6127 16.8297 35.1562 16.9727 35.6997C19.49 33.2397 22.3791 31.1801 25.6115 29.5782C28.3576 28.2624 31.2467 27.2612 34.193 26.6319Z" fill="#74E6FF"/>
<path d="M42.4027 31.6951C42.3455 31.3519 42.2883 30.98 42.2311 30.6367C36.51 30.2935 30.5888 31.7523 25.5828 34.4126C23.2086 35.6712 21.006 37.2445 19.0037 39.0466C19.0895 39.1325 19.1753 39.2183 19.2611 39.3041C19.4899 39.5043 19.7474 39.7046 19.9762 39.9048C21.8356 38.2457 23.8665 36.8154 26.0405 35.614C31.1609 32.7821 36.7103 31.6951 42.4027 31.6951Z" fill="#74E6FF"/>
</g>
<path d="M63.0247 21.3831L1.23138 39.2791C1.09432 39.3188 1 39.4443 1 39.587C1 39.7963 1.1973 39.9495 1.40005 39.8976L63.7227 23.9424C64.4294 23.7615 64.8574 23.0439 64.6808 22.3361C64.4987 21.6064 63.747 21.1739 63.0247 21.3831Z" fill="#252423" stroke="#252423"/>
<path d="M78.9679 18.2479V28.6159C78.9679 29.7519 79.2639 30.6239 79.8559 31.2319C80.4479 31.8239 81.2799 32.1199 82.3519 32.1199C83.4399 32.1199 84.2799 31.8239 84.8719 31.2319C85.4639 30.6239 85.7599 29.7519 85.7599 28.6159V18.2479H89.1439V28.5919C89.1439 30.0159 88.8319 31.2239 88.2079 32.2159C87.5999 33.1919 86.7759 33.9279 85.7359 34.4239C84.7119 34.9199 83.5679 35.1679 82.3039 35.1679C81.0559 35.1679 79.9199 34.9199 78.8959 34.4239C77.8879 33.9279 77.0879 33.1919 76.4959 32.2159C75.9039 31.2239 75.6079 30.0159 75.6079 28.5919V18.2479H78.9679Z" fill="#252423"/>
<path d="M96.3503 23.7679C96.7823 23.0639 97.3423 22.5119 98.0303 22.1119C98.7343 21.7119 99.5343 21.5119 100.43 21.5119V25.0399H99.5423C98.4863 25.0399 97.6863 25.2879 97.1423 25.7839C96.6143 26.2799 96.3503 27.1439 96.3503 28.3759V34.9999H92.9903V21.7039H96.3503V23.7679Z" fill="#252423"/>
<path d="M102.429 28.3039C102.429 26.9599 102.693 25.7679 103.221 24.7279C103.765 23.6879 104.493 22.8879 105.405 22.3279C106.333 21.7679 107.365 21.4879 108.501 21.4879C109.493 21.4879 110.357 21.6879 111.093 22.0879C111.845 22.4879 112.445 22.9919 112.893 23.5999V21.7039H116.277V34.9999H112.893V33.0559C112.461 33.6799 111.861 34.1999 111.093 34.6159C110.341 35.0159 109.469 35.2159 108.477 35.2159C107.357 35.2159 106.333 34.9279 105.405 34.3519C104.493 33.7759 103.765 32.9679 103.221 31.9279C102.693 30.8719 102.429 29.6639 102.429 28.3039ZM112.893 28.3519C112.893 27.5359 112.733 26.8399 112.413 26.2639C112.093 25.6719 111.661 25.2239 111.117 24.9199C110.573 24.5999 109.989 24.4399 109.365 24.4399C108.741 24.4399 108.165 24.5919 107.637 24.8959C107.109 25.1999 106.677 25.6479 106.341 26.2399C106.021 26.8159 105.861 27.5039 105.861 28.3039C105.861 29.1039 106.021 29.8079 106.341 30.4159C106.677 31.0079 107.109 31.4639 107.637 31.7839C108.181 32.1039 108.757 32.2639 109.365 32.2639C109.989 32.2639 110.573 32.1119 111.117 31.8079C111.661 31.4879 112.093 31.0399 112.413 30.4639C112.733 29.8719 112.893 29.1679 112.893 28.3519Z" fill="#252423"/>
<path d="M136.815 18.4399V34.9999H135.135V21.7759L129.231 34.9999H128.007L122.103 21.8239V34.9999H120.423V18.4399H122.199L128.607 32.7919L135.015 18.4399H136.815Z" fill="#252423"/>
<path d="M140.458 28.4239C140.458 27.0799 140.722 25.9039 141.25 24.8959C141.794 23.8719 142.538 23.0879 143.482 22.5439C144.442 21.9839 145.522 21.7039 146.722 21.7039C147.97 21.7039 149.042 21.9919 149.938 22.5679C150.85 23.1439 151.506 23.8799 151.906 24.7759V21.8959H153.586V34.9999H151.906V32.0959C151.49 32.9919 150.826 33.7359 149.914 34.3279C149.018 34.9039 147.946 35.1919 146.698 35.1919C145.514 35.1919 144.442 34.9119 143.482 34.3519C142.538 33.7919 141.794 32.9999 141.25 31.9759C140.722 30.9519 140.458 29.7679 140.458 28.4239ZM151.906 28.4479C151.906 27.3919 151.69 26.4639 151.258 25.6639C150.826 24.8639 150.234 24.2479 149.482 23.8159C148.746 23.3839 147.93 23.1679 147.034 23.1679C146.106 23.1679 145.274 23.3759 144.538 23.7919C143.802 24.2079 143.218 24.8159 142.786 25.6159C142.37 26.3999 142.162 27.3359 142.162 28.4239C142.162 29.4959 142.37 30.4399 142.786 31.2559C143.218 32.0559 143.802 32.6719 144.538 33.1039C145.274 33.5199 146.106 33.7279 147.034 33.7279C147.93 33.7279 148.746 33.5119 149.482 33.0799C150.234 32.6479 150.826 32.0319 151.258 31.2319C151.69 30.4319 151.906 29.5039 151.906 28.4479Z" fill="#252423"/>
<path d="M165.101 34.9999L159.701 29.1199V34.9999H158.021V17.2399H159.701V27.7519L164.981 21.8959H167.333L161.117 28.4239L167.381 34.9999H165.101Z" fill="#252423"/>
<path d="M170.993 19.4239C170.657 19.4239 170.369 19.3039 170.129 19.0639C169.889 18.8239 169.769 18.5279 169.769 18.1759C169.769 17.8239 169.889 17.5359 170.129 17.3119C170.369 17.0719 170.657 16.9519 170.993 16.9519C171.329 16.9519 171.617 17.0719 171.857 17.3119C172.097 17.5359 172.217 17.8239 172.217 18.1759C172.217 18.5279 172.097 18.8239 171.857 19.0639C171.617 19.3039 171.329 19.4239 170.993 19.4239ZM171.833 21.8959V34.9999H170.153V21.8959H171.833Z" fill="#252423"/>
<defs>
<filter id="filter0_d" x="2" y="-0.000244141" width="55" height="55" filterUnits="userSpaceOnUse" color-interpolation-filters="sRGB">
<feFlood flood-opacity="0" result="BackgroundImageFix"/>
<feColorMatrix in="SourceAlpha" type="matrix" values="0 0 0 0 0 0 0 0 0 0 0 0 0 0 0 0 0 0 127 0"/>
<feOffset/>
<feGaussianBlur stdDeviation="5"/>
<feColorMatrix type="matrix" values="0 0 0 0 0.168627 0 0 0 0 0.823529 0 0 0 0 0.968627 0 0 0 0.4 0"/>
<feBlend mode="normal" in2="BackgroundImageFix" result="effect1_dropShadow"/>
<feBlend mode="normal" in="SourceGraphic" in2="effect1_dropShadow" result="shape"/>
</filter>
</defs>
</svg>
