<svg width="26" height="19" viewBox="0 0 26 19" fill="none" xmlns="http://www.w3.org/2000/svg">
<path d="M11.6997 15.5999C12.106 15.5999 12.4716 15.9249 12.4716 16.3718C12.4716 16.7781 12.1466 17.1437 11.6997 17.1437C11.2935 17.1437 10.9279 16.8187 10.9279 16.3718C10.9279 15.9249 11.2935 15.5999 11.6997 15.5999ZM23.6435 10.8874C23.2372 10.8874 22.8716 10.5624 22.8716 10.1156C22.8716 9.66869 23.1966 9.34369 23.6435 9.34369C24.0497 9.34369 24.4154 9.66869 24.4154 10.1156C24.4154 10.5624 24.0497 10.8874 23.6435 10.8874ZM23.6435 7.75931C22.3435 7.75931 21.2872 8.81556 21.2872 10.1156C21.2872 10.3593 21.3279 10.6031 21.4091 10.8468L13.6497 15.0312C13.2029 14.3812 12.4716 14.0156 11.6997 14.0156C10.806 14.0156 9.99348 14.5437 9.58723 15.3156L2.59973 11.6187C1.86848 11.2124 1.29973 10.0343 1.38098 8.89681C1.42161 8.32806 1.62473 7.88119 1.90911 7.71869C2.11223 7.59681 2.31536 7.63744 2.59973 7.75931L2.64036 7.79994C4.50911 8.77494 10.5622 11.9437 10.806 12.0656C11.2122 12.2281 11.4154 12.3093 12.106 11.9843L24.6185 5.48431C24.8216 5.40306 25.0247 5.24056 25.0247 4.95619C25.0247 4.59056 24.6591 4.42806 24.6591 4.42806C23.9279 4.10306 22.831 3.57494 21.7747 3.08744C19.4997 2.03119 16.8997 0.812437 15.7622 0.203062C14.7872 -0.325063 13.9747 0.121812 13.8529 0.203062L13.5279 0.406187C8.40911 2.92494 1.58411 6.29681 1.17786 6.54056C0.487231 6.94681 0.0403564 7.79994 -0.000268622 8.85619C-0.0815186 10.5218 0.771606 12.2687 1.99036 12.8781L9.38411 16.6968C9.54661 17.8343 10.5622 18.7281 11.6997 18.7281C12.9997 18.7281 14.0154 17.7124 14.056 16.4124L22.181 12.0249C22.5872 12.3499 23.1154 12.5124 23.6435 12.5124C24.9435 12.5124 25.9997 11.4562 25.9997 10.1562C25.9997 8.81556 24.9435 7.75931 23.6435 7.75931Z" fill="white"/>
</svg>
