<svg width="24" height="14" viewBox="0 0 24 14" fill="none" xmlns="http://www.w3.org/2000/svg">
<path d="M13.5376 6.81535C13.5376 10.5793 10.507 13.6305 6.7689 13.6305C3.03076 13.6305 0 10.5793 0 6.81535C0 3.05146 3.03053 0 6.7689 0C10.5073 0 13.5376 3.05146 13.5376 6.81535Z" fill="white"/>
<path d="M20.963 6.81505C20.963 10.358 19.4477 13.2312 17.5785 13.2312C15.7094 13.2312 14.1941 10.358 14.1941 6.81505C14.1941 3.27215 15.7091 0.398926 17.5783 0.398926C19.4475 0.398926 20.9628 3.27123 20.9628 6.81505" fill="white"/>
<path d="M24 6.81522C24 9.98879 23.4672 12.5631 22.8097 12.5631C22.1522 12.5631 21.6196 9.98948 21.6196 6.81522C21.6196 3.64096 22.1525 1.06738 22.8097 1.06738C23.467 1.06738 24 3.64073 24 6.81522Z" fill="white"/>
</svg>
