<svg width="24" height="22" viewBox="0 0 24 22" fill="none" xmlns="http://www.w3.org/2000/svg">
<path d="M24 10.7832C24 9.28549 22.8019 8.08736 21.3042 8.23713C20.7051 8.23713 19.9563 8.53666 19.507 8.98596C17.4103 7.63807 15.014 6.73947 12.468 6.73947L13.6661 1.04836L17.5601 1.94696C17.5601 2.99532 18.4587 3.74415 19.507 3.74415C20.5554 3.74415 21.3042 2.84555 21.3042 1.79719C21.3042 0.74883 20.4056 0 19.3573 0C18.6084 0 18.0094 0.449298 17.7098 1.04836L13.5164 0H13.2168C13.0671 0 13.0671 0.149766 13.0671 0.299532L11.5694 6.73947C9.0234 6.73947 6.62715 7.4883 4.53042 8.98596C3.48206 7.9376 1.83463 7.9376 0.786271 8.98596C-0.262091 10.0343 -0.262091 11.6817 0.786271 12.7301C0.936037 12.8799 1.23557 13.1794 1.5351 13.1794V13.9282C1.5351 17.9719 6.17785 21.2668 12.0187 21.2668C17.8596 21.2668 22.5023 17.9719 22.5023 13.9282V13.1794C23.4009 12.7301 24 11.8315 24 10.7832ZM6.02808 12.7301C6.02808 11.6817 6.92668 10.9329 7.82527 10.9329C8.87364 10.9329 9.62246 11.8315 9.62246 12.7301C9.62246 13.6287 8.72387 14.5273 7.82527 14.5273C6.77691 14.5273 6.02808 13.7785 6.02808 12.7301ZM16.5117 17.6724C15.1638 18.571 13.6661 19.17 12.0187 19.0203C10.3713 19.0203 8.87364 18.571 7.52574 17.6724C7.37598 17.5226 7.37598 17.2231 7.52574 16.9236C7.67551 16.7738 7.97504 16.7738 8.12481 16.9236C9.17317 17.6724 10.5211 18.1217 11.869 17.9719C13.2168 18.1217 14.5647 17.6724 15.6131 16.9236C15.7629 16.7738 16.0624 16.7738 16.3619 16.9236C16.6615 17.0733 16.6615 17.3729 16.5117 17.6724ZM16.0624 14.5273C15.014 14.5273 14.2652 13.6287 14.2652 12.7301C14.2652 11.8315 15.1638 10.9329 16.0624 10.9329C17.1108 10.9329 17.8596 11.8315 17.8596 12.7301C18.0094 13.7785 17.1108 14.5273 16.0624 14.5273Z" fill="white"/>
</svg>
