<svg width="14" height="20" viewBox="0 0 14 20" fill="none" xmlns="http://www.w3.org/2000/svg">
<path d="M10.9384 0.0855473C11.0607 0.156466 11.1554 0.266775 11.2069 0.398452C11.2584 0.530128 11.2638 0.67539 11.2221 0.810506L8.97099 8.12509H13.1245C13.2466 8.12504 13.366 8.16074 13.468 8.22777C13.57 8.29481 13.6501 8.39025 13.6985 8.50231C13.7469 8.61437 13.7614 8.73815 13.7403 8.85836C13.7191 8.97858 13.6632 9.08997 13.5795 9.17878L3.58005 19.8032C3.48329 19.9061 3.35454 19.9731 3.21478 19.9935C3.07502 20.0138 2.93249 19.9862 2.81043 19.9152C2.68836 19.8442 2.59395 19.7339 2.54259 19.6023C2.49123 19.4707 2.48595 19.3257 2.52761 19.1907L4.77873 11.8749H0.625214C0.503152 11.8749 0.383748 11.8392 0.281741 11.7722C0.179734 11.7052 0.09959 11.6097 0.0512028 11.4977C0.00281557 11.3856 -0.0116968 11.2618 0.00945716 11.1416C0.0306111 11.0214 0.0865051 10.91 0.17024 10.8212L10.1697 0.196791C10.2663 0.0940457 10.3949 0.0270114 10.5344 0.00658749C10.674 -0.0138364 10.8164 0.0135512 10.9384 0.0842974V0.0855473Z" fill="white"/>
</svg>
